<svg width="603" height="237" viewBox="0 0 603 237" fill="none" xmlns="http://www.w3.org/2000/svg">
<ellipse cx="155" cy="118.5" rx="155" ry="118.5" fill="#FF4E4E"/>
<ellipse cx="140" cy="118" rx="140" ry="113" fill="#FCE607"/>
<path d="M23.824 156V103.2H14.352V90.592H23.824V80.224C23.824 75.2747 25.1467 71.4773 27.792 68.832C30.4373 66.1867 34.2347 64.864 39.184 64.864C41.7867 64.864 44.176 65.12 46.352 65.632C48.5707 66.144 50.704 66.9547 52.752 68.064V79.84C50.96 79.072 49.296 78.496 47.76 78.112C46.2667 77.728 44.816 77.536 43.408 77.536C41.616 77.536 40.2933 77.9627 39.44 78.816C38.5867 79.6693 38.16 81.056 38.16 82.976V90.592H52.752V103.2H38.16V156H23.824ZM88.221 157.536C79.0903 157.536 71.901 154.485 66.653 148.384C61.405 142.283 58.781 133.941 58.781 123.36C58.781 116.32 59.9757 110.24 62.365 105.12C64.7543 100 68.1463 96.0533 72.541 93.28C76.9783 90.464 82.205 89.056 88.221 89.056C94.2797 89.056 99.5063 90.4427 103.901 93.216C108.296 95.9893 111.688 99.936 114.077 105.056C116.466 110.176 117.661 116.256 117.661 123.296C117.661 130.336 116.466 136.416 114.077 141.536C111.688 146.656 108.296 150.603 103.901 153.376C99.5063 156.149 94.2797 157.536 88.221 157.536ZM88.221 143.904C92.957 143.904 96.6477 142.091 99.293 138.464C101.938 134.837 103.261 129.781 103.261 123.296C103.261 116.768 101.917 111.691 99.229 108.064C96.5837 104.437 92.9143 102.624 88.221 102.624C83.5277 102.624 79.837 104.459 77.149 108.128C74.5037 111.755 73.181 116.832 73.181 123.36C73.181 129.803 74.5037 134.837 77.149 138.464C79.837 142.091 83.5277 143.904 88.221 143.904ZM161.471 157.536C152.34 157.536 145.151 154.485 139.903 148.384C134.655 142.283 132.031 133.941 132.031 123.36C132.031 116.32 133.226 110.24 135.615 105.12C138.004 100 141.396 96.0533 145.791 93.28C150.228 90.464 155.455 89.056 161.471 89.056C167.53 89.056 172.756 90.4427 177.151 93.216C181.546 95.9893 184.938 99.936 187.327 105.056C189.716 110.176 190.911 116.256 190.911 123.296C190.911 130.336 189.716 136.416 187.327 141.536C184.938 146.656 181.546 150.603 177.151 153.376C172.756 156.149 167.53 157.536 161.471 157.536ZM161.471 143.904C166.207 143.904 169.898 142.091 172.543 138.464C175.188 134.837 176.511 129.781 176.511 123.296C176.511 116.768 175.167 111.691 172.479 108.064C169.834 104.437 166.164 102.624 161.471 102.624C156.778 102.624 153.087 104.459 150.399 108.128C147.754 111.755 146.431 116.832 146.431 123.36C146.431 129.803 147.754 134.837 150.399 138.464C153.087 142.091 156.778 143.904 161.471 143.904ZM232.225 157.536C223.82 157.536 217.228 154.485 212.449 148.384C207.67 142.283 205.281 133.899 205.281 123.232C205.281 116.363 206.39 110.368 208.609 105.248C210.87 100.085 214.006 96.096 218.017 93.28C222.07 90.464 226.828 89.056 232.289 89.056C238.348 89.056 243.361 91.1467 247.329 95.328V70.176L261.729 63.584V156H247.329V150.752C243.83 155.275 238.796 157.536 232.225 157.536ZM234.465 143.904C237.324 143.904 239.82 143.328 241.953 142.176C244.129 141.024 245.921 139.339 247.329 137.12V109.28C245.921 107.232 244.065 105.611 241.761 104.416C239.5 103.221 237.068 102.624 234.465 102.624C229.772 102.624 226.124 104.395 223.521 107.936C220.961 111.477 219.681 116.576 219.681 123.232C219.681 127.499 220.278 131.168 221.473 134.24C222.668 137.312 224.374 139.701 226.593 141.408C228.812 143.072 231.436 143.904 234.465 143.904ZM334.098 157.536C329.191 157.536 324.477 156.491 319.954 154.4C315.431 152.267 311.805 149.429 309.074 145.888L318.674 137.696C320.935 140.043 323.474 141.899 326.29 143.264C329.106 144.629 331.858 145.312 334.546 145.312C337.959 145.312 340.605 144.715 342.482 143.52C344.359 142.283 345.298 140.555 345.298 138.336C345.298 136.971 344.871 135.733 344.018 134.624C343.165 133.472 341.671 132.341 339.538 131.232C337.405 130.123 334.461 128.864 330.706 127.456C323.367 124.768 318.162 121.867 315.09 118.752C312.018 115.595 310.482 111.648 310.482 106.912C310.482 101.579 312.615 97.2693 316.882 93.984C321.149 90.6987 326.695 89.056 333.522 89.056C338.173 89.056 342.461 89.952 346.386 91.744C350.354 93.4933 353.767 96.032 356.626 99.36L347.09 107.232C343.207 103.264 338.599 101.28 333.266 101.28C330.407 101.28 328.125 101.835 326.418 102.944C324.711 104.011 323.858 105.44 323.858 107.232C323.858 109.024 324.839 110.624 326.802 112.032C328.807 113.397 332.477 114.997 337.81 116.832C342.674 118.453 346.642 120.267 349.714 122.272C352.829 124.277 355.09 126.581 356.498 129.184C357.949 131.787 358.674 134.795 358.674 138.208C358.674 144.224 356.477 148.96 352.082 152.416C347.73 155.829 341.735 157.536 334.098 157.536ZM392.553 157.536C387.604 157.536 383.87 156.128 381.353 153.312C378.836 150.496 377.577 146.379 377.577 140.96V103.2H367.657V90.592H377.577V70.432L391.913 63.584V90.592H407.145V103.2H391.913V137.824C391.913 140.171 392.361 141.92 393.257 143.072C394.196 144.181 395.625 144.736 397.545 144.736C400.66 144.736 404.052 143.712 407.721 141.664L406.121 154.592C404.116 155.573 402.004 156.299 399.785 156.768C397.566 157.28 395.156 157.536 392.553 157.536ZM448.471 157.536C439.34 157.536 432.151 154.485 426.903 148.384C421.655 142.283 419.031 133.941 419.031 123.36C419.031 116.32 420.226 110.24 422.615 105.12C425.004 100 428.396 96.0533 432.791 93.28C437.228 90.464 442.455 89.056 448.471 89.056C454.53 89.056 459.756 90.4427 464.151 93.216C468.546 95.9893 471.938 99.936 474.327 105.056C476.716 110.176 477.911 116.256 477.911 123.296C477.911 130.336 476.716 136.416 474.327 141.536C471.938 146.656 468.546 150.603 464.151 153.376C459.756 156.149 454.53 157.536 448.471 157.536ZM448.471 143.904C453.207 143.904 456.898 142.091 459.543 138.464C462.188 134.837 463.511 129.781 463.511 123.296C463.511 116.768 462.167 111.691 459.479 108.064C456.834 104.437 453.164 102.624 448.471 102.624C443.778 102.624 440.087 104.459 437.399 108.128C434.754 111.755 433.431 116.832 433.431 123.36C433.431 129.803 434.754 134.837 437.399 138.464C440.087 142.091 443.778 143.904 448.471 143.904ZM493.74 156V90.592H508.076V98.144C509.356 95.328 511.276 93.1093 513.836 91.488C516.439 89.8667 519.297 89.056 522.412 89.056C526.807 89.056 530.519 90.4853 533.548 93.344L531.564 106.592C529.943 105.312 528.321 104.395 526.7 103.84C525.079 103.285 523.287 103.008 521.324 103.008C518.593 103.008 516.247 103.691 514.284 105.056C512.321 106.421 510.785 108.363 509.676 110.88C508.609 113.397 508.076 116.384 508.076 119.84V156H493.74ZM568.919 157.536C562.732 157.536 557.399 156.107 552.919 153.248C548.439 150.389 545.004 146.4 542.615 141.28C540.226 136.117 539.031 130.101 539.031 123.232C539.031 116.107 540.268 110.005 542.743 104.928C545.218 99.808 548.695 95.8827 553.175 93.152C557.655 90.4213 562.903 89.056 568.919 89.056C574.082 89.056 578.775 90.1653 582.999 92.384C587.266 94.6027 590.658 98.016 593.175 102.624C595.692 107.189 596.951 113.013 596.951 120.096C596.951 121.205 596.93 122.528 596.887 124.064C596.844 125.557 596.716 127.072 596.503 128.608H553.303C553.559 131.936 554.348 134.837 555.671 137.312C557.036 139.787 558.85 141.728 561.111 143.136C563.372 144.501 566.039 145.184 569.111 145.184C572.098 145.184 574.743 144.693 577.047 143.712C579.351 142.688 581.548 141.067 583.639 138.848L591.959 147.616C589.271 150.56 585.986 152.949 582.103 154.784C578.263 156.619 573.868 157.536 568.919 157.536ZM553.367 117.024H582.871C582.743 113.909 582.103 111.179 580.951 108.832C579.842 106.485 578.263 104.672 576.215 103.392C574.167 102.069 571.671 101.408 568.727 101.408C564.631 101.408 561.132 102.688 558.231 105.248C555.372 107.808 553.751 111.733 553.367 117.024Z" fill="#38595E"/>
</svg>
