<?xml version="1.0" standalone="no"?>
<!DOCTYPE svg PUBLIC "-//W3C//DTD SVG 1.1//EN" "http://www.w3.org/Graphics/SVG/1.1/DTD/svg11.dtd" >
<svg xmlns="http://www.w3.org/2000/svg" xmlns:xlink="http://www.w3.org/1999/xlink" version="1.1">
<metadata>
Created by FontForge 20170731 at Mon Aug 16 18:40:04 2021
 By Aleksey,,,
Copyright 2021 The Overpass Project Authors (https://github.com/RedHatOfficial/Overpass)
</metadata>
<defs>
<font id="Overpass-ThinItalic" horiz-adv-x="0" >
  <font-face 
    font-family="Overpass Thin"
    font-weight="250"
    font-style="italic"
    font-stretch="normal"
    units-per-em="2000"
    panose-1="0 0 0 0 0 0 0 0 0 0"
    ascent="1600"
    descent="-400"
    x-height="1022"
    cap-height="1400"
    bbox="-248 -756 2514 2276"
    underline-thickness="168"
    underline-position="-440"
    slope="-10"
    unicode-range="U+000D-1F427"
  />
<missing-glyph horiz-adv-x="1232" 
d="M298 0v1400h808v-1400h-808zM370 66h664v1268h-664v-1268zM1010 36l-696 1328h78l696 -1328h-78zM314 36l696 1328h78l-696 -1328h-78z" />
    <glyph glyph-name="fi" unicode="fi" horiz-adv-x="1050" 
d="M202 0l168 956h-160l12 66h160l32 184q20 111 74.5 164.5t147.5 53.5q32 0 63.5 -8.5t56.5 -23.5l-12 -64q-33 17 -58 23.5t-54 6.5q-64 0 -97.5 -36.5t-48.5 -123.5l-30 -176h236l-12 -66h-236l-168 -956h-74zM766 0l180 1022h72l-178 -1022h-74zM1020 1246
q-21 0 -34.5 14t-13.5 36q0 30 20 50t48 20q21 0 34.5 -14t13.5 -38q0 -28 -19 -48t-49 -20z" />
    <glyph glyph-name="fl" unicode="fl" horiz-adv-x="1038" 
d="M202 0l168 956h-160l12 66h160l32 184q20 111 74.5 164.5t147.5 53.5q32 0 63.5 -8.5t56.5 -23.5l-12 -64q-33 17 -58 23.5t-54 6.5q-64 0 -97.5 -36.5t-48.5 -123.5l-30 -176h236l-12 -66h-236l-168 -956h-74zM762 0l248 1408l78 36l-252 -1444h-74z" />
    <glyph glyph-name="f_f" unicode="ff" horiz-adv-x="1218" 
d="M202 0l168 956h-160l12 66h160l32 184q20 111 74.5 164.5t147.5 53.5q32 0 63.5 -8.5t56.5 -23.5l-12 -64q-33 17 -58 23.5t-54 6.5q-64 0 -97.5 -36.5t-48.5 -123.5l-30 -176h236l-12 -66h-236l-168 -956h-74zM826 0l168 956h-160l12 66h160l32 184q20 111 74.5 164.5
t147.5 53.5q32 0 63.5 -8.5t56.5 -23.5l-12 -64q-33 17 -58 23.5t-54 6.5q-64 0 -97.5 -36.5t-48.5 -123.5l-30 -176h236l-12 -66h-236l-168 -956h-74z" />
    <glyph glyph-name="f_f_i" unicode="ffi" horiz-adv-x="1674" 
d="M202 0l168 956h-160l12 66h160l32 184q20 111 74.5 164.5t147.5 53.5q32 0 63.5 -8.5t56.5 -23.5l-12 -64q-33 17 -58 23.5t-54 6.5q-64 0 -97.5 -36.5t-48.5 -123.5l-30 -176h236l-12 -66h-236l-168 -956h-74zM826 0l168 956h-160l12 66h160l32 184q20 111 74.5 164.5
t147.5 53.5q32 0 63.5 -8.5t56.5 -23.5l-12 -64q-33 17 -58 23.5t-54 6.5q-64 0 -97.5 -36.5t-48.5 -123.5l-30 -176h236l-12 -66h-236l-168 -956h-74zM1390 0l180 1022h72l-178 -1022h-74zM1644 1246q-21 0 -34.5 14t-13.5 36q0 30 20 50t48 20q21 0 34.5 -14t13.5 -38
q0 -28 -19 -48t-49 -20z" />
    <glyph glyph-name="f_f_l" unicode="ffl" horiz-adv-x="1662" 
d="M202 0l168 956h-160l12 66h160l32 184q20 111 74.5 164.5t147.5 53.5q32 0 63.5 -8.5t56.5 -23.5l-12 -64q-33 17 -58 23.5t-54 6.5q-64 0 -97.5 -36.5t-48.5 -123.5l-30 -176h236l-12 -66h-236l-168 -956h-74zM826 0l168 956h-160l12 66h160l32 184q20 111 74.5 164.5
t147.5 53.5q32 0 63.5 -8.5t56.5 -23.5l-12 -64q-33 17 -58 23.5t-54 6.5q-64 0 -97.5 -36.5t-48.5 -123.5l-30 -176h236l-12 -66h-236l-168 -956h-74zM1386 0l248 1408l78 36l-252 -1444h-74z" />
    <glyph glyph-name="uniFDFC" unicode="&#xfdfc;" horiz-adv-x="1866" arabic-form="isolated" 
d="M418 -114q-132 0 -204 83t-72 243q0 125 28 225.5t68 202.5l60 -36q-34 -90 -58 -183t-24 -209q0 -111 52 -174.5t152 -63.5q67 0 112.5 26.5t68.5 69.5t23 92v1246l72 36v-1282q0 -81 -32.5 -143t-94.5 -97.5t-151 -35.5zM970 -34l-44 100l104 48l44 -100zM1310 -34
l-44 100l104 48l44 -100zM1030 -426l-52 88q180 15 307 47t206 86.5t116 136t37 196.5v460l72 36v-496q0 -182 -71 -297t-222.5 -176t-392.5 -81zM1170 364q-112 0 -170 70t-58 196v778l72 36v-814q0 -81 38 -129.5t116 -48.5t117 48.5t39 129.5v260l72 36v-296
q0 -126 -56.5 -196t-169.5 -70z" />
    <glyph glyph-name=".notdef" horiz-adv-x="1232" 
d="M298 0v1400h808v-1400h-808zM370 66h664v1268h-664v-1268zM1010 36l-696 1328h78l696 -1328h-78zM314 36l696 1328h78l-696 -1328h-78z" />
    <glyph glyph-name=".null" 
 />
    <glyph glyph-name="nonmarkingreturn" horiz-adv-x="666" 
 />
    <glyph glyph-name="CR" unicode="&#xd;" horiz-adv-x="440" 
 />
    <glyph glyph-name="space" unicode=" " horiz-adv-x="440" 
 />
    <glyph glyph-name="exclam" unicode="!" horiz-adv-x="492" 
d="M272 386l66 534l88 504h78l-88 -504l-124 -534h-20zM210 -28q-21 0 -35.5 15t-14.5 37q0 27 20.5 47.5t47.5 20.5q23 0 36.5 -15.5t13.5 -38.5q0 -27 -19.5 -46.5t-48.5 -19.5z" />
    <glyph glyph-name="quotedbl" unicode="&#x22;" horiz-adv-x="684" 
d="M584 866l94 534h76l-94 -534h-76zM248 866l94 534h76l-94 -534h-76z" />
    <glyph glyph-name="numbersign" unicode="#" horiz-adv-x="1322" 
d="M284 0l132 436h-242l22 72h240l124 406h-242l22 72h240l124 414h76l-124 -414h374l124 414h84l-124 -414h236l-20 -72h-236l-124 -406h238l-22 -72h-236l-130 -436h-84l130 436h-374l-130 -436h-78zM512 508h374l124 406h-374z" />
    <glyph glyph-name="dollar" unicode="$" horiz-adv-x="1136" 
d="M476 -196l30 174q-95 8 -164.5 50t-113.5 106t-62 138l74 24q33 -120 110.5 -184t213.5 -64q105 0 193 40.5t140.5 117.5t52.5 188q0 92 -43.5 152t-111.5 101.5t-143 78.5t-144.5 79t-113.5 103.5t-44 157.5q0 98 48.5 177.5t140 127.5t221.5 53l28 154h72l-28 -158
q75 -7 131.5 -36.5t92.5 -78t50 -113.5l-72 -22q-21 87 -82 135.5t-174 48.5q-157 0 -254.5 -76t-97.5 -202q0 -75 38.5 -125t100 -86.5t131.5 -70.5q60 -29 119 -61.5t107 -76t77 -103.5t29 -145q0 -130 -57.5 -225t-159 -148t-233.5 -57l-30 -174h-72z" />
    <glyph glyph-name="percent" unicode="%" horiz-adv-x="1730" 
d="M320 -24l1210 1448h86l-1210 -1448h-86zM532 712q-92 0 -149 41.5t-83 106.5t-26 136q0 65 21.5 139t66 139.5t115 107.5t167.5 42q94 0 149.5 -44t80 -110.5t24.5 -133.5q0 -69 -20.5 -143t-64.5 -138t-113.5 -103.5t-167.5 -39.5zM538 784q99 0 162 54.5t92.5 134
t29.5 153.5q0 52 -17.5 104t-57.5 87t-109 35q-75 0 -129 -33.5t-89 -87t-51.5 -113t-16.5 -112.5q0 -55 18 -106t58.5 -83.5t109.5 -32.5zM1294 -24q-93 0 -149.5 41.5t-82.5 106.5t-26 136q0 65 21 139t65 139.5t114 107.5t168 42q94 0 149.5 -44t80 -110.5t24.5 -133.5
q0 -69 -20.5 -143t-64 -138t-112.5 -103.5t-167 -39.5zM1298 48q99 0 162 54.5t92.5 134t29.5 153.5q0 52 -17 104t-57.5 87t-109.5 35q-75 0 -129 -33.5t-88 -87t-50.5 -113t-16.5 -112.5q0 -55 17.5 -106t58 -83.5t108.5 -32.5z" />
    <glyph glyph-name="ampersand" unicode="&#x26;" horiz-adv-x="1252" 
d="M450 -24q-148 0 -234 81.5t-86 220.5q0 119 57.5 209t156 161t220.5 134q-69 107 -100.5 184t-31.5 138q0 98 45.5 170t122 111t170.5 39q110 0 186 -67.5t76 -180.5q0 -84 -41 -153.5t-121.5 -132t-199.5 -124.5l286 -426q53 71 89.5 148t60.5 150h76
q-22 -84 -68.5 -177.5t-115.5 -180.5l188 -280h-104l-142 214q-96 -102 -220 -170t-270 -68zM462 48q132 0 242.5 63.5t197.5 160.5l-304 456q-183 -94 -287.5 -195.5t-104.5 -242.5q0 -115 72 -178.5t184 -63.5zM636 818q153 78 234.5 158.5t81.5 191.5q0 84 -52.5 134
t-135.5 50q-112 0 -182 -67t-70 -169q0 -63 33.5 -137t90.5 -161z" />
    <glyph glyph-name="quotesingle" unicode="'" horiz-adv-x="348" 
d="M248 866l94 534h76l-94 -534h-76z" />
    <glyph glyph-name="parenleft" unicode="(" horiz-adv-x="632" 
d="M366 -260q-34 62 -62.5 148.5t-46 197t-17.5 244.5q0 192 39 358t104 304t143.5 246.5t157.5 185.5h72q-31 -31 -84 -96.5t-113.5 -162t-115 -221.5t-89 -276t-34.5 -324q0 -162 23 -285.5t51 -204.5t44 -114h-72z" />
    <glyph glyph-name="parenright" unicode=")" horiz-adv-x="632" 
d="M62 -260q27 31 76.5 92t106.5 152t109 211.5t85 270.5t33 328q0 160 -25 290t-57.5 218t-53.5 122h72q39 -67 71.5 -160t51.5 -209t19 -251q0 -196 -36 -357.5t-96 -291.5t-134 -232.5t-150 -182.5h-72z" />
    <glyph glyph-name="asterisk" unicode="*" horiz-adv-x="1008" 
d="M354 618l-56 48l148 168l176 146l-190 44l-182 64l38 70l184 -64l156 -90l8 186l36 210h80l-36 -210l-60 -186l192 92l204 64l14 -76l-202 -64l-206 -40l118 -146l96 -168l-72 -48l-92 168l-70 180l-132 -180z" />
    <glyph glyph-name="plus" unicode="+" horiz-adv-x="1272" 
d="M696 216v432h-430v72h430v436h76v-436h434v-72h-434v-432h-76z" />
    <glyph glyph-name="comma" unicode="," horiz-adv-x="364" 
d="M96 -282l-18 6q25 28 50 73t41.5 92.5t16.5 82.5q-22 0 -38 14t-16 38q0 29 18 48.5t48 19.5q23 0 39.5 -16t16.5 -54q0 -56 -25.5 -115.5t-62.5 -110t-70 -78.5z" />
    <glyph glyph-name="hyphen" unicode="-" horiz-adv-x="758" 
d="M232 560l12 72h446l-12 -72h-446z" />
    <glyph glyph-name="period" unicode="." horiz-adv-x="364" 
d="M174 -28q-21 0 -34.5 15t-13.5 37q2 27 23.5 47.5t48.5 20.5q23 0 35.5 -15.5t12.5 -38.5q-1 -27 -22 -46.5t-50 -19.5z" />
    <glyph glyph-name="slash" unicode="/" horiz-adv-x="924" 
d="M-60 -260l1078 1684h80l-1080 -1684h-78z" />
    <glyph glyph-name="zero" unicode="0" horiz-adv-x="1192" 
d="M574 -24q-100 0 -167 45.5t-106.5 121.5t-56 168t-16.5 185q0 71 11.5 166t37.5 199.5t69.5 204.5t107.5 181t151.5 129t200.5 48q95 0 160.5 -44t105.5 -118.5t58 -168t18 -191.5q0 -93 -18.5 -214t-59 -245.5t-107 -230.5t-163 -171t-226.5 -65zM582 48
q109 0 190.5 60.5t138.5 158.5t92 213t51 226t16 196q0 113 -25 216t-85 168.5t-166 65.5q-110 0 -191.5 -61.5t-138.5 -160.5t-91.5 -214.5t-50.5 -226.5t-16 -193q0 -113 25 -215.5t85.5 -167.5t165.5 -65z" />
    <glyph glyph-name="one" unicode="1" horiz-adv-x="620" 
d="M302 0l206 1164h-230l6 48q88 0 140 13.5t85 53.5t65 121h48l-248 -1400h-72z" />
    <glyph glyph-name="two" unicode="2" horiz-adv-x="1152" 
d="M126 0q21 119 63 203.5t102.5 148t138.5 116t172 106.5q83 48 164.5 99t148 112.5t106 139t39.5 177.5q0 111 -68.5 180.5t-197.5 69.5q-133 0 -231 -72t-149 -188l-62 32q57 128 174 214t270 86q110 0 186.5 -41.5t116 -114t39.5 -166.5q0 -110 -42.5 -195.5
t-114.5 -154t-162.5 -126t-186.5 -112.5q-120 -68 -202.5 -131.5t-134 -137t-77.5 -173.5h754l-14 -72h-832z" />
    <glyph glyph-name="three" unicode="3" horiz-adv-x="1132" 
d="M530 -24q-156 0 -262.5 80t-141.5 222l70 26q32 -123 118.5 -189.5t215.5 -66.5q124 0 216.5 47.5t144 133t51.5 199.5q0 129 -75 196.5t-221 67.5h-62l12 70h44q107 0 190 46t130.5 126.5t47.5 183.5q0 107 -67.5 170.5t-180.5 63.5q-103 0 -198 -57t-166 -161l-64 28
q78 122 195 192t243 70q94 0 165.5 -37.5t112 -104.5t40.5 -156q0 -133 -81.5 -241t-218.5 -155q73 -18 124 -58.5t77.5 -101t26.5 -138.5q0 -135 -61.5 -238t-171 -160.5t-253.5 -57.5z" />
    <glyph glyph-name="four" unicode="4" horiz-adv-x="1126" 
d="M724 0l72 408h-668l8 42l876 950h34l-162 -926h206l-14 -66h-206l-72 -408h-74zM244 474h566l132 766z" />
    <glyph glyph-name="five" unicode="5" horiz-adv-x="1208" 
d="M562 -24q-102 0 -182.5 29.5t-136.5 72t-83 80.5l58 60q25 -36 70 -75.5t112.5 -67t161.5 -27.5q158 0 262 70t155 178.5t51 223.5q0 140 -83.5 226t-224.5 86q-115 0 -205 -47.5t-155 -110.5l-58 16l238 710h630l-12 -72h-566l-180 -536q63 51 145 81.5t175 30.5
q112 0 195.5 -48t130 -133t46.5 -195q0 -103 -34 -201t-101.5 -177.5t-169.5 -126.5t-239 -47z" />
    <glyph glyph-name="six" unicode="6" horiz-adv-x="1124" 
d="M520 -24q-126 0 -203 56t-112 144t-35 184q0 142 41.5 276.5t117 256t180 224t231.5 180.5t270 127l-20 -74q-156 -54 -294.5 -160t-242.5 -245t-157 -291q74 99 173.5 147.5t202.5 48.5q112 0 189 -48t117 -130.5t40 -187.5q0 -139 -65.5 -254.5t-178 -184.5t-254.5 -69
zM524 48q116 0 210.5 59t150 158t55.5 219q0 131 -72 212.5t-206 81.5q-114 0 -209 -59t-152 -157t-57 -214q0 -135 74 -217.5t206 -82.5z" />
    <glyph glyph-name="seven" unicode="7" horiz-adv-x="950" 
d="M304 0q43 226 120.5 448.5t212 442t349.5 437.5h-702l14 72h778l-10 -62q-178 -172 -299 -352t-197.5 -356t-120 -336t-67.5 -294h-78z" />
    <glyph glyph-name="eight" unicode="8" horiz-adv-x="1148" 
d="M558 -24q-115 0 -197.5 45t-126.5 123.5t-44 177.5q0 107 47.5 200.5t129.5 160t187 93.5q-59 18 -98.5 58t-59.5 91t-20 103q0 106 53.5 196t148 145t216.5 55q96 0 163.5 -39.5t103 -107.5t35.5 -153q0 -76 -32.5 -148t-97.5 -127.5t-162 -80.5q74 -21 126 -67t79 -111
t27 -142q0 -101 -36.5 -187t-101.5 -150t-152 -99.5t-188 -35.5zM558 48q107 0 198 48t146.5 136t55.5 208q0 82 -34 149.5t-97.5 108t-152.5 40.5q-114 0 -205.5 -57.5t-145 -152t-53.5 -204.5q0 -127 80.5 -201.5t207.5 -74.5zM690 802q96 0 171 41.5t118 114t43 166.5
q0 107 -66.5 167.5t-171.5 60.5q-89 0 -164.5 -39.5t-121.5 -112t-46 -172.5t63 -163t175 -63z" />
    <glyph glyph-name="nine" unicode="9" horiz-adv-x="1124" 
d="M322 -24l12 72q116 36 220 108.5t190 170t149.5 210.5t98.5 231q-69 -84 -164.5 -138t-211.5 -54t-193 50.5t-115 133.5t-38 182q0 136 63.5 245t174 173t250.5 64q117 0 197 -52t120.5 -136.5t40.5 -183.5q0 -136 -39.5 -272.5t-112 -263.5t-171.5 -234.5t-218.5 -186.5
t-252.5 -119zM620 648q118 0 212.5 54.5t150 146t55.5 203.5q0 128 -75.5 214t-204.5 86q-115 0 -207.5 -54t-146.5 -147t-54 -209q0 -127 71.5 -210.5t198.5 -83.5z" />
    <glyph glyph-name="colon" unicode=":" horiz-adv-x="364" 
d="M310 846q-21 0 -34.5 15t-13.5 37q2 27 23.5 47.5t48.5 20.5q23 0 35.5 -15.5t12.5 -38.5q-1 -27 -22 -46.5t-50 -19.5zM156 -28q-21 0 -34.5 15t-13.5 37q2 27 23.5 47.5t48.5 20.5q23 0 35.5 -15.5t12.5 -38.5q-1 -27 -22 -46.5t-50 -19.5z" />
    <glyph glyph-name="semicolon" unicode=";" horiz-adv-x="364" 
d="M74 -282l-18 6q25 28 50 73t41.5 92.5t16.5 82.5q-22 0 -38 14t-16 38q0 29 18 48.5t48 19.5q23 0 39.5 -16t16.5 -54q0 -56 -25.5 -115.5t-62.5 -110t-70 -78.5zM310 846q-21 0 -34.5 15t-13.5 37q2 27 23.5 47.5t48.5 20.5q23 0 35.5 -15.5t12.5 -38.5
q-1 -27 -22 -46.5t-50 -19.5z" />
    <glyph glyph-name="less" unicode="&#x3c;" horiz-adv-x="1272" 
d="M1206 240l-940 408v76l940 408v-82l-846 -364l846 -364v-82z" />
    <glyph glyph-name="equal" unicode="=" horiz-adv-x="1272" 
d="M266 838v72h940v-72h-940zM266 458v72h940v-72h-940z" />
    <glyph glyph-name="greater" unicode="&#x3e;" horiz-adv-x="1272" 
d="M266 240v82l846 364l-846 364v82l940 -408v-76z" />
    <glyph glyph-name="question" unicode="?" horiz-adv-x="1004" 
d="M472 312l12 68q17 94 60.5 162.5t100.5 121.5t115 100t109 95.5t83 109t32 143.5q0 102 -66 171t-200 69q-86 0 -164 -30t-135.5 -96.5t-80.5 -175.5h-72q25 136 98.5 218t170 119t191.5 37q109 0 184 -40.5t113.5 -110.5t38.5 -159q0 -92 -35 -159.5t-91 -121.5
t-118 -105q-56 -46 -110 -96t-94 -111t-54 -141l-12 -68h-76zM452 -28q-25 0 -38.5 14.5t-13.5 35.5q0 29 21.5 49.5t46.5 20.5q26 0 39 -15.5t13 -36.5q0 -30 -21 -49t-47 -19z" />
    <glyph glyph-name="at" unicode="@" horiz-adv-x="1550" 
d="M778 -24q-171 0 -304 72.5t-209.5 207.5t-76.5 322t69.5 342t186 268t262 174.5t296.5 61.5q175 0 302.5 -66t196.5 -183.5t69 -270.5q0 -121 -32 -226.5t-87 -186t-123.5 -126t-141.5 -45.5q-64 0 -102 36.5t-38 103.5q-61 -87 -138 -122.5t-148 -35.5q-114 0 -179 76
t-65 208q0 86 29 170t83.5 152.5t131 109t170.5 40.5q107 0 159 -64t59 -142l56 180h70l-128 -410q-8 -26 -15 -53.5t-11 -51t-4 -39.5q0 -46 20.5 -71t57.5 -25q57 0 110.5 42.5t95.5 116.5t67 167.5t25 195.5q0 133 -60.5 234t-170.5 157.5t-259 56.5q-143 0 -275 -58.5
t-236 -163.5t-164.5 -246t-60.5 -306q0 -150 59 -270t173.5 -190t279.5 -70q68 0 136 6.5t126 19.5l-26 -72q-55 -13 -115.5 -19.5t-120.5 -6.5zM778 372q91 0 165.5 57.5t118.5 147.5t44 187q0 102 -49 163t-133 61q-103 0 -177.5 -58t-114.5 -148.5t-40 -189.5
q0 -102 50.5 -161t135.5 -59z" />
    <glyph glyph-name="A" unicode="A" horiz-adv-x="1276" 
d="M116 0l710 1400h52l226 -1400h-74l-66 394h-568l-200 -394h-80zM424 454h532l-92 604q-3 17 -10.5 60.5t-14.5 89.5t-9 72q-10 -26 -31 -72t-41 -89t-28 -59z" />
    <glyph glyph-name="B" unicode="B" horiz-adv-x="1224" 
d="M174 0l246 1400h410q128 0 202.5 -40t106 -107.5t31.5 -148.5q0 -95 -44.5 -174t-121.5 -132t-176 -70q123 -10 199.5 -91.5t76.5 -216.5q0 -68 -24 -141.5t-79 -136.5t-147 -102.5t-228 -39.5h-452zM258 64h376q147 0 234 54t124.5 136t37.5 166q0 77 -30 139
t-103.5 98.5t-204.5 36.5h-322zM382 758h292q132 0 227.5 45.5t147 124t51.5 176.5q0 62 -24 115t-83.5 85t-166.5 32h-342z" />
    <glyph glyph-name="C" unicode="C" horiz-adv-x="1240" 
d="M654 -24q-115 0 -196 45.5t-131.5 124.5t-73.5 178.5t-23 207.5q0 164 44.5 322.5t130.5 287t210.5 205.5t284.5 77q110 0 179 -32.5t110.5 -84.5t68.5 -109l-68 -36q-40 83 -101.5 136.5t-190.5 53.5q-141 0 -250.5 -70.5t-184.5 -189t-114 -264t-39 -294.5
q0 -128 34.5 -239t112 -179t205.5 -68q91 0 163.5 31.5t125.5 80.5t87 102l68 -30q-41 -64 -101.5 -122.5t-146.5 -96t-204 -37.5z" />
    <glyph glyph-name="D" unicode="D" horiz-adv-x="1296" 
d="M174 0l246 1400h300q144 0 242.5 -46.5t158.5 -125t86.5 -178t26.5 -206.5q0 -131 -30.5 -254.5t-92 -230.5t-153.5 -187.5t-215 -126t-277 -45.5h-292zM262 72h218q158 0 282.5 60t211.5 165.5t132.5 246t45.5 300.5q0 126 -41 236.5t-138.5 179t-266.5 68.5h-226z" />
    <glyph glyph-name="E" unicode="E" horiz-adv-x="1124" 
d="M174 0l246 1400h714l-10 -66h-640l-102 -576h426l-12 -66h-426l-110 -626h684l-12 -66h-758z" />
    <glyph glyph-name="F" unicode="F" horiz-adv-x="1060" 
d="M174 0l246 1400h734l-10 -66h-660l-102 -576h440l-12 -66h-440l-122 -692h-74z" />
    <glyph glyph-name="G" unicode="G" horiz-adv-x="1323" 
d="M659 -24q-116 0 -197.5 45t-132.5 123t-74.5 177.5t-23.5 208.5q0 164 42.5 322.5t127 288t211 206.5t293.5 77q99 0 166.5 -28.5t111 -72.5t70.5 -91l-72 -42q-34 65 -101 113.5t-183 48.5q-123 0 -218.5 -50.5t-165.5 -136.5t-115 -192t-67 -219t-22 -216
q0 -131 35.5 -242.5t113.5 -179.5t205 -68q168 0 288.5 121t161.5 369l4 24h-284l10 70h362l-12 -70q-27 -156 -78 -267.5t-121.5 -181.5t-155.5 -103.5t-179 -33.5z" />
    <glyph glyph-name="H" unicode="H" horiz-adv-x="1296" 
d="M174 0l246 1400h74l-110 -638h728l110 638h74l-246 -1400h-74l122 694h-728l-122 -694h-74z" />
    <glyph glyph-name="I" unicode="I" horiz-adv-x="494" 
d="M174 0l246 1400h74l-246 -1400h-74z" />
    <glyph glyph-name="J" unicode="J" horiz-adv-x="1024" 
d="M408 -24q-142 0 -222.5 70.5t-107.5 167.5l66 32q24 -82 81 -142t183 -60q80 0 158.5 34t140 121t89.5 247l166 954h76l-166 -950q-25 -144 -74.5 -236.5t-113.5 -144.5t-135 -72.5t-141 -20.5z" />
    <glyph glyph-name="K" unicode="K" horiz-adv-x="1198" 
d="M174 0l246 1400h74l-134 -762l722 762h92l-454 -480l326 -920h-76l-304 864l-326 -342l-92 -522h-74z" />
    <glyph glyph-name="L" unicode="L" horiz-adv-x="1022" 
d="M174 0l246 1400h74l-234 -1334h676l-12 -66h-750z" />
    <glyph glyph-name="M" unicode="M" horiz-adv-x="1552" 
d="M740 -24l-248 1070q-9 36 -17 72t-17 78q-4 -30 -12 -73.5t-14 -76.5l-184 -1046h-74l246 1400h66l244 -1064q9 -39 19 -83.5t19 -88.5q24 45 49 88.5t49 83.5l616 1064h70l-246 -1400h-74l184 1046q6 36 12.5 72.5t13.5 73.5q-21 -37 -42 -73.5t-42 -72.5z" />
    <glyph glyph-name="N" unicode="N" horiz-adv-x="1326" 
d="M174 0l246 1400h70l448 -1050q23 -51 46.5 -106.5t45.5 -109.5q9 54 19 111t19 105l184 1050h74l-246 -1400h-70l-448 1046q-15 34 -30.5 70.5t-31 74t-30.5 75.5q-6 -37 -12.5 -75t-13 -75t-12.5 -70l-184 -1046h-74z" />
    <glyph glyph-name="O" unicode="O" horiz-adv-x="1393" 
d="M667 -24q-118 0 -201 47.5t-135 128.5t-76 181.5t-24 206.5q0 115 25 238t76.5 238t131.5 207t189.5 146.5t251.5 54.5q119 0 201 -45.5t132 -123.5t72.5 -177.5t22.5 -207.5q0 -116 -24 -241t-74.5 -241t-129 -209t-187.5 -148t-251 -55zM677 48q125 0 220.5 51
t163.5 138t111.5 194.5t64 221.5t20.5 219q0 126 -34.5 235.5t-114 177t-213.5 67.5q-125 0 -221 -51t-165.5 -136.5t-114 -192.5t-66 -221t-21.5 -219q0 -129 36 -239t117 -177.5t217 -67.5z" />
    <glyph glyph-name="P" unicode="P" horiz-adv-x="1158" 
d="M174 0l246 1400h402q112 0 187.5 -29t120.5 -79t64.5 -113.5t19.5 -132.5q0 -77 -30.5 -159t-94 -152t-161.5 -113.5t-234 -43.5h-344l-102 -578h-74zM364 650h334q151 0 247.5 61.5t142.5 153t46 181.5q0 76 -28 140t-97.5 103t-192.5 39h-336z" />
    <glyph glyph-name="Q" unicode="Q" horiz-adv-x="1392" 
d="M1054 -114l-86 174q-63 -40 -139 -62t-163 -22q-118 0 -201 47.5t-135 128.5t-76 181.5t-24 206.5q0 115 25 238t76.5 238t131.5 207t189.5 146.5t251.5 54.5q119 0 201 -45.5t132 -123.5t72.5 -177.5t22.5 -207.5q0 -134 -32.5 -278t-100 -273t-173.5 -217l88 -178z
M676 48q75 0 140 20t120 56l-92 186l62 38l88 -180q92 81 150 200t85 251t27 253q0 126 -34.5 235.5t-114 177t-213.5 67.5q-125 0 -221 -51t-165 -136.5t-113.5 -192.5t-65.5 -221t-21 -219q0 -129 35.5 -239t116 -177.5t216.5 -67.5z" />
    <glyph glyph-name="R" unicode="R" horiz-adv-x="1248" 
d="M174 0l246 1400h450q98 0 165.5 -28.5t109 -76t60.5 -105t19 -116.5q0 -91 -33 -163.5t-92 -125t-138.5 -84t-172.5 -39.5l206 -662h-80l-206 658h-344l-116 -658h-74zM376 724h334q112 0 211.5 35.5t162 112.5t62.5 202q0 59 -24 119t-84 100.5t-168 40.5h-386z" />
    <glyph glyph-name="S" unicode="S" horiz-adv-x="1140" 
d="M558 -24q-108 0 -188.5 40.5t-131.5 107.5t-70 146l74 24q30 -111 113.5 -179.5t210.5 -68.5q101 0 185.5 41t135.5 118.5t51 188.5q0 93 -42.5 154t-110 103.5t-141.5 80.5q-55 29 -107.5 59.5t-94.5 69t-67 90.5t-25 123q0 97 51 176.5t144 126.5t219 47
q90 0 160.5 -29t114.5 -81t55 -122l-74 -20q-19 87 -83.5 134.5t-174.5 47.5q-154 0 -244 -76t-90 -202q0 -73 37 -122.5t96.5 -86.5t126.5 -71q59 -30 117.5 -63t106 -77t76 -104t28.5 -144q0 -135 -60.5 -231.5t-164.5 -148.5t-233 -52z" />
    <glyph glyph-name="T" unicode="T" horiz-adv-x="1074" 
d="M474 0l235 1328h-374l13 72h824l-13 -72h-376l-235 -1328h-74z" />
    <glyph glyph-name="U" unicode="U" horiz-adv-x="1276" 
d="M610 -24q-153 0 -240.5 69.5t-113.5 193t2 285.5l154 876h76l-152 -862q-23 -134 -8 -246t82 -179t200 -67q94 0 184 37.5t159 136t101 282.5l156 898h74l-156 -902q-24 -140 -70.5 -239.5t-112.5 -162t-150 -91.5t-185 -29z" />
    <glyph glyph-name="V" unicode="V" horiz-adv-x="1224" 
d="M548 0l-226 1400h78l158 -1000q6 -41 12.5 -82.5t13.5 -83.5l14 -84q32 63 63.5 126t62.5 124l504 1000h82l-708 -1400h-54z" />
    <glyph glyph-name="W" unicode="W" horiz-adv-x="1624" 
d="M414 0l-92 1400h80l68 -1088q2 -31 4.5 -68t3.5 -66q14 35 27.5 68t26.5 66l450 1088h60l80 -1088q2 -24 4.5 -61t5.5 -73q14 35 27.5 68t26.5 66l442 1088h78l-572 -1400h-62l-78 1046q-2 28 -4 56.5t-4 57.5l-4 58q-18 -45 -35 -86.5t-35 -85.5l-434 -1046h-64z" />
    <glyph glyph-name="X" unicode="X" horiz-adv-x="1052" 
d="M56 0l520 734l-238 666h78l212 -594l420 594h86l-478 -674l260 -726h-78l-234 652l-462 -652h-86z" />
    <glyph glyph-name="Y" unicode="Y" horiz-adv-x="1160" 
d="M510 0l98 554l-300 846h74l270 -770l536 770h82l-590 -846l-98 -554h-72z" />
    <glyph glyph-name="Z" unicode="Z" horiz-adv-x="1150" 
d="M88 0l8 38l1034 1296h-760l10 66h858l-8 -42l-1032 -1292h802l-8 -66h-904z" />
    <glyph glyph-name="bracketleft" unicode="[" horiz-adv-x="710" 
d="M174 -260l294 1684h350l-10 -68h-276l-272 -1548h276l-12 -68h-350z" />
    <glyph glyph-name="backslash" unicode="\" horiz-adv-x="924" 
d="M726 -260l-492 1684h78l492 -1684h-78z" />
    <glyph glyph-name="bracketright" unicode="]" horiz-adv-x="710" 
d="M54 -260l12 68h276l272 1548h-276l10 68h350l-294 -1684h-350z" />
    <glyph glyph-name="asciicircum" unicode="^" horiz-adv-x="1272" 
d="M310 724l388 700h76l388 -700h-76l-350 602l-350 -602h-76z" />
    <glyph glyph-name="underscore" unicode="_" horiz-adv-x="960" 
d="M-104 -310l12 68h1018l-12 -68h-1018z" />
    <glyph glyph-name="grave" unicode="`" horiz-adv-x="622" 
d="M542 1152l-282 312h105l250 -312h-73z" />
    <glyph glyph-name="a" unicode="a" horiz-adv-x="994" 
d="M422 -24q-124 0 -196 76t-72 208q0 108 52 192.5t142.5 133t205.5 48.5q80 0 148 -25.5t132 -78.5l24 130q32 168 -11 244t-169 76q-67 0 -149.5 -26t-172.5 -76l-14 64q99 54 182 79t156 25q106 0 169 -41.5t83.5 -123.5t-0.5 -205l-118 -676h-72l26 150
q-78 -85 -165.5 -129.5t-180.5 -44.5zM426 42q92 0 180 50t178 152l40 222q-64 50 -133.5 75t-140.5 25q-90 0 -161 -40.5t-112 -109.5t-41 -156q0 -100 51.5 -159t138.5 -59z" />
    <glyph glyph-name="b" unicode="b" horiz-adv-x="1068" 
d="M554 -24q-97 0 -167.5 43t-118.5 131l-26 -150h-74l246 1406l80 38l-100 -572q62 83 147 128.5t175 45.5q94 0 162.5 -50t106 -141.5t37.5 -216.5q0 -198 -58.5 -347t-164 -232t-245.5 -83zM554 48q117 0 205 74t136.5 206.5t48.5 309.5q0 162 -61 249t-177 87
q-88 0 -176.5 -56t-153.5 -152l-90 -514q35 -97 104.5 -150.5t163.5 -53.5z" />
    <glyph glyph-name="c" unicode="c" horiz-adv-x="906" 
d="M486 -24q-147 0 -229.5 106t-82.5 296q0 193 59.5 344t164 237.5t238.5 86.5q108 0 182.5 -60.5t83.5 -155.5l-68 -26q-13 81 -66 125.5t-134 44.5q-111 0 -197 -77t-135.5 -211.5t-49.5 -307.5q0 -159 61 -244.5t173 -85.5q83 0 151.5 50t108.5 140l68 -28
q-54 -114 -138.5 -174t-189.5 -60z" />
    <glyph glyph-name="d" unicode="d" horiz-adv-x="1056" 
d="M494 -24q-148 0 -232 113.5t-84 314.5q0 190 62 334.5t172.5 226t255.5 81.5q90 0 162 -48.5t102 -129.5l96 540l78 36l-252 -1444h-74l26 146q-73 -84 -152 -127t-160 -43zM494 48q90 0 177.5 56t154.5 156l88 508q-33 96 -99.5 151t-150.5 55q-122 0 -214 -71.5
t-143 -200t-51 -298.5q0 -163 64.5 -259.5t173.5 -96.5z" />
    <glyph glyph-name="e" unicode="e" horiz-adv-x="1002" 
d="M496 -24q-105 0 -176.5 47.5t-108.5 138t-37 220.5q0 152 38.5 274t106.5 209.5t158 134t193 46.5q86 0 155.5 -35t110 -111t40.5 -200q0 -40 -6.5 -89.5t-21.5 -120.5h-690q-15 -131 3.5 -230.5t79.5 -155.5t173 -56q57 0 120 22.5t124 67.5l38 -56q-61 -46 -134.5 -76
t-165.5 -30zM268 556h618q18 115 7 211.5t-63 154.5t-158 58q-119 0 -201.5 -60.5t-132 -157.5t-70.5 -206z" />
    <glyph glyph-name="f" unicode="f" horiz-adv-x="594" 
d="M202 0l168 956h-160l12 66h160l32 184q20 111 74.5 164.5t147.5 53.5q32 0 63.5 -8.5t56.5 -23.5l-12 -64q-33 17 -58 23.5t-54 6.5q-64 0 -97.5 -36.5t-48.5 -123.5l-30 -176h236l-12 -66h-236l-168 -956h-74z" />
    <glyph glyph-name="g" unicode="g" horiz-adv-x="1070" 
d="M346 -426l-28 64q142 8 238 44.5t151 106t73 175.5l36 204q-58 -93 -144 -142.5t-188 -49.5q-95 0 -164 50t-106.5 143t-37.5 221q0 194 62.5 342t174 231t257.5 83q92 0 166 -47t104 -125l26 148h72l-186 -1068q-20 -116 -82.5 -197.5t-168.5 -127.5t-255 -55zM498 48
q96 0 181.5 56.5t154.5 165.5l88 508q-33 93 -101 144.5t-157 51.5q-124 0 -216 -71t-143 -199.5t-51 -301.5q0 -162 66.5 -258t177.5 -96z" />
    <glyph glyph-name="h" unicode="h" horiz-adv-x="1061" 
d="M166 0l248 1408l78 36l-106 -606q50 95 137.5 151.5t184.5 56.5q107 0 172 -48t86 -142t-4 -232l-110 -624h-72l110 632q30 174 -18 260t-174 86q-136 0 -230 -103t-126 -285l-102 -590h-74z" />
    <glyph glyph-name="i" unicode="i" horiz-adv-x="456" 
d="M172 0l180 1022h72l-178 -1022h-74zM426 1246q-21 0 -34.5 14t-13.5 36q0 30 20 50t48 20q21 0 34.5 -14t13.5 -38q0 -28 -19 -48t-49 -20z" />
    <glyph glyph-name="j" unicode="j" horiz-adv-x="468" 
d="M-108 -426l-26 62q128 14 197.5 75.5t94.5 208.5l194 1102h72l-192 -1102q-18 -107 -59.5 -181t-110.5 -114.5t-170 -50.5zM426 1246q-22 0 -35 14.5t-13 35.5q0 18 8.5 34t23.5 26t36 10q24 0 36 -15.5t12 -36.5q0 -18 -8 -33.5t-23.5 -25t-36.5 -9.5z" />
    <glyph glyph-name="k" unicode="k" horiz-adv-x="956" 
d="M166 0l248 1408l78 36l-156 -892l502 470h90l-298 -280l242 -742h-76l-224 688l-252 -236l-80 -452h-74z" />
    <glyph glyph-name="l" unicode="l" horiz-adv-x="444" 
d="M168 0l248 1408l78 36l-252 -1444h-74z" />
    <glyph glyph-name="m" unicode="m" horiz-adv-x="1615" 
d="M166 0l180 1022h70l-32 -184q48 93 135 150.5t181 57.5q105 0 163.5 -64t62.5 -186q51 116 145 183t203 67q97 0 159.5 -50.5t85 -143t-0.5 -218.5l-112 -634h-72l110 636q29 171 -16.5 256.5t-167.5 85.5q-120 0 -208.5 -90t-115.5 -242l-114 -646h-72l110 636
q29 168 -15 255t-157 87q-132 0 -222.5 -95.5t-119.5 -266.5l-106 -616h-74z" />
    <glyph glyph-name="n" unicode="n" horiz-adv-x="1062" 
d="M166 0l180 1022h70l-32 -184q51 96 138 152t186 56q106 0 170.5 -49t86 -144t-2.5 -233l-110 -620h-72l108 618q32 185 -15 272.5t-179 87.5q-138 0 -229 -99t-123 -285l-102 -594h-74z" />
    <glyph glyph-name="o" unicode="o" horiz-adv-x="1040" 
d="M506 -24q-154 0 -238 106t-84 304q0 200 60.5 348.5t170.5 230t259 81.5q155 0 240.5 -106.5t85.5 -297.5q0 -204 -60 -353.5t-171 -231t-263 -81.5zM518 48q122 0 213 72t141 203t50 307q0 164 -66 254t-188 90q-124 0 -215 -72.5t-141 -205t-50 -312.5
q0 -162 66.5 -249t189.5 -87z" />
    <glyph glyph-name="p" unicode="p" horiz-adv-x="1065" 
d="M94 -406l252 1428h72l-26 -150q136 174 322 174q95 0 165 -50.5t108.5 -142t38.5 -215.5q0 -195 -61 -344t-168.5 -233.5t-248.5 -84.5q-99 0 -173.5 52t-104.5 142l-96 -540zM550 48q117 0 207.5 74.5t141.5 206t51 301.5q0 162 -65.5 253t-184.5 91q-87 0 -173.5 -52
t-148.5 -144l-90 -514q32 -105 99 -160.5t163 -55.5z" />
    <glyph glyph-name="q" unicode="q" horiz-adv-x="1063" 
d="M707 -400l98 564q-58 -88 -143 -138t-175 -50q-100 0 -169.5 47.5t-106 138.5t-36.5 222q0 193 60.5 342.5t166.5 234.5t243 85q101 0 174 -44t110 -128l26 148h74l-242 -1384zM493 48q92 0 178 57.5t152 162.5l90 510q-31 95 -101.5 145.5t-166.5 50.5
q-116 0 -204.5 -75t-138 -208t-49.5 -307q0 -169 59.5 -252.5t180.5 -83.5z" />
    <glyph glyph-name="r" unicode="r" horiz-adv-x="718" 
d="M166 0l180 1022h70l-38 -218q62 113 149 177.5t175 64.5q87 0 138 -42l-26 -62q-21 15 -53.5 23.5t-70.5 8.5q-80 0 -153 -53.5t-126 -145.5t-73 -209l-98 -566h-74z" />
    <glyph glyph-name="s" unicode="s" horiz-adv-x="862" 
d="M432 -24q-61 0 -118 18.5t-105.5 53t-82.5 82.5l58 46q47 -64 112 -98t140 -34q119 0 185.5 60t66.5 166q0 74 -47.5 126t-170.5 104q-136 58 -188 120t-52 152q0 78 43 140t115.5 98t161.5 36q87 0 160 -33.5t118 -92.5l-56 -44q-87 102 -230 102q-102 0 -171 -58
t-69 -148q0 -64 45 -111.5t165 -100.5q138 -60 194 -125.5t56 -158.5q0 -139 -87.5 -219.5t-242.5 -80.5z" />
    <glyph glyph-name="t" unicode="t" horiz-adv-x="678" 
d="M408 -24q-100 0 -136 63.5t-12 198.5l126 718h-168l12 66h168l68 386l78 36l-74 -422h254l-12 -66h-254l-126 -726q-18 -102 2 -143t86 -41q35 0 75 13t79 35l-22 -76q-72 -42 -144 -42z" />
    <glyph glyph-name="u" unicode="u" horiz-adv-x="1064" 
d="M488 -24q-111 0 -177 47t-86.5 141t3.5 234l110 624h72l-110 -640q-30 -174 19 -257t181 -83q134 0 225.5 101t122.5 285l102 594h74l-180 -1022h-70l30 176q-55 -96 -138 -148t-178 -52z" />
    <glyph glyph-name="v" unicode="v" horiz-adv-x="952" 
d="M426 0l-180 1022h70l132 -754q6 -34 12 -69t12 -71q18 36 36 71t36 69l392 754h78l-534 -1022h-54z" />
    <glyph glyph-name="w" unicode="w" horiz-adv-x="1356" 
d="M324 0l-78 1022h72l48 -744q2 -35 4.5 -71t5.5 -75q15 35 34 75t34 71l354 744h52l98 -744q5 -34 9.5 -69t8.5 -73q15 39 29.5 73.5t28.5 68.5l308 744h74l-430 -1022h-54l-108 780q-3 24 -7 54.5t-7 51.5q-12 -28 -24 -54l-24 -52l-374 -780h-54z" />
    <glyph glyph-name="x" unicode="x" horiz-adv-x="936" 
d="M66 0l430 536l-220 486h76l170 -376q5 -9 10.5 -22t11.5 -28q11 14 21 27t19 23l302 376h84l-396 -494l240 -528h-76l-184 406q-6 14 -14 32.5t-14 33.5q-10 -15 -23.5 -32.5t-24.5 -31.5l-328 -408h-84z" />
    <glyph glyph-name="y" unicode="y" horiz-adv-x="974" 
d="M204 -388l222 416l-180 994h70l124 -700q9 -51 18 -102.5t18 -105.5q27 54 54 105.5t54 102.5l374 700h78l-756 -1410h-76z" />
    <glyph glyph-name="z" unicode="z" horiz-adv-x="950" 
d="M98 0l8 44l748 912h-548l12 66h650l-8 -42l-750 -914h588l-10 -66h-690z" />
    <glyph glyph-name="braceleft" unicode="{" horiz-adv-x="708" 
d="M538 -260q-129 8 -187.5 79t-58.5 203q0 39 5.5 85t14.5 95l14 79q5 28 9.5 55t4.5 46q0 80 -42 122t-114 42h-8l14 74h8q84 0 145.5 56.5t80.5 165.5l30 174q32 183 121.5 295.5t258.5 112.5l-12 -64q-117 -4 -189.5 -84.5t-96.5 -223.5l-28 -164q-20 -117 -58 -180.5
t-93 -90t-125 -31.5l-2 -8q54 -6 93 -27.5t60 -65t21 -115.5q0 -28 -2.5 -60t-9.5 -70l-22 -126q-5 -28 -7.5 -54t-2.5 -50q0 -97 46.5 -150t143.5 -56z" />
    <glyph glyph-name="bar" unicode="|" horiz-adv-x="492" 
d="M288 -756v2880h72v-2880h-72z" />
    <glyph glyph-name="braceright" unicode="}" horiz-adv-x="708" 
d="M54 -260l12 64q117 5 190.5 85.5t97.5 222.5l28 164q20 117 57.5 180.5t92 90t124.5 31.5l2 8q-81 9 -126.5 54.5t-45.5 153.5q0 29 2.5 61t9.5 69l22 126q5 29 7.5 54.5t2.5 49.5q0 200 -192 206l12 64q129 -7 187.5 -78.5t58.5 -203.5q0 -39 -5.5 -84.5t-14.5 -95.5
l-14 -78q-6 -32 -10 -57t-4 -45q0 -79 42 -121.5t114 -42.5h8l-14 -74h-8q-84 0 -145.5 -56t-80.5 -166l-30 -174q-31 -183 -120.5 -295.5t-259.5 -112.5z" />
    <glyph glyph-name="asciitilde" unicode="~" horiz-adv-x="1272" 
d="M270 554q0 65 25 124.5t77 97.5t134 38q74 0 136 -32t118 -70q50 -34 101.5 -60t108.5 -26q72 0 113 50.5t45 137.5h74q0 -65 -24.5 -124.5t-76.5 -97.5t-135 -38q-73 0 -135.5 32.5t-118.5 69.5q-50 34 -101.5 60t-108.5 26q-72 0 -112.5 -49.5t-45.5 -138.5h-74z" />
    <glyph glyph-name="uni00A0" unicode="&#xa0;" horiz-adv-x="440" 
 />
    <glyph glyph-name="exclamdown" unicode="&#xa1;" horiz-adv-x="492" 
d="M114 -400l88 504l102 534h20l-44 -534l-88 -504h-78zM354 926q-22 0 -36 16t-14 38q0 27 20 46.5t48 19.5q21 0 35.5 -14.5t14.5 -37.5q0 -27 -20.5 -47.5t-47.5 -20.5z" />
    <glyph glyph-name="cent" unicode="&#xa2;" horiz-adv-x="974" 
d="M440 -24l34 192q-115 23 -180.5 123.5t-65.5 272.5q0 180 54 327t151 237.5t225 101.5l34 194h72l-34 -194q104 -12 161.5 -76t64.5 -138l-68 -26q-13 81 -66 125.5t-134 44.5q-115 0 -201 -79.5t-133.5 -214.5t-47.5 -302q0 -154 59.5 -242t174.5 -88q83 0 151.5 50
t108.5 140l68 -28q-51 -108 -132.5 -170t-191.5 -64l-32 -186h-72z" />
    <glyph glyph-name="sterling" unicode="&#xa3;" horiz-adv-x="1160" 
d="M146 0l14 80q108 80 170.5 157.5t89 167t26.5 205.5v5v9h-190l10 66h172q-3 26 -7.5 53.5t-10.5 58.5q-9 47 -16.5 94.5t-7.5 93.5q0 118 54 216.5t161.5 158t268.5 59.5q105 0 190 -29t142 -79l-38 -64q-26 24 -67.5 47.5t-100.5 39t-138 15.5q-134 0 -221.5 -51.5
t-130 -133t-42.5 -171.5q0 -46 7.5 -92.5t16.5 -93.5q6 -30 11.5 -62.5t8.5 -59.5h336l-10 -66h-320v-14.5v-15.5q-6 -163 -74.5 -288.5t-217.5 -239.5h794l-12 -66h-868z" />
    <glyph glyph-name="currency" unicode="&#xa4;" horiz-adv-x="1222" 
d="M176 166l-48 56l178 150q-25 47 -37.5 102.5t-12.5 119.5q0 111 38.5 207.5t105.5 168.5l-118 140l68 56l114 -140q65 48 143.5 76t166.5 28q96 0 168 -29.5t120 -82.5l172 148l48 -56l-178 -150q26 -46 39 -101.5t13 -120.5q0 -111 -39 -207.5t-107 -168.5l118 -140
l-68 -56l-114 138q-63 -49 -141.5 -75.5t-164.5 -26.5q-97 0 -170.5 29t-121.5 83zM638 276q126 0 225 60.5t156 165t57 236.5q0 141 -79 229.5t-223 88.5q-126 0 -225 -60.5t-156 -165t-57 -236.5q0 -141 80 -229.5t222 -88.5z" />
    <glyph glyph-name="yen" unicode="&#xa5;" horiz-adv-x="1068" 
d="M472 0l44 246h-362l12 66h362l42 240h-362l10 66h332l-288 782h76l278 -764l550 764h82l-564 -782h308l-10 -66h-338l-42 -240h338l-12 -66h-338l-44 -246h-74z" />
    <glyph glyph-name="brokenbar" unicode="&#xa6;" horiz-adv-x="492" 
d="M300 732v918h72v-918h-72zM300 -450v918h72v-918h-72z" />
    <glyph glyph-name="section" unicode="&#xa7;" horiz-adv-x="1016" 
d="M428 -240q-138 0 -221.5 49t-124.5 101l64 50q22 -25 57.5 -55t90 -51.5t134.5 -21.5q97 0 176.5 28t126.5 89t47 159q0 92 -70.5 142.5t-205.5 105.5q-104 43 -166.5 78t-90 76.5t-27.5 105.5q0 98 69.5 161.5t180.5 90.5q-88 41 -126 103.5t-38 138.5q0 98 52.5 168.5
t140 108t193.5 37.5q126 0 206.5 -41t117.5 -83l-62 -50q-30 32 -95 67t-167 35q-133 0 -220.5 -62.5t-87.5 -173.5q0 -67 34 -109.5t103.5 -77t174.5 -77.5q64 -26 120.5 -57.5t92 -78.5t35.5 -118q0 -76 -48 -149.5t-158 -114.5q65 -37 92.5 -96.5t27.5 -125.5
q0 -117 -56.5 -195t-153.5 -117.5t-218 -39.5zM672 370q78 26 134 80t56 130q0 64 -43.5 107.5t-116.5 76t-162 64.5q-109 -16 -176.5 -71.5t-67.5 -132.5q0 -45 31 -79t112.5 -73.5t232.5 -101.5z" />
    <glyph glyph-name="dieresis" unicode="&#xa8;" horiz-adv-x="622" 
d="M654 1246q-21 0 -34.5 15t-13.5 37q0 27 22.5 47.5t49.5 20.5q23 0 35.5 -15.5t12.5 -38.5q0 -18 -10 -33t-26.5 -24t-35.5 -9zM322 1246q-21 0 -34.5 15t-13.5 37q0 18 10.5 33.5t27 25t34.5 9.5q23 0 35.5 -15.5t12.5 -38.5q0 -25 -21.5 -45.5t-50.5 -20.5z" />
    <glyph glyph-name="copyright" unicode="&#xa9;" horiz-adv-x="1700" 
d="M940 -24q-154 0 -285.5 55t-230 153.5t-153.5 230t-55 285.5t55 285.5t153.5 230t230 153.5t285.5 55t285.5 -55t230 -153.5t153.5 -230t55 -285.5t-55 -285.5t-153.5 -230t-230 -153.5t-285.5 -55zM952 276q-109 0 -183.5 50t-112.5 147t-38 237q0 99 21.5 179.5
t63.5 137.5t104 88t143 31q104 0 171 -46.5t103 -129.5l-68 -28q-25 56 -76.5 95t-129.5 39q-85 0 -142 -44.5t-85.5 -126.5t-28.5 -195q0 -121 29.5 -202t87 -121.5t141.5 -40.5q74 0 135 34t89 118l60 -24q-33 -96 -106.5 -147t-177.5 -51zM940 44q141 0 260 49.5
t207 138.5t136.5 208.5t48.5 259.5t-48.5 259.5t-136.5 208.5t-207 138.5t-260 49.5q-189 0 -336 -86t-231.5 -234.5t-84.5 -335.5t84.5 -335.5t231.5 -234.5t336 -86z" />
    <glyph glyph-name="ordfeminine" unicode="&#xaa;" horiz-adv-x="856" 
d="M452 546q-99 0 -163.5 63.5t-64.5 168.5q0 109 52.5 179t130.5 103.5t155 33.5q66 0 124.5 -23.5t95.5 -58.5l16 90q5 24 9.5 54t4.5 52q0 77 -41 112.5t-113 35.5q-76 0 -152 -31.5t-126 -58.5l-12 66q50 30 132 61t158 31q69 0 120.5 -22t80.5 -69.5t29 -124.5
q0 -19 -4 -46t-10 -60l-96 -536h-74l20 114q-52 -55 -123.5 -94.5t-148.5 -39.5zM454 612q90 0 163.5 50.5t122.5 99.5l32 186q-36 27 -92 53.5t-122 26.5q-56 0 -115.5 -26t-100 -81t-40.5 -141q0 -84 44.5 -126t107.5 -42z" />
    <glyph glyph-name="guillemotleft" unicode="&#xab;" horiz-adv-x="882" 
d="M720 0l-214 512l392 510h84l-392 -510l214 -512h-84zM360 0l-214 512l392 510h84l-392 -510l214 -512h-84z" />
    <glyph glyph-name="logicalnot" unicode="&#xac;" horiz-adv-x="1272" 
d="M1134 352v502h-868v72h940v-574h-72z" />
    <glyph glyph-name="uni00AD" unicode="&#xad;" horiz-adv-x="758" 
d="M232 560l12 72h446l-12 -72h-446z" />
    <glyph glyph-name="registered" unicode="&#xae;" horiz-adv-x="1700" 
d="M940 -24q-154 0 -285.5 55t-230 153.5t-153.5 230t-55 285.5t55 285.5t153.5 230t230 153.5t285.5 55t285.5 -55t230 -153.5t153.5 -230t55 -285.5t-55 -285.5t-153.5 -230t-230 -153.5t-285.5 -55zM940 44q141 0 260 49.5t207 138.5t136.5 208.5t48.5 259.5t-48.5 259.5
t-136.5 208.5t-207 138.5t-260 49.5q-189 0 -336 -86t-231.5 -234.5t-84.5 -335.5t84.5 -335.5t231.5 -234.5t336 -86zM666 274v846h356q87 0 139 -39.5t74.5 -96.5t22.5 -108q0 -88 -54.5 -156.5t-167.5 -77.5l210 -368h-84l-204 364h-220v-364h-72zM738 710h266
q99 0 138.5 51t39.5 115q0 41 -15.5 80.5t-54 65.5t-108.5 26h-266v-338z" />
    <glyph glyph-name="macron" unicode="&#xaf;" horiz-adv-x="622" 
d="M158 1246l12 66h660l-12 -66h-660z" />
    <glyph glyph-name="degree" unicode="&#xb0;" horiz-adv-x="752" 
d="M504 964q-102 0 -165 64.5t-63 161.5q0 90 43 160t115.5 110t161.5 40q68 0 119.5 -29.5t80 -80.5t28.5 -116q0 -90 -43.5 -160t-116 -110t-160.5 -40zM514 1028q64 0 119 32t89 85.5t34 118.5q0 74 -46.5 123t-123.5 49q-66 0 -121 -32t-88 -85.5t-33 -118.5
q0 -72 46 -122t124 -50z" />
    <glyph glyph-name="plusminus" unicode="&#xb1;" horiz-adv-x="1272" 
d="M698 408v368h-432v72h432v368h72v-368h436v-72h-436v-368h-72zM266 0v72h940v-72h-940z" />
    <glyph glyph-name="uni00B2" unicode="&#xb2;" horiz-adv-x="686" 
d="M195 888q18 100 68 169.5t119.5 119.5t146.5 93q110 62 161 115.5t51 144.5q0 53 -33.5 98.5t-114.5 45.5q-85 0 -134.5 -43t-81.5 -109l-64 28q33 80 105 138t177 58q65 0 115.5 -25.5t79.5 -72t29 -110.5q0 -83 -28.5 -139.5t-88.5 -102.5t-153 -96q-109 -58 -164 -112
t-84 -120h416l-14 -80h-508z" />
    <glyph glyph-name="uni00B3" unicode="&#xb3;" horiz-adv-x="712" 
d="M471 864q-105 0 -171.5 52t-90.5 134l68 24q27 -66 69.5 -102t124.5 -36q96 0 162 53t66 149q0 63 -37 104.5t-111 41.5h-62l14 72h42q83 0 138.5 59.5t55.5 134.5q0 53 -33 88.5t-101 35.5q-70 0 -122.5 -35.5t-91.5 -92.5l-64 30q48 80 123 125t157 45q96 0 153 -49.5
t57 -144.5q0 -73 -42.5 -135.5t-123.5 -92.5q59 -16 91.5 -64t32.5 -122q0 -84 -42.5 -145.5t-112 -95t-149.5 -33.5z" />
    <glyph glyph-name="acute" unicode="&#xb4;" horiz-adv-x="622" 
d="M370 1152l276 312h98l-312 -312h-62z" />
    <glyph glyph-name="uni00B5" unicode="&#xb5;" horiz-adv-x="1072" 
d="M94 -406l252 1428h72l-110 -640q-27 -156 13 -248t187 -92q75 0 145.5 37.5t124.5 122t78 226.5l102 594h74l-180 -1022h-70l30 176q-54 -94 -137 -147t-175 -53q-85 0 -147.5 30t-94.5 94l-84 -470z" />
    <glyph glyph-name="paragraph" unicode="&#xb6;" horiz-adv-x="1156" 
d="M498 -348l164 938q-172 0 -271 54t-141 134.5t-42 161.5q0 72 26 147t84 138t153.5 102t234.5 39h452l-272 -1548l-80 -36l266 1512h-210l-282 -1608z" />
    <glyph glyph-name="periodcentered" unicode="&#xb7;" horiz-adv-x="364" 
d="M268 640q-21 0 -34.5 15t-13.5 37q0 27 22.5 47.5t49.5 20.5q23 0 35.5 -15.5t12.5 -38.5q0 -27 -21.5 -46.5t-50.5 -19.5z" />
    <glyph glyph-name="cedilla" unicode="&#xb8;" horiz-adv-x="622" 
d="M112 -468q-46 0 -79 15.5t-53 40.5l56 36q12 -12 32.5 -23t51.5 -11q71 0 110.5 41.5t39.5 98.5q0 45 -29.5 73.5t-80.5 28.5q-19 0 -38.5 -3.5t-39.5 -12.5l-16 24l160 180h48l-102 -138q89 0 128.5 -45t39.5 -99q0 -82 -63 -144t-165 -62z" />
    <glyph glyph-name="uni00B9" unicode="&#xb9;" horiz-adv-x="348" 
d="M281 888l118 668h-112l8 44q75 5 108 37t54 95h50l-148 -844h-78z" />
    <glyph glyph-name="ordmasculine" unicode="&#xba;" horiz-adv-x="890" 
d="M532 544q-124 0 -198 89.5t-74 248.5q0 165 51.5 287t144 188.5t214.5 66.5q129 0 201.5 -91t72.5 -247q0 -164 -51.5 -286t-144.5 -189t-216 -67zM544 616q144 0 233 127t89 343q0 129 -54.5 197.5t-149.5 68.5q-148 0 -236 -127t-88 -343q0 -126 55 -196t151 -70z" />
    <glyph glyph-name="guillemotright" unicode="&#xbb;" horiz-adv-x="882" 
d="M402 0l394 512l-216 510h84l216 -510l-394 -512h-84zM42 0l394 512l-216 510h84l216 -510l-394 -512h-84z" />
    <glyph glyph-name="onequarter" unicode="&#xbc;" horiz-adv-x="1282" 
d="M224 566l118 668h-112l8 44q75 5 108 37t54 95h50l-148 -844h-78zM2 -24l1208 1448h88l-1208 -1448h-88zM1016 0l40 234h-426l8 40l538 572h64l-96 -540h112l-12 -72h-112l-40 -234h-76zM754 306h314l74 410z" />
    <glyph glyph-name="onehalf" unicode="&#xbd;" horiz-adv-x="1416" 
d="M224 566l118 668h-112l8 44q75 5 108 37t54 95h50l-148 -844h-78zM2 -24l1208 1448h88l-1208 -1448h-88zM768 0q18 100 68 169.5t119.5 119.5t146.5 93q110 62 161 115.5t51 144.5q0 53 -33.5 98.5t-114.5 45.5q-85 0 -134.5 -43t-81.5 -109l-64 28q33 80 105 138t177 58
q65 0 115.5 -25.5t79.5 -72t29 -110.5q0 -83 -28.5 -139.5t-88.5 -102.5t-153 -96q-109 -58 -164 -112t-84 -120h416l-14 -80h-508z" />
    <glyph glyph-name="threequarters" unicode="&#xbe;" horiz-adv-x="1568" 
d="M414 542q-105 0 -171.5 52t-90.5 134l68 24q27 -66 69.5 -102t124.5 -36q96 0 162 53t66 149q0 63 -37 104.5t-111 41.5h-62l14 72h42q83 0 138.5 59.5t55.5 134.5q0 53 -33 88.5t-101 35.5q-70 0 -122.5 -35.5t-91.5 -92.5l-64 30q48 80 123 125t157 45q96 0 153 -49.5
t57 -144.5q0 -73 -42.5 -135.5t-123.5 -92.5q59 -16 91.5 -64t32.5 -122q0 -84 -42.5 -145.5t-112 -95t-149.5 -33.5zM288 -24l1208 1448h88l-1208 -1448h-88zM1302 0l40 234h-426l8 40l538 572h64l-96 -540h112l-12 -72h-112l-40 -234h-76zM1040 306h314l74 410z" />
    <glyph glyph-name="questiondown" unicode="&#xbf;" horiz-adv-x="1004" 
d="M432 -400q-109 0 -184 40.5t-113.5 110.5t-38.5 159q0 92 35 160t91 121.5t118 104.5q57 46 110.5 96t93.5 111t54 141l12 68h76l-12 -68q-16 -94 -59.5 -162.5t-100.5 -121.5t-116 -100q-58 -47 -109 -95.5t-83 -109t-32 -143.5q0 -102 66.5 -171t199.5 -69
q86 0 164.5 30t135.5 96.5t80 175.5h72q-25 -136 -98.5 -218t-170 -119t-191.5 -37zM686 926q-22 0 -35 16t-13 38q0 27 22 46.5t50 19.5q21 0 34.5 -14.5t13.5 -37.5q0 -27 -22.5 -47.5t-49.5 -20.5z" />
    <glyph glyph-name="Agrave" unicode="&#xc0;" horiz-adv-x="1276" 
d="M116 0l710 1400h52l226 -1400h-74l-66 394h-568l-200 -394h-80zM424 454h532l-92 604q-3 17 -10.5 60.5t-14.5 89.5t-9 72q-10 -26 -31 -72t-41 -89t-28 -59zM860 1530l-282 312h105l250 -312h-73z" />
    <glyph glyph-name="Aacute" unicode="&#xc1;" horiz-adv-x="1276" 
d="M116 0l710 1400h52l226 -1400h-74l-66 394h-568l-200 -394h-80zM424 454h532l-92 604q-3 17 -10.5 60.5t-14.5 89.5t-9 72q-10 -26 -31 -72t-41 -89t-28 -59zM810 1530l356 312h110l-392 -312h-74z" />
    <glyph glyph-name="Acircumflex" unicode="&#xc2;" horiz-adv-x="1276" 
d="M116 0l710 1400h52l226 -1400h-74l-66 394h-568l-200 -394h-80zM424 454h532l-92 604q-3 17 -10.5 60.5t-14.5 89.5t-9 72q-10 -26 -31 -72t-41 -89t-28 -59zM539 1530l358 312h64l246 -312h-70l-218 240l-302 -240h-78z" />
    <glyph glyph-name="Atilde" unicode="&#xc3;" horiz-adv-x="1276" 
d="M116 0l710 1400h52l226 -1400h-74l-66 394h-568l-200 -394h-80zM424 454h532l-92 604q-3 17 -10.5 60.5t-14.5 89.5t-9 72q-10 -26 -31 -72t-41 -89t-28 -59zM1050 1582q-56 0 -96.5 27.5t-75.5 58.5q-32 29 -65 52.5t-75 23.5q-46 0 -79.5 -39.5t-50.5 -114.5h-56
q17 96 67.5 158t134.5 62q56 0 97.5 -28t75.5 -59q32 -28 64.5 -51.5t74.5 -23.5q47 0 80.5 39.5t49.5 114.5h56q-16 -96 -67 -158t-135 -62z" />
    <glyph glyph-name="Adieresis" unicode="&#xc4;" horiz-adv-x="1276" 
d="M116 0l710 1400h52l226 -1400h-74l-66 394h-568l-200 -394h-80zM424 454h532l-92 604q-3 17 -10.5 60.5t-14.5 89.5t-9 72q-10 -26 -31 -72t-41 -89t-28 -59zM1064 1626q-21 0 -34.5 15t-13.5 37q0 27 22.5 47.5t49.5 20.5q23 0 35.5 -15.5t12.5 -38.5q0 -18 -10 -33
t-26.5 -24t-35.5 -9zM712 1626q-21 0 -34.5 15t-13.5 37q0 18 10.5 33.5t27 25t34.5 9.5q23 0 35.5 -15.5t12.5 -38.5q0 -25 -21.5 -45.5t-50.5 -20.5z" />
    <glyph glyph-name="Aring" unicode="&#xc5;" horiz-adv-x="1276" 
d="M116 0l648 1278q-63 20 -101.5 71.5t-38.5 118.5q0 72 34 128.5t92.5 89t131.5 32.5q93 0 150.5 -60t57.5 -140q0 -90 -54 -156t-138 -86l206 -1276h-74l-66 394h-568l-200 -394h-80zM424 454h532l-92 602q-3 17 -10 59t-14 88.5t-10 76.5q-12 -32 -33 -78.5t-41 -88
t-28 -57.5zM832 1330q80 0 135 53t55 135q0 60 -40 99t-100 39q-76 0 -133 -52t-57 -136q0 -63 41.5 -100.5t98.5 -37.5z" />
    <glyph glyph-name="AE" unicode="&#xc6;" horiz-adv-x="1674" 
d="M-38 0l1054 1400h668l-10 -66h-598l-102 -576h384l-12 -66h-384l-110 -626h642l-12 -66h-716l70 394h-490l-294 -394h-90zM390 454h456l140 800q-18 -27 -36 -51.5t-38 -50.5z" />
    <glyph glyph-name="Ccedilla" unicode="&#xc7;" horiz-adv-x="1240" 
d="M654 -24q-115 0 -196 45.5t-131.5 124.5t-73.5 178.5t-23 207.5q0 164 44.5 322.5t130.5 287t210.5 205.5t284.5 77q110 0 179 -32.5t110.5 -84.5t68.5 -109l-68 -36q-40 83 -101.5 136.5t-190.5 53.5q-141 0 -250.5 -70.5t-184.5 -189t-114 -264t-39 -294.5
q0 -128 34.5 -239t112 -179t205.5 -68q91 0 163.5 31.5t125.5 80.5t87 102l68 -30q-41 -64 -101.5 -122.5t-146.5 -96t-204 -37.5zM538 -468q-46 0 -79 15.5t-53 40.5l56 36q12 -12 32.5 -23t51.5 -11q71 0 110.5 41.5t39.5 98.5q0 45 -29.5 73.5t-80.5 28.5
q-19 0 -38.5 -3.5t-39.5 -12.5l-16 24l138 160h52l-84 -118q89 0 128.5 -45.5t39.5 -108.5q0 -79 -63 -137.5t-165 -58.5z" />
    <glyph glyph-name="Egrave" unicode="&#xc8;" horiz-adv-x="1124" 
d="M174 0l246 1400h714l-10 -66h-640l-102 -576h426l-12 -66h-426l-110 -626h684l-12 -66h-758zM788 1530l-282 312h105l250 -312h-73z" />
    <glyph glyph-name="Eacute" unicode="&#xc9;" horiz-adv-x="1124" 
d="M174 0l246 1400h714l-10 -66h-640l-102 -576h426l-12 -66h-426l-110 -626h684l-12 -66h-758zM738 1530l356 312h110l-392 -312h-74z" />
    <glyph glyph-name="Ecircumflex" unicode="&#xca;" horiz-adv-x="1124" 
d="M174 0l246 1400h714l-10 -66h-640l-102 -576h426l-12 -66h-426l-110 -626h684l-12 -66h-758zM467 1530l358 312h64l246 -312h-70l-218 240l-302 -240h-78z" />
    <glyph glyph-name="Edieresis" unicode="&#xcb;" horiz-adv-x="1124" 
d="M174 0l246 1400h714l-10 -66h-640l-102 -576h426l-12 -66h-426l-110 -626h684l-12 -66h-758zM992 1626q-21 0 -34.5 15t-13.5 37q0 27 22.5 47.5t49.5 20.5q23 0 35.5 -15.5t12.5 -38.5q0 -18 -10 -33t-26.5 -24t-35.5 -9zM640 1626q-21 0 -34.5 15t-13.5 37
q0 18 10.5 33.5t27 25t34.5 9.5q23 0 35.5 -15.5t12.5 -38.5q0 -25 -21.5 -45.5t-50.5 -20.5z" />
    <glyph glyph-name="Igrave" unicode="&#xcc;" horiz-adv-x="494" 
d="M174 0l246 1400h74l-246 -1400h-74zM468 1530l-282 312h105l250 -312h-73z" />
    <glyph glyph-name="Iacute" unicode="&#xcd;" horiz-adv-x="494" 
d="M174 0l246 1400h74l-246 -1400h-74zM418 1530l356 312h110l-392 -312h-74z" />
    <glyph glyph-name="Icircumflex" unicode="&#xce;" horiz-adv-x="494" 
d="M174 0l246 1400h74l-246 -1400h-74zM147 1530l358 312h64l246 -312h-70l-218 240l-302 -240h-78z" />
    <glyph glyph-name="Idieresis" unicode="&#xcf;" horiz-adv-x="494" 
d="M174 0l246 1400h74l-246 -1400h-74zM672 1626q-21 0 -34.5 15t-13.5 37q0 27 22.5 47.5t49.5 20.5q23 0 35.5 -15.5t12.5 -38.5q0 -18 -10 -33t-26.5 -24t-35.5 -9zM320 1626q-21 0 -34.5 15t-13.5 37q0 18 10.5 33.5t27 25t34.5 9.5q23 0 35.5 -15.5t12.5 -38.5
q0 -25 -21.5 -45.5t-50.5 -20.5z" />
    <glyph glyph-name="Eth" unicode="&#xd0;" horiz-adv-x="1296" 
d="M150 664l12 72h630l-12 -72h-630zM174 0l246 1400h300q144 0 242.5 -46.5t158.5 -125t86.5 -178t26.5 -206.5q0 -131 -30.5 -254.5t-92 -230.5t-153.5 -187.5t-215 -126t-277 -45.5h-292zM262 72h218q158 0 282.5 60t211.5 165.5t132.5 246t45.5 300.5q0 126 -41 236.5
t-138.5 179t-266.5 68.5h-226z" />
    <glyph glyph-name="Ntilde" unicode="&#xd1;" horiz-adv-x="1326" 
d="M174 0l246 1400h70l448 -1050q23 -51 46.5 -106.5t45.5 -109.5q9 54 19 111t19 105l184 1050h74l-246 -1400h-70l-448 1046q-15 34 -30.5 70.5t-31 74t-30.5 75.5q-6 -37 -12.5 -75t-13 -75t-12.5 -70l-184 -1046h-74zM1072 1582q-56 0 -96.5 27.5t-75.5 58.5
q-32 29 -65 52.5t-75 23.5q-46 0 -79.5 -39.5t-50.5 -114.5h-56q17 96 67.5 158t134.5 62q56 0 97.5 -28t75.5 -59q32 -28 64.5 -51.5t74.5 -23.5q47 0 80.5 39.5t49.5 114.5h56q-16 -96 -67 -158t-135 -62z" />
    <glyph glyph-name="Ograve" unicode="&#xd2;" horiz-adv-x="1393" 
d="M667 -24q-118 0 -201 47.5t-135 128.5t-76 181.5t-24 206.5q0 115 25 238t76.5 238t131.5 207t189.5 146.5t251.5 54.5q119 0 201 -45.5t132 -123.5t72.5 -177.5t22.5 -207.5q0 -116 -24 -241t-74.5 -241t-129 -209t-187.5 -148t-251 -55zM677 48q125 0 220.5 51
t163.5 138t111.5 194.5t64 221.5t20.5 219q0 126 -34.5 235.5t-114 177t-213.5 67.5q-125 0 -221 -51t-165.5 -136.5t-114 -192.5t-66 -221t-21.5 -219q0 -129 36 -239t117 -177.5t217 -67.5zM911 1530l-282 312h105l250 -312h-73z" />
    <glyph glyph-name="Oacute" unicode="&#xd3;" horiz-adv-x="1393" 
d="M667 -24q-118 0 -201 47.5t-135 128.5t-76 181.5t-24 206.5q0 115 25 238t76.5 238t131.5 207t189.5 146.5t251.5 54.5q119 0 201 -45.5t132 -123.5t72.5 -177.5t22.5 -207.5q0 -116 -24 -241t-74.5 -241t-129 -209t-187.5 -148t-251 -55zM677 48q125 0 220.5 51
t163.5 138t111.5 194.5t64 221.5t20.5 219q0 126 -34.5 235.5t-114 177t-213.5 67.5q-125 0 -221 -51t-165.5 -136.5t-114 -192.5t-66 -221t-21.5 -219q0 -129 36 -239t117 -177.5t217 -67.5zM861 1530l356 312h110l-392 -312h-74z" />
    <glyph glyph-name="Ocircumflex" unicode="&#xd4;" horiz-adv-x="1393" 
d="M667 -24q-118 0 -201 47.5t-135 128.5t-76 181.5t-24 206.5q0 115 25 238t76.5 238t131.5 207t189.5 146.5t251.5 54.5q119 0 201 -45.5t132 -123.5t72.5 -177.5t22.5 -207.5q0 -116 -24 -241t-74.5 -241t-129 -209t-187.5 -148t-251 -55zM677 48q125 0 220.5 51
t163.5 138t111.5 194.5t64 221.5t20.5 219q0 126 -34.5 235.5t-114 177t-213.5 67.5q-125 0 -221 -51t-165.5 -136.5t-114 -192.5t-66 -221t-21.5 -219q0 -129 36 -239t117 -177.5t217 -67.5zM590 1530l358 312h64l246 -312h-70l-218 240l-302 -240h-78z" />
    <glyph glyph-name="Otilde" unicode="&#xd5;" horiz-adv-x="1393" 
d="M667 -24q-118 0 -201 47.5t-135 128.5t-76 181.5t-24 206.5q0 115 25 238t76.5 238t131.5 207t189.5 146.5t251.5 54.5q119 0 201 -45.5t132 -123.5t72.5 -177.5t22.5 -207.5q0 -116 -24 -241t-74.5 -241t-129 -209t-187.5 -148t-251 -55zM677 48q125 0 220.5 51
t163.5 138t111.5 194.5t64 221.5t20.5 219q0 126 -34.5 235.5t-114 177t-213.5 67.5q-125 0 -221 -51t-165.5 -136.5t-114 -192.5t-66 -221t-21.5 -219q0 -129 36 -239t117 -177.5t217 -67.5zM1101 1582q-56 0 -96.5 27.5t-75.5 58.5q-32 29 -65 52.5t-75 23.5
q-46 0 -79.5 -39.5t-50.5 -114.5h-56q17 96 67.5 158t134.5 62q56 0 97.5 -28t75.5 -59q32 -28 64.5 -51.5t74.5 -23.5q47 0 80.5 39.5t49.5 114.5h56q-16 -96 -67 -158t-135 -62z" />
    <glyph glyph-name="Odieresis" unicode="&#xd6;" horiz-adv-x="1393" 
d="M667 -24q-118 0 -201 47.5t-135 128.5t-76 181.5t-24 206.5q0 115 25 238t76.5 238t131.5 207t189.5 146.5t251.5 54.5q119 0 201 -45.5t132 -123.5t72.5 -177.5t22.5 -207.5q0 -116 -24 -241t-74.5 -241t-129 -209t-187.5 -148t-251 -55zM677 48q125 0 220.5 51
t163.5 138t111.5 194.5t64 221.5t20.5 219q0 126 -34.5 235.5t-114 177t-213.5 67.5q-125 0 -221 -51t-165.5 -136.5t-114 -192.5t-66 -221t-21.5 -219q0 -129 36 -239t117 -177.5t217 -67.5zM1115 1626q-21 0 -34.5 15t-13.5 37q0 27 22.5 47.5t49.5 20.5q23 0 35.5 -15.5
t12.5 -38.5q0 -18 -10 -33t-26.5 -24t-35.5 -9zM763 1626q-21 0 -34.5 15t-13.5 37q0 18 10.5 33.5t27 25t34.5 9.5q23 0 35.5 -15.5t12.5 -38.5q0 -25 -21.5 -45.5t-50.5 -20.5z" />
    <glyph glyph-name="multiply" unicode="&#xd7;" horiz-adv-x="1272" 
d="M358 254l-50 48l380 380l-380 380l50 48l378 -378l378 378l50 -48l-380 -380l380 -380l-50 -48l-378 378z" />
    <glyph glyph-name="Oslash" unicode="&#xd8;" horiz-adv-x="1392" 
d="M134 -24l176 208q-42 77 -61 168.5t-19 187.5q0 115 25 238t76.5 238t131.5 207t189.5 146.5t251.5 54.5q113 0 192 -41.5t130 -110.5l128 152h84l-178 -210q38 -73 55 -161t17 -183q0 -116 -24 -241t-74.5 -241t-129 -209t-187.5 -148t-251 -55q-109 0 -188 41.5
t-132 110.5l-128 -152h-84zM676 48q125 0 220.5 51t163.5 138t111.5 194.5t64 221.5t20.5 219q0 75 -12 145.5t-38 130.5l-812 -962q44 -64 113.5 -101t168.5 -37zM360 246l814 964q-43 65 -112 103.5t-168 38.5q-125 0 -221 -51t-165 -136.5t-113.5 -192.5t-65.5 -221
t-21 -219q0 -79 12.5 -152.5t39.5 -133.5z" />
    <glyph glyph-name="Ugrave" unicode="&#xd9;" horiz-adv-x="1276" 
d="M610 -24q-153 0 -240.5 69.5t-113.5 193t2 285.5l154 876h76l-152 -862q-23 -134 -8 -246t82 -179t200 -67q94 0 184 37.5t159 136t101 282.5l156 898h74l-156 -902q-24 -140 -70.5 -239.5t-112.5 -162t-150 -91.5t-185 -29zM860 1532l-282 312h105l250 -312h-73z" />
    <glyph glyph-name="Uacute" unicode="&#xda;" horiz-adv-x="1276" 
d="M610 -24q-153 0 -240.5 69.5t-113.5 193t2 285.5l154 876h76l-152 -862q-23 -134 -8 -246t82 -179t200 -67q94 0 184 37.5t159 136t101 282.5l156 898h74l-156 -902q-24 -140 -70.5 -239.5t-112.5 -162t-150 -91.5t-185 -29zM810 1532l356 312h110l-392 -312h-74z" />
    <glyph glyph-name="Ucircumflex" unicode="&#xdb;" horiz-adv-x="1276" 
d="M610 -24q-153 0 -240.5 69.5t-113.5 193t2 285.5l154 876h76l-152 -862q-23 -134 -8 -246t82 -179t200 -67q94 0 184 37.5t159 136t101 282.5l156 898h74l-156 -902q-24 -140 -70.5 -239.5t-112.5 -162t-150 -91.5t-185 -29zM539 1532l358 312h64l246 -312h-70l-218 240
l-302 -240h-78z" />
    <glyph glyph-name="Udieresis" unicode="&#xdc;" horiz-adv-x="1276" 
d="M610 -24q-153 0 -240.5 69.5t-113.5 193t2 285.5l154 876h76l-152 -862q-23 -134 -8 -246t82 -179t200 -67q94 0 184 37.5t159 136t101 282.5l156 898h74l-156 -902q-24 -140 -70.5 -239.5t-112.5 -162t-150 -91.5t-185 -29zM1064 1628q-21 0 -34.5 15t-13.5 37
q0 27 22.5 47.5t49.5 20.5q23 0 35.5 -15.5t12.5 -38.5q0 -18 -10 -33t-26.5 -24t-35.5 -9zM712 1628q-21 0 -34.5 15t-13.5 37q0 18 10.5 33.5t27 25t34.5 9.5q23 0 35.5 -15.5t12.5 -38.5q0 -25 -21.5 -45.5t-50.5 -20.5z" />
    <glyph glyph-name="Yacute" unicode="&#xdd;" horiz-adv-x="1160" 
d="M510 0l98 554l-300 846h74l270 -770l536 770h82l-590 -846l-98 -554h-72zM746 1530l356 312h110l-392 -312h-74z" />
    <glyph glyph-name="Thorn" unicode="&#xde;" horiz-adv-x="1160" 
d="M176 0l244 1400h74l-46 -278h362q106 0 178.5 -29.5t116.5 -79.5t63.5 -112t19.5 -127q0 -80 -29.5 -163.5t-92 -154t-161 -113.5t-237.5 -43h-366l-52 -300h-74zM314 372h360q116 0 198.5 37t134 97t75.5 130.5t24 137.5q0 70 -28.5 133t-96 103t-183.5 40h-364z" />
    <glyph glyph-name="germandbls" unicode="&#xdf;" horiz-adv-x="1084" 
d="M82 -388l240 1360q30 166 99 265t159.5 143t185.5 44q94 0 161.5 -36.5t104 -102.5t36.5 -153q0 -64 -25 -143t-89 -144t-180 -87q131 -22 188.5 -110t57.5 -192q0 -147 -64 -254.5t-166.5 -166.5t-219.5 -59q-45 0 -76.5 5.5t-49.5 12.5l46 62q18 -4 38 -6t44 -2
q89 0 174 45.5t140.5 136t55.5 226.5q0 70 -29.5 131.5t-97 100t-181.5 38.5h-8l12 66h8q150 0 247 82t97 256q0 104 -57 163t-167 59q-132 0 -233 -90t-137 -290l-232 -1324z" />
    <glyph glyph-name="agrave" unicode="&#xe0;" horiz-adv-x="994" 
d="M422 -24q-124 0 -196 76t-72 208q0 108 52 192.5t142.5 133t205.5 48.5q80 0 148 -25.5t132 -78.5l24 130q32 168 -11 244t-169 76q-67 0 -149.5 -26t-172.5 -76l-14 64q99 54 182 79t156 25q106 0 169 -41.5t83.5 -123.5t-0.5 -205l-118 -676h-72l26 150
q-78 -85 -165.5 -129.5t-180.5 -44.5zM426 42q92 0 180 50t178 152l40 222q-64 50 -133.5 75t-140.5 25q-90 0 -161 -40.5t-112 -109.5t-41 -156q0 -100 51.5 -159t138.5 -59zM686 1152l-282 312h105l250 -312h-73z" />
    <glyph glyph-name="aacute" unicode="&#xe1;" horiz-adv-x="994" 
d="M422 -24q-124 0 -196 76t-72 208q0 108 52 192.5t142.5 133t205.5 48.5q80 0 148 -25.5t132 -78.5l24 130q32 168 -11 244t-169 76q-67 0 -149.5 -26t-172.5 -76l-14 64q99 54 182 79t156 25q106 0 169 -41.5t83.5 -123.5t-0.5 -205l-118 -676h-72l26 150
q-78 -85 -165.5 -129.5t-180.5 -44.5zM426 42q92 0 180 50t178 152l40 222q-64 50 -133.5 75t-140.5 25q-90 0 -161 -40.5t-112 -109.5t-41 -156q0 -100 51.5 -159t138.5 -59zM634 1152l354 312h114l-390 -312h-78z" />
    <glyph glyph-name="acircumflex" unicode="&#xe2;" horiz-adv-x="994" 
d="M422 -24q-124 0 -196 76t-72 208q0 108 52 192.5t142.5 133t205.5 48.5q80 0 148 -25.5t132 -78.5l24 130q32 168 -11 244t-169 76q-67 0 -149.5 -26t-172.5 -76l-14 64q99 54 182 79t156 25q106 0 169 -41.5t83.5 -123.5t-0.5 -205l-118 -676h-72l26 150
q-78 -85 -165.5 -129.5t-180.5 -44.5zM426 42q92 0 180 50t178 152l40 222q-64 50 -133.5 75t-140.5 25q-90 0 -161 -40.5t-112 -109.5t-41 -156q0 -100 51.5 -159t138.5 -59zM365 1152l358 312h64l246 -312h-70l-218 240l-302 -240h-78z" />
    <glyph glyph-name="atilde" unicode="&#xe3;" horiz-adv-x="994" 
d="M422 -24q-124 0 -196 76t-72 208q0 108 52 192.5t142.5 133t205.5 48.5q80 0 148 -25.5t132 -78.5l24 130q32 168 -11 244t-169 76q-67 0 -149.5 -26t-172.5 -76l-14 64q99 54 182 79t156 25q106 0 169 -41.5t83.5 -123.5t-0.5 -205l-118 -676h-72l26 150
q-78 -85 -165.5 -129.5t-180.5 -44.5zM426 42q92 0 180 50t178 152l40 222q-64 50 -133.5 75t-140.5 25q-90 0 -161 -40.5t-112 -109.5t-41 -156q0 -100 51.5 -159t138.5 -59zM876 1204q-56 0 -96.5 27.5t-75.5 58.5q-32 29 -65 52.5t-75 23.5q-46 0 -79.5 -39.5
t-50.5 -114.5h-56q17 96 67.5 158t134.5 62q56 0 97.5 -28t75.5 -59q32 -28 64.5 -51.5t74.5 -23.5q47 0 80.5 39.5t49.5 114.5h56q-16 -96 -67 -158t-135 -62z" />
    <glyph glyph-name="adieresis" unicode="&#xe4;" horiz-adv-x="994" 
d="M422 -24q-124 0 -196 76t-72 208q0 108 52 192.5t142.5 133t205.5 48.5q80 0 148 -25.5t132 -78.5l24 130q32 168 -11 244t-169 76q-67 0 -149.5 -26t-172.5 -76l-14 64q99 54 182 79t156 25q106 0 169 -41.5t83.5 -123.5t-0.5 -205l-118 -676h-72l26 150
q-78 -85 -165.5 -129.5t-180.5 -44.5zM426 42q92 0 180 50t178 152l40 222q-64 50 -133.5 75t-140.5 25q-90 0 -161 -40.5t-112 -109.5t-41 -156q0 -100 51.5 -159t138.5 -59zM880 1246q-21 0 -34.5 15t-13.5 37q0 27 22.5 47.5t49.5 20.5q23 0 35.5 -15.5t12.5 -38.5
q0 -18 -10 -33t-26.5 -24t-35.5 -9zM548 1246q-21 0 -34.5 15t-13.5 37q0 18 10.5 33.5t27 25t34.5 9.5q23 0 35.5 -15.5t12.5 -38.5q0 -25 -21.5 -45.5t-50.5 -20.5z" />
    <glyph glyph-name="aring" unicode="&#xe5;" horiz-adv-x="994" 
d="M422 -24q-124 0 -196 76t-72 208q0 108 52 192.5t142.5 133t205.5 48.5q80 0 148 -25.5t132 -78.5l24 130q32 168 -11 244t-169 76q-67 0 -149.5 -26t-172.5 -76l-14 64q99 54 182 79t156 25q106 0 169 -41.5t83.5 -123.5t-0.5 -205l-118 -676h-72l26 150
q-78 -85 -165.5 -129.5t-180.5 -44.5zM426 42q92 0 180 50t178 152l40 222q-64 50 -133.5 75t-140.5 25q-90 0 -161 -40.5t-112 -109.5t-41 -156q0 -100 51.5 -159t138.5 -59zM699 1100q-88 0 -148 58t-60 142q0 72 34 128.5t92.5 89t131.5 32.5q93 0 150.5 -60t57.5 -140
q0 -72 -34 -128.5t-92.5 -89t-131.5 -32.5zM699 1162q80 0 135 53t55 135q0 60 -40 99t-100 39q-76 0 -133 -52t-57 -136q0 -63 41.5 -100.5t98.5 -37.5z" />
    <glyph glyph-name="ae" unicode="&#xe6;" horiz-adv-x="1651" 
d="M430 -24q-93 0 -154 35.5t-91.5 99.5t-30.5 149q0 121 58.5 204.5t150 126.5t191.5 43q90 0 159 -29.5t121 -74.5l28 154q24 135 -13.5 215.5t-168.5 80.5q-88 0 -173 -33t-151 -69l-14 64q63 33 149 68.5t191 35.5q58 0 115.5 -17.5t97.5 -65.5t47 -139
q68 107 166 164.5t212 57.5q86 0 155.5 -35t110 -111t40.5 -200q0 -37 -6.5 -85t-21.5 -125h-690q-14 -131 4 -230.5t78.5 -155.5t173.5 -56q57 0 120 22.5t124 67.5l38 -56q-61 -46 -134.5 -76t-165.5 -30q-124 0 -202.5 67t-105.5 193q-105 -144 -210 -202t-198 -58z
M432 42q117 0 218.5 77t177.5 183q-3 32 -3 82t3 80q-51 39 -121 70.5t-157 31.5q-72 0 -144.5 -33.5t-121 -101.5t-48.5 -171q0 -94 48.5 -156t147.5 -62zM918 556h618q23 119 8.5 215t-69.5 152.5t-153 56.5q-119 0 -201.5 -60.5t-132 -157.5t-70.5 -206z" />
    <glyph glyph-name="ccedilla" unicode="&#xe7;" horiz-adv-x="906" 
d="M486 -24q-147 0 -229.5 106t-82.5 296q0 193 59.5 344t164 237.5t238.5 86.5q108 0 182.5 -60.5t83.5 -155.5l-68 -26q-13 81 -66 125.5t-134 44.5q-111 0 -197 -77t-135.5 -211.5t-49.5 -307.5q0 -159 61 -244.5t173 -85.5q83 0 151.5 50t108.5 140l68 -28
q-54 -114 -138.5 -174t-189.5 -60zM370 -468q-46 0 -79 15.5t-53 40.5l56 36q12 -12 32.5 -23t51.5 -11q71 0 110.5 41.5t39.5 98.5q0 45 -29.5 73.5t-80.5 28.5q-19 0 -38.5 -3.5t-39.5 -12.5l-16 24l138 160h52l-84 -118q89 0 128.5 -45.5t39.5 -108.5q0 -79 -63 -137.5
t-165 -58.5z" />
    <glyph glyph-name="egrave" unicode="&#xe8;" horiz-adv-x="1002" 
d="M496 -24q-105 0 -176.5 47.5t-108.5 138t-37 220.5q0 152 38.5 274t106.5 209.5t158 134t193 46.5q86 0 155.5 -35t110 -111t40.5 -200q0 -40 -6.5 -89.5t-21.5 -120.5h-690q-15 -131 3.5 -230.5t79.5 -155.5t173 -56q57 0 120 22.5t124 67.5l38 -56q-61 -46 -134.5 -76
t-165.5 -30zM268 556h618q18 115 7 211.5t-63 154.5t-158 58q-119 0 -201.5 -60.5t-132 -157.5t-70.5 -206zM676 1152l-282 312h105l250 -312h-73z" />
    <glyph glyph-name="eacute" unicode="&#xe9;" horiz-adv-x="1002" 
d="M496 -24q-105 0 -176.5 47.5t-108.5 138t-37 220.5q0 152 38.5 274t106.5 209.5t158 134t193 46.5q86 0 155.5 -35t110 -111t40.5 -200q0 -40 -6.5 -89.5t-21.5 -120.5h-690q-15 -131 3.5 -230.5t79.5 -155.5t173 -56q57 0 120 22.5t124 67.5l38 -56q-61 -46 -134.5 -76
t-165.5 -30zM268 556h618q18 115 7 211.5t-63 154.5t-158 58q-119 0 -201.5 -60.5t-132 -157.5t-70.5 -206zM624 1152l354 312h114l-390 -312h-78z" />
    <glyph glyph-name="ecircumflex" unicode="&#xea;" horiz-adv-x="1002" 
d="M496 -24q-105 0 -176.5 47.5t-108.5 138t-37 220.5q0 152 38.5 274t106.5 209.5t158 134t193 46.5q86 0 155.5 -35t110 -111t40.5 -200q0 -40 -6.5 -89.5t-21.5 -120.5h-690q-15 -131 3.5 -230.5t79.5 -155.5t173 -56q57 0 120 22.5t124 67.5l38 -56q-61 -46 -134.5 -76
t-165.5 -30zM268 556h618q18 115 7 211.5t-63 154.5t-158 58q-119 0 -201.5 -60.5t-132 -157.5t-70.5 -206zM355 1152l358 312h64l246 -312h-70l-218 240l-302 -240h-78z" />
    <glyph glyph-name="edieresis" unicode="&#xeb;" horiz-adv-x="1002" 
d="M496 -24q-105 0 -176.5 47.5t-108.5 138t-37 220.5q0 152 38.5 274t106.5 209.5t158 134t193 46.5q86 0 155.5 -35t110 -111t40.5 -200q0 -40 -6.5 -89.5t-21.5 -120.5h-690q-15 -131 3.5 -230.5t79.5 -155.5t173 -56q57 0 120 22.5t124 67.5l38 -56q-61 -46 -134.5 -76
t-165.5 -30zM268 556h618q18 115 7 211.5t-63 154.5t-158 58q-119 0 -201.5 -60.5t-132 -157.5t-70.5 -206zM870 1246q-21 0 -34.5 15t-13.5 37q0 27 22.5 47.5t49.5 20.5q23 0 35.5 -15.5t12.5 -38.5q0 -18 -10 -33t-26.5 -24t-35.5 -9zM538 1246q-21 0 -34.5 15t-13.5 37
q0 18 10.5 33.5t27 25t34.5 9.5q23 0 35.5 -15.5t12.5 -38.5q0 -25 -21.5 -45.5t-50.5 -20.5z" />
    <glyph glyph-name="igrave" unicode="&#xec;" horiz-adv-x="456" 
d="M172 0l180 1022h70l-178 -1022h-72zM396 1152l-282 312h105l250 -312h-73z" />
    <glyph glyph-name="iacute" unicode="&#xed;" horiz-adv-x="456" 
d="M172 0l180 1022h70l-178 -1022h-72zM344 1152l354 312h114l-390 -312h-78z" />
    <glyph glyph-name="icircumflex" unicode="&#xee;" horiz-adv-x="456" 
d="M172 0l180 1022h70l-178 -1022h-72zM75 1152l358 312h64l246 -312h-70l-218 240l-302 -240h-78z" />
    <glyph glyph-name="idieresis" unicode="&#xef;" horiz-adv-x="456" 
d="M172 0l180 1022h70l-178 -1022h-72zM590 1246q-21 0 -34.5 15t-13.5 37q0 27 22.5 47.5t49.5 20.5q23 0 35.5 -15.5t12.5 -38.5q0 -18 -10 -33t-26.5 -24t-35.5 -9zM258 1246q-21 0 -34.5 15t-13.5 37q0 18 10.5 33.5t27 25t34.5 9.5q23 0 35.5 -15.5t12.5 -38.5
q0 -25 -21.5 -45.5t-50.5 -20.5z" />
    <glyph glyph-name="eth" unicode="&#xf0;" horiz-adv-x="1025" 
d="M507 -24q-105 0 -179 52.5t-113.5 142.5t-39.5 203q0 118 37 216.5t101.5 170.5t149 111.5t178.5 39.5q89 0 148 -33t92.5 -84t45.5 -105q0 194 -44 324.5t-140 215.5l-168 -156l-38 44l158 148q-51 35 -116.5 58.5t-137.5 35.5l12 64q89 -15 161.5 -43t132.5 -67
l148 140l38 -44l-140 -132q108 -97 153 -244.5t45 -329.5q0 -235 -59.5 -397.5t-168.5 -246.5t-256 -84zM519 48q111 0 193.5 62.5t128.5 165.5t46 226q0 144 -69.5 241t-194.5 97q-100 0 -184 -60.5t-135 -165t-51 -236.5q0 -142 69.5 -236t196.5 -94z" />
    <glyph glyph-name="ntilde" unicode="&#xf1;" horiz-adv-x="1062" 
d="M166 0l180 1022h70l-32 -184q51 96 138 152t186 56q106 0 170.5 -49t86 -144t-2.5 -233l-110 -620h-72l108 618q32 185 -15 272.5t-179 87.5q-138 0 -229 -99t-123 -285l-102 -594h-74zM892 1204q-56 0 -96.5 27.5t-75.5 58.5q-32 29 -65 52.5t-75 23.5
q-46 0 -79.5 -39.5t-50.5 -114.5h-56q17 96 67.5 158t134.5 62q56 0 97.5 -28t75.5 -59q32 -28 64.5 -51.5t74.5 -23.5q47 0 80.5 39.5t49.5 114.5h56q-16 -96 -67 -158t-135 -62z" />
    <glyph glyph-name="ograve" unicode="&#xf2;" horiz-adv-x="1040" 
d="M506 -24q-154 0 -238 106t-84 304q0 200 60.5 348.5t170.5 230t259 81.5q155 0 240.5 -106.5t85.5 -297.5q0 -204 -60 -353.5t-171 -231t-263 -81.5zM518 48q122 0 213 72t141 203t50 307q0 164 -66 254t-188 90q-124 0 -215 -72.5t-141 -205t-50 -312.5
q0 -162 66.5 -249t189.5 -87zM678 1152l-282 312h105l250 -312h-73z" />
    <glyph glyph-name="oacute" unicode="&#xf3;" horiz-adv-x="1040" 
d="M506 -24q-154 0 -238 106t-84 304q0 200 60.5 348.5t170.5 230t259 81.5q155 0 240.5 -106.5t85.5 -297.5q0 -204 -60 -353.5t-171 -231t-263 -81.5zM518 48q122 0 213 72t141 203t50 307q0 164 -66 254t-188 90q-124 0 -215 -72.5t-141 -205t-50 -312.5
q0 -162 66.5 -249t189.5 -87zM626 1152l354 312h114l-390 -312h-78z" />
    <glyph glyph-name="ocircumflex" unicode="&#xf4;" horiz-adv-x="1040" 
d="M506 -24q-154 0 -238 106t-84 304q0 200 60.5 348.5t170.5 230t259 81.5q155 0 240.5 -106.5t85.5 -297.5q0 -204 -60 -353.5t-171 -231t-263 -81.5zM518 48q122 0 213 72t141 203t50 307q0 164 -66 254t-188 90q-124 0 -215 -72.5t-141 -205t-50 -312.5
q0 -162 66.5 -249t189.5 -87zM357 1152l358 312h64l246 -312h-70l-218 240l-302 -240h-78z" />
    <glyph glyph-name="otilde" unicode="&#xf5;" horiz-adv-x="1040" 
d="M506 -24q-154 0 -238 106t-84 304q0 200 60.5 348.5t170.5 230t259 81.5q155 0 240.5 -106.5t85.5 -297.5q0 -204 -60 -353.5t-171 -231t-263 -81.5zM518 48q122 0 213 72t141 203t50 307q0 164 -66 254t-188 90q-124 0 -215 -72.5t-141 -205t-50 -312.5
q0 -162 66.5 -249t189.5 -87zM868 1204q-56 0 -96.5 27.5t-75.5 58.5q-32 29 -65 52.5t-75 23.5q-46 0 -79.5 -39.5t-50.5 -114.5h-56q17 96 67.5 158t134.5 62q56 0 97.5 -28t75.5 -59q32 -28 64.5 -51.5t74.5 -23.5q47 0 80.5 39.5t49.5 114.5h56q-16 -96 -67 -158
t-135 -62z" />
    <glyph glyph-name="odieresis" unicode="&#xf6;" horiz-adv-x="1040" 
d="M506 -24q-154 0 -238 106t-84 304q0 200 60.5 348.5t170.5 230t259 81.5q155 0 240.5 -106.5t85.5 -297.5q0 -204 -60 -353.5t-171 -231t-263 -81.5zM518 48q122 0 213 72t141 203t50 307q0 164 -66 254t-188 90q-124 0 -215 -72.5t-141 -205t-50 -312.5
q0 -162 66.5 -249t189.5 -87zM872 1246q-21 0 -34.5 15t-13.5 37q0 27 22.5 47.5t49.5 20.5q23 0 35.5 -15.5t12.5 -38.5q0 -18 -10 -33t-26.5 -24t-35.5 -9zM540 1246q-21 0 -34.5 15t-13.5 37q0 18 10.5 33.5t27 25t34.5 9.5q23 0 35.5 -15.5t12.5 -38.5
q0 -25 -21.5 -45.5t-50.5 -20.5z" />
    <glyph glyph-name="divide" unicode="&#xf7;" horiz-adv-x="1272" 
d="M266 650v68h940v-68h-940zM730 210q-24 0 -41 17t-17 41q0 26 17 44t41 18q26 0 42 -18t16 -44q0 -24 -16 -41t-42 -17zM730 1040q-24 0 -41 17t-17 41q0 26 17 44t41 18q26 0 42 -18t16 -44q0 -24 -16 -41t-42 -17z" />
    <glyph glyph-name="oslash" unicode="&#xf8;" horiz-adv-x="1040" 
d="M82 -24l146 168q-21 48 -32.5 108.5t-11.5 133.5q0 153 35 275t100.5 208t155.5 131.5t199 45.5q78 0 139 -29t103 -83l98 112h86l-148 -170q48 -93 48 -234q0 -150 -33.5 -272.5t-97.5 -210.5t-155.5 -135.5t-207.5 -47.5q-78 0 -139 27.5t-103 82.5l-96 -110h-86z
M518 48q95 0 169.5 43t127 121t80 184.5t27.5 233.5q0 53 -7 98t-21 82l-576 -662q32 -49 82.5 -74.5t117.5 -25.5zM286 212l576 660q-31 50 -80 76t-114 26q-98 0 -174 -44t-127.5 -123.5t-78 -187t-26.5 -235.5q0 -49 6 -92.5t18 -79.5z" />
    <glyph glyph-name="ugrave" unicode="&#xf9;" horiz-adv-x="1064" 
d="M488 -24q-111 0 -177 47t-86.5 141t3.5 234l110 624h72l-110 -640q-30 -174 19 -257t181 -83q134 0 225.5 101t122.5 285l102 594h74l-180 -1022h-70l30 176q-55 -96 -138 -148t-178 -52zM690 1152l-282 312h105l250 -312h-73z" />
    <glyph glyph-name="uacute" unicode="&#xfa;" horiz-adv-x="1064" 
d="M488 -24q-111 0 -177 47t-86.5 141t3.5 234l110 624h72l-110 -640q-30 -174 19 -257t181 -83q134 0 225.5 101t122.5 285l102 594h74l-180 -1022h-70l30 176q-55 -96 -138 -148t-178 -52zM638 1152l354 312h114l-390 -312h-78z" />
    <glyph glyph-name="ucircumflex" unicode="&#xfb;" horiz-adv-x="1064" 
d="M488 -24q-111 0 -177 47t-86.5 141t3.5 234l110 624h72l-110 -640q-30 -174 19 -257t181 -83q134 0 225.5 101t122.5 285l102 594h74l-180 -1022h-70l30 176q-55 -96 -138 -148t-178 -52zM369 1152l358 312h64l246 -312h-70l-218 240l-302 -240h-78z" />
    <glyph glyph-name="udieresis" unicode="&#xfc;" horiz-adv-x="1064" 
d="M488 -24q-111 0 -177 47t-86.5 141t3.5 234l110 624h72l-110 -640q-30 -174 19 -257t181 -83q134 0 225.5 101t122.5 285l102 594h74l-180 -1022h-70l30 176q-55 -96 -138 -148t-178 -52zM884 1246q-21 0 -34.5 15t-13.5 37q0 27 22.5 47.5t49.5 20.5q23 0 35.5 -15.5
t12.5 -38.5q0 -18 -10 -33t-26.5 -24t-35.5 -9zM552 1246q-21 0 -34.5 15t-13.5 37q0 18 10.5 33.5t27 25t34.5 9.5q23 0 35.5 -15.5t12.5 -38.5q0 -25 -21.5 -45.5t-50.5 -20.5z" />
    <glyph glyph-name="yacute" unicode="&#xfd;" horiz-adv-x="974" 
d="M204 -388l222 416l-180 994h70l124 -700q9 -51 18 -102.5t18 -105.5q27 54 54 105.5t54 102.5l374 700h78l-756 -1410h-76zM594 1152l354 312h114l-390 -312h-78z" />
    <glyph glyph-name="thorn" unicode="&#xfe;" horiz-adv-x="1068" 
d="M96 -406l318 1814l80 36l-100 -572q66 86 144.5 130t177.5 44q97 0 167 -51t107.5 -143t37.5 -214q0 -154 -35.5 -277t-101 -208.5t-155 -131t-196.5 -45.5q-91 0 -164.5 53t-103.5 141l-94 -540zM540 48q128 0 220 74t141 205t49 303q0 156 -63.5 250t-186.5 94
q-90 0 -176 -53.5t-146 -142.5l-90 -514q30 -102 95.5 -159t156.5 -57z" />
    <glyph glyph-name="ydieresis" unicode="&#xff;" horiz-adv-x="974" 
d="M204 -388l222 416l-180 994h70l124 -700q9 -51 18 -102.5t18 -105.5q27 54 54 105.5t54 102.5l374 700h78l-756 -1410h-76zM840 1246q-21 0 -34.5 15t-13.5 37q0 27 22.5 47.5t49.5 20.5q23 0 35.5 -15.5t12.5 -38.5q0 -18 -10 -33t-26.5 -24t-35.5 -9zM508 1246
q-21 0 -34.5 15t-13.5 37q0 18 10.5 33.5t27 25t34.5 9.5q23 0 35.5 -15.5t12.5 -38.5q0 -25 -21.5 -45.5t-50.5 -20.5z" />
    <glyph glyph-name="Amacron" unicode="&#x100;" horiz-adv-x="1276" 
d="M116 0l710 1400h52l226 -1400h-74l-66 394h-568l-200 -394h-80zM424 454h532l-92 604q-3 17 -10.5 60.5t-14.5 89.5t-9 72q-10 -26 -31 -72t-41 -89t-28 -59zM559 1624l12 66h660l-12 -66h-660z" />
    <glyph glyph-name="amacron" unicode="&#x101;" horiz-adv-x="994" 
d="M422 -24q-124 0 -196 76t-72 208q0 108 52 192.5t142.5 133t205.5 48.5q80 0 148 -25.5t132 -78.5l24 130q32 168 -11 244t-169 76q-67 0 -149.5 -26t-172.5 -76l-14 64q99 54 182 79t156 25q106 0 169 -41.5t83.5 -123.5t-0.5 -205l-118 -676h-72l26 150
q-78 -85 -165.5 -129.5t-180.5 -44.5zM426 42q92 0 180 50t178 152l40 222q-64 50 -133.5 75t-140.5 25q-90 0 -161 -40.5t-112 -109.5t-41 -156q0 -100 51.5 -159t138.5 -59zM385 1246l12 66h660l-12 -66h-660z" />
    <glyph glyph-name="Abreve" unicode="&#x102;" horiz-adv-x="1276" 
d="M116 0l710 1400h52l226 -1400h-74l-66 394h-568l-200 -394h-80zM424 454h532l-92 604q-3 17 -10.5 60.5t-14.5 89.5t-9 72q-10 -26 -31 -72t-41 -89t-28 -59zM882 1540q-91 0 -155 38.5t-94.5 110.5t-20.5 173h66q-13 -129 37 -192.5t171 -63.5q113 0 192.5 63.5
t103.5 192.5h68q-16 -89 -61.5 -162t-122 -116.5t-184.5 -43.5z" />
    <glyph glyph-name="abreve" unicode="&#x103;" horiz-adv-x="994" 
d="M422 -24q-124 0 -196 76t-72 208q0 108 52 192.5t142.5 133t205.5 48.5q80 0 148 -25.5t132 -78.5l24 130q32 168 -11 244t-169 76q-67 0 -149.5 -26t-172.5 -76l-14 64q99 54 182 79t156 25q106 0 169 -41.5t83.5 -123.5t-0.5 -205l-118 -676h-72l26 150
q-78 -85 -165.5 -129.5t-180.5 -44.5zM426 42q92 0 180 50t178 152l40 222q-64 50 -133.5 75t-140.5 25q-90 0 -161 -40.5t-112 -109.5t-41 -156q0 -100 51.5 -159t138.5 -59zM708 1162q-91 0 -155 38.5t-94.5 110.5t-20.5 173h66q-13 -129 37 -192.5t171 -63.5
q113 0 192.5 63.5t103.5 192.5h68q-16 -89 -61.5 -162t-122 -116.5t-184.5 -43.5z" />
    <glyph glyph-name="Aogonek" unicode="&#x104;" horiz-adv-x="1276" 
d="M882 -468q-67 0 -114.5 38.5t-47.5 117.5q0 86 47.5 148.5t119 104t143.5 65.5l-66 388h-568l-200 -394h-80l710 1400h52l226 -1400q-71 -21 -143.5 -59t-121.5 -97.5t-49 -143.5q0 -60 31.5 -85t70.5 -25q51 0 86 23t54 41l42 -34q-33 -33 -81 -60.5t-111 -27.5z
M424 454h532l-92 604q-3 17 -10.5 60.5t-14.5 89.5t-9 72q-10 -26 -31 -72t-41 -89t-28 -59z" />
    <glyph glyph-name="aogonek" unicode="&#x105;" horiz-adv-x="994" 
d="M632 -468q-75 0 -118.5 42t-43.5 114q0 93 72.5 176.5t199.5 135.5l26 150q-78 -85 -165.5 -129.5t-180.5 -44.5q-124 0 -196 76t-72 208q0 108 52 192.5t142.5 133t205.5 48.5q78 0 146 -25t134 -79l24 130q32 168 -11 244t-169 76q-67 0 -148.5 -26t-173.5 -76l-14 64
q193 104 338 104q105 0 168.5 -41t84.5 -123t-1 -206l-118 -676q-69 -30 -120.5 -64t-86 -71.5t-52 -79t-17.5 -87.5q0 -49 28 -78.5t76 -29.5q36 0 71.5 16.5t66.5 47.5l42 -34q-40 -42 -89.5 -65t-100.5 -23zM426 42q92 0 180 50t178 152l40 222q-64 50 -133.5 75
t-140.5 25q-90 0 -161 -40.5t-112 -109.5t-41 -156q0 -100 51.5 -159t138.5 -59z" />
    <glyph glyph-name="Cacute" unicode="&#x106;" horiz-adv-x="1240" 
d="M654 -24q-115 0 -196 45.5t-131.5 124.5t-73.5 178.5t-23 207.5q0 164 44.5 322.5t130.5 287t210.5 205.5t284.5 77q110 0 179 -32.5t110.5 -84.5t68.5 -109l-68 -36q-40 83 -101.5 136.5t-190.5 53.5q-141 0 -250.5 -70.5t-184.5 -189t-114 -264t-39 -294.5
q0 -128 34.5 -239t112 -179t205.5 -68q91 0 163.5 31.5t125.5 80.5t87 102l68 -30q-41 -64 -101.5 -122.5t-146.5 -96t-204 -37.5zM856 1530l356 312h110l-392 -312h-74z" />
    <glyph glyph-name="cacute" unicode="&#x107;" horiz-adv-x="906" 
d="M486 -24q-147 0 -229.5 106t-82.5 296q0 193 59.5 344t164 237.5t238.5 86.5q108 0 182.5 -60.5t83.5 -155.5l-68 -26q-13 81 -66 125.5t-134 44.5q-111 0 -197 -77t-135.5 -211.5t-49.5 -307.5q0 -159 61 -244.5t173 -85.5q83 0 151.5 50t108.5 140l68 -28
q-54 -114 -138.5 -174t-189.5 -60zM590 1152l354 312h114l-390 -312h-78z" />
    <glyph glyph-name="Ccircumflex" unicode="&#x108;" horiz-adv-x="1240" 
d="M654 -24q-115 0 -196 45.5t-131.5 124.5t-73.5 178.5t-23 207.5q0 164 44.5 322.5t130.5 287t210.5 205.5t284.5 77q110 0 179 -32.5t110.5 -84.5t68.5 -109l-68 -36q-40 83 -101.5 136.5t-190.5 53.5q-141 0 -250.5 -70.5t-184.5 -189t-114 -264t-39 -294.5
q0 -128 34.5 -239t112 -179t205.5 -68q91 0 163.5 31.5t125.5 80.5t87 102l68 -30q-41 -64 -101.5 -122.5t-146.5 -96t-204 -37.5zM585 1530l358 312h64l246 -312h-70l-218 240l-302 -240h-78z" />
    <glyph glyph-name="ccircumflex" unicode="&#x109;" horiz-adv-x="906" 
d="M486 -24q-147 0 -229.5 106t-82.5 296q0 193 59.5 344t164 237.5t238.5 86.5q108 0 182.5 -60.5t83.5 -155.5l-68 -26q-13 81 -66 125.5t-134 44.5q-111 0 -197 -77t-135.5 -211.5t-49.5 -307.5q0 -159 61 -244.5t173 -85.5q83 0 151.5 50t108.5 140l68 -28
q-54 -114 -138.5 -174t-189.5 -60zM321 1152l358 312h64l246 -312h-70l-218 240l-302 -240h-78z" />
    <glyph glyph-name="Cdotaccent" unicode="&#x10a;" horiz-adv-x="1240" 
d="M654 -24q-115 0 -196 45.5t-131.5 124.5t-73.5 178.5t-23 207.5q0 164 44.5 322.5t130.5 287t210.5 205.5t284.5 77q110 0 179 -32.5t110.5 -84.5t68.5 -109l-68 -36q-40 83 -101.5 136.5t-190.5 53.5q-141 0 -250.5 -70.5t-184.5 -189t-114 -264t-39 -294.5
q0 -128 34.5 -239t112 -179t205.5 -68q91 0 163.5 31.5t125.5 80.5t87 102l68 -30q-41 -64 -101.5 -122.5t-146.5 -96t-204 -37.5zM940 1641q-21 0 -34.5 15t-13.5 37q0 27 22.5 47.5t49.5 20.5q23 0 35.5 -15.5t12.5 -38.5q0 -27 -21.5 -46.5t-50.5 -19.5z" />
    <glyph glyph-name="cdotaccent" unicode="&#x10b;" horiz-adv-x="906" 
d="M486 -24q-147 0 -229.5 106t-82.5 296q0 193 59.5 344t164 237.5t238.5 86.5q108 0 182.5 -60.5t83.5 -155.5l-68 -26q-13 81 -66 125.5t-134 44.5q-111 0 -197 -77t-135.5 -211.5t-49.5 -307.5q0 -159 61 -244.5t173 -85.5q83 0 151.5 50t108.5 140l68 -28
q-54 -114 -138.5 -174t-189.5 -60zM676 1263q-21 0 -34.5 15t-13.5 37q0 27 22.5 47.5t49.5 20.5q23 0 35.5 -15.5t12.5 -38.5q0 -27 -21.5 -46.5t-50.5 -19.5z" />
    <glyph glyph-name="Ccaron" unicode="&#x10c;" horiz-adv-x="1240" 
d="M654 -24q-115 0 -196 45.5t-131.5 124.5t-73.5 178.5t-23 207.5q0 164 44.5 322.5t130.5 287t210.5 205.5t284.5 77q110 0 179 -32.5t110.5 -84.5t68.5 -109l-68 -36q-40 83 -101.5 136.5t-190.5 53.5q-141 0 -250.5 -70.5t-184.5 -189t-114 -264t-39 -294.5
q0 -128 34.5 -239t112 -179t205.5 -68q91 0 163.5 31.5t125.5 80.5t87 102l68 -30q-41 -64 -101.5 -122.5t-146.5 -96t-204 -37.5zM890 1530l-246 312h70l216 -240l304 240h78l-358 -312h-64z" />
    <glyph glyph-name="ccaron" unicode="&#x10d;" horiz-adv-x="906" 
d="M486 -24q-147 0 -229.5 106t-82.5 296q0 193 59.5 344t164 237.5t238.5 86.5q108 0 182.5 -60.5t83.5 -155.5l-68 -26q-13 81 -66 125.5t-134 44.5q-111 0 -197 -77t-135.5 -211.5t-49.5 -307.5q0 -159 61 -244.5t173 -85.5q83 0 151.5 50t108.5 140l68 -28
q-54 -114 -138.5 -174t-189.5 -60zM626 1152l-246 312h70l216 -240l304 240h78l-358 -312h-64z" />
    <glyph glyph-name="Dcaron" unicode="&#x10e;" horiz-adv-x="1296" 
d="M174 0l246 1400h300q144 0 242.5 -46.5t158.5 -125t86.5 -178t26.5 -206.5q0 -131 -30.5 -254.5t-92 -230.5t-153.5 -187.5t-215 -126t-277 -45.5h-292zM262 72h218q158 0 282.5 60t211.5 165.5t132.5 246t45.5 300.5q0 126 -41 236.5t-138.5 179t-266.5 68.5h-226z
M764 1530l-246 312h70l216 -240l304 240h78l-358 -312h-64z" />
    <glyph glyph-name="dcaron" unicode="&#x10f;" horiz-adv-x="1286" 
d="M494 -24q-148 0 -232 113.5t-84 314.5q0 190 62 334.5t172.5 226t255.5 81.5q90 0 162 -48.5t102 -129.5l96 540l78 36l-252 -1444h-74l26 146q-73 -84 -152 -127t-160 -43zM494 48q90 0 177.5 56t154.5 156l88 508q-33 96 -99.5 151t-150.5 55q-122 0 -214 -71.5
t-143 -200t-51 -298.5q0 -163 64.5 -259.5t173.5 -96.5zM1209 970l-18 16q24 39 48.5 102.5t47 148.5t40.5 189h72l-6 -36q-27 -144 -74 -249t-110 -171z" />
    <glyph glyph-name="Dcroat" unicode="&#x110;" horiz-adv-x="1296" 
d="M150 664l12 72h630l-12 -72h-630zM174 0l246 1400h300q144 0 242.5 -46.5t158.5 -125t86.5 -178t26.5 -206.5q0 -131 -30.5 -254.5t-92 -230.5t-153.5 -187.5t-215 -126t-277 -45.5h-292zM262 72h218q158 0 282.5 60t211.5 165.5t132.5 246t45.5 300.5q0 126 -41 236.5
t-138.5 179t-266.5 68.5h-226z" />
    <glyph glyph-name="dcroat" unicode="&#x111;" horiz-adv-x="1068" 
d="M494 -24q-148 0 -234 106.5t-86 271.5q0 190 64.5 330.5t176 218t253.5 77.5q110 0 174.5 -56t89.5 -118l60 330h-288l10 66h288l38 206l78 36l-42 -242h142l-10 -66h-144l-200 -1136h-72l26 146q-79 -93 -163 -131.5t-161 -38.5zM494 50q107 0 194 58.5t150 149.5
l78 444q-17 42 -46.5 90t-79 82t-126.5 34q-127 0 -218.5 -70.5t-140.5 -195.5t-49 -288q0 -81 28.5 -150t82 -111.5t127.5 -42.5z" />
    <glyph glyph-name="Emacron" unicode="&#x112;" horiz-adv-x="1124" 
d="M174 0l246 1400h714l-10 -66h-640l-102 -576h426l-12 -66h-426l-110 -626h684l-12 -66h-758zM487 1624l12 66h660l-12 -66h-660z" />
    <glyph glyph-name="emacron" unicode="&#x113;" horiz-adv-x="1002" 
d="M496 -24q-105 0 -176.5 47.5t-108.5 138t-37 220.5q0 152 38.5 274t106.5 209.5t158 134t193 46.5q86 0 155.5 -35t110 -111t40.5 -200q0 -40 -6.5 -89.5t-21.5 -120.5h-690q-15 -131 3.5 -230.5t79.5 -155.5t173 -56q57 0 120 22.5t124 67.5l38 -56q-61 -46 -134.5 -76
t-165.5 -30zM268 556h618q18 115 7 211.5t-63 154.5t-158 58q-119 0 -201.5 -60.5t-132 -157.5t-70.5 -206zM375 1246l12 66h660l-12 -66h-660z" />
    <glyph glyph-name="Ebreve" unicode="&#x114;" horiz-adv-x="1124" 
d="M174 0l246 1400h714l-10 -66h-640l-102 -576h426l-12 -66h-426l-110 -626h684l-12 -66h-758zM810 1540q-91 0 -155 38.5t-94.5 110.5t-20.5 173h66q-13 -129 37 -192.5t171 -63.5q113 0 192.5 63.5t103.5 192.5h68q-16 -89 -61.5 -162t-122 -116.5t-184.5 -43.5z" />
    <glyph glyph-name="ebreve" unicode="&#x115;" horiz-adv-x="1002" 
d="M496 -24q-105 0 -176.5 47.5t-108.5 138t-37 220.5q0 152 38.5 274t106.5 209.5t158 134t193 46.5q86 0 155.5 -35t110 -111t40.5 -200q0 -40 -6.5 -89.5t-21.5 -120.5h-690q-15 -131 3.5 -230.5t79.5 -155.5t173 -56q57 0 120 22.5t124 67.5l38 -56q-61 -46 -134.5 -76
t-165.5 -30zM268 556h618q18 115 7 211.5t-63 154.5t-158 58q-119 0 -201.5 -60.5t-132 -157.5t-70.5 -206zM698 1162q-91 0 -155 38.5t-94.5 110.5t-20.5 173h66q-13 -129 37 -192.5t171 -63.5q113 0 192.5 63.5t103.5 192.5h68q-16 -89 -61.5 -162t-122 -116.5
t-184.5 -43.5z" />
    <glyph glyph-name="Edotaccent" unicode="&#x116;" horiz-adv-x="1124" 
d="M174 0l246 1400h714l-10 -66h-640l-102 -576h426l-12 -66h-426l-110 -626h684l-12 -66h-758zM822 1641q-21 0 -34.5 15t-13.5 37q0 27 22.5 47.5t49.5 20.5q23 0 35.5 -15.5t12.5 -38.5q0 -27 -21.5 -46.5t-50.5 -19.5z" />
    <glyph glyph-name="edotaccent" unicode="&#x117;" horiz-adv-x="1002" 
d="M496 -24q-105 0 -176.5 47.5t-108.5 138t-37 220.5q0 152 38.5 274t106.5 209.5t158 134t193 46.5q86 0 155.5 -35t110 -111t40.5 -200q0 -40 -6.5 -89.5t-21.5 -120.5h-690q-15 -131 3.5 -230.5t79.5 -155.5t173 -56q57 0 120 22.5t124 67.5l38 -56q-61 -46 -134.5 -76
t-165.5 -30zM268 556h618q18 115 7 211.5t-63 154.5t-158 58q-119 0 -201.5 -60.5t-132 -157.5t-70.5 -206zM710 1263q-21 0 -34.5 15t-13.5 37q0 27 22.5 47.5t49.5 20.5q23 0 35.5 -15.5t12.5 -38.5q0 -27 -21.5 -46.5t-50.5 -19.5z" />
    <glyph glyph-name="Eogonek" unicode="&#x118;" horiz-adv-x="1124" 
d="M174 0l246 1400h714l-10 -66h-640l-102 -576h426l-12 -66h-426l-110 -626h684l-12 -66h-758zM610 -488q-67 0 -114.5 38.5t-47.5 117.5q0 110 92.5 198.5t233.5 133.5h64q-108 -42 -179.5 -91.5t-107 -107t-35.5 -123.5q0 -58 32.5 -83t71.5 -25q51 0 85.5 23t52.5 41
l42 -34q-31 -33 -79 -60.5t-111 -27.5z" />
    <glyph glyph-name="eogonek" unicode="&#x119;" horiz-adv-x="1002" 
d="M440 -468q-67 0 -114.5 38.5t-47.5 117.5q0 89 60.5 164t157.5 124q-105 0 -176.5 47.5t-108.5 138t-37 220.5q0 152 38.5 274t106.5 209.5t158 134t193 46.5q86 0 155.5 -35t110 -111t40.5 -200q0 -40 -6.5 -89.5t-21.5 -120.5h-690q-3 -27 -4.5 -54.5t-1.5 -53.5
q0 -99 24.5 -174t81.5 -117.5t156 -42.5q57 0 120 22.5t124 67.5l38 -56q-17 -13 -38 -26.5t-47 -27t-59 -26.5q-106 -42 -173.5 -88t-100 -99.5t-32.5 -116.5q0 -58 32.5 -83t71.5 -25q51 0 85.5 23t52.5 41l42 -34q-31 -33 -79 -60.5t-111 -27.5zM268 556h618
q6 39 10 74.5t4 69.5q0 111 -35.5 172t-88.5 84.5t-104 23.5q-119 0 -201.5 -60.5t-132 -157.5t-70.5 -206z" />
    <glyph glyph-name="Ecaron" unicode="&#x11a;" horiz-adv-x="1124" 
d="M174 0l246 1400h714l-10 -66h-640l-102 -576h426l-12 -66h-426l-110 -626h684l-12 -66h-758zM772 1530l-246 312h70l216 -240l304 240h78l-358 -312h-64z" />
    <glyph glyph-name="ecaron" unicode="&#x11b;" horiz-adv-x="1002" 
d="M496 -24q-105 0 -176.5 47.5t-108.5 138t-37 220.5q0 152 38.5 274t106.5 209.5t158 134t193 46.5q86 0 155.5 -35t110 -111t40.5 -200q0 -40 -6.5 -89.5t-21.5 -120.5h-690q-15 -131 3.5 -230.5t79.5 -155.5t173 -56q57 0 120 22.5t124 67.5l38 -56q-61 -46 -134.5 -76
t-165.5 -30zM268 556h618q18 115 7 211.5t-63 154.5t-158 58q-119 0 -201.5 -60.5t-132 -157.5t-70.5 -206zM660 1152l-246 312h70l216 -240l304 240h78l-358 -312h-64z" />
    <glyph glyph-name="Gcircumflex" unicode="&#x11c;" horiz-adv-x="1323" 
d="M659 -24q-116 0 -197.5 45t-132.5 123t-74.5 177.5t-23.5 208.5q0 164 42.5 322.5t127 288t211 206.5t293.5 77q99 0 166.5 -28.5t111 -72.5t70.5 -91l-72 -42q-34 65 -101 113.5t-183 48.5q-123 0 -218.5 -50.5t-165.5 -136.5t-115 -192t-67 -219t-22 -216
q0 -131 35.5 -242.5t113.5 -179.5t205 -68q168 0 288.5 121t161.5 369l4 24h-284l10 70h362l-12 -70q-27 -156 -78 -267.5t-121.5 -181.5t-155.5 -103.5t-179 -33.5zM590 1530l358 312h64l246 -312h-70l-218 240l-302 -240h-78z" />
    <glyph glyph-name="gcircumflex" unicode="&#x11d;" horiz-adv-x="1070" 
d="M346 -426l-28 64q142 8 238 44.5t151 106t73 175.5l36 204q-58 -93 -144 -142.5t-188 -49.5q-95 0 -164 50t-106.5 143t-37.5 221q0 194 62.5 342t174 231t257.5 83q92 0 166 -47t104 -125l26 148h72l-186 -1068q-20 -116 -82.5 -197.5t-168.5 -127.5t-255 -55zM498 48
q96 0 181.5 56.5t154.5 165.5l88 508q-33 93 -101 144.5t-157 51.5q-124 0 -216 -71t-143 -199.5t-51 -301.5q0 -162 66.5 -258t177.5 -96zM373 1152l358 312h64l246 -312h-70l-218 240l-302 -240h-78z" />
    <glyph glyph-name="Gbreve" unicode="&#x11e;" horiz-adv-x="1323" 
d="M659 -24q-116 0 -197.5 45t-132.5 123t-74.5 177.5t-23.5 208.5q0 164 42.5 322.5t127 288t211 206.5t293.5 77q99 0 166.5 -28.5t111 -72.5t70.5 -91l-72 -42q-34 65 -101 113.5t-183 48.5q-123 0 -218.5 -50.5t-165.5 -136.5t-115 -192t-67 -219t-22 -216
q0 -131 35.5 -242.5t113.5 -179.5t205 -68q168 0 288.5 121t161.5 369l4 24h-284l10 70h362l-12 -70q-27 -156 -78 -267.5t-121.5 -181.5t-155.5 -103.5t-179 -33.5zM933 1540q-91 0 -155 38.5t-94.5 110.5t-20.5 173h66q-13 -129 37 -192.5t171 -63.5q113 0 192.5 63.5
t103.5 192.5h68q-16 -89 -61.5 -162t-122 -116.5t-184.5 -43.5z" />
    <glyph glyph-name="gbreve" unicode="&#x11f;" horiz-adv-x="1070" 
d="M346 -426l-28 64q142 8 238 44.5t151 106t73 175.5l36 204q-58 -93 -144 -142.5t-188 -49.5q-95 0 -164 50t-106.5 143t-37.5 221q0 194 62.5 342t174 231t257.5 83q92 0 166 -47t104 -125l26 148h72l-186 -1068q-20 -116 -82.5 -197.5t-168.5 -127.5t-255 -55zM498 48
q96 0 181.5 56.5t154.5 165.5l88 508q-33 93 -101 144.5t-157 51.5q-124 0 -216 -71t-143 -199.5t-51 -301.5q0 -162 66.5 -258t177.5 -96zM716 1162q-91 0 -155 38.5t-94.5 110.5t-20.5 173h66q-13 -129 37 -192.5t171 -63.5q113 0 192.5 63.5t103.5 192.5h68
q-16 -89 -61.5 -162t-122 -116.5t-184.5 -43.5z" />
    <glyph glyph-name="Gdotaccent" unicode="&#x120;" horiz-adv-x="1323" 
d="M659 -24q-116 0 -197.5 45t-132.5 123t-74.5 177.5t-23.5 208.5q0 164 42.5 322.5t127 288t211 206.5t293.5 77q99 0 166.5 -28.5t111 -72.5t70.5 -91l-72 -42q-34 65 -101 113.5t-183 48.5q-123 0 -218.5 -50.5t-165.5 -136.5t-115 -192t-67 -219t-22 -216
q0 -131 35.5 -242.5t113.5 -179.5t205 -68q168 0 288.5 121t161.5 369l4 24h-284l10 70h362l-12 -70q-27 -156 -78 -267.5t-121.5 -181.5t-155.5 -103.5t-179 -33.5zM945 1641q-21 0 -34.5 15t-13.5 37q0 27 22.5 47.5t49.5 20.5q23 0 35.5 -15.5t12.5 -38.5
q0 -27 -21.5 -46.5t-50.5 -19.5z" />
    <glyph glyph-name="gdotaccent" unicode="&#x121;" horiz-adv-x="1070" 
d="M346 -426l-28 64q142 8 238 44.5t151 106t73 175.5l36 204q-58 -93 -144 -142.5t-188 -49.5q-95 0 -164 50t-106.5 143t-37.5 221q0 194 62.5 342t174 231t257.5 83q92 0 166 -47t104 -125l26 148h72l-186 -1068q-20 -116 -82.5 -197.5t-168.5 -127.5t-255 -55zM498 48
q96 0 181.5 56.5t154.5 165.5l88 508q-33 93 -101 144.5t-157 51.5q-124 0 -216 -71t-143 -199.5t-51 -301.5q0 -162 66.5 -258t177.5 -96zM728 1263q-21 0 -34.5 15t-13.5 37q0 27 22.5 47.5t49.5 20.5q23 0 35.5 -15.5t12.5 -38.5q0 -27 -21.5 -46.5t-50.5 -19.5z" />
    <glyph glyph-name="uni0122" unicode="&#x122;" horiz-adv-x="1323" 
d="M659 -24q-116 0 -197.5 45t-132.5 123t-74.5 177.5t-23.5 208.5q0 164 42.5 322.5t127 288t211 206.5t293.5 77q99 0 166.5 -28.5t111 -72.5t70.5 -91l-72 -42q-34 65 -101 113.5t-183 48.5q-123 0 -218.5 -50.5t-165.5 -136.5t-115 -192t-67 -219t-22 -216
q0 -131 35.5 -242.5t113.5 -179.5t205 -68q168 0 288.5 121t161.5 369l4 24h-284l10 70h362l-12 -70q-27 -156 -78 -267.5t-121.5 -181.5t-155.5 -103.5t-179 -33.5zM530 -490l-18 6q25 28 49 71.5t40.5 90.5t18.5 86q-22 0 -38 14t-16 38q0 29 18 48.5t48 19.5
q23 0 39.5 -16t16.5 -54q0 -56 -25.5 -115.5t-62.5 -110t-70 -78.5z" />
    <glyph glyph-name="uni0123" unicode="&#x123;" horiz-adv-x="1070" 
d="M346 -426l-28 64q142 8 238 44.5t151 106t73 175.5l36 204q-58 -93 -144 -142.5t-188 -49.5q-95 0 -164 50t-106.5 143t-37.5 221q0 194 62.5 342t174 231t257.5 83q92 0 166 -47t104 -125l26 148h72l-186 -1068q-20 -116 -82.5 -197.5t-168.5 -127.5t-255 -55zM498 48
q96 0 181.5 56.5t154.5 165.5l88 508q-33 93 -101 144.5t-157 51.5q-124 0 -216 -71t-143 -199.5t-51 -301.5q0 -162 66.5 -258t177.5 -96zM718 1206q-22 0 -39 16.5t-17 53.5q0 56 26 115.5t62.5 110t69.5 78.5l18 -6q-25 -28 -49 -71.5t-40.5 -90.5t-18.5 -86
q23 0 38.5 -14t15.5 -38q0 -28 -18 -48t-48 -20z" />
    <glyph glyph-name="Hcircumflex" unicode="&#x124;" horiz-adv-x="1296" 
d="M174 0l246 1400h74l-110 -638h728l110 638h74l-246 -1400h-74l122 694h-728l-122 -694h-74zM547 1530l358 312h64l246 -312h-70l-218 240l-302 -240h-78z" />
    <glyph glyph-name="hcircumflex" unicode="&#x125;" horiz-adv-x="1061" 
d="M166 0l248 1408l78 36l-106 -606q50 95 137.5 151.5t184.5 56.5q107 0 172 -48t86 -142t-4 -232l-110 -624h-72l110 632q30 174 -18 260t-174 86q-136 0 -230 -103t-126 -285l-102 -590h-74zM459 1530l358 312h64l246 -312h-70l-218 240l-302 -240h-78z" />
    <glyph glyph-name="Hbar" unicode="&#x126;" horiz-adv-x="1304" 
d="M182 0l192 1096h-166l14 68h166l40 236h74l-42 -236h730l40 236h74l-40 -236h166l-14 -68h-166l-192 -1096h-74l122 694h-728l-122 -694h-74zM392 762h728l58 334h-728z" />
    <glyph glyph-name="hbar" unicode="&#x127;" horiz-adv-x="1075" 
d="M180 0l198 1136h-134l10 66h136l36 206l78 36l-42 -242h304l-10 -66h-306l-64 -364q62 114 152.5 161t169.5 47q88 0 147.5 -33t90 -96.5t30.5 -156.5q0 -30 -3 -65t-9 -71l-98 -558h-72l96 554q8 42 10 76t2 62q0 91 -30.5 138.5t-77.5 64.5t-98 17q-75 0 -146.5 -34.5
t-126 -118.5t-79.5 -231l-90 -528h-74z" />
    <glyph glyph-name="Itilde" unicode="&#x128;" horiz-adv-x="494" 
d="M174 0l246 1400h74l-246 -1400h-74zM658 1582q-56 0 -96.5 27.5t-75.5 58.5q-32 29 -65 52.5t-75 23.5q-46 0 -79.5 -39.5t-50.5 -114.5h-56q17 96 67.5 158t134.5 62q56 0 97.5 -28t75.5 -59q32 -28 64.5 -51.5t74.5 -23.5q47 0 80.5 39.5t49.5 114.5h56
q-16 -96 -67 -158t-135 -62z" />
    <glyph glyph-name="itilde" unicode="&#x129;" horiz-adv-x="456" 
d="M172 0l180 1022h70l-178 -1022h-72zM586 1204q-56 0 -96.5 27.5t-75.5 58.5q-32 29 -65 52.5t-75 23.5q-46 0 -79.5 -39.5t-50.5 -114.5h-56q17 96 67.5 158t134.5 62q56 0 97.5 -28t75.5 -59q32 -28 64.5 -51.5t74.5 -23.5q47 0 80.5 39.5t49.5 114.5h56
q-16 -96 -67 -158t-135 -62z" />
    <glyph glyph-name="Imacron" unicode="&#x12a;" horiz-adv-x="494" 
d="M174 0l246 1400h74l-246 -1400h-74zM167 1624l12 66h660l-12 -66h-660z" />
    <glyph glyph-name="imacron" unicode="&#x12b;" horiz-adv-x="456" 
d="M172 0l180 1022h70l-178 -1022h-72zM195 1246l12 66h460l-12 -66h-460z" />
    <glyph glyph-name="Ibreve" unicode="&#x12c;" horiz-adv-x="494" 
d="M174 0l246 1400h74l-246 -1400h-74zM490 1540q-91 0 -155 38.5t-94.5 110.5t-20.5 173h66q-13 -129 37 -192.5t171 -63.5q113 0 192.5 63.5t103.5 192.5h68q-16 -89 -61.5 -162t-122 -116.5t-184.5 -43.5z" />
    <glyph glyph-name="ibreve" unicode="&#x12d;" horiz-adv-x="456" 
d="M172 0l180 1022h70l-178 -1022h-72zM418 1162q-91 0 -155 38.5t-94.5 110.5t-20.5 173h66q-13 -129 37 -192.5t171 -63.5q113 0 192.5 63.5t103.5 192.5h68q-16 -89 -61.5 -162t-122 -116.5t-184.5 -43.5z" />
    <glyph glyph-name="Iogonek" unicode="&#x12e;" horiz-adv-x="472" 
d="M126 -468q-67 0 -114.5 38.5t-47.5 117.5q0 96 63.5 180t148.5 138l244 1394h74l-246 -1400q-39 -21 -77.5 -52t-69.5 -69.5t-50 -83.5t-19 -95q0 -61 32.5 -85.5t71.5 -24.5q51 0 85.5 23t52.5 41l42 -34q-31 -33 -79 -60.5t-111 -27.5z" />
    <glyph glyph-name="iogonek" unicode="&#x12f;" horiz-adv-x="456" 
d="M124 -468q-64 0 -112 38.5t-48 117.5q0 74 51 164t157 150l180 1020h72l-178 -1022q-74 -40 -121.5 -91.5t-70 -106t-22.5 -104.5q0 -54 31 -81t71 -27q51 0 86.5 23t53.5 41l42 -34q-33 -34 -81 -61t-111 -27zM430 1266q-22 0 -35 14.5t-13 35.5q0 18 8.5 34t23.5 26
t36 10q24 0 36 -15.5t12 -36.5q0 -27 -18 -47.5t-50 -20.5z" />
    <glyph glyph-name="Idotaccent" unicode="&#x130;" horiz-adv-x="494" 
d="M174 0l246 1400h74l-246 -1400h-74zM502 1641q-21 0 -34.5 15t-13.5 37q0 27 22.5 47.5t49.5 20.5q23 0 35.5 -15.5t12.5 -38.5q0 -27 -21.5 -46.5t-50.5 -19.5z" />
    <glyph glyph-name="dotlessi" unicode="&#x131;" horiz-adv-x="456" 
d="M172 0l180 1022h70l-178 -1022h-72z" />
    <glyph glyph-name="IJ" unicode="&#x132;" horiz-adv-x="1498" 
d="M174 0l246 1400h74l-246 -1400h-74zM882 -24q-142 0 -222.5 70.5t-107.5 167.5l66 32q24 -82 81 -142t183 -60q80 0 158.5 34t140 121t89.5 247l166 954h76l-166 -950q-25 -144 -74.5 -236.5t-113.5 -144.5t-135 -72.5t-141 -20.5z" />
    <glyph glyph-name="ij" unicode="&#x133;" horiz-adv-x="984" 
d="M172 0l180 1022h72l-178 -1022h-74zM426 1246q-21 0 -34.5 14t-13.5 36q0 30 20 50t48 20q21 0 34.5 -14t13.5 -38q0 -28 -19 -48t-49 -20zM408 -426l-26 62q128 14 197.5 75.5t94.5 208.5l194 1102h72l-192 -1102q-18 -107 -59.5 -181t-110.5 -114.5t-170 -50.5z
M942 1246q-22 0 -35 14.5t-13 35.5q0 18 8.5 34t23.5 26t36 10q24 0 36 -15.5t12 -36.5q0 -18 -8 -33.5t-23.5 -25t-36.5 -9.5z" />
    <glyph glyph-name="Jcircumflex" unicode="&#x134;" horiz-adv-x="1024" 
d="M408 -24q-142 0 -222.5 70.5t-107.5 167.5l66 32q24 -82 81 -142t183 -60q80 0 158.5 34t140 121t89.5 247l166 954h76l-166 -950q-25 -144 -74.5 -236.5t-113.5 -144.5t-135 -72.5t-141 -20.5zM689 1530l358 312h64l246 -312h-70l-218 240l-302 -240h-78z" />
    <glyph glyph-name="jcircumflex" unicode="&#x135;" horiz-adv-x="468" 
d="M-108 -426l-26 62q128 14 197.5 75.5t94.5 208.5l194 1102h72l-192 -1102q-18 -107 -60 -180.5t-111 -114.5t-169 -51zM77 1152l358 312h64l246 -312h-70l-218 240l-302 -240h-78z" />
    <glyph glyph-name="uni0136" unicode="&#x136;" horiz-adv-x="1198" 
d="M174 0l246 1400h74l-134 -762l722 762h92l-454 -480l326 -920h-76l-304 864l-326 -342l-92 -522h-74zM475 -490l-18 6q25 28 49 71.5t40.5 90.5t18.5 86q-22 0 -38 14t-16 38q0 29 18 48.5t48 19.5q23 0 39.5 -16t16.5 -54q0 -56 -25.5 -115.5t-62.5 -110t-70 -78.5z" />
    <glyph glyph-name="uni0137" unicode="&#x137;" horiz-adv-x="956" 
d="M166 0l248 1408l78 36l-156 -892l502 470h90l-298 -280l242 -742h-76l-224 688l-252 -236l-80 -452h-74zM387 -490l-18 6q25 28 49 71.5t40.5 90.5t18.5 86q-22 0 -38 14t-16 38q0 29 18 48.5t48 19.5q23 0 39.5 -16t16.5 -54q0 -56 -25.5 -115.5t-62.5 -110t-70 -78.5z
" />
    <glyph glyph-name="kgreenlandic" unicode="&#x138;" horiz-adv-x="994" 
d="M168 0l178 1022h74l-118 -678l650 678h94l-358 -374l232 -648h-80l-212 588l-346 -358l-40 -230h-74z" />
    <glyph glyph-name="Lacute" unicode="&#x139;" horiz-adv-x="1022" 
d="M174 0l246 1400h74l-234 -1334h676l-12 -66h-750zM418 1530l356 312h110l-392 -312h-74z" />
    <glyph glyph-name="lacute" unicode="&#x13a;" horiz-adv-x="444" 
d="M168 0l248 1408l78 36l-252 -1444h-74zM410 1530l356 312h110l-392 -312h-74z" />
    <glyph glyph-name="uni013B" unicode="&#x13b;" horiz-adv-x="1022" 
d="M174 0l246 1400h74l-234 -1334h676l-12 -66h-750zM417 -490l-18 6q25 28 49 71.5t40.5 90.5t18.5 86q-22 0 -38 14t-16 38q0 29 18 48.5t48 19.5q23 0 39.5 -16t16.5 -54q0 -56 -25.5 -115.5t-62.5 -110t-70 -78.5z" />
    <glyph glyph-name="uni013C" unicode="&#x13c;" horiz-adv-x="444" 
d="M168 0l248 1408l78 36l-252 -1444h-74zM75 -490l-18 6q25 28 49 71.5t40.5 90.5t18.5 86q-22 0 -38 14t-16 38q0 29 18 48.5t48 19.5q23 0 39.5 -16t16.5 -54q0 -56 -25.5 -115.5t-62.5 -110t-70 -78.5z" />
    <glyph glyph-name="Lcaron" unicode="&#x13d;" horiz-adv-x="1022" 
d="M174 0l246 1400h74l-234 -1334h676l-12 -66h-750zM669 944l-18 16q24 39 48.5 102.5t47 148.5t40.5 189h72l-6 -36q-27 -144 -74 -249t-110 -171z" />
    <glyph glyph-name="lcaron" unicode="&#x13e;" horiz-adv-x="674" 
d="M168 0l248 1408l78 36l-252 -1444h-74zM597 970l-18 16q24 39 48.5 102.5t47 148.5t40.5 189h72l-6 -36q-27 -144 -74 -249t-110 -171z" />
    <glyph glyph-name="Ldot" unicode="&#x13f;" horiz-adv-x="1022" 
d="M174 0l246 1400h74l-234 -1334h676l-12 -66h-750zM834 640q-21 0 -34.5 15t-13.5 37q0 27 22.5 47.5t49.5 20.5q23 0 35.5 -15.5t12.5 -38.5q0 -27 -21.5 -46.5t-50.5 -19.5z" />
    <glyph glyph-name="ldot" unicode="&#x140;" horiz-adv-x="620" 
d="M168 0l248 1408l78 36l-252 -1444h-74zM614 572q-21 0 -34.5 15t-13.5 37q0 27 22.5 47.5t49.5 20.5q23 0 35.5 -15.5t12.5 -38.5q0 -27 -21.5 -46.5t-50.5 -19.5z" />
    <glyph glyph-name="Lslash" unicode="&#x141;" horiz-adv-x="1022" 
d="M174 0l106 598l-170 -116l14 80l170 116l128 722h72l-118 -668l294 200l-16 -80l-290 -198l-104 -588h676l-12 -66h-750z" />
    <glyph glyph-name="lslash" unicode="&#x142;" horiz-adv-x="444" 
d="M168 0l104 586l-176 -118l14 78l174 116l132 746l78 36l-128 -728l176 118l-14 -78l-174 -116l-112 -640h-74z" />
    <glyph glyph-name="Nacute" unicode="&#x143;" horiz-adv-x="1326" 
d="M174 0l246 1400h70l448 -1050q23 -51 46.5 -106.5t45.5 -109.5q9 54 19 111t19 105l184 1050h74l-246 -1400h-70l-448 1046q-15 34 -30.5 70.5t-31 74t-30.5 75.5q-6 -37 -12.5 -75t-13 -75t-12.5 -70l-184 -1046h-74zM832 1530l356 312h110l-392 -312h-74z" />
    <glyph glyph-name="nacute" unicode="&#x144;" horiz-adv-x="1062" 
d="M166 0l180 1022h70l-32 -184q51 96 138 152t186 56q106 0 170.5 -49t86 -144t-2.5 -233l-110 -620h-72l108 618q32 185 -15 272.5t-179 87.5q-138 0 -229 -99t-123 -285l-102 -594h-74zM650 1152l354 312h114l-390 -312h-78z" />
    <glyph glyph-name="uni0145" unicode="&#x145;" horiz-adv-x="1326" 
d="M174 0l246 1400h70l448 -1050q23 -51 46.5 -106.5t45.5 -109.5q9 54 19 111t19 105l184 1050h74l-246 -1400h-70l-448 1046q-15 34 -30.5 70.5t-31 74t-30.5 75.5q-6 -37 -12.5 -75t-13 -75t-12.5 -70l-184 -1046h-74zM495 -490l-18 6q25 28 49 71.5t40.5 90.5t18.5 86
q-22 0 -38 14t-16 38q0 29 18 48.5t48 19.5q23 0 39.5 -16t16.5 -54q0 -56 -25.5 -115.5t-62.5 -110t-70 -78.5z" />
    <glyph glyph-name="uni0146" unicode="&#x146;" horiz-adv-x="1062" 
d="M166 0l180 1022h70l-32 -184q51 96 138 152t186 56q106 0 170.5 -49t86 -144t-2.5 -233l-110 -620h-72l108 618q32 185 -15 272.5t-179 87.5q-138 0 -229 -99t-123 -285l-102 -594h-74zM379 -490l-18 6q25 28 49 71.5t40.5 90.5t18.5 86q-22 0 -38 14t-16 38
q0 29 18 48.5t48 19.5q23 0 39.5 -16t16.5 -54q0 -56 -25.5 -115.5t-62.5 -110t-70 -78.5z" />
    <glyph glyph-name="Ncaron" unicode="&#x147;" horiz-adv-x="1326" 
d="M174 0l246 1400h70l448 -1050q23 -51 46.5 -106.5t45.5 -109.5q9 54 19 111t19 105l184 1050h74l-246 -1400h-70l-448 1046q-15 34 -30.5 70.5t-31 74t-30.5 75.5q-6 -37 -12.5 -75t-13 -75t-12.5 -70l-184 -1046h-74zM866 1530l-246 312h70l216 -240l304 240h78
l-358 -312h-64z" />
    <glyph glyph-name="ncaron" unicode="&#x148;" horiz-adv-x="1062" 
d="M166 0l180 1022h70l-32 -184q51 96 138 152t186 56q106 0 170.5 -49t86 -144t-2.5 -233l-110 -620h-72l108 618q32 185 -15 272.5t-179 87.5q-138 0 -229 -99t-123 -285l-102 -594h-74zM686 1152l-246 312h70l216 -240l304 240h78l-358 -312h-64z" />
    <glyph glyph-name="napostrophe" unicode="&#x149;" horiz-adv-x="1426" 
d="M282 1050l-18 6q25 28 49.5 71.5t41 90.5t17.5 86q-22 0 -38 14t-16 38q0 30 19 49t47 19q24 0 40 -17t16 -53q0 -56 -25.5 -115.5t-62.5 -110t-70 -78.5zM530 0l180 1022h70l-32 -184q51 96 138 152t186 56q106 0 170.5 -49t86 -144t-2.5 -233l-110 -620h-72l108 618
q32 185 -15 272.5t-179 87.5q-138 0 -229 -99t-123 -285l-102 -594h-74z" />
    <glyph glyph-name="Eng" unicode="&#x14a;" horiz-adv-x="1326" 
d="M720 -488l-28 62q86 7 143.5 40.5t92 93.5t50.5 148l28 154l-444 1036q-15 34 -30.5 70.5t-31 74t-30.5 75.5q-6 -37 -12.5 -75t-13 -75t-12.5 -70l-184 -1046h-74l246 1400h70l448 -1050q23 -51 46.5 -106.5t45.5 -109.5q9 54 19 111t19 105l184 1050h74l-274 -1560
q-18 -103 -55.5 -166.5t-88.5 -99.5q-40 -28 -87.5 -42t-100.5 -20z" />
    <glyph glyph-name="eng" unicode="&#x14b;" horiz-adv-x="1063" 
d="M500 -426l-26 62q128 14 197.5 75.5t94.5 208.5l120 690q19 111 11 193.5t-55.5 128.5t-147.5 46q-78 0 -149.5 -36.5t-124.5 -120.5t-78 -227l-102 -594h-74l180 1022h70l-32 -184q60 114 152.5 161t171.5 47q118 0 180.5 -55.5t78.5 -153.5t-7 -227l-120 -690
q-14 -82 -40.5 -143.5t-67 -103.5t-98 -66.5t-134.5 -32.5z" />
    <glyph glyph-name="Omacron" unicode="&#x14c;" horiz-adv-x="1393" 
d="M667 -24q-118 0 -201 47.5t-135 128.5t-76 181.5t-24 206.5q0 115 25 238t76.5 238t131.5 207t189.5 146.5t251.5 54.5q119 0 201 -45.5t132 -123.5t72.5 -177.5t22.5 -207.5q0 -116 -24 -241t-74.5 -241t-129 -209t-187.5 -148t-251 -55zM677 48q125 0 220.5 51
t163.5 138t111.5 194.5t64 221.5t20.5 219q0 126 -34.5 235.5t-114 177t-213.5 67.5q-125 0 -221 -51t-165.5 -136.5t-114 -192.5t-66 -221t-21.5 -219q0 -129 36 -239t117 -177.5t217 -67.5zM610 1624l12 66h660l-12 -66h-660z" />
    <glyph glyph-name="omacron" unicode="&#x14d;" horiz-adv-x="1040" 
d="M506 -24q-154 0 -238 106t-84 304q0 200 60.5 348.5t170.5 230t259 81.5q155 0 240.5 -106.5t85.5 -297.5q0 -204 -60 -353.5t-171 -231t-263 -81.5zM518 48q122 0 213 72t141 203t50 307q0 164 -66 254t-188 90q-124 0 -215 -72.5t-141 -205t-50 -312.5
q0 -162 66.5 -249t189.5 -87zM377 1246l12 66h660l-12 -66h-660z" />
    <glyph glyph-name="Obreve" unicode="&#x14e;" horiz-adv-x="1393" 
d="M667 -24q-118 0 -201 47.5t-135 128.5t-76 181.5t-24 206.5q0 115 25 238t76.5 238t131.5 207t189.5 146.5t251.5 54.5q119 0 201 -45.5t132 -123.5t72.5 -177.5t22.5 -207.5q0 -116 -24 -241t-74.5 -241t-129 -209t-187.5 -148t-251 -55zM677 48q125 0 220.5 51
t163.5 138t111.5 194.5t64 221.5t20.5 219q0 126 -34.5 235.5t-114 177t-213.5 67.5q-125 0 -221 -51t-165.5 -136.5t-114 -192.5t-66 -221t-21.5 -219q0 -129 36 -239t117 -177.5t217 -67.5zM933 1540q-91 0 -155 38.5t-94.5 110.5t-20.5 173h66q-13 -129 37 -192.5
t171 -63.5q113 0 192.5 63.5t103.5 192.5h68q-16 -89 -61.5 -162t-122 -116.5t-184.5 -43.5z" />
    <glyph glyph-name="obreve" unicode="&#x14f;" horiz-adv-x="1040" 
d="M506 -24q-154 0 -238 106t-84 304q0 200 60.5 348.5t170.5 230t259 81.5q155 0 240.5 -106.5t85.5 -297.5q0 -204 -60 -353.5t-171 -231t-263 -81.5zM518 48q122 0 213 72t141 203t50 307q0 164 -66 254t-188 90q-124 0 -215 -72.5t-141 -205t-50 -312.5
q0 -162 66.5 -249t189.5 -87zM700 1162q-91 0 -155 38.5t-94.5 110.5t-20.5 173h66q-13 -129 37 -192.5t171 -63.5q113 0 192.5 63.5t103.5 192.5h68q-16 -89 -61.5 -162t-122 -116.5t-184.5 -43.5z" />
    <glyph glyph-name="Ohungarumlaut" unicode="&#x150;" horiz-adv-x="1393" 
d="M667 -24q-118 0 -201 47.5t-135 128.5t-76 181.5t-24 206.5q0 115 25 238t76.5 238t131.5 207t189.5 146.5t251.5 54.5q119 0 201 -45.5t132 -123.5t72.5 -177.5t22.5 -207.5q0 -116 -24 -241t-74.5 -241t-129 -209t-187.5 -148t-251 -55zM677 48q125 0 220.5 51
t163.5 138t111.5 194.5t64 221.5t20.5 219q0 126 -34.5 235.5t-114 177t-213.5 67.5q-125 0 -221 -51t-165.5 -136.5t-114 -192.5t-66 -221t-21.5 -219q0 -129 36 -239t117 -177.5t217 -67.5zM1003 1530l358 312h110l-394 -312h-74zM647 1530l358 312h110l-394 -312h-74z
" />
    <glyph glyph-name="ohungarumlaut" unicode="&#x151;" horiz-adv-x="1040" 
d="M506 -24q-154 0 -238 106t-84 304q0 200 60.5 348.5t170.5 230t259 81.5q155 0 240.5 -106.5t85.5 -297.5q0 -204 -60 -353.5t-171 -231t-263 -81.5zM518 48q122 0 213 72t141 203t50 307q0 164 -66 254t-188 90q-124 0 -215 -72.5t-141 -205t-50 -312.5
q0 -162 66.5 -249t189.5 -87zM770 1152l358 312h110l-394 -312h-74zM414 1152l358 312h110l-394 -312h-74z" />
    <glyph glyph-name="OE" unicode="&#x152;" horiz-adv-x="1805" 
d="M667 -24q-117 0 -200 47.5t-135 128t-76.5 180t-24.5 202.5q0 118 25 243t77 240.5t132 207t190 145.5t252 54q98 0 161.5 -28.5t100.5 -61.5l10 66h636l-12 -66h-560l-102 -576h346l-12 -66h-346l-110 -626h604l-10 -66h-678l8 46q-40 -24 -110.5 -47t-165.5 -23z
M677 48q96 0 166.5 28.5t113.5 61.5l196 1102q-22 25 -55.5 51t-83 43.5t-119.5 17.5q-125 0 -221 -50.5t-165 -136.5t-113.5 -192.5t-65.5 -220.5t-21 -220q0 -128 35.5 -238.5t116 -178t216.5 -67.5z" />
    <glyph glyph-name="oe" unicode="&#x153;" horiz-adv-x="1728" 
d="M498 -24q-156 0 -239 106t-83 304q0 200 61 348.5t171 230t258 81.5q131 0 212 -77.5t102 -220.5q60 138 171.5 218t244.5 80q146 0 226 -88.5t80 -249.5q0 -54 -7.5 -106t-22.5 -112h-688q-22 -225 41.5 -333.5t216.5 -108.5q59 0 119 22.5t123 67.5l38 -56
q-144 -106 -298 -106q-129 0 -208 72.5t-102 211.5q-128 -284 -416 -284zM510 48q122 0 213 72t141 203t50 307q0 164 -66 254t-188 90q-124 0 -215 -72.5t-141 -205t-50 -312.5q0 -160 66.5 -248t189.5 -88zM994 556h618q36 200 -20.5 312t-193.5 112q-153 0 -257.5 -110
t-146.5 -314z" />
    <glyph glyph-name="Racute" unicode="&#x154;" horiz-adv-x="1248" 
d="M174 0l246 1400h450q98 0 165.5 -28.5t109 -76t60.5 -105t19 -116.5q0 -91 -33 -163.5t-92 -125t-138.5 -84t-172.5 -39.5l206 -662h-80l-206 658h-344l-116 -658h-74zM376 724h334q112 0 211.5 35.5t162 112.5t62.5 202q0 59 -24 119t-84 100.5t-168 40.5h-386z
M760 1530l356 312h110l-392 -312h-74z" />
    <glyph glyph-name="racute" unicode="&#x155;" horiz-adv-x="718" 
d="M166 0l180 1022h70l-38 -218q62 113 149 177.5t175 64.5q87 0 138 -42l-26 -62q-21 15 -53.5 23.5t-70.5 8.5q-80 0 -153 -53.5t-126 -145.5t-73 -209l-98 -566h-74zM540 1152l354 312h114l-390 -312h-78z" />
    <glyph glyph-name="uni0156" unicode="&#x156;" horiz-adv-x="1248" 
d="M174 0l246 1400h450q98 0 165.5 -28.5t109 -76t60.5 -105t19 -116.5q0 -91 -33 -163.5t-92 -125t-138.5 -84t-172.5 -39.5l206 -662h-80l-206 658h-344l-116 -658h-74zM376 724h334q112 0 211.5 35.5t162 112.5t62.5 202q0 59 -24 119t-84 100.5t-168 40.5h-386z
M449 -490l-18 6q25 28 49 71.5t40.5 90.5t18.5 86q-22 0 -38 14t-16 38q0 29 18 48.5t48 19.5q23 0 39.5 -16t16.5 -54q0 -56 -25.5 -115.5t-62.5 -110t-70 -78.5z" />
    <glyph glyph-name="uni0157" unicode="&#x157;" horiz-adv-x="718" 
d="M166 0l180 1022h70l-38 -218q62 113 149 177.5t175 64.5q87 0 138 -42l-26 -62q-21 15 -53.5 23.5t-70.5 8.5q-80 0 -153 -53.5t-126 -145.5t-73 -209l-98 -566h-74zM73 -490l-18 6q25 28 49 71.5t40.5 90.5t18.5 86q-22 0 -38 14t-16 38q0 29 18 48.5t48 19.5
q23 0 39.5 -16t16.5 -54q0 -56 -25.5 -115.5t-62.5 -110t-70 -78.5z" />
    <glyph glyph-name="Rcaron" unicode="&#x158;" horiz-adv-x="1248" 
d="M174 0l246 1400h450q98 0 165.5 -28.5t109 -76t60.5 -105t19 -116.5q0 -91 -33 -163.5t-92 -125t-138.5 -84t-172.5 -39.5l206 -662h-80l-206 658h-344l-116 -658h-74zM376 724h334q112 0 211.5 35.5t162 112.5t62.5 202q0 59 -24 119t-84 100.5t-168 40.5h-386z
M794 1530l-246 312h70l216 -240l304 240h78l-358 -312h-64z" />
    <glyph glyph-name="rcaron" unicode="&#x159;" horiz-adv-x="718" 
d="M166 0l180 1022h70l-38 -218q62 113 149 177.5t175 64.5q87 0 138 -42l-26 -62q-21 15 -53.5 23.5t-70.5 8.5q-80 0 -153 -53.5t-126 -145.5t-73 -209l-98 -566h-74zM576 1152l-246 312h70l216 -240l304 240h78l-358 -312h-64z" />
    <glyph glyph-name="Sacute" unicode="&#x15a;" horiz-adv-x="1140" 
d="M558 -24q-108 0 -188.5 40.5t-131.5 107.5t-70 146l74 24q30 -111 113.5 -179.5t210.5 -68.5q101 0 185.5 41t135.5 118.5t51 188.5q0 93 -42.5 154t-110 103.5t-141.5 80.5q-55 29 -107.5 59.5t-94.5 69t-67 90.5t-25 123q0 97 51 176.5t144 126.5t219 47
q90 0 160.5 -29t114.5 -81t55 -122l-74 -20q-19 87 -83.5 134.5t-174.5 47.5q-154 0 -244 -76t-90 -202q0 -73 37 -122.5t96.5 -86.5t126.5 -71q59 -30 117.5 -63t106 -77t76 -104t28.5 -144q0 -135 -60.5 -231.5t-164.5 -148.5t-233 -52zM720 1530l356 312h110l-392 -312
h-74z" />
    <glyph glyph-name="sacute" unicode="&#x15b;" horiz-adv-x="862" 
d="M432 -24q-61 0 -118 18.5t-105.5 53t-82.5 82.5l58 46q47 -64 112 -98t140 -34q119 0 185.5 60t66.5 166q0 74 -47.5 126t-170.5 104q-136 58 -188 120t-52 152q0 78 43 140t115.5 98t161.5 36q87 0 160 -33.5t118 -92.5l-56 -44q-87 102 -230 102q-102 0 -171 -58
t-69 -148q0 -64 45 -111.5t165 -100.5q138 -60 194 -125.5t56 -158.5q0 -139 -87.5 -219.5t-242.5 -80.5zM516 1152l354 312h114l-390 -312h-78z" />
    <glyph glyph-name="Scircumflex" unicode="&#x15c;" horiz-adv-x="1140" 
d="M558 -24q-108 0 -188.5 40.5t-131.5 107.5t-70 146l74 24q30 -111 113.5 -179.5t210.5 -68.5q101 0 185.5 41t135.5 118.5t51 188.5q0 93 -42.5 154t-110 103.5t-141.5 80.5q-55 29 -107.5 59.5t-94.5 69t-67 90.5t-25 123q0 97 51 176.5t144 126.5t219 47
q90 0 160.5 -29t114.5 -81t55 -122l-74 -20q-19 87 -83.5 134.5t-174.5 47.5q-154 0 -244 -76t-90 -202q0 -73 37 -122.5t96.5 -86.5t126.5 -71q59 -30 117.5 -63t106 -77t76 -104t28.5 -144q0 -135 -60.5 -231.5t-164.5 -148.5t-233 -52zM449 1530l358 312h64l246 -312h-70
l-218 240l-302 -240h-78z" />
    <glyph glyph-name="scircumflex" unicode="&#x15d;" horiz-adv-x="862" 
d="M432 -24q-61 0 -118 18.5t-105.5 53t-82.5 82.5l58 46q47 -64 112 -98t140 -34q119 0 185.5 60t66.5 166q0 74 -47.5 126t-170.5 104q-136 58 -188 120t-52 152q0 78 43 140t115.5 98t161.5 36q87 0 160 -33.5t118 -92.5l-56 -44q-87 102 -230 102q-102 0 -171 -58
t-69 -148q0 -64 45 -111.5t165 -100.5q138 -60 194 -125.5t56 -158.5q0 -139 -87.5 -219.5t-242.5 -80.5zM247 1152l358 312h64l246 -312h-70l-218 240l-302 -240h-78z" />
    <glyph glyph-name="Scedilla" unicode="&#x15e;" horiz-adv-x="1140" 
d="M558 -24q-108 0 -188.5 40.5t-131.5 107.5t-70 146l74 24q30 -111 113.5 -179.5t210.5 -68.5q101 0 185.5 41t135.5 118.5t51 188.5q0 93 -42.5 154t-110 103.5t-141.5 80.5q-55 29 -107.5 59.5t-94.5 69t-67 90.5t-25 123q0 97 51 176.5t144 126.5t219 47
q90 0 160.5 -29t114.5 -81t55 -122l-74 -20q-19 87 -83.5 134.5t-174.5 47.5q-154 0 -244 -76t-90 -202q0 -73 37 -122.5t96.5 -86.5t126.5 -71q59 -30 117.5 -63t106 -77t76 -104t28.5 -144q0 -135 -60.5 -231.5t-164.5 -148.5t-233 -52zM440 -468q-46 0 -79 15.5t-53 40.5
l56 36q12 -12 32.5 -23t51.5 -11q71 0 110.5 41.5t39.5 98.5q0 45 -29.5 73.5t-80.5 28.5q-19 0 -38.5 -3.5t-39.5 -12.5l-16 24l138 160h52l-84 -118q89 0 128.5 -45.5t39.5 -108.5q0 -79 -63 -137.5t-165 -58.5z" />
    <glyph glyph-name="scedilla" unicode="&#x15f;" horiz-adv-x="862" 
d="M432 -24q-61 0 -118 18.5t-105.5 53t-82.5 82.5l58 46q47 -64 112 -98t140 -34q119 0 185.5 60t66.5 166q0 74 -47.5 126t-170.5 104q-136 58 -188 120t-52 152q0 78 43 140t115.5 98t161.5 36q87 0 160 -33.5t118 -92.5l-56 -44q-87 102 -230 102q-102 0 -171 -58
t-69 -148q0 -64 45 -111.5t165 -100.5q138 -60 194 -125.5t56 -158.5q0 -139 -87.5 -219.5t-242.5 -80.5zM314 -468q-46 0 -79 15.5t-53 40.5l56 36q12 -12 32.5 -23t51.5 -11q71 0 110.5 41.5t39.5 98.5q0 45 -29.5 73.5t-80.5 28.5q-19 0 -38.5 -3.5t-39.5 -12.5l-16 24
l138 160h52l-84 -118q89 0 128.5 -45.5t39.5 -108.5q0 -79 -63 -137.5t-165 -58.5z" />
    <glyph glyph-name="Scaron" unicode="&#x160;" horiz-adv-x="1140" 
d="M558 -24q-108 0 -188.5 40.5t-131.5 107.5t-70 146l74 24q30 -111 113.5 -179.5t210.5 -68.5q101 0 185.5 41t135.5 118.5t51 188.5q0 93 -42.5 154t-110 103.5t-141.5 80.5q-55 29 -107.5 59.5t-94.5 69t-67 90.5t-25 123q0 97 51 176.5t144 126.5t219 47
q90 0 160.5 -29t114.5 -81t55 -122l-74 -20q-19 87 -83.5 134.5t-174.5 47.5q-154 0 -244 -76t-90 -202q0 -73 37 -122.5t96.5 -86.5t126.5 -71q59 -30 117.5 -63t106 -77t76 -104t28.5 -144q0 -135 -60.5 -231.5t-164.5 -148.5t-233 -52zM754 1530l-246 312h70l216 -240
l304 240h78l-358 -312h-64z" />
    <glyph glyph-name="scaron" unicode="&#x161;" horiz-adv-x="862" 
d="M432 -24q-61 0 -118 18.5t-105.5 53t-82.5 82.5l58 46q47 -64 112 -98t140 -34q119 0 185.5 60t66.5 166q0 74 -47.5 126t-170.5 104q-136 58 -188 120t-52 152q0 78 43 140t115.5 98t161.5 36q87 0 160 -33.5t118 -92.5l-56 -44q-87 102 -230 102q-102 0 -171 -58
t-69 -148q0 -64 45 -111.5t165 -100.5q138 -60 194 -125.5t56 -158.5q0 -139 -87.5 -219.5t-242.5 -80.5zM552 1152l-246 312h70l216 -240l304 240h78l-358 -312h-64z" />
    <glyph glyph-name="uni0162" unicode="&#x162;" horiz-adv-x="1074" 
d="M474 0l235 1328h-374l13 72h824l-13 -72h-376l-235 -1328h-74zM394 -468q-46 0 -79 15.5t-53 40.5l56 36q12 -12 32.5 -23t51.5 -11q71 0 110.5 41.5t39.5 98.5q0 45 -29.5 73.5t-80.5 28.5q-19 0 -38.5 -3.5t-39.5 -12.5l-16 24l138 160h52l-84 -118q89 0 128.5 -45.5
t39.5 -108.5q0 -79 -63 -137.5t-165 -58.5z" />
    <glyph glyph-name="uni0163" unicode="&#x163;" horiz-adv-x="678" 
d="M408 -24q-100 0 -136 63.5t-12 198.5l126 718h-168l12 66h168l68 386l78 36l-74 -422h254l-12 -66h-254l-126 -726q-18 -102 2 -143t86 -41q35 0 75 13t79 35l-22 -76q-72 -42 -144 -42zM280 -468q-46 0 -79 15.5t-53 40.5l56 36q12 -12 32.5 -23t51.5 -11
q71 0 110.5 41.5t39.5 98.5q0 45 -29.5 73.5t-80.5 28.5q-19 0 -38.5 -3.5t-39.5 -12.5l-16 24l138 160h52l-84 -118q89 0 128.5 -45.5t39.5 -108.5q0 -79 -63 -137.5t-165 -58.5z" />
    <glyph glyph-name="Tcaron" unicode="&#x164;" horiz-adv-x="1074" 
d="M474 0l235 1328h-374l13 72h824l-13 -72h-376l-235 -1328h-74zM754 1530l-246 312h70l216 -240l304 240h78l-358 -312h-64z" />
    <glyph glyph-name="tcaron" unicode="&#x165;" horiz-adv-x="678" 
d="M408 -24q-100 0 -136 63.5t-12 198.5l126 718h-168l12 66h168l68 386l78 36l-74 -422h254l-12 -66h-254l-126 -726q-18 -102 2 -143t86 -41q35 0 75 13t79 35l-22 -76q-72 -42 -144 -42zM657 1182l-18 16q24 39 48.5 102.5t47 148.5t40.5 189h72l-6 -36
q-27 -144 -74 -249t-110 -171z" />
    <glyph glyph-name="Tbar" unicode="&#x166;" horiz-adv-x="1074" 
d="M302 598l12 72h630l-12 -72h-630zM474 0l235 1328h-374l13 72h824l-13 -72h-376l-235 -1328h-74z" />
    <glyph glyph-name="tbar" unicode="&#x167;" horiz-adv-x="678" 
d="M408 -24q-100 0 -136 63.5t-12 198.5l126 718h-168l12 66h168l68 386l78 36l-74 -422h254l-12 -66h-254l-126 -726q-18 -102 2 -143t86 -41q35 0 75 13t79 35l-22 -76q-72 -42 -144 -42zM139 508l12 66h494l-12 -66h-494z" />
    <glyph glyph-name="Utilde" unicode="&#x168;" horiz-adv-x="1276" 
d="M610 -24q-153 0 -240.5 69.5t-113.5 193t2 285.5l154 876h76l-152 -862q-23 -134 -8 -246t82 -179t200 -67q94 0 184 37.5t159 136t101 282.5l156 898h74l-156 -902q-24 -140 -70.5 -239.5t-112.5 -162t-150 -91.5t-185 -29zM1050 1584q-56 0 -96.5 27.5t-75.5 58.5
q-32 29 -65 52.5t-75 23.5q-46 0 -79.5 -39.5t-50.5 -114.5h-56q17 96 67.5 158t134.5 62q56 0 97.5 -28t75.5 -59q32 -28 64.5 -51.5t74.5 -23.5q47 0 80.5 39.5t49.5 114.5h56q-16 -96 -67 -158t-135 -62z" />
    <glyph glyph-name="utilde" unicode="&#x169;" horiz-adv-x="1064" 
d="M488 -24q-111 0 -177 47t-86.5 141t3.5 234l110 624h72l-110 -640q-30 -174 19 -257t181 -83q134 0 225.5 101t122.5 285l102 594h74l-180 -1022h-70l30 176q-55 -96 -138 -148t-178 -52zM880 1204q-56 0 -96.5 27.5t-75.5 58.5q-32 29 -65 52.5t-75 23.5
q-46 0 -79.5 -39.5t-50.5 -114.5h-56q17 96 67.5 158t134.5 62q56 0 97.5 -28t75.5 -59q32 -28 64.5 -51.5t74.5 -23.5q47 0 80.5 39.5t49.5 114.5h56q-16 -96 -67 -158t-135 -62z" />
    <glyph glyph-name="Umacron" unicode="&#x16a;" horiz-adv-x="1276" 
d="M610 -24q-153 0 -240.5 69.5t-113.5 193t2 285.5l154 876h76l-152 -862q-23 -134 -8 -246t82 -179t200 -67q94 0 184 37.5t159 136t101 282.5l156 898h74l-156 -902q-24 -140 -70.5 -239.5t-112.5 -162t-150 -91.5t-185 -29zM559 1626l12 66h660l-12 -66h-660z" />
    <glyph glyph-name="umacron" unicode="&#x16b;" horiz-adv-x="1064" 
d="M488 -24q-111 0 -177 47t-86.5 141t3.5 234l110 624h72l-110 -640q-30 -174 19 -257t181 -83q134 0 225.5 101t122.5 285l102 594h74l-180 -1022h-70l30 176q-55 -96 -138 -148t-178 -52zM389 1246l12 66h660l-12 -66h-660z" />
    <glyph glyph-name="Ubreve" unicode="&#x16c;" horiz-adv-x="1276" 
d="M610 -24q-153 0 -240.5 69.5t-113.5 193t2 285.5l154 876h76l-152 -862q-23 -134 -8 -246t82 -179t200 -67q94 0 184 37.5t159 136t101 282.5l156 898h74l-156 -902q-24 -140 -70.5 -239.5t-112.5 -162t-150 -91.5t-185 -29zM882 1542q-91 0 -155 38.5t-94.5 110.5
t-20.5 173h66q-13 -129 37 -192.5t171 -63.5q113 0 192.5 63.5t103.5 192.5h68q-16 -89 -61.5 -162t-122 -116.5t-184.5 -43.5z" />
    <glyph glyph-name="ubreve" unicode="&#x16d;" horiz-adv-x="1064" 
d="M488 -24q-111 0 -177 47t-86.5 141t3.5 234l110 624h72l-110 -640q-30 -174 19 -257t181 -83q134 0 225.5 101t122.5 285l102 594h74l-180 -1022h-70l30 176q-55 -96 -138 -148t-178 -52zM712 1162q-91 0 -155 38.5t-94.5 110.5t-20.5 173h66q-13 -129 37 -192.5
t171 -63.5q113 0 192.5 63.5t103.5 192.5h68q-16 -89 -61.5 -162t-122 -116.5t-184.5 -43.5z" />
    <glyph glyph-name="Uring" unicode="&#x16e;" horiz-adv-x="1276" 
d="M610 -24q-153 0 -240.5 69.5t-113.5 193t2 285.5l154 876h76l-152 -862q-23 -134 -8 -246t82 -179t200 -67q94 0 184 37.5t159 136t101 282.5l156 898h74l-156 -902q-24 -140 -70.5 -239.5t-112.5 -162t-150 -91.5t-185 -29zM873 1480q-88 0 -148 58t-60 142
q0 72 34 128.5t92.5 89t131.5 32.5q93 0 150.5 -60t57.5 -140q0 -72 -34 -128.5t-92.5 -89t-131.5 -32.5zM873 1542q80 0 135 53t55 135q0 60 -40 99t-100 39q-76 0 -133 -52t-57 -136q0 -63 41.5 -100.5t98.5 -37.5z" />
    <glyph glyph-name="uring" unicode="&#x16f;" horiz-adv-x="1064" 
d="M488 -24q-111 0 -177 47t-86.5 141t3.5 234l110 624h72l-110 -640q-30 -174 19 -257t181 -83q134 0 225.5 101t122.5 285l102 594h74l-180 -1022h-70l30 176q-55 -96 -138 -148t-178 -52zM703 1100q-88 0 -148 58t-60 142q0 72 34 128.5t92.5 89t131.5 32.5
q93 0 150.5 -60t57.5 -140q0 -72 -34 -128.5t-92.5 -89t-131.5 -32.5zM703 1162q80 0 135 53t55 135q0 60 -40 99t-100 39q-76 0 -133 -52t-57 -136q0 -63 41.5 -100.5t98.5 -37.5z" />
    <glyph glyph-name="Uhungarumlaut" unicode="&#x170;" horiz-adv-x="1276" 
d="M610 -24q-153 0 -240.5 69.5t-113.5 193t2 285.5l154 876h76l-152 -862q-23 -134 -8 -246t82 -179t200 -67q94 0 184 37.5t159 136t101 282.5l156 898h74l-156 -902q-24 -140 -70.5 -239.5t-112.5 -162t-150 -91.5t-185 -29zM952 1532l358 312h110l-394 -312h-74z
M596 1532l358 312h110l-394 -312h-74z" />
    <glyph glyph-name="uhungarumlaut" unicode="&#x171;" horiz-adv-x="1064" 
d="M488 -24q-111 0 -177 47t-86.5 141t3.5 234l110 624h72l-110 -640q-30 -174 19 -257t181 -83q134 0 225.5 101t122.5 285l102 594h74l-180 -1022h-70l30 176q-55 -96 -138 -148t-178 -52zM782 1152l358 312h110l-394 -312h-74zM426 1152l358 312h110l-394 -312h-74z" />
    <glyph glyph-name="Uogonek" unicode="&#x172;" horiz-adv-x="1276" 
d="M604 -468q-67 0 -114.5 38.5t-47.5 117.5q0 89 62 165t164 127q-13 -1 -28.5 -2.5t-29.5 -1.5q-105 0 -188.5 39.5t-131.5 124t-48 218.5q0 38 4.5 79.5t11.5 86.5l154 876h76l-152 -862q-9 -48 -12.5 -90t-3.5 -78q0 -135 46 -204.5t113 -94.5t131 -25q94 0 184 37.5
t159 136t101 282.5l156 898h74l-156 -902q-24 -141 -70.5 -240t-113 -162t-150.5 -96q-96 -38 -159 -85t-94 -101.5t-31 -115.5q0 -58 32.5 -83t71.5 -25q51 0 85.5 23t52.5 41l42 -34q-31 -33 -79 -60.5t-111 -27.5z" />
    <glyph glyph-name="uogonek" unicode="&#x173;" horiz-adv-x="1064" 
d="M664 -468q-67 0 -114.5 38.5t-47.5 117.5q0 99 77 181.5t195 130.5l30 176q-67 -115 -154 -157.5t-162 -42.5q-89 0 -150 32t-92.5 95t-31.5 155q0 30 4 66.5t10 73.5l110 624h72l-110 -640q-6 -33 -9 -65.5t-3 -58.5q0 -115 56 -165.5t156 -50.5q75 0 145.5 37
t124 121.5t78.5 227.5l102 594h74l-180 -1022q-92 -40 -153 -86.5t-91 -100.5t-30 -115q0 -58 32.5 -83t71.5 -25q51 0 85.5 23t52.5 41l42 -34q-31 -33 -79 -60.5t-111 -27.5z" />
    <glyph glyph-name="Wcircumflex" unicode="&#x174;" horiz-adv-x="1624" 
d="M414 0l-92 1400h80l68 -1088q2 -31 4.5 -68t3.5 -66q14 35 27.5 68t26.5 66l450 1088h60l80 -1088q2 -24 4.5 -61t5.5 -73q14 35 27.5 68t26.5 66l442 1088h78l-572 -1400h-62l-78 1046q-2 28 -4 56.5t-4 57.5l-4 58q-18 -45 -35 -86.5t-35 -85.5l-434 -1046h-64z
M701 1530l358 312h64l246 -312h-70l-218 240l-302 -240h-78z" />
    <glyph glyph-name="wcircumflex" unicode="&#x175;" horiz-adv-x="1356" 
d="M324 0l-78 1022h72l48 -744q2 -35 4.5 -71t5.5 -75q15 35 34 75t34 71l354 744h52l98 -744q5 -34 9.5 -69t8.5 -73q15 39 29.5 73.5t28.5 68.5l308 744h74l-430 -1022h-54l-108 780q-3 24 -7 54.5t-7 51.5q-12 -28 -24 -54l-24 -52l-374 -780h-54zM511 1152l358 312h64
l246 -312h-70l-218 240l-302 -240h-78z" />
    <glyph glyph-name="Ycircumflex" unicode="&#x176;" horiz-adv-x="1160" 
d="M510 0l98 554l-300 846h74l270 -770l536 770h82l-590 -846l-98 -554h-72zM475 1530l358 312h64l246 -312h-70l-218 240l-302 -240h-78z" />
    <glyph glyph-name="ycircumflex" unicode="&#x177;" horiz-adv-x="974" 
d="M204 -388l222 416l-180 994h70l124 -700q9 -51 18 -102.5t18 -105.5q27 54 54 105.5t54 102.5l374 700h78l-756 -1410h-76zM325 1152l358 312h64l246 -312h-70l-218 240l-302 -240h-78z" />
    <glyph glyph-name="Ydieresis" unicode="&#x178;" horiz-adv-x="1160" 
d="M510 0l98 554l-300 846h74l270 -770l536 770h82l-590 -846l-98 -554h-72zM1000 1626q-21 0 -34.5 15t-13.5 37q0 27 22.5 47.5t49.5 20.5q23 0 35.5 -15.5t12.5 -38.5q0 -18 -10 -33t-26.5 -24t-35.5 -9zM648 1626q-21 0 -34.5 15t-13.5 37q0 18 10.5 33.5t27 25
t34.5 9.5q23 0 35.5 -15.5t12.5 -38.5q0 -25 -21.5 -45.5t-50.5 -20.5z" />
    <glyph glyph-name="Zacute" unicode="&#x179;" horiz-adv-x="1150" 
d="M88 0l8 38l1034 1296h-760l10 66h858l-8 -42l-1032 -1292h802l-8 -66h-904zM770 1530l356 312h110l-392 -312h-74z" />
    <glyph glyph-name="zacute" unicode="&#x17a;" horiz-adv-x="950" 
d="M98 0l8 44l748 912h-548l12 66h650l-8 -42l-750 -914h588l-10 -66h-690zM598 1152l354 312h114l-390 -312h-78z" />
    <glyph glyph-name="Zdotaccent" unicode="&#x17b;" horiz-adv-x="1150" 
d="M88 0l8 38l1034 1296h-760l10 66h858l-8 -42l-1032 -1292h802l-8 -66h-904zM854 1641q-21 0 -34.5 15t-13.5 37q0 27 22.5 47.5t49.5 20.5q23 0 35.5 -15.5t12.5 -38.5q0 -27 -21.5 -46.5t-50.5 -19.5z" />
    <glyph glyph-name="zdotaccent" unicode="&#x17c;" horiz-adv-x="950" 
d="M98 0l8 44l748 912h-548l12 66h650l-8 -42l-750 -914h588l-10 -66h-690zM684 1263q-21 0 -34.5 15t-13.5 37q0 27 22.5 47.5t49.5 20.5q23 0 35.5 -15.5t12.5 -38.5q0 -27 -21.5 -46.5t-50.5 -19.5z" />
    <glyph glyph-name="Zcaron" unicode="&#x17d;" horiz-adv-x="1150" 
d="M88 0l8 38l1034 1296h-760l10 66h858l-8 -42l-1032 -1292h802l-8 -66h-904zM804 1530l-246 312h70l216 -240l304 240h78l-358 -312h-64z" />
    <glyph glyph-name="zcaron" unicode="&#x17e;" horiz-adv-x="950" 
d="M98 0l8 44l748 912h-548l12 66h650l-8 -42l-750 -914h588l-10 -66h-690zM634 1152l-246 312h70l216 -240l304 240h78l-358 -312h-64z" />
    <glyph glyph-name="longs" unicode="&#x17f;" horiz-adv-x="560" 
d="M162 0l212 1206q13 72 41 120.5t72.5 73t108.5 24.5q35 0 66.5 -9t53.5 -23l-12 -64q-24 12 -49 21t-63 9q-69 0 -100.5 -39.5t-45.5 -120.5l-210 -1198h-74z" />
    <glyph glyph-name="uni0181" unicode="&#x181;" horiz-adv-x="1377" 
d="M253 1101l-63 30q24 89 71 149t121.5 90t181.5 30h63l-13 -72h-67q-131 0 -197.5 -56.5t-96.5 -170.5zM327 0l246 1400h410q128 0 202.5 -40t106 -107.5t31.5 -148.5q0 -95 -44.5 -174t-121.5 -132t-176 -70q123 -10 199.5 -91.5t76.5 -216.5q0 -68 -24 -141.5
t-79 -136.5t-147 -102.5t-228 -39.5h-452zM411 64h376q147 0 234 54t124.5 136t37.5 166q0 77 -30 139t-103.5 98.5t-204.5 36.5h-322zM535 758h292q132 0 227.5 45.5t147 124t51.5 176.5q0 62 -24 115t-83.5 85t-166.5 32h-342z" />
    <glyph glyph-name="uni0186" unicode="&#x186;" horiz-adv-x="1293" 
d="M580 -24q-125 0 -203.5 42t-121.5 102t-63 112l66 26q16 -47 54.5 -95.5t105 -81.5t165.5 -33q141 0 248.5 70.5t179.5 189t109 265.5t37 299q0 162 -44.5 268.5t-123.5 159t-184 52.5q-154 0 -247.5 -59t-155.5 -131l-55 36q45 58 108 109.5t150.5 84t202.5 32.5
q97 0 175.5 -34.5t134 -103.5t85.5 -173t30 -243q0 -165 -43 -324t-127 -288t-205.5 -205.5t-277.5 -76.5z" />
    <glyph glyph-name="uni0187" unicode="&#x187;" horiz-adv-x="1290" 
d="M1184 1198l18 100q20 107 60.5 182t108.5 117.5t169 52.5l26 -62q-83 -9 -141 -39t-94.5 -90.5t-54.5 -160.5l-18 -100h-74zM654 -24q-115 0 -196 45.5t-131.5 124.5t-73.5 178.5t-23 207.5q0 164 44.5 322.5t130.5 287t210.5 205.5t284.5 77q110 0 179 -32.5
t110.5 -84.5t68.5 -109l-68 -36q-40 83 -101.5 136.5t-190.5 53.5q-141 0 -250.5 -70.5t-184.5 -189t-114 -264t-39 -294.5q0 -128 34.5 -239t112 -179t205.5 -68q91 0 163.5 31.5t125.5 80.5t87 102l68 -30q-41 -64 -101.5 -122.5t-146.5 -96t-204 -37.5z" />
    <glyph glyph-name="uni0188" unicode="&#x188;" horiz-adv-x="970" 
d="M486 -24q-147 0 -229.5 106t-82.5 296q0 193 59.5 344t164 237.5t238.5 86.5q68 0 123.5 -24.5t91.5 -67.5l40 231q17 98 60.5 164.5t113.5 103.5t168 47l25 -62q-85 -7 -145 -35t-96 -81.5t-52 -139.5l-63 -352l-68 -26q-13 81 -66 125.5t-134 44.5q-111 0 -197 -77
t-135.5 -211.5t-49.5 -307.5q0 -159 61 -244.5t173 -85.5q83 0 151.5 50t108.5 140l68 -28q-54 -114 -138.5 -174t-189.5 -60z" />
    <glyph glyph-name="Dtail" unicode="&#x189;" horiz-adv-x="1296" 
d="M150 664l12 72h630l-12 -72h-630zM174 0l246 1400h300q144 0 242.5 -46.5t158.5 -125t86.5 -178t26.5 -206.5q0 -131 -30.5 -254.5t-92 -230.5t-153.5 -187.5t-215 -126t-277 -45.5h-292zM262 72h218q158 0 282.5 60t211.5 165.5t132.5 246t45.5 300.5q0 126 -41 236.5
t-138.5 179t-266.5 68.5h-226z" />
    <glyph glyph-name="uni018A" unicode="&#x18a;" horiz-adv-x="1449" 
d="M253 1101l-63 30q24 89 71 149t121.5 90t181.5 30h63l-13 -72h-67q-131 0 -197.5 -56.5t-96.5 -170.5zM327 0l246 1400h300q144 0 242.5 -46.5t158.5 -125t86.5 -178t26.5 -206.5q0 -131 -30.5 -254.5t-92 -230.5t-153.5 -187.5t-215 -126t-277 -45.5h-292zM415 72h218
q158 0 282.5 60t211.5 165.5t132.5 246t45.5 300.5q0 126 -41 236.5t-138.5 179t-266.5 68.5h-226z" />
    <glyph glyph-name="uni018E" unicode="&#x18e;" horiz-adv-x="1033" 
d="M12 0l12 66h702l110 626h-444l12 66h444l102 576h-658l12 66h730l-248 -1400h-774z" />
    <glyph glyph-name="uni018F" unicode="&#x18f;" horiz-adv-x="1386" 
d="M682 -24q-105 0 -189 35.5t-143 103t-90.5 163t-31.5 214.5q0 63 5.5 127t12.5 109h994q17 122 5 234t-54.5 199.5t-119.5 138t-191 50.5q-106 0 -193.5 -30.5t-182.5 -101.5l-38 62q92 72 198.5 108t227.5 36q102 0 182 -37t136 -108.5t85 -173.5t29 -233
q0 -193 -47 -357t-132.5 -284.5t-203 -187.5t-259.5 -67zM686 48q106 0 195 44t159 125t118 194t72 251h-916q-25 -179 5 -317.5t120.5 -217.5t246.5 -79z" />
    <glyph glyph-name="uni0190" unicode="&#x190;" horiz-adv-x="1203" 
d="M625 -24q-122 0 -212 41t-139 115.5t-49 175.5q0 110 47 199t132 148.5t197 78.5q-92 33 -143.5 104.5t-51.5 174.5q0 117 59 210t161 147t231 54q141 0 247 -70.5t141 -192.5l-65 -26q-38 110 -121.5 166.5t-203.5 56.5q-108 0 -192 -44t-132 -120.5t-48 -174.5
q0 -121 78 -190t211 -69h146l-12 -66h-176q-125 0 -222 -46t-151.5 -130.5t-54.5 -201.5q0 -129 85 -201.5t240 -72.5q146 0 259 65t195 197l66 -26q-85 -144 -219.5 -223t-302.5 -79z" />
    <glyph glyph-name="uni0191" unicode="&#x191;" horiz-adv-x="1060" 
d="M174 0l246 1400h734l-10 -66h-660l-102 -576h440l-12 -66h-440l-122 -692h-74zM-104 -430l-26 62q83 9 141 39t94.5 90.5t54.5 160.5l18 100h74l-18 -100q-19 -107 -60 -182t-109 -117.5t-169 -52.5z" />
    <glyph glyph-name="florin" unicode="&#x192;" horiz-adv-x="612" 
d="M-68 -426l-26 62q129 11 199.5 70t94.5 192l184 1058h-162l12 66h164l32 184q12 72 42.5 120.5t79 73t114.5 24.5q32 0 62 -9t52 -23l-10 -64q-25 12 -52 21t-66 9q-69 0 -102 -38.5t-48 -121.5l-30 -176h244l-12 -66h-246l-184 -1054q-21 -124 -72.5 -192.5t-122 -98
t-147.5 -37.5z" />
    <glyph glyph-name="uni0193" unicode="&#x193;" horiz-adv-x="1278" 
d="M1179 1232l18 100q20 107 60.5 182t108.5 117.5t169 52.5l26 -62q-83 -9 -141 -39t-94.5 -90.5t-54.5 -160.5l-18 -100h-74zM659 -24q-116 0 -197.5 45t-132.5 123t-74.5 177.5t-23.5 208.5q0 164 42.5 322.5t127 288t211 206.5t293.5 77q99 0 166.5 -28.5t111 -72.5
t70.5 -91l-72 -42q-34 65 -101 113.5t-183 48.5q-123 0 -218.5 -50.5t-165.5 -136.5t-115 -192t-67 -219t-22 -216q0 -131 35.5 -242.5t113.5 -179.5t205 -68q168 0 288.5 121t161.5 369l4 24h-284l10 70h362l-12 -70q-27 -156 -78 -267.5t-121.5 -181.5t-155.5 -103.5
t-179 -33.5z" />
    <glyph glyph-name="Gammalatin" unicode="&#x194;" horiz-adv-x="1248" 
d="M518 -432q-68 0 -112 43t-44 113q0 55 34 136t83 169.5t93 164.5l-250 1206h78l234 -1096l622 1096h78l-676 -1206q22 -102 38 -206t16 -196q0 -104 -49.5 -164t-144.5 -60zM520 -360q63 0 89 45t26 105q0 61 -9.5 135.5t-27.5 158.5q-33 -58 -70 -125.5t-62.5 -129
t-25.5 -102.5q0 -40 22.5 -63.5t57.5 -23.5z" />
    <glyph glyph-name="uni0196" unicode="&#x196;" horiz-adv-x="624" 
d="M364 -24q-115 0 -142 73.5t-6 188.5l204 1162h74l-206 -1170q-15 -85 -2.5 -134.5t90.5 -49.5q44 0 85 16t69 32l-22 -76q-34 -19 -71 -30.5t-73 -11.5z" />
    <glyph glyph-name="uni0197" unicode="&#x197;" horiz-adv-x="870" 
d="M201 664l12 72h630l-12 -72h-630zM363 0l246 1400h74l-246 -1400h-74z" />
    <glyph glyph-name="uni0198" unicode="&#x198;" horiz-adv-x="1238" 
d="M174 0l246 1400h74l-134 -762l556 587q69 73 131 115t129.5 61t150.5 23l24 -57q-83 -5 -144 -21t-112 -49.5t-106 -91.5l-269 -285l326 -920h-76l-304 864l-326 -342l-92 -522h-74z" />
    <glyph glyph-name="uni0199" unicode="&#x199;" horiz-adv-x="956" 
d="M166 0l209 1184q17 98 60 164.5t113 104t168 47.5l25 -62q-85 -7 -145.5 -34.5t-97.5 -81.5t-52 -141l-110 -629l502 470h90l-298 -280l242 -742h-76l-224 688l-252 -236l-80 -452h-74z" />
    <glyph glyph-name="uni019D" unicode="&#x19d;" horiz-adv-x="1326" 
d="M-104 -430l-26 62q83 9 141.5 39t95 90.5t53.5 160.5l260 1478h70l448 -1050q22 -50 46 -106t46 -110q9 54 19.5 112.5t18.5 103.5l184 1050h74l-246 -1400h-70l-448 1046q-14 34 -30 70t-31.5 74t-30.5 76q-6 -37 -12.5 -75t-13 -75t-12.5 -70l-198 -1124
q-19 -107 -60 -182t-109 -117.5t-169 -52.5z" />
    <glyph glyph-name="Ohorn" unicode="&#x1a0;" horiz-adv-x="1518" 
d="M667 -24q-118 0 -201 47.5t-135 128.5t-76 181.5t-24 206.5q0 115 25 238t76.5 238t131.5 207t189.5 146.5t251.5 54.5q119 0 201 -45.5t132 -123.5t72.5 -177.5t22.5 -207.5q0 -116 -24 -241t-74.5 -241t-129 -209t-187.5 -148t-251 -55zM677 48q125 0 220.5 51
t163.5 138t111.5 194.5t64 221.5t20.5 219q0 126 -34.5 235.5t-114 177t-213.5 67.5q-125 0 -221 -51t-165.5 -136.5t-114 -192.5t-66 -221t-21.5 -219q0 -129 36 -239t117 -177.5t217 -67.5zM1263 928l12 62q99 14 164 75.5t90 208.5l22 126h72l-20 -126
q-14 -88 -44.5 -150.5t-69.5 -101.5q-31 -31 -67.5 -50t-76.5 -29.5t-82 -14.5z" />
    <glyph glyph-name="ohorn" unicode="&#x1a1;" horiz-adv-x="1226" 
d="M506 -24q-154 0 -238 106t-84 304q0 200 60.5 348.5t170.5 230t259 81.5q155 0 240.5 -106.5t85.5 -297.5q0 -204 -60 -353.5t-171 -231t-263 -81.5zM518 48q122 0 213 72t141 203t50 307q0 164 -66 254t-188 90q-124 0 -215 -72.5t-141 -205t-50 -312.5
q0 -162 66.5 -249t189.5 -87zM928 690l12 62q99 14 164 75.5t90 208.5l22 126h72l-20 -126q-14 -88 -44.5 -150.5t-69.5 -101.5q-31 -31 -67.5 -50t-76.5 -29.5t-82 -14.5z" />
    <glyph glyph-name="uni01A4" unicode="&#x1a4;" horiz-adv-x="1311" 
d="M253 1101l-63 30q24 89 71 149t121.5 90t181.5 30h63l-13 -72h-67q-131 0 -197.5 -56.5t-96.5 -170.5zM327 0l246 1400h402q112 0 187.5 -29t120.5 -79t64.5 -113.5t19.5 -132.5q0 -77 -30.5 -159t-94 -152t-161.5 -113.5t-234 -43.5h-344l-102 -578h-74zM517 650h334
q151 0 247.5 61.5t142.5 153t46 181.5q0 76 -28 140t-97.5 103t-192.5 39h-336z" />
    <glyph glyph-name="uni01A5" unicode="&#x1a5;" horiz-adv-x="1065" 
d="M94 -406l281 1591q18 99 61 165t113 103t168 47l25 -62q-85 -7 -144.5 -34.5t-96 -81.5t-52.5 -140l-57 -310q136 174 322 174q95 0 165 -50.5t108.5 -142t38.5 -215.5q0 -195 -61 -344t-168.5 -233.5t-248.5 -84.5q-99 0 -173.5 52t-104.5 142l-96 -540zM550 48
q117 0 207.5 74.5t141.5 206t51 301.5q0 162 -65.5 253t-184.5 91q-87 0 -173.5 -52t-148.5 -144l-90 -514q32 -105 99 -160.5t163 -55.5z" />
    <glyph glyph-name="uni01A9" unicode="&#x1a9;" horiz-adv-x="1170" 
d="M106 0l6 38l556 682l-293 638l7 42h872l-11 -66h-778l284 -614l-530 -654h830l-11 -66h-932z" />
    <glyph glyph-name="uni01AC" unicode="&#x1ac;" horiz-adv-x="1089" 
d="M489 0l235 1328h-177q-131 0 -197.5 -56.5t-96.5 -170.5l-63 30q24 89 71 149t121.5 90t181.5 30h623l-13 -72h-376l-235 -1328h-74z" />
    <glyph glyph-name="uni01AD" unicode="&#x1ad;" horiz-adv-x="523" 
d="M408 -24q-100 0 -136 63.5t-12 198.5l126 718h-168l12 66h168l28 163q17 99 60.5 165t113.5 103t168 47l25 -62q-85 -7 -145 -34.5t-96.5 -81.5t-52.5 -140l-29 -160h254l-12 -66h-254l-126 -726q-18 -102 2 -143t86 -41q35 0 75 13t79 35l-22 -76q-72 -42 -144 -42z" />
    <glyph glyph-name="uni01AE" unicode="&#x1ae;" horiz-adv-x="1074" 
d="M683 -430q-141 15 -197.5 92t-29.5 230l253 1436h-374l13 72h824l-13 -72h-376l-254 -1440q-15 -86 2 -140t67 -81.5t132 -34.5z" />
    <glyph glyph-name="Uhorn" unicode="&#x1af;" horiz-adv-x="1454" 
d="M610 -24q-153 0 -240.5 69.5t-113.5 193t2 285.5l154 876h76l-152 -862q-23 -134 -8 -246t82 -179t200 -67q94 0 184 37.5t159 136t101 282.5l156 898h74l-156 -902q-24 -140 -70.5 -239.5t-112.5 -162t-150 -91.5t-185 -29zM1198 928l12 62q99 14 164 75.5t90 208.5
l22 126h72l-20 -126q-14 -88 -44.5 -150.5t-69.5 -101.5q-31 -31 -67.5 -50t-76.5 -29.5t-82 -14.5z" />
    <glyph glyph-name="uhorn" unicode="&#x1b0;" horiz-adv-x="1246" 
d="M488 -24q-111 0 -177 47t-86.5 141t3.5 234l110 624h72l-110 -640q-30 -174 19 -257t181 -83q134 0 225.5 101t122.5 285l102 594h74l-180 -1022h-70l30 176q-55 -96 -138 -148t-178 -52zM948 690l12 62q99 14 164 75.5t90 208.5l22 126h72l-20 -126
q-14 -88 -44.5 -150.5t-69.5 -101.5q-31 -31 -67.5 -50t-76.5 -29.5t-82 -14.5z" />
    <glyph glyph-name="uni01B1" unicode="&#x1b1;" horiz-adv-x="1468" 
d="M726 -24q-179 0 -287.5 75.5t-157.5 199t-49 267.5q0 160 61.5 311t169 279.5t245.5 219.5h-352l12 72h426l-16 -84q-106 -73 -191.5 -166t-147 -197.5t-94.5 -215.5t-33 -221q0 -121 41.5 -228t132.5 -173.5t240 -66.5q160 0 285.5 90.5t198 246t72.5 351.5
q0 156 -51 312t-173 268l16 84h426l-12 -72h-360q107 -99 170.5 -256t63.5 -336q0 -160 -47 -298t-133 -242t-202 -162t-254 -58z" />
    <glyph glyph-name="uni01B2" unicode="&#x1b2;" horiz-adv-x="1328" 
d="M476 -24q-156 0 -217 102.5t-25 307.5l178 1014h76l-178 -1014q-31 -175 9 -256.5t168 -81.5q111 0 218.5 64t202 171t167 238t113.5 267t41 256q0 158 -71.5 233t-202.5 75q-19 0 -31 -0.5t-23 -2.5l45 71q29 4 60 4q93 0 160 -43.5t103 -128t36 -208.5
q0 -135 -45.5 -282.5t-125.5 -287t-185 -252.5t-226 -179.5t-247 -66.5z" />
    <glyph glyph-name="uni01B3" unicode="&#x1b3;" horiz-adv-x="1383" 
d="M510 0l98 554l-300 846h74l270 -770l412 590q58 83 120 125t133.5 58.5t154.5 20.5l26 -60q-83 -5 -149 -17.5t-118 -43.5t-94 -92l-457 -657l-98 -554h-72z" />
    <glyph glyph-name="uni01B4" unicode="&#x1b4;" horiz-adv-x="1260" 
d="M204 -388l222 416l-180 994h70l124 -700q9 -51 18 -102.5t18 -105.5q27 54 53.5 105.5t54.5 102.5l330 617q55 102 121 172.5t145.5 110.5t173.5 50l25 -62q-91 -9 -161.5 -40.5t-128 -93t-111.5 -162.5l-698 -1302h-76z" />
    <glyph glyph-name="uni01B7" unicode="&#x1b7;" horiz-adv-x="1140" 
d="M548 -24q-111 0 -198 37.5t-147 103.5t-89 151l60 20q44 -112 137 -179t241 -67q112 0 199 46.5t137 127.5t50 186q0 147 -99.5 225.5t-324.5 78.5l-52 54l598 574h-704l12 66h802l-12 -68l-592 -560q219 0 333.5 -96.5t114.5 -269.5q0 -128 -61 -225t-166.5 -151
t-238.5 -54z" />
    <glyph glyph-name="uni01C0" unicode="&#x1c0;" horiz-adv-x="444" 
d="M95 -409l320 1817l78 36l-316 -1814z" />
    <glyph glyph-name="uni01C1" unicode="&#x1c1;" horiz-adv-x="888" 
d="M95 -409l320 1817l78 36l-316 -1814zM539 -409l320 1817l78 36l-316 -1814z" />
    <glyph glyph-name="uni01C2" unicode="&#x1c2;" horiz-adv-x="606" 
d="M177 -409l320 1817l78 36l-316 -1814zM155 668l12 66h494l-12 -66h-494zM117 452l12 66h494l-12 -66h-494z" />
    <glyph glyph-name="uni01C3" unicode="&#x1c3;" horiz-adv-x="492" 
d="M272 386l66 534l88 504h78l-88 -504l-124 -534h-20zM210 -28q-21 0 -35.5 15t-14.5 37q0 27 20.5 47.5t47.5 20.5q23 0 36.5 -15.5t13.5 -38.5q0 -27 -19.5 -46.5t-48.5 -19.5z" />
    <glyph glyph-name="uni01C4" unicode="&#x1c4;" horiz-adv-x="2426" 
d="M174 0l246 1400h300q144 0 242.5 -46.5t158.5 -125t86.5 -178t26.5 -206.5q0 -131 -30.5 -254.5t-92 -230.5t-153.5 -187.5t-215 -126t-277 -45.5h-292zM262 72h218q158 0 282.5 60t211.5 165.5t132.5 246t45.5 300.5q0 126 -41 236.5t-138.5 179t-266.5 68.5h-226z
M1364 0l8 38l1034 1296h-760l10 66h858l-8 -42l-1032 -1292h802l-8 -66h-904zM2080 1530l-246 312h70l216 -240l304 240h78l-358 -312h-64z" />
    <glyph glyph-name="uni01C5" unicode="&#x1c5;" horiz-adv-x="2246" 
d="M174 0l246 1400h300q144 0 242.5 -46.5t158.5 -125t86.5 -178t26.5 -206.5q0 -131 -30.5 -254.5t-92 -230.5t-153.5 -187.5t-215 -126t-277 -45.5h-292zM262 72h218q158 0 282.5 60t211.5 165.5t132.5 246t45.5 300.5q0 126 -41 236.5t-138.5 179t-266.5 68.5h-226z
M1394 0l8 44l748 912h-548l12 66h650l-8 -42l-750 -914h588l-10 -66h-690zM1930 1152l-246 312h70l216 -240l304 240h78l-358 -312h-64z" />
    <glyph glyph-name="uni01C6" unicode="&#x1c6;" horiz-adv-x="2006" 
d="M494 -24q-148 0 -232 113.5t-84 314.5q0 190 62 334.5t172.5 226t255.5 81.5q90 0 162 -48.5t102 -129.5l96 540l78 36l-252 -1444h-74l26 146q-73 -84 -152 -127t-160 -43zM494 48q90 0 177.5 56t154.5 156l88 508q-33 96 -99.5 151t-150.5 55q-122 0 -214 -71.5
t-143 -200t-51 -298.5q0 -163 64.5 -259.5t173.5 -96.5zM1154 0l8 44l748 912h-548l12 66h650l-8 -42l-750 -914h588l-10 -66h-690zM1690 1152l-246 312h70l216 -240l304 240h78l-358 -312h-64z" />
    <glyph glyph-name="uni01C7" unicode="&#x1c7;" horiz-adv-x="2066" 
d="M174 0l246 1400h74l-234 -1334h676l-12 -66h-750zM1450 -24q-142 0 -222.5 70.5t-107.5 167.5l66 32q24 -82 81 -142t183 -60q80 0 158.5 34t140 121t89.5 247l166 954h76l-166 -950q-25 -144 -74.5 -236.5t-113.5 -144.5t-135 -72.5t-141 -20.5z" />
    <glyph glyph-name="uni01C8" unicode="&#x1c8;" horiz-adv-x="1490" 
d="M174 0l246 1400h74l-234 -1334h676l-12 -66h-750zM914 -426l-26 62q128 14 197.5 75.5t94.5 208.5l194 1102h72l-192 -1102q-18 -107 -59.5 -181t-110.5 -114.5t-170 -50.5zM1448 1246q-22 0 -35 14.5t-13 35.5q0 18 8.5 34t23.5 26t36 10q24 0 36 -15.5t12 -36.5
q0 -18 -8 -33.5t-23.5 -25t-36.5 -9.5z" />
    <glyph glyph-name="uni01C9" unicode="&#x1c9;" horiz-adv-x="972" 
d="M168 0l248 1408l78 36l-252 -1444h-74zM396 -426l-26 62q128 14 197.5 75.5t94.5 208.5l194 1102h72l-192 -1102q-18 -107 -59.5 -181t-110.5 -114.5t-170 -50.5zM930 1246q-22 0 -35 14.5t-13 35.5q0 18 8.5 34t23.5 26t36 10q24 0 36 -15.5t12 -36.5q0 -18 -8 -33.5
t-23.5 -25t-36.5 -9.5z" />
    <glyph glyph-name="uni01CA" unicode="&#x1ca;" horiz-adv-x="2330" 
d="M174 0l246 1400h70l448 -1050q23 -51 46.5 -106.5t45.5 -109.5q9 54 19 111t19 105l184 1050h74l-246 -1400h-70l-448 1046q-15 34 -30.5 70.5t-31 74t-30.5 75.5q-6 -37 -12.5 -75t-13 -75t-12.5 -70l-184 -1046h-74zM1714 -24q-142 0 -222.5 70.5t-107.5 167.5l66 32
q24 -82 81 -142t183 -60q80 0 158.5 34t140 121t89.5 247l166 954h76l-166 -950q-25 -144 -74.5 -236.5t-113.5 -144.5t-135 -72.5t-141 -20.5z" />
    <glyph glyph-name="uni01CB" unicode="&#x1cb;" horiz-adv-x="1794" 
d="M174 0l246 1400h70l448 -1050q23 -51 46.5 -106.5t45.5 -109.5q9 54 19 111t19 105l184 1050h74l-246 -1400h-70l-448 1046q-15 34 -30.5 70.5t-31 74t-30.5 75.5q-6 -37 -12.5 -75t-13 -75t-12.5 -70l-184 -1046h-74zM1218 -426l-26 62q128 14 197.5 75.5t94.5 208.5
l194 1102h72l-192 -1102q-18 -107 -59.5 -181t-110.5 -114.5t-170 -50.5zM1752 1246q-22 0 -35 14.5t-13 35.5q0 18 8.5 34t23.5 26t36 10q24 0 36 -15.5t12 -36.5q0 -18 -8 -33.5t-23.5 -25t-36.5 -9.5z" />
    <glyph glyph-name="uni01CC" unicode="&#x1cc;" horiz-adv-x="1590" 
d="M166 0l180 1022h70l-32 -184q51 96 138 152t186 56q106 0 170.5 -49t86 -144t-2.5 -233l-110 -620h-72l108 618q32 185 -15 272.5t-179 87.5q-138 0 -229 -99t-123 -285l-102 -594h-74zM1014 -426l-26 62q128 14 197.5 75.5t94.5 208.5l194 1102h72l-192 -1102
q-18 -107 -59.5 -181t-110.5 -114.5t-170 -50.5zM1548 1246q-22 0 -35 14.5t-13 35.5q0 18 8.5 34t23.5 26t36 10q24 0 36 -15.5t12 -36.5q0 -18 -8 -33.5t-23.5 -25t-36.5 -9.5z" />
    <glyph glyph-name="uni01CD" unicode="&#x1cd;" horiz-adv-x="1276" 
d="M116 0l710 1400h52l226 -1400h-74l-66 394h-568l-200 -394h-80zM424 454h532l-92 604q-3 17 -10.5 60.5t-14.5 89.5t-9 72q-10 -26 -31 -72t-41 -89t-28 -59zM844 1530l-246 312h70l216 -240l304 240h78l-358 -312h-64z" />
    <glyph glyph-name="uni01CE" unicode="&#x1ce;" horiz-adv-x="994" 
d="M422 -24q-124 0 -196 76t-72 208q0 108 52 192.5t142.5 133t205.5 48.5q80 0 148 -25.5t132 -78.5l24 130q32 168 -11 244t-169 76q-67 0 -149.5 -26t-172.5 -76l-14 64q99 54 182 79t156 25q106 0 169 -41.5t83.5 -123.5t-0.5 -205l-118 -676h-72l26 150
q-78 -85 -165.5 -129.5t-180.5 -44.5zM426 42q92 0 180 50t178 152l40 222q-64 50 -133.5 75t-140.5 25q-90 0 -161 -40.5t-112 -109.5t-41 -156q0 -100 51.5 -159t138.5 -59zM670 1152l-246 312h70l216 -240l304 240h78l-358 -312h-64z" />
    <glyph glyph-name="uni01CF" unicode="&#x1cf;" horiz-adv-x="494" 
d="M174 0l246 1400h74l-246 -1400h-74zM452 1530l-246 312h70l216 -240l304 240h78l-358 -312h-64z" />
    <glyph glyph-name="uni01D0" unicode="&#x1d0;" horiz-adv-x="456" 
d="M172 0l180 1022h70l-178 -1022h-72zM380 1152l-246 312h70l216 -240l304 240h78l-358 -312h-64z" />
    <glyph glyph-name="uni01D1" unicode="&#x1d1;" horiz-adv-x="1393" 
d="M667 -24q-118 0 -201 47.5t-135 128.5t-76 181.5t-24 206.5q0 115 25 238t76.5 238t131.5 207t189.5 146.5t251.5 54.5q119 0 201 -45.5t132 -123.5t72.5 -177.5t22.5 -207.5q0 -116 -24 -241t-74.5 -241t-129 -209t-187.5 -148t-251 -55zM677 48q125 0 220.5 51
t163.5 138t111.5 194.5t64 221.5t20.5 219q0 126 -34.5 235.5t-114 177t-213.5 67.5q-125 0 -221 -51t-165.5 -136.5t-114 -192.5t-66 -221t-21.5 -219q0 -129 36 -239t117 -177.5t217 -67.5zM895 1530l-246 312h70l216 -240l304 240h78l-358 -312h-64z" />
    <glyph glyph-name="uni01D2" unicode="&#x1d2;" horiz-adv-x="1040" 
d="M506 -24q-154 0 -238 106t-84 304q0 200 60.5 348.5t170.5 230t259 81.5q155 0 240.5 -106.5t85.5 -297.5q0 -204 -60 -353.5t-171 -231t-263 -81.5zM518 48q122 0 213 72t141 203t50 307q0 164 -66 254t-188 90q-124 0 -215 -72.5t-141 -205t-50 -312.5
q0 -162 66.5 -249t189.5 -87zM662 1152l-246 312h70l216 -240l304 240h78l-358 -312h-64z" />
    <glyph glyph-name="uni01D3" unicode="&#x1d3;" horiz-adv-x="1276" 
d="M610 -24q-153 0 -240.5 69.5t-113.5 193t2 285.5l154 876h76l-152 -862q-23 -134 -8 -246t82 -179t200 -67q94 0 184 37.5t159 136t101 282.5l156 898h74l-156 -902q-24 -140 -70.5 -239.5t-112.5 -162t-150 -91.5t-185 -29zM844 1532l-246 312h70l216 -240l304 240h78
l-358 -312h-64z" />
    <glyph glyph-name="uni01D4" unicode="&#x1d4;" horiz-adv-x="1064" 
d="M488 -24q-111 0 -177 47t-86.5 141t3.5 234l110 624h72l-110 -640q-30 -174 19 -257t181 -83q134 0 225.5 101t122.5 285l102 594h74l-180 -1022h-70l30 176q-55 -96 -138 -148t-178 -52zM674 1152l-246 312h70l216 -240l304 240h78l-358 -312h-64z" />
    <glyph glyph-name="uni01D5" unicode="&#x1d5;" horiz-adv-x="1276" 
d="M610 -24q-153 0 -240.5 69.5t-113.5 193t2 285.5l154 876h76l-152 -862q-23 -134 -8 -246t82 -179t200 -67q94 0 184 37.5t159 136t101 282.5l156 898h74l-156 -902q-24 -140 -70.5 -239.5t-112.5 -162t-150 -91.5t-185 -29zM1054 1626q-21 0 -34.5 15t-13.5 37
q0 27 22.5 47.5t49.5 20.5q23 0 35.5 -15.5t12.5 -38.5q0 -18 -10 -33t-26.5 -24t-35.5 -9zM722 1626q-21 0 -34.5 15t-13.5 37q0 18 10.5 33.5t27 25t34.5 9.5q23 0 35.5 -15.5t12.5 -38.5q0 -25 -21.5 -45.5t-50.5 -20.5zM620 1970l12 66h660l-12 -66h-660z" />
    <glyph glyph-name="uni01D6" unicode="&#x1d6;" horiz-adv-x="1064" 
d="M488 -24q-111 0 -177 47t-86.5 141t3.5 234l110 624h72l-110 -640q-30 -174 19 -257t181 -83q134 0 225.5 101t122.5 285l102 594h74l-180 -1022h-70l30 176q-55 -96 -138 -148t-178 -52zM884 1246q-21 0 -34.5 15t-13.5 37q0 27 22.5 47.5t49.5 20.5q23 0 35.5 -15.5
t12.5 -38.5q0 -18 -10 -33t-26.5 -24t-35.5 -9zM552 1246q-21 0 -34.5 15t-13.5 37q0 18 10.5 33.5t27 25t34.5 9.5q23 0 35.5 -15.5t12.5 -38.5q0 -25 -21.5 -45.5t-50.5 -20.5zM450 1590l12 66h660l-12 -66h-660z" />
    <glyph glyph-name="uni01D7" unicode="&#x1d7;" horiz-adv-x="1276" 
d="M610 -24q-153 0 -240.5 69.5t-113.5 193t2 285.5l154 876h76l-152 -862q-23 -134 -8 -246t82 -179t200 -67q94 0 184 37.5t159 136t101 282.5l156 898h74l-156 -902q-24 -140 -70.5 -239.5t-112.5 -162t-150 -91.5t-185 -29zM1054 1626q-21 0 -34.5 15t-13.5 37
q0 27 22.5 47.5t49.5 20.5q23 0 35.5 -15.5t12.5 -38.5q0 -18 -10 -33t-26.5 -24t-35.5 -9zM722 1626q-21 0 -34.5 15t-13.5 37q0 18 10.5 33.5t27 25t34.5 9.5q23 0 35.5 -15.5t12.5 -38.5q0 -25 -21.5 -45.5t-50.5 -20.5zM869 1876l354 312h114l-390 -312h-78z" />
    <glyph glyph-name="uni01D8" unicode="&#x1d8;" horiz-adv-x="1064" 
d="M488 -24q-111 0 -177 47t-86.5 141t3.5 234l110 624h72l-110 -640q-30 -174 19 -257t181 -83q134 0 225.5 101t122.5 285l102 594h74l-180 -1022h-70l30 176q-55 -96 -138 -148t-178 -52zM884 1246q-21 0 -34.5 15t-13.5 37q0 27 22.5 47.5t49.5 20.5q23 0 35.5 -15.5
t12.5 -38.5q0 -18 -10 -33t-26.5 -24t-35.5 -9zM552 1246q-21 0 -34.5 15t-13.5 37q0 18 10.5 33.5t27 25t34.5 9.5q23 0 35.5 -15.5t12.5 -38.5q0 -25 -21.5 -45.5t-50.5 -20.5zM699 1496l354 312h114l-390 -312h-78z" />
    <glyph glyph-name="uni01D9" unicode="&#x1d9;" horiz-adv-x="1276" 
d="M610 -24q-153 0 -240.5 69.5t-113.5 193t2 285.5l154 876h76l-152 -862q-23 -134 -8 -246t82 -179t200 -67q94 0 184 37.5t159 136t101 282.5l156 898h74l-156 -902q-24 -140 -70.5 -239.5t-112.5 -162t-150 -91.5t-185 -29zM1054 1626q-21 0 -34.5 15t-13.5 37
q0 27 22.5 47.5t49.5 20.5q23 0 35.5 -15.5t12.5 -38.5q0 -18 -10 -33t-26.5 -24t-35.5 -9zM722 1626q-21 0 -34.5 15t-13.5 37q0 18 10.5 33.5t27 25t34.5 9.5q23 0 35.5 -15.5t12.5 -38.5q0 -25 -21.5 -45.5t-50.5 -20.5zM905 1876l-246 312h70l216 -240l304 240h78
l-358 -312h-64z" />
    <glyph glyph-name="uni01DA" unicode="&#x1da;" horiz-adv-x="1064" 
d="M488 -24q-111 0 -177 47t-86.5 141t3.5 234l110 624h72l-110 -640q-30 -174 19 -257t181 -83q134 0 225.5 101t122.5 285l102 594h74l-180 -1022h-70l30 176q-55 -96 -138 -148t-178 -52zM884 1246q-21 0 -34.5 15t-13.5 37q0 27 22.5 47.5t49.5 20.5q23 0 35.5 -15.5
t12.5 -38.5q0 -18 -10 -33t-26.5 -24t-35.5 -9zM552 1246q-21 0 -34.5 15t-13.5 37q0 18 10.5 33.5t27 25t34.5 9.5q23 0 35.5 -15.5t12.5 -38.5q0 -25 -21.5 -45.5t-50.5 -20.5zM735 1496l-246 312h70l216 -240l304 240h78l-358 -312h-64z" />
    <glyph glyph-name="uni01DB" unicode="&#x1db;" horiz-adv-x="1276" 
d="M610 -24q-153 0 -240.5 69.5t-113.5 193t2 285.5l154 876h76l-152 -862q-23 -134 -8 -246t82 -179t200 -67q94 0 184 37.5t159 136t101 282.5l156 898h74l-156 -902q-24 -140 -70.5 -239.5t-112.5 -162t-150 -91.5t-185 -29zM1054 1626q-21 0 -34.5 15t-13.5 37
q0 27 22.5 47.5t49.5 20.5q23 0 35.5 -15.5t12.5 -38.5q0 -18 -10 -33t-26.5 -24t-35.5 -9zM722 1626q-21 0 -34.5 15t-13.5 37q0 18 10.5 33.5t27 25t34.5 9.5q23 0 35.5 -15.5t12.5 -38.5q0 -25 -21.5 -45.5t-50.5 -20.5zM921 1876l-282 312h105l250 -312h-73z" />
    <glyph glyph-name="uni01DC" unicode="&#x1dc;" horiz-adv-x="1064" 
d="M488 -24q-111 0 -177 47t-86.5 141t3.5 234l110 624h72l-110 -640q-30 -174 19 -257t181 -83q134 0 225.5 101t122.5 285l102 594h74l-180 -1022h-70l30 176q-55 -96 -138 -148t-178 -52zM884 1246q-21 0 -34.5 15t-13.5 37q0 27 22.5 47.5t49.5 20.5q23 0 35.5 -15.5
t12.5 -38.5q0 -18 -10 -33t-26.5 -24t-35.5 -9zM552 1246q-21 0 -34.5 15t-13.5 37q0 18 10.5 33.5t27 25t34.5 9.5q23 0 35.5 -15.5t12.5 -38.5q0 -25 -21.5 -45.5t-50.5 -20.5zM751 1496l-282 312h105l250 -312h-73z" />
    <glyph glyph-name="uni01DD" unicode="&#x1dd;" horiz-adv-x="1002" 
d="M480 -24q-86 0 -155.5 35t-110 111t-40.5 200q0 41 6.5 90.5t21.5 119.5h690q14 131 -4.5 230.5t-79 155.5t-172.5 56q-57 0 -119.5 -22.5t-124.5 -67.5l-38 56q62 47 135.5 76.5t164.5 29.5q105 0 177 -47.5t108.5 -138t36.5 -220.5q0 -151 -38.5 -273.5t-106.5 -210
t-158 -134t-193 -46.5zM478 42q119 0 201.5 60.5t132 157.5t70.5 206h-618q-23 -115 -9 -211.5t68.5 -154.5t154.5 -58z" />
    <glyph glyph-name="uni01DE" unicode="&#x1de;" horiz-adv-x="1276" 
d="M116 0l710 1400h52l226 -1400h-74l-66 394h-568l-200 -394h-80zM424 454h532l-92 604q-3 17 -10.5 60.5t-14.5 89.5t-9 72q-10 -26 -31 -72t-41 -89t-28 -59zM1064 1626q-21 0 -34.5 15t-13.5 37q0 27 22.5 47.5t49.5 20.5q23 0 35.5 -15.5t12.5 -38.5q0 -18 -10 -33
t-26.5 -24t-35.5 -9zM712 1626q-21 0 -34.5 15t-13.5 37q0 18 10.5 33.5t27 25t34.5 9.5q23 0 35.5 -15.5t12.5 -38.5q0 -25 -21.5 -45.5t-50.5 -20.5zM619 1970l12 66h660l-12 -66h-660z" />
    <glyph glyph-name="uni01DF" unicode="&#x1df;" horiz-adv-x="994" 
d="M422 -24q-124 0 -196 76t-72 208q0 108 52 192.5t142.5 133t205.5 48.5q80 0 148 -25.5t132 -78.5l24 130q32 168 -11 244t-169 76q-67 0 -149.5 -26t-172.5 -76l-14 64q99 54 182 79t156 25q106 0 169 -41.5t83.5 -123.5t-0.5 -205l-118 -676h-72l26 150
q-78 -85 -165.5 -129.5t-180.5 -44.5zM426 42q92 0 180 50t178 152l40 222q-64 50 -133.5 75t-140.5 25q-90 0 -161 -40.5t-112 -109.5t-41 -156q0 -100 51.5 -159t138.5 -59zM880 1246q-21 0 -34.5 15t-13.5 37q0 27 22.5 47.5t49.5 20.5q23 0 35.5 -15.5t12.5 -38.5
q0 -18 -10 -33t-26.5 -24t-35.5 -9zM548 1246q-21 0 -34.5 15t-13.5 37q0 18 10.5 33.5t27 25t34.5 9.5q23 0 35.5 -15.5t12.5 -38.5q0 -25 -21.5 -45.5t-50.5 -20.5zM446 1590l12 66h660l-12 -66h-660z" />
    <glyph glyph-name="uni01E0" unicode="&#x1e0;" horiz-adv-x="1276" 
d="M116 0l710 1400h52l226 -1400h-74l-66 394h-568l-200 -394h-80zM424 454h532l-92 604q-3 17 -10.5 60.5t-14.5 89.5t-9 72q-10 -26 -31 -72t-41 -89t-28 -59zM894 1641q-21 0 -34.5 15t-13.5 37q0 27 22.5 47.5t49.5 20.5q23 0 35.5 -15.5t12.5 -38.5q0 -27 -21.5 -46.5
t-50.5 -19.5zM627 1985l12 66h660l-12 -66h-660z" />
    <glyph glyph-name="uni01E1" unicode="&#x1e1;" horiz-adv-x="994" 
d="M422 -24q-124 0 -196 76t-72 208q0 108 52 192.5t142.5 133t205.5 48.5q80 0 148 -25.5t132 -78.5l24 130q32 168 -11 244t-169 76q-67 0 -149.5 -26t-172.5 -76l-14 64q99 54 182 79t156 25q106 0 169 -41.5t83.5 -123.5t-0.5 -205l-118 -676h-72l26 150
q-78 -85 -165.5 -129.5t-180.5 -44.5zM426 42q92 0 180 50t178 152l40 222q-64 50 -133.5 75t-140.5 25q-90 0 -161 -40.5t-112 -109.5t-41 -156q0 -100 51.5 -159t138.5 -59zM720 1263q-21 0 -34.5 15t-13.5 37q0 27 22.5 47.5t49.5 20.5q23 0 35.5 -15.5t12.5 -38.5
q0 -27 -21.5 -46.5t-50.5 -19.5zM453 1607l12 66h660l-12 -66h-660z" />
    <glyph glyph-name="uni01E2" unicode="&#x1e2;" horiz-adv-x="1674" 
d="M-38 0l1054 1400h668l-10 -66h-598l-102 -576h384l-12 -66h-384l-110 -626h642l-12 -66h-716l70 394h-490l-294 -394h-90zM390 454h456l140 800q-18 -27 -36 -51.5t-38 -50.5zM823 1624l12 66h660l-12 -66h-660z" />
    <glyph glyph-name="uni01E3" unicode="&#x1e3;" horiz-adv-x="1651" 
d="M430 -24q-93 0 -154 35.5t-91.5 99.5t-30.5 149q0 121 58.5 204.5t150 126.5t191.5 43q90 0 159 -29.5t121 -74.5l28 154q24 135 -13.5 215.5t-168.5 80.5q-88 0 -173 -33t-151 -69l-14 64q63 33 149 68.5t191 35.5q58 0 115.5 -17.5t97.5 -65.5t47 -139
q68 107 166 164.5t212 57.5q86 0 155.5 -35t110 -111t40.5 -200q0 -37 -6.5 -85t-21.5 -125h-690q-14 -131 4 -230.5t78.5 -155.5t173.5 -56q57 0 120 22.5t124 67.5l38 -56q-61 -46 -134.5 -76t-165.5 -30q-124 0 -202.5 67t-105.5 193q-105 -144 -210 -202t-198 -58z
M432 42q117 0 218.5 77t177.5 183q-3 32 -3 82t3 80q-51 39 -121 70.5t-157 31.5q-72 0 -144.5 -33.5t-121 -101.5t-48.5 -171q0 -94 48.5 -156t147.5 -62zM918 556h618q23 119 8.5 215t-69.5 152.5t-153 56.5q-119 0 -201.5 -60.5t-132 -157.5t-70.5 -206zM689 1246l12 66
h660l-12 -66h-660z" />
    <glyph glyph-name="uni01E4" unicode="&#x1e4;" horiz-adv-x="1481" 
d="M659 -24q-116 0 -197.5 45.5t-132.5 123.5t-74.5 177.5t-23.5 207.5q0 164 42.5 322.5t127 288t211 206.5t293.5 77q99 0 166.5 -28.5t111 -72.5t70.5 -91l-72 -42q-34 65 -101 113.5t-183 48.5q-123 0 -218.5 -50.5t-165.5 -136.5t-115 -192t-67 -219t-22 -216
q0 -131 35.5 -242.5t113.5 -179.5t205 -68q168 0 279.5 122.5t154.5 369.5l28 160h76l-24 -140q-36 -208 -110.5 -336.5t-178.5 -188t-229 -59.5zM747 386l12 68h700l-12 -68h-700z" />
    <glyph glyph-name="uni01E5" unicode="&#x1e5;" horiz-adv-x="1217" 
d="M313 -532l-28 64q152 8 248.5 45t150.5 114.5t76 204.5l75 422q-61 -88 -148 -135t-180 -47t-165 41t-113.5 119.5t-41.5 191.5q0 109 33.5 209t96.5 178.5t151.5 124.5t198.5 46q108 0 173.5 -55t92.5 -117l26 148h72l-199 -1134q-23 -130 -74.5 -210.5t-123 -124
t-154 -61.5t-167.5 -24zM519 208q104 0 186.5 58.5t149.5 161.5l62 350q-34 96 -105.5 146t-158.5 50q-125 0 -211.5 -67t-131.5 -177t-45 -240q0 -133 67 -207.5t187 -74.5zM449 -120l12 66h686l-12 -66h-686z" />
    <glyph glyph-name="Gcaron" unicode="&#x1e6;" horiz-adv-x="1323" 
d="M659 -24q-116 0 -197.5 45t-132.5 123t-74.5 177.5t-23.5 208.5q0 164 42.5 322.5t127 288t211 206.5t293.5 77q99 0 166.5 -28.5t111 -72.5t70.5 -91l-72 -42q-34 65 -101 113.5t-183 48.5q-123 0 -218.5 -50.5t-165.5 -136.5t-115 -192t-67 -219t-22 -216
q0 -131 35.5 -242.5t113.5 -179.5t205 -68q168 0 288.5 121t161.5 369l4 24h-284l10 70h362l-12 -70q-27 -156 -78 -267.5t-121.5 -181.5t-155.5 -103.5t-179 -33.5zM895 1530l-246 312h70l216 -240l304 240h78l-358 -312h-64z" />
    <glyph glyph-name="gcaron" unicode="&#x1e7;" horiz-adv-x="1070" 
d="M346 -426l-28 64q142 8 238 44.5t151 106t73 175.5l36 204q-58 -93 -144 -142.5t-188 -49.5q-95 0 -164 50t-106.5 143t-37.5 221q0 194 62.5 342t174 231t257.5 83q92 0 166 -47t104 -125l26 148h72l-186 -1068q-20 -116 -82.5 -197.5t-168.5 -127.5t-255 -55zM498 48
q96 0 181.5 56.5t154.5 165.5l88 508q-33 93 -101 144.5t-157 51.5q-124 0 -216 -71t-143 -199.5t-51 -301.5q0 -162 66.5 -258t177.5 -96zM678 1152l-246 312h70l216 -240l304 240h78l-358 -312h-64z" />
    <glyph glyph-name="uni01E8" unicode="&#x1e8;" horiz-adv-x="1198" 
d="M174 0l246 1400h74l-134 -762l722 762h92l-454 -480l326 -920h-76l-304 864l-326 -342l-92 -522h-74zM750 1530l-246 312h70l216 -240l304 240h78l-358 -312h-64z" />
    <glyph glyph-name="uni01E9" unicode="&#x1e9;" horiz-adv-x="956" 
d="M166 0l248 1408l78 36l-156 -892l502 470h90l-298 -280l242 -742h-76l-224 688l-252 -236l-80 -452h-74zM742 1530l-246 312h70l216 -240l304 240h78l-358 -312h-64z" />
    <glyph glyph-name="uni01EA" unicode="&#x1ea;" horiz-adv-x="1393" 
d="M667 -24q-118 0 -201 47.5t-135 128.5t-76 181.5t-24 206.5q0 115 25 238t76.5 238t131.5 207t189.5 146.5t251.5 54.5q119 0 201 -45.5t132 -123.5t72.5 -177.5t22.5 -207.5q0 -116 -24 -241t-74.5 -241t-129 -209t-187.5 -148t-251 -55zM677 48q125 0 220.5 51
t163.5 138t111.5 194.5t64 221.5t20.5 219q0 126 -34.5 235.5t-114 177t-213.5 67.5q-125 0 -221 -51t-165.5 -136.5t-114 -192.5t-66 -221t-21.5 -219q0 -129 36 -239t117 -177.5t217 -67.5zM663 -468q-67 0 -114.5 38.5t-47.5 117.5q0 110 92.5 198.5t233.5 133.5h64
q-108 -42 -179.5 -91.5t-107 -107t-35.5 -123.5q0 -58 32.5 -83t71.5 -25q51 0 85.5 23t52.5 41l42 -34q-31 -33 -79 -60.5t-111 -27.5z" />
    <glyph glyph-name="uni01EB" unicode="&#x1eb;" horiz-adv-x="1040" 
d="M506 -24q-154 0 -238 106t-84 304q0 200 60.5 348.5t170.5 230t259 81.5q155 0 240.5 -106.5t85.5 -297.5q0 -204 -60 -353.5t-171 -231t-263 -81.5zM518 48q122 0 213 72t141 203t50 307q0 164 -66 254t-188 90q-124 0 -215 -72.5t-141 -205t-50 -312.5
q0 -162 66.5 -249t189.5 -87zM478 -468q-67 0 -114.5 38.5t-47.5 117.5q0 110 92.5 198.5t233.5 133.5h64q-108 -42 -179.5 -91.5t-107 -107t-35.5 -123.5q0 -58 32.5 -83t71.5 -25q51 0 85.5 23t52.5 41l42 -34q-31 -33 -79 -60.5t-111 -27.5z" />
    <glyph glyph-name="uni01EC" unicode="&#x1ec;" horiz-adv-x="1393" 
d="M667 -24q-118 0 -201 47.5t-135 128.5t-76 181.5t-24 206.5q0 115 25 238t76.5 238t131.5 207t189.5 146.5t251.5 54.5q119 0 201 -45.5t132 -123.5t72.5 -177.5t22.5 -207.5q0 -116 -24 -241t-74.5 -241t-129 -209t-187.5 -148t-251 -55zM677 48q125 0 220.5 51
t163.5 138t111.5 194.5t64 221.5t20.5 219q0 126 -34.5 235.5t-114 177t-213.5 67.5q-125 0 -221 -51t-165.5 -136.5t-114 -192.5t-66 -221t-21.5 -219q0 -129 36 -239t117 -177.5t217 -67.5zM663 -468q-67 0 -114.5 38.5t-47.5 117.5q0 110 92.5 198.5t233.5 133.5h64
q-108 -42 -179.5 -91.5t-107 -107t-35.5 -123.5q0 -58 32.5 -83t71.5 -25q51 0 85.5 23t52.5 41l42 -34q-31 -33 -79 -60.5t-111 -27.5zM610 1624l12 66h660l-12 -66h-660z" />
    <glyph glyph-name="uni01ED" unicode="&#x1ed;" horiz-adv-x="1040" 
d="M506 -24q-154 0 -238 106t-84 304q0 200 60.5 348.5t170.5 230t259 81.5q155 0 240.5 -106.5t85.5 -297.5q0 -204 -60 -353.5t-171 -231t-263 -81.5zM518 48q122 0 213 72t141 203t50 307q0 164 -66 254t-188 90q-124 0 -215 -72.5t-141 -205t-50 -312.5
q0 -162 66.5 -249t189.5 -87zM478 -468q-67 0 -114.5 38.5t-47.5 117.5q0 110 92.5 198.5t233.5 133.5h64q-108 -42 -179.5 -91.5t-107 -107t-35.5 -123.5q0 -58 32.5 -83t71.5 -25q51 0 85.5 23t52.5 41l42 -34q-31 -33 -79 -60.5t-111 -27.5zM377 1246l12 66h660l-12 -66
h-660z" />
    <glyph glyph-name="uni01EE" unicode="&#x1ee;" horiz-adv-x="1140" 
d="M548 -24q-111 0 -198 37.5t-147 103.5t-89 151l60 20q44 -112 137 -179t241 -67q112 0 199 46.5t137 127.5t50 186q0 147 -99.5 225.5t-324.5 78.5l-52 54l598 574h-704l12 66h802l-12 -68l-592 -560q219 0 333.5 -96.5t114.5 -269.5q0 -128 -61 -225t-166.5 -151
t-238.5 -54zM762 1530l-246 312h70l216 -240l304 240h78l-358 -312h-64z" />
    <glyph glyph-name="uni01EF" unicode="&#x1ef;" horiz-adv-x="1030" 
d="M372 -426q-144 0 -243 74t-129 218l60 20q30 -129 109 -187.5t205 -58.5q100 0 178 49t123 130.5t45 180.5q0 141 -96 221t-300 83l-46 54l566 598h-594l10 66h698l-8 -50l-576 -602q198 0 311 -97.5t113 -270.5q0 -119 -56.5 -216t-153 -154.5t-216.5 -57.5zM602 1152
l-246 312h70l216 -240l304 240h78l-358 -312h-64z" />
    <glyph glyph-name="uni01F0" unicode="&#x1f0;" horiz-adv-x="468" 
d="M-108 -426l-26 62q128 14 197.5 75.5t94.5 208.5l194 1102h72l-192 -1102q-18 -107 -60 -180.5t-111 -114.5t-169 -51zM382 1152l-246 312h70l216 -240l304 240h78l-358 -312h-64z" />
    <glyph glyph-name="uni01F1" unicode="&#x1f1;" horiz-adv-x="2426" 
d="M174 0l246 1400h300q144 0 242.5 -46.5t158.5 -125t86.5 -178t26.5 -206.5q0 -131 -30.5 -254.5t-92 -230.5t-153.5 -187.5t-215 -126t-277 -45.5h-292zM262 72h218q158 0 282.5 60t211.5 165.5t132.5 246t45.5 300.5q0 126 -41 236.5t-138.5 179t-266.5 68.5h-226z
M1364 0l8 38l1034 1296h-760l10 66h858l-8 -42l-1032 -1292h802l-8 -66h-904z" />
    <glyph glyph-name="uni01F2" unicode="&#x1f2;" horiz-adv-x="2236" 
d="M174 0l246 1400h300q144 0 242.5 -46.5t158.5 -125t86.5 -178t26.5 -206.5q0 -131 -30.5 -254.5t-92 -230.5t-153.5 -187.5t-215 -126t-277 -45.5h-292zM262 72h218q158 0 282.5 60t211.5 165.5t132.5 246t45.5 300.5q0 126 -41 236.5t-138.5 179t-266.5 68.5h-226z
M1384 0l8 44l748 912h-548l12 66h650l-8 -42l-750 -914h588l-10 -66h-690z" />
    <glyph glyph-name="uni01F3" unicode="&#x1f3;" horiz-adv-x="2006" 
d="M494 -24q-148 0 -232 113.5t-84 314.5q0 190 62 334.5t172.5 226t255.5 81.5q90 0 162 -48.5t102 -129.5l96 540l78 36l-252 -1444h-74l26 146q-73 -84 -152 -127t-160 -43zM494 48q90 0 177.5 56t154.5 156l88 508q-33 96 -99.5 151t-150.5 55q-122 0 -214 -71.5
t-143 -200t-51 -298.5q0 -163 64.5 -259.5t173.5 -96.5zM1154 0l8 44l748 912h-548l12 66h650l-8 -42l-750 -914h588l-10 -66h-690z" />
    <glyph glyph-name="uni01F4" unicode="&#x1f4;" horiz-adv-x="1323" 
d="M659 -24q-116 0 -197.5 45t-132.5 123t-74.5 177.5t-23.5 208.5q0 164 42.5 322.5t127 288t211 206.5t293.5 77q99 0 166.5 -28.5t111 -72.5t70.5 -91l-72 -42q-34 65 -101 113.5t-183 48.5q-123 0 -218.5 -50.5t-165.5 -136.5t-115 -192t-67 -219t-22 -216
q0 -131 35.5 -242.5t113.5 -179.5t205 -68q168 0 288.5 121t161.5 369l4 24h-284l10 70h362l-12 -70q-27 -156 -78 -267.5t-121.5 -181.5t-155.5 -103.5t-179 -33.5zM861 1530l356 312h110l-392 -312h-74z" />
    <glyph glyph-name="uni01F5" unicode="&#x1f5;" horiz-adv-x="1070" 
d="M346 -426l-28 64q142 8 238 44.5t151 106t73 175.5l36 204q-58 -93 -144 -142.5t-188 -49.5q-95 0 -164 50t-106.5 143t-37.5 221q0 194 62.5 342t174 231t257.5 83q92 0 166 -47t104 -125l26 148h72l-186 -1068q-20 -116 -82.5 -197.5t-168.5 -127.5t-255 -55zM498 48
q96 0 181.5 56.5t154.5 165.5l88 508q-33 93 -101 144.5t-157 51.5q-124 0 -216 -71t-143 -199.5t-51 -301.5q0 -162 66.5 -258t177.5 -96zM642 1152l354 312h114l-390 -312h-78z" />
    <glyph glyph-name="uni01F8" unicode="&#x1f8;" horiz-adv-x="1326" 
d="M174 0l246 1400h70l448 -1050q23 -51 46.5 -106.5t45.5 -109.5q9 54 19 111t19 105l184 1050h74l-246 -1400h-70l-448 1046q-15 34 -30.5 70.5t-31 74t-30.5 75.5q-6 -37 -12.5 -75t-13 -75t-12.5 -70l-184 -1046h-74zM882 1530l-282 312h105l250 -312h-73z" />
    <glyph glyph-name="uni01F9" unicode="&#x1f9;" horiz-adv-x="1062" 
d="M166 0l180 1022h70l-32 -184q51 96 138 152t186 56q106 0 170.5 -49t86 -144t-2.5 -233l-110 -620h-72l108 618q32 185 -15 272.5t-179 87.5q-138 0 -229 -99t-123 -285l-102 -594h-74zM702 1152l-282 312h105l250 -312h-73z" />
    <glyph glyph-name="Aringacute" unicode="&#x1fa;" horiz-adv-x="1276" 
d="M116 0l648 1278q-63 20 -101.5 71.5t-38.5 118.5q0 72 34 128.5t92.5 89t131.5 32.5q93 0 150.5 -60t57.5 -140q0 -90 -54 -156t-138 -86l206 -1276h-74l-66 394h-568l-200 -394h-80zM424 454h532l-92 602q-3 17 -10 59t-14 88.5t-10 76.5q-12 -32 -33 -78.5t-41 -88
t-28 -57.5zM832 1330q80 0 135 53t55 135q0 60 -40 99t-100 39q-76 0 -133 -52t-57 -136q0 -63 41.5 -100.5t98.5 -37.5zM876 1812l354 312h114l-390 -312h-78z" />
    <glyph glyph-name="aringacute" unicode="&#x1fb;" horiz-adv-x="994" 
d="M422 -24q-124 0 -196 76t-72 208q0 108 52 192.5t142.5 133t205.5 48.5q80 0 148 -25.5t132 -78.5l24 130q32 168 -11 244t-169 76q-67 0 -149.5 -26t-172.5 -76l-14 64q99 54 182 79t156 25q106 0 169 -41.5t83.5 -123.5t-0.5 -205l-118 -676h-72l26 150
q-78 -85 -165.5 -129.5t-180.5 -44.5zM426 42q92 0 180 50t178 152l40 222q-64 50 -133.5 75t-140.5 25q-90 0 -161 -40.5t-112 -109.5t-41 -156q0 -100 51.5 -159t138.5 -59zM710 1102q-88 0 -148 58t-60 142q0 72 34 128.5t92.5 89t131.5 32.5q93 0 150.5 -60t57.5 -140
q0 -72 -34 -128.5t-92.5 -89t-131.5 -32.5zM710 1164q80 0 135 53t55 135q0 60 -40 99t-100 39q-76 0 -133 -52t-57 -136q0 -63 41.5 -100.5t98.5 -37.5zM736 1578l354 312h114l-390 -312h-78z" />
    <glyph glyph-name="AEacute" unicode="&#x1fc;" horiz-adv-x="1674" 
d="M-38 0l1054 1400h668l-10 -66h-598l-102 -576h384l-12 -66h-384l-110 -626h642l-12 -66h-716l70 394h-490l-294 -394h-90zM390 454h456l140 800q-18 -27 -36 -51.5t-38 -50.5zM1074 1530l356 312h110l-392 -312h-74z" />
    <glyph glyph-name="aeacute" unicode="&#x1fd;" horiz-adv-x="1651" 
d="M430 -24q-93 0 -154 35.5t-91.5 99.5t-30.5 149q0 121 58.5 204.5t150 126.5t191.5 43q90 0 159 -29.5t121 -74.5l28 154q24 135 -13.5 215.5t-168.5 80.5q-88 0 -173 -33t-151 -69l-14 64q63 33 149 68.5t191 35.5q58 0 115.5 -17.5t97.5 -65.5t47 -139
q68 107 166 164.5t212 57.5q86 0 155.5 -35t110 -111t40.5 -200q0 -37 -6.5 -85t-21.5 -125h-690q-14 -131 4 -230.5t78.5 -155.5t173.5 -56q57 0 120 22.5t124 67.5l38 -56q-61 -46 -134.5 -76t-165.5 -30q-124 0 -202.5 67t-105.5 193q-105 -144 -210 -202t-198 -58z
M432 42q117 0 218.5 77t177.5 183q-3 32 -3 82t3 80q-51 39 -121 70.5t-157 31.5q-72 0 -144.5 -33.5t-121 -101.5t-48.5 -171q0 -94 48.5 -156t147.5 -62zM918 556h618q23 119 8.5 215t-69.5 152.5t-153 56.5q-119 0 -201.5 -60.5t-132 -157.5t-70.5 -206zM938 1152
l354 312h114l-390 -312h-78z" />
    <glyph glyph-name="Oslashacute" unicode="&#x1fe;" horiz-adv-x="1392" 
d="M134 -24l176 208q-42 77 -61 168.5t-19 187.5q0 115 25 238t76.5 238t131.5 207t189.5 146.5t251.5 54.5q113 0 192 -41.5t130 -110.5l128 152h84l-178 -210q38 -73 55 -161t17 -183q0 -116 -24 -241t-74.5 -241t-129 -209t-187.5 -148t-251 -55q-109 0 -188 41.5
t-132 110.5l-128 -152h-84zM676 48q125 0 220.5 51t163.5 138t111.5 194.5t64 221.5t20.5 219q0 75 -12 145.5t-38 130.5l-812 -962q44 -64 113.5 -101t168.5 -37zM360 246l814 964q-43 65 -112 103.5t-168 38.5q-125 0 -221 -51t-165 -136.5t-113.5 -192.5t-65.5 -221
t-21 -219q0 -79 12.5 -152.5t39.5 -133.5zM860 1530l356 312h110l-392 -312h-74z" />
    <glyph glyph-name="oslashacute" unicode="&#x1ff;" horiz-adv-x="1040" 
d="M82 -24l146 168q-21 48 -32.5 108.5t-11.5 133.5q0 153 35 275t100.5 208t155.5 131.5t199 45.5q78 0 139 -29t103 -83l98 112h86l-148 -170q48 -93 48 -234q0 -150 -33.5 -272.5t-97.5 -210.5t-155.5 -135.5t-207.5 -47.5q-78 0 -139 27.5t-103 82.5l-96 -110h-86z
M518 48q95 0 169.5 43t127 121t80 184.5t27.5 233.5q0 53 -7 98t-21 82l-576 -662q32 -49 82.5 -74.5t117.5 -25.5zM286 212l576 660q-31 50 -80 76t-114 26q-98 0 -174 -44t-127.5 -123.5t-78 -187t-26.5 -235.5q0 -49 6 -92.5t18 -79.5zM628 1152l354 312h114l-390 -312
h-78z" />
    <glyph glyph-name="uni0200" unicode="&#x200;" horiz-adv-x="1276" 
d="M116 0l710 1400h52l226 -1400h-74l-66 394h-568l-200 -394h-80zM424 454h532l-92 604q-3 17 -10.5 60.5t-14.5 89.5t-9 72q-10 -26 -31 -72t-41 -89t-28 -59zM654 1530l-284 312h110l248 -312h-74zM1016 1530l-284 312h110l248 -312h-74z" />
    <glyph glyph-name="uni0201" unicode="&#x201;" horiz-adv-x="994" 
d="M422 -24q-124 0 -196 76t-72 208q0 108 52 192.5t142.5 133t205.5 48.5q80 0 148 -25.5t132 -78.5l24 130q32 168 -11 244t-169 76q-67 0 -149.5 -26t-172.5 -76l-14 64q99 54 182 79t156 25q106 0 169 -41.5t83.5 -123.5t-0.5 -205l-118 -676h-72l26 150
q-78 -85 -165.5 -129.5t-180.5 -44.5zM426 42q92 0 180 50t178 152l40 222q-64 50 -133.5 75t-140.5 25q-90 0 -161 -40.5t-112 -109.5t-41 -156q0 -100 51.5 -159t138.5 -59zM480 1152l-284 312h110l248 -312h-74zM842 1152l-284 312h110l248 -312h-74z" />
    <glyph glyph-name="uni0202" unicode="&#x202;" horiz-adv-x="1276" 
d="M116 0l710 1400h52l226 -1400h-74l-66 394h-568l-200 -394h-80zM424 454h532l-92 604q-3 17 -10.5 60.5t-14.5 89.5t-9 72q-10 -26 -31 -72t-41 -89t-28 -59zM556 1540q16 89 61.5 162t122 116.5t184.5 43.5q140 0 206 -79.5t66 -186.5v-28t-2 -28h-66q2 15 2 29v27
q0 105 -60 152.5t-150 47.5q-105 0 -188.5 -63.5t-107.5 -192.5h-68z" />
    <glyph glyph-name="uni0203" unicode="&#x203;" horiz-adv-x="994" 
d="M422 -24q-124 0 -196 76t-72 208q0 108 52 192.5t142.5 133t205.5 48.5q80 0 148 -25.5t132 -78.5l24 130q32 168 -11 244t-169 76q-67 0 -149.5 -26t-172.5 -76l-14 64q99 54 182 79t156 25q106 0 169 -41.5t83.5 -123.5t-0.5 -205l-118 -676h-72l26 150
q-78 -85 -165.5 -129.5t-180.5 -44.5zM426 42q92 0 180 50t178 152l40 222q-64 50 -133.5 75t-140.5 25q-90 0 -161 -40.5t-112 -109.5t-41 -156q0 -100 51.5 -159t138.5 -59zM382 1162q16 89 61.5 162t122 116.5t184.5 43.5q140 0 206 -79.5t66 -186.5v-28t-2 -28h-66
q2 15 2 29v27q0 105 -60 152.5t-150 47.5q-105 0 -188.5 -63.5t-107.5 -192.5h-68z" />
    <glyph glyph-name="uni0204" unicode="&#x204;" horiz-adv-x="1124" 
d="M174 0l246 1400h714l-10 -66h-640l-102 -576h426l-12 -66h-426l-110 -626h684l-12 -66h-758zM582 1530l-284 312h110l248 -312h-74zM944 1530l-284 312h110l248 -312h-74z" />
    <glyph glyph-name="uni0205" unicode="&#x205;" horiz-adv-x="1002" 
d="M496 -24q-105 0 -176.5 47.5t-108.5 138t-37 220.5q0 152 38.5 274t106.5 209.5t158 134t193 46.5q86 0 155.5 -35t110 -111t40.5 -200q0 -40 -6.5 -89.5t-21.5 -120.5h-690q-15 -131 3.5 -230.5t79.5 -155.5t173 -56q57 0 120 22.5t124 67.5l38 -56q-61 -46 -134.5 -76
t-165.5 -30zM268 556h618q18 115 7 211.5t-63 154.5t-158 58q-119 0 -201.5 -60.5t-132 -157.5t-70.5 -206zM470 1152l-284 312h110l248 -312h-74zM832 1152l-284 312h110l248 -312h-74z" />
    <glyph glyph-name="uni0206" unicode="&#x206;" horiz-adv-x="1124" 
d="M174 0l246 1400h714l-10 -66h-640l-102 -576h426l-12 -66h-426l-110 -626h684l-12 -66h-758zM484 1540q16 89 61.5 162t122 116.5t184.5 43.5q140 0 206 -79.5t66 -186.5v-28t-2 -28h-66q2 15 2 29v27q0 105 -60 152.5t-150 47.5q-105 0 -188.5 -63.5t-107.5 -192.5h-68z
" />
    <glyph glyph-name="uni0207" unicode="&#x207;" horiz-adv-x="1002" 
d="M496 -24q-105 0 -176.5 47.5t-108.5 138t-37 220.5q0 152 38.5 274t106.5 209.5t158 134t193 46.5q86 0 155.5 -35t110 -111t40.5 -200q0 -40 -6.5 -89.5t-21.5 -120.5h-690q-15 -131 3.5 -230.5t79.5 -155.5t173 -56q57 0 120 22.5t124 67.5l38 -56q-61 -46 -134.5 -76
t-165.5 -30zM268 556h618q18 115 7 211.5t-63 154.5t-158 58q-119 0 -201.5 -60.5t-132 -157.5t-70.5 -206zM372 1162q16 89 61.5 162t122 116.5t184.5 43.5q140 0 206 -79.5t66 -186.5v-28t-2 -28h-66q2 15 2 29v27q0 105 -60 152.5t-150 47.5q-105 0 -188.5 -63.5
t-107.5 -192.5h-68z" />
    <glyph glyph-name="uni0208" unicode="&#x208;" horiz-adv-x="494" 
d="M174 0l246 1400h74l-246 -1400h-74zM262 1530l-284 312h110l248 -312h-74zM624 1530l-284 312h110l248 -312h-74z" />
    <glyph glyph-name="uni0209" unicode="&#x209;" horiz-adv-x="456" 
d="M172 0l180 1022h70l-178 -1022h-72zM190 1152l-284 312h110l248 -312h-74zM552 1152l-284 312h110l248 -312h-74z" />
    <glyph glyph-name="uni020A" unicode="&#x20a;" horiz-adv-x="494" 
d="M174 0l246 1400h74l-246 -1400h-74zM164 1540q16 89 61.5 162t122 116.5t184.5 43.5q140 0 206 -79.5t66 -186.5v-28t-2 -28h-66q2 15 2 29v27q0 105 -60 152.5t-150 47.5q-105 0 -188.5 -63.5t-107.5 -192.5h-68z" />
    <glyph glyph-name="uni020B" unicode="&#x20b;" horiz-adv-x="456" 
d="M172 0l180 1022h70l-178 -1022h-72zM92 1162q16 89 61.5 162t122 116.5t184.5 43.5q140 0 206 -79.5t66 -186.5v-28t-2 -28h-66q2 15 2 29v27q0 105 -60 152.5t-150 47.5q-105 0 -188.5 -63.5t-107.5 -192.5h-68z" />
    <glyph glyph-name="uni020C" unicode="&#x20c;" horiz-adv-x="1393" 
d="M667 -24q-118 0 -201 47.5t-135 128.5t-76 181.5t-24 206.5q0 115 25 238t76.5 238t131.5 207t189.5 146.5t251.5 54.5q119 0 201 -45.5t132 -123.5t72.5 -177.5t22.5 -207.5q0 -116 -24 -241t-74.5 -241t-129 -209t-187.5 -148t-251 -55zM677 48q125 0 220.5 51
t163.5 138t111.5 194.5t64 221.5t20.5 219q0 126 -34.5 235.5t-114 177t-213.5 67.5q-125 0 -221 -51t-165.5 -136.5t-114 -192.5t-66 -221t-21.5 -219q0 -129 36 -239t117 -177.5t217 -67.5zM705 1530l-284 312h110l248 -312h-74zM1067 1530l-284 312h110l248 -312h-74z
" />
    <glyph glyph-name="uni020D" unicode="&#x20d;" horiz-adv-x="1040" 
d="M506 -24q-154 0 -238 106t-84 304q0 200 60.5 348.5t170.5 230t259 81.5q155 0 240.5 -106.5t85.5 -297.5q0 -204 -60 -353.5t-171 -231t-263 -81.5zM518 48q122 0 213 72t141 203t50 307q0 164 -66 254t-188 90q-124 0 -215 -72.5t-141 -205t-50 -312.5
q0 -162 66.5 -249t189.5 -87zM472 1152l-284 312h110l248 -312h-74zM834 1152l-284 312h110l248 -312h-74z" />
    <glyph glyph-name="uni020E" unicode="&#x20e;" horiz-adv-x="1393" 
d="M667 -24q-118 0 -201 47.5t-135 128.5t-76 181.5t-24 206.5q0 115 25 238t76.5 238t131.5 207t189.5 146.5t251.5 54.5q119 0 201 -45.5t132 -123.5t72.5 -177.5t22.5 -207.5q0 -116 -24 -241t-74.5 -241t-129 -209t-187.5 -148t-251 -55zM677 48q125 0 220.5 51
t163.5 138t111.5 194.5t64 221.5t20.5 219q0 126 -34.5 235.5t-114 177t-213.5 67.5q-125 0 -221 -51t-165.5 -136.5t-114 -192.5t-66 -221t-21.5 -219q0 -129 36 -239t117 -177.5t217 -67.5zM607 1540q16 89 61.5 162t122 116.5t184.5 43.5q140 0 206 -79.5t66 -186.5v-28
t-2 -28h-66q2 15 2 29v27q0 105 -60 152.5t-150 47.5q-105 0 -188.5 -63.5t-107.5 -192.5h-68z" />
    <glyph glyph-name="uni020F" unicode="&#x20f;" horiz-adv-x="1040" 
d="M506 -24q-154 0 -238 106t-84 304q0 200 60.5 348.5t170.5 230t259 81.5q155 0 240.5 -106.5t85.5 -297.5q0 -204 -60 -353.5t-171 -231t-263 -81.5zM518 48q122 0 213 72t141 203t50 307q0 164 -66 254t-188 90q-124 0 -215 -72.5t-141 -205t-50 -312.5
q0 -162 66.5 -249t189.5 -87zM374 1162q16 89 61.5 162t122 116.5t184.5 43.5q140 0 206 -79.5t66 -186.5v-28t-2 -28h-66q2 15 2 29v27q0 105 -60 152.5t-150 47.5q-105 0 -188.5 -63.5t-107.5 -192.5h-68z" />
    <glyph glyph-name="uni0210" unicode="&#x210;" horiz-adv-x="1248" 
d="M174 0l246 1400h450q98 0 165.5 -28.5t109 -76t60.5 -105t19 -116.5q0 -91 -33 -163.5t-92 -125t-138.5 -84t-172.5 -39.5l206 -662h-80l-206 658h-344l-116 -658h-74zM376 724h334q112 0 211.5 35.5t162 112.5t62.5 202q0 59 -24 119t-84 100.5t-168 40.5h-386z
M604 1530l-284 312h110l248 -312h-74zM966 1530l-284 312h110l248 -312h-74z" />
    <glyph glyph-name="uni0211" unicode="&#x211;" horiz-adv-x="718" 
d="M166 0l180 1022h70l-38 -218q62 113 149 177.5t175 64.5q87 0 138 -42l-26 -62q-21 15 -53.5 23.5t-70.5 8.5q-80 0 -153 -53.5t-126 -145.5t-73 -209l-98 -566h-74zM386 1152l-284 312h110l248 -312h-74zM748 1152l-284 312h110l248 -312h-74z" />
    <glyph glyph-name="uni0212" unicode="&#x212;" horiz-adv-x="1248" 
d="M174 0l246 1400h450q98 0 165.5 -28.5t109 -76t60.5 -105t19 -116.5q0 -91 -33 -163.5t-92 -125t-138.5 -84t-172.5 -39.5l206 -662h-80l-206 658h-344l-116 -658h-74zM376 724h334q112 0 211.5 35.5t162 112.5t62.5 202q0 59 -24 119t-84 100.5t-168 40.5h-386z
M506 1540q16 89 61.5 162t122 116.5t184.5 43.5q140 0 206 -79.5t66 -186.5v-28t-2 -28h-66q2 15 2 29v27q0 105 -60 152.5t-150 47.5q-105 0 -188.5 -63.5t-107.5 -192.5h-68z" />
    <glyph glyph-name="uni0213" unicode="&#x213;" horiz-adv-x="718" 
d="M166 0l180 1022h70l-38 -218q62 113 149 177.5t175 64.5q87 0 138 -42l-26 -62q-21 15 -53.5 23.5t-70.5 8.5q-80 0 -153 -53.5t-126 -145.5t-73 -209l-98 -566h-74zM288 1162q16 89 61.5 162t122 116.5t184.5 43.5q140 0 206 -79.5t66 -186.5v-28t-2 -28h-66q2 15 2 29
v27q0 105 -60 152.5t-150 47.5q-105 0 -188.5 -63.5t-107.5 -192.5h-68z" />
    <glyph glyph-name="uni0214" unicode="&#x214;" horiz-adv-x="1276" 
d="M610 -24q-153 0 -240.5 69.5t-113.5 193t2 285.5l154 876h76l-152 -862q-23 -134 -8 -246t82 -179t200 -67q94 0 184 37.5t159 136t101 282.5l156 898h74l-156 -902q-24 -140 -70.5 -239.5t-112.5 -162t-150 -91.5t-185 -29zM654 1532l-284 312h110l248 -312h-74z
M1016 1532l-284 312h110l248 -312h-74z" />
    <glyph glyph-name="uni0215" unicode="&#x215;" horiz-adv-x="1064" 
d="M488 -24q-111 0 -177 47t-86.5 141t3.5 234l110 624h72l-110 -640q-30 -174 19 -257t181 -83q134 0 225.5 101t122.5 285l102 594h74l-180 -1022h-70l30 176q-55 -96 -138 -148t-178 -52zM484 1152l-284 312h110l248 -312h-74zM846 1152l-284 312h110l248 -312h-74z" />
    <glyph glyph-name="uni0216" unicode="&#x216;" horiz-adv-x="1276" 
d="M610 -24q-153 0 -240.5 69.5t-113.5 193t2 285.5l154 876h76l-152 -862q-23 -134 -8 -246t82 -179t200 -67q94 0 184 37.5t159 136t101 282.5l156 898h74l-156 -902q-24 -140 -70.5 -239.5t-112.5 -162t-150 -91.5t-185 -29zM556 1542q16 89 61.5 162t122 116.5
t184.5 43.5q140 0 206 -79.5t66 -186.5v-28t-2 -28h-66q2 15 2 29v27q0 105 -60 152.5t-150 47.5q-105 0 -188.5 -63.5t-107.5 -192.5h-68z" />
    <glyph glyph-name="uni0217" unicode="&#x217;" horiz-adv-x="1064" 
d="M488 -24q-111 0 -177 47t-86.5 141t3.5 234l110 624h72l-110 -640q-30 -174 19 -257t181 -83q134 0 225.5 101t122.5 285l102 594h74l-180 -1022h-70l30 176q-55 -96 -138 -148t-178 -52zM386 1162q16 89 61.5 162t122 116.5t184.5 43.5q140 0 206 -79.5t66 -186.5v-28
t-2 -28h-66q2 15 2 29v27q0 105 -60 152.5t-150 47.5q-105 0 -188.5 -63.5t-107.5 -192.5h-68z" />
    <glyph glyph-name="uni0218" unicode="&#x218;" horiz-adv-x="1140" 
d="M558 -24q-108 0 -188.5 40.5t-131.5 107.5t-70 146l74 24q30 -111 113.5 -179.5t210.5 -68.5q101 0 185.5 41t135.5 118.5t51 188.5q0 93 -42.5 154t-110 103.5t-141.5 80.5q-55 29 -107.5 59.5t-94.5 69t-67 90.5t-25 123q0 97 51 176.5t144 126.5t219 47
q90 0 160.5 -29t114.5 -81t55 -122l-74 -20q-19 87 -83.5 134.5t-174.5 47.5q-154 0 -244 -76t-90 -202q0 -73 37 -122.5t96.5 -86.5t126.5 -71q59 -30 117.5 -63t106 -77t76 -104t28.5 -144q0 -135 -60.5 -231.5t-164.5 -148.5t-233 -52zM429 -490l-18 6q25 28 49 71.5
t40.5 90.5t18.5 86q-22 0 -38 14t-16 38q0 29 18 48.5t48 19.5q23 0 39.5 -16t16.5 -54q0 -56 -25.5 -115.5t-62.5 -110t-70 -78.5z" />
    <glyph glyph-name="uni0219" unicode="&#x219;" horiz-adv-x="862" 
d="M432 -24q-61 0 -118 18.5t-105.5 53t-82.5 82.5l58 46q47 -64 112 -98t140 -34q119 0 185.5 60t66.5 166q0 74 -47.5 126t-170.5 104q-136 58 -188 120t-52 152q0 78 43 140t115.5 98t161.5 36q87 0 160 -33.5t118 -92.5l-56 -44q-87 102 -230 102q-102 0 -171 -58
t-69 -148q0 -64 45 -111.5t165 -100.5q138 -60 194 -125.5t56 -158.5q0 -139 -87.5 -219.5t-242.5 -80.5zM303 -490l-18 6q25 28 49 71.5t40.5 90.5t18.5 86q-22 0 -38 14t-16 38q0 29 18 48.5t48 19.5q23 0 39.5 -16t16.5 -54q0 -56 -25.5 -115.5t-62.5 -110t-70 -78.5z
" />
    <glyph glyph-name="uni021A" unicode="&#x21a;" horiz-adv-x="1074" 
d="M474 0l235 1328h-374l13 72h824l-13 -72h-376l-235 -1328h-74zM383 -490l-18 6q25 28 49 71.5t40.5 90.5t18.5 86q-22 0 -38 14t-16 38q0 29 18 48.5t48 19.5q23 0 39.5 -16t16.5 -54q0 -56 -25.5 -115.5t-62.5 -110t-70 -78.5z" />
    <glyph glyph-name="uni021B" unicode="&#x21b;" horiz-adv-x="678" 
d="M408 -24q-100 0 -136 63.5t-12 198.5l126 718h-168l12 66h168l68 386l78 36l-74 -422h254l-12 -66h-254l-126 -726q-18 -102 2 -143t86 -41q35 0 75 13t79 35l-22 -76q-72 -42 -144 -42zM269 -490l-18 6q25 28 49 71.5t40.5 90.5t18.5 86q-22 0 -38 14t-16 38
q0 29 18 48.5t48 19.5q23 0 39.5 -16t16.5 -54q0 -56 -25.5 -115.5t-62.5 -110t-70 -78.5z" />
    <glyph glyph-name="uni021E" unicode="&#x21e;" horiz-adv-x="1296" 
d="M174 0l246 1400h74l-110 -638h728l110 638h74l-246 -1400h-74l122 694h-728l-122 -694h-74zM852 1530l-246 312h70l216 -240l304 240h78l-358 -312h-64z" />
    <glyph glyph-name="uni021F" unicode="&#x21f;" horiz-adv-x="1061" 
d="M166 0l248 1408l78 36l-106 -606q50 95 137.5 151.5t184.5 56.5q107 0 172 -48t86 -142t-4 -232l-110 -624h-72l110 632q30 174 -18 260t-174 86q-136 0 -230 -103t-126 -285l-102 -590h-74zM764 1530l-246 312h70l216 -240l304 240h78l-358 -312h-64z" />
    <glyph glyph-name="uni0226" unicode="&#x226;" horiz-adv-x="1276" 
d="M116 0l710 1400h52l226 -1400h-74l-66 394h-568l-200 -394h-80zM424 454h532l-92 604q-3 17 -10.5 60.5t-14.5 89.5t-9 72q-10 -26 -31 -72t-41 -89t-28 -59zM894 1641q-21 0 -34.5 15t-13.5 37q0 27 22.5 47.5t49.5 20.5q23 0 35.5 -15.5t12.5 -38.5q0 -27 -21.5 -46.5
t-50.5 -19.5z" />
    <glyph glyph-name="uni0227" unicode="&#x227;" horiz-adv-x="994" 
d="M422 -24q-124 0 -196 76t-72 208q0 108 52 192.5t142.5 133t205.5 48.5q80 0 148 -25.5t132 -78.5l24 130q32 168 -11 244t-169 76q-67 0 -149.5 -26t-172.5 -76l-14 64q99 54 182 79t156 25q106 0 169 -41.5t83.5 -123.5t-0.5 -205l-118 -676h-72l26 150
q-78 -85 -165.5 -129.5t-180.5 -44.5zM426 42q92 0 180 50t178 152l40 222q-64 50 -133.5 75t-140.5 25q-90 0 -161 -40.5t-112 -109.5t-41 -156q0 -100 51.5 -159t138.5 -59zM720 1263q-21 0 -34.5 15t-13.5 37q0 27 22.5 47.5t49.5 20.5q23 0 35.5 -15.5t12.5 -38.5
q0 -27 -21.5 -46.5t-50.5 -19.5z" />
    <glyph glyph-name="uni0228" unicode="&#x228;" horiz-adv-x="1124" 
d="M174 0l246 1400h714l-10 -66h-640l-102 -576h426l-12 -66h-426l-110 -626h684l-12 -66h-758zM414 -468q-46 0 -79 15.5t-53 40.5l56 36q12 -12 32.5 -23t51.5 -11q71 0 110.5 41.5t39.5 98.5q0 45 -29.5 73.5t-80.5 28.5q-19 0 -38.5 -3.5t-39.5 -12.5l-16 24l138 160h52
l-84 -118q89 0 128.5 -45.5t39.5 -108.5q0 -79 -63 -137.5t-165 -58.5z" />
    <glyph glyph-name="uni0229" unicode="&#x229;" horiz-adv-x="1002" 
d="M496 -24q-105 0 -176.5 47.5t-108.5 138t-37 220.5q0 152 38.5 274t106.5 209.5t158 134t193 46.5q86 0 155.5 -35t110 -111t40.5 -200q0 -40 -6.5 -89.5t-21.5 -120.5h-690q-15 -131 3.5 -230.5t79.5 -155.5t173 -56q57 0 120 22.5t124 67.5l38 -56q-61 -46 -134.5 -76
t-165.5 -30zM268 556h618q18 115 7 211.5t-63 154.5t-158 58q-119 0 -201.5 -60.5t-132 -157.5t-70.5 -206zM378 -468q-46 0 -79 15.5t-53 40.5l56 36q12 -12 32.5 -23t51.5 -11q71 0 110.5 41.5t39.5 98.5q0 45 -29.5 73.5t-80.5 28.5q-19 0 -38.5 -3.5t-39.5 -12.5l-16 24
l138 160h52l-84 -118q89 0 128.5 -45.5t39.5 -108.5q0 -79 -63 -137.5t-165 -58.5z" />
    <glyph glyph-name="uni022A" unicode="&#x22a;" horiz-adv-x="1393" 
d="M667 -24q-118 0 -201 47.5t-135 128.5t-76 181.5t-24 206.5q0 115 25 238t76.5 238t131.5 207t189.5 146.5t251.5 54.5q119 0 201 -45.5t132 -123.5t72.5 -177.5t22.5 -207.5q0 -116 -24 -241t-74.5 -241t-129 -209t-187.5 -148t-251 -55zM677 48q125 0 220.5 51
t163.5 138t111.5 194.5t64 221.5t20.5 219q0 126 -34.5 235.5t-114 177t-213.5 67.5q-125 0 -221 -51t-165.5 -136.5t-114 -192.5t-66 -221t-21.5 -219q0 -129 36 -239t117 -177.5t217 -67.5zM1105 1624q-21 0 -34.5 15t-13.5 37q0 27 22.5 47.5t49.5 20.5q23 0 35.5 -15.5
t12.5 -38.5q0 -18 -10 -33t-26.5 -24t-35.5 -9zM773 1624q-21 0 -34.5 15t-13.5 37q0 18 10.5 33.5t27 25t34.5 9.5q23 0 35.5 -15.5t12.5 -38.5q0 -25 -21.5 -45.5t-50.5 -20.5zM671 1968l12 66h660l-12 -66h-660z" />
    <glyph glyph-name="uni022B" unicode="&#x22b;" horiz-adv-x="1040" 
d="M506 -24q-154 0 -238 106t-84 304q0 200 60.5 348.5t170.5 230t259 81.5q155 0 240.5 -106.5t85.5 -297.5q0 -204 -60 -353.5t-171 -231t-263 -81.5zM518 48q122 0 213 72t141 203t50 307q0 164 -66 254t-188 90q-124 0 -215 -72.5t-141 -205t-50 -312.5
q0 -162 66.5 -249t189.5 -87zM872 1246q-21 0 -34.5 15t-13.5 37q0 27 22.5 47.5t49.5 20.5q23 0 35.5 -15.5t12.5 -38.5q0 -18 -10 -33t-26.5 -24t-35.5 -9zM540 1246q-21 0 -34.5 15t-13.5 37q0 18 10.5 33.5t27 25t34.5 9.5q23 0 35.5 -15.5t12.5 -38.5
q0 -25 -21.5 -45.5t-50.5 -20.5zM438 1590l12 66h660l-12 -66h-660z" />
    <glyph glyph-name="uni022C" unicode="&#x22c;" horiz-adv-x="1393" 
d="M667 -24q-118 0 -201 47.5t-135 128.5t-76 181.5t-24 206.5q0 115 25 238t76.5 238t131.5 207t189.5 146.5t251.5 54.5q119 0 201 -45.5t132 -123.5t72.5 -177.5t22.5 -207.5q0 -116 -24 -241t-74.5 -241t-129 -209t-187.5 -148t-251 -55zM677 48q125 0 220.5 51
t163.5 138t111.5 194.5t64 221.5t20.5 219q0 126 -34.5 235.5t-114 177t-213.5 67.5q-125 0 -221 -51t-165.5 -136.5t-114 -192.5t-66 -221t-21.5 -219q0 -129 36 -239t117 -177.5t217 -67.5zM1101 1582q-56 0 -96.5 27.5t-75.5 58.5q-32 29 -65 52.5t-75 23.5
q-46 0 -79.5 -39.5t-50.5 -114.5h-56q17 96 67.5 158t134.5 62q56 0 97.5 -28t75.5 -59q32 -28 64.5 -51.5t74.5 -23.5q47 0 80.5 39.5t49.5 114.5h56q-16 -96 -67 -158t-135 -62zM682 2034l12 66h660l-12 -66h-660z" />
    <glyph glyph-name="uni022D" unicode="&#x22d;" horiz-adv-x="1040" 
d="M506 -24q-154 0 -238 106t-84 304q0 200 60.5 348.5t170.5 230t259 81.5q155 0 240.5 -106.5t85.5 -297.5q0 -204 -60 -353.5t-171 -231t-263 -81.5zM518 48q122 0 213 72t141 203t50 307q0 164 -66 254t-188 90q-124 0 -215 -72.5t-141 -205t-50 -312.5
q0 -162 66.5 -249t189.5 -87zM868 1204q-56 0 -96.5 27.5t-75.5 58.5q-32 29 -65 52.5t-75 23.5q-46 0 -79.5 -39.5t-50.5 -114.5h-56q17 96 67.5 158t134.5 62q56 0 97.5 -28t75.5 -59q32 -28 64.5 -51.5t74.5 -23.5q47 0 80.5 39.5t49.5 114.5h56q-16 -96 -67 -158
t-135 -62zM449 1656l12 66h660l-12 -66h-660z" />
    <glyph glyph-name="uni022E" unicode="&#x22e;" horiz-adv-x="1393" 
d="M667 -24q-118 0 -201 47.5t-135 128.5t-76 181.5t-24 206.5q0 115 25 238t76.5 238t131.5 207t189.5 146.5t251.5 54.5q119 0 201 -45.5t132 -123.5t72.5 -177.5t22.5 -207.5q0 -116 -24 -241t-74.5 -241t-129 -209t-187.5 -148t-251 -55zM677 48q125 0 220.5 51
t163.5 138t111.5 194.5t64 221.5t20.5 219q0 126 -34.5 235.5t-114 177t-213.5 67.5q-125 0 -221 -51t-165.5 -136.5t-114 -192.5t-66 -221t-21.5 -219q0 -129 36 -239t117 -177.5t217 -67.5zM945 1641q-21 0 -34.5 15t-13.5 37q0 27 22.5 47.5t49.5 20.5q23 0 35.5 -15.5
t12.5 -38.5q0 -27 -21.5 -46.5t-50.5 -19.5z" />
    <glyph glyph-name="uni022F" unicode="&#x22f;" horiz-adv-x="1040" 
d="M506 -24q-154 0 -238 106t-84 304q0 200 60.5 348.5t170.5 230t259 81.5q155 0 240.5 -106.5t85.5 -297.5q0 -204 -60 -353.5t-171 -231t-263 -81.5zM518 48q122 0 213 72t141 203t50 307q0 164 -66 254t-188 90q-124 0 -215 -72.5t-141 -205t-50 -312.5
q0 -162 66.5 -249t189.5 -87zM712 1263q-21 0 -34.5 15t-13.5 37q0 27 22.5 47.5t49.5 20.5q23 0 35.5 -15.5t12.5 -38.5q0 -27 -21.5 -46.5t-50.5 -19.5z" />
    <glyph glyph-name="uni0230" unicode="&#x230;" horiz-adv-x="1393" 
d="M667 -24q-118 0 -201 47.5t-135 128.5t-76 181.5t-24 206.5q0 115 25 238t76.5 238t131.5 207t189.5 146.5t251.5 54.5q119 0 201 -45.5t132 -123.5t72.5 -177.5t22.5 -207.5q0 -116 -24 -241t-74.5 -241t-129 -209t-187.5 -148t-251 -55zM677 48q125 0 220.5 51
t163.5 138t111.5 194.5t64 221.5t20.5 219q0 126 -34.5 235.5t-114 177t-213.5 67.5q-125 0 -221 -51t-165.5 -136.5t-114 -192.5t-66 -221t-21.5 -219q0 -129 36 -239t117 -177.5t217 -67.5zM945 1641q-21 0 -34.5 15t-13.5 37q0 27 22.5 47.5t49.5 20.5q23 0 35.5 -15.5
t12.5 -38.5q0 -27 -21.5 -46.5t-50.5 -19.5zM678 1985l12 66h660l-12 -66h-660z" />
    <glyph glyph-name="uni0231" unicode="&#x231;" horiz-adv-x="1040" 
d="M506 -24q-154 0 -238 106t-84 304q0 200 60.5 348.5t170.5 230t259 81.5q155 0 240.5 -106.5t85.5 -297.5q0 -204 -60 -353.5t-171 -231t-263 -81.5zM518 48q122 0 213 72t141 203t50 307q0 164 -66 254t-188 90q-124 0 -215 -72.5t-141 -205t-50 -312.5
q0 -162 66.5 -249t189.5 -87zM712 1263q-21 0 -34.5 15t-13.5 37q0 27 22.5 47.5t49.5 20.5q23 0 35.5 -15.5t12.5 -38.5q0 -27 -21.5 -46.5t-50.5 -19.5zM445 1607l12 66h660l-12 -66h-660z" />
    <glyph glyph-name="uni0232" unicode="&#x232;" horiz-adv-x="1160" 
d="M510 0l98 554l-300 846h74l270 -770l536 770h82l-590 -846l-98 -554h-72zM495 1624l12 66h660l-12 -66h-660z" />
    <glyph glyph-name="uni0233" unicode="&#x233;" horiz-adv-x="974" 
d="M204 -388l222 416l-180 994h70l124 -700q9 -51 18 -102.5t18 -105.5q27 54 54 105.5t54 102.5l374 700h78l-756 -1410h-76zM345 1246l12 66h660l-12 -66h-660z" />
    <glyph glyph-name="uni0237" unicode="&#x237;" horiz-adv-x="468" 
d="M-108 -426l-26 62q128 14 197.5 75.5t94.5 208.5l194 1102h72l-192 -1102q-18 -107 -60 -180.5t-111 -114.5t-169 -51z" />
    <glyph glyph-name="uni0242" unicode="&#x242;" horiz-adv-x="938" 
d="M378 0l7 42q13 77 41 140t71 116.5t101 99.5q95 76 155.5 155.5t60.5 196.5q0 92 -56.5 158t-169.5 66q-105 0 -180 -46t-124 -123l-66 27q56 95 149 154.5t223 59.5q98 0 165 -39.5t101.5 -107t34.5 -150.5q0 -89 -31 -157.5t-84.5 -125.5t-121.5 -112
q-84 -67 -130 -140.5t-63 -171.5l-7 -42h-76z" />
    <glyph glyph-name="uni0243" unicode="&#x243;" horiz-adv-x="1264" 
d="M70 346l12 66h516l-12 -66h-516zM214 0l246 1400h410q128 0 202.5 -40t106 -107.5t31.5 -148.5q0 -95 -44.5 -174t-121.5 -132t-176 -70q123 -10 199.5 -91.5t76.5 -216.5q0 -68 -24 -141.5t-79 -136.5t-147 -102.5t-228 -39.5h-452zM298 64h376q147 0 234 54t124.5 136
t37.5 166q0 77 -30 139t-103.5 98.5t-204.5 36.5h-322zM422 758h292q132 0 227.5 45.5t147 124t51.5 176.5q0 62 -24 115t-83.5 85t-166.5 32h-342z" />
    <glyph glyph-name="uni0244" unicode="&#x244;" horiz-adv-x="1294" 
d="M618 -24q-154 0 -241 69.5t-113.5 193t2.5 285.5l30 168h-164l12 72h164l112 636h76l-112 -636h724l110 636h74l-110 -636h164l-12 -72h-164l-34 -194q-25 -140 -71 -239.5t-112 -162t-150 -91.5t-185 -29zM618 46q94 0 184 37.5t159 136t101 282.5l33 190h-724l-27 -154
q-23 -134 -8 -246t82 -179t200 -67z" />
    <glyph glyph-name="uni0245" unicode="&#x245;" horiz-adv-x="1224" 
d="M90 0l708 1400h54l226 -1400h-78l-158 1000q-6 41 -12.5 82.5t-13.5 83.5l-14 84q-31 -63 -62.5 -125.5t-63.5 -124.5l-504 -1000h-82z" />
    <glyph glyph-name="uni024B" unicode="&#x24b;" horiz-adv-x="1156" 
d="M986 -430q-94 10 -151 47t-76.5 105t-1.5 170l48 272q-58 -88 -143 -138t-175 -50q-100 0 -169.5 47.5t-106 138.5t-36.5 222q0 193 60.5 342.5t166.5 234.5t243 85q101 0 174 -44t110 -128l26 148h74l-199 -1134q-15 -86 2.5 -140t68 -81.5t132.5 -34.5zM493 48
q92 0 178 57.5t152 162.5l90 510q-31 95 -101.5 145.5t-166.5 50.5q-116 0 -204.5 -75t-138 -208t-49.5 -307q0 -169 59.5 -252.5t180.5 -83.5z" />
    <glyph glyph-name="uni024C" unicode="&#x24c;" horiz-adv-x="1272" 
d="M109 658l12 66h516l-12 -66h-516zM198 0l246 1400h450q98 0 165.5 -28.5t109 -76t60.5 -105t19 -116.5q0 -91 -33 -163.5t-92 -125t-138.5 -84t-172.5 -39.5l206 -662h-80l-206 658h-344l-116 -658h-74zM400 724h334q112 0 211.5 35.5t162 112.5t62.5 202q0 59 -24 119
t-84 100.5t-168 40.5h-386z" />
    <glyph glyph-name="uni0250" unicode="&#x250;" horiz-adv-x="994" 
d="M459 -24q-106 0 -169 41.5t-83.5 123.5t0.5 205l118 676h72l-26 -150q78 86 165.5 130t180.5 44q125 0 196.5 -76t71.5 -208q0 -108 -52 -192.5t-142.5 -133t-205.5 -48.5q-79 0 -147 26t-133 78l-24 -130q-31 -168 11.5 -244t168.5 -76q68 0 150 26.5t172 75.5l14 -64
q-99 -54 -181.5 -79t-156.5 -25zM589 456q90 0 161 40.5t112 109.5t41 156q0 101 -51.5 159.5t-138.5 58.5q-91 0 -179.5 -50t-178.5 -152l-40 -222q65 -49 134.5 -74.5t139.5 -25.5z" />
    <glyph glyph-name="uni0251" unicode="&#x251;" horiz-adv-x="1056" 
d="M494 -24q-148 0 -232 113.5t-84 314.5q0 190 62 334.5t172.5 226t255.5 81.5q90 0 162 -48.5t102 -129.5l28 154h73l-179 -1022h-74l26 146q-73 -84 -152 -127t-160 -43zM494 48q90 0 177.5 56t154.5 156l88 508q-33 96 -99.5 151t-150.5 55q-122 0 -214 -71.5t-143 -200
t-51 -298.5q0 -163 64.5 -259.5t173.5 -96.5z" />
    <glyph glyph-name="uni0252" unicode="&#x252;" horiz-adv-x="1056" 
d="M533 -24q-90 0 -162 48.5t-102 129.5l-28 -154h-73l179 1022h74l-26 -146q74 84 152.5 127t159.5 43q149 0 232.5 -113.5t83.5 -314.5q0 -190 -62 -334.5t-172.5 -226t-255.5 -81.5zM537 48q122 0 214 71.5t143 200t51 298.5q0 164 -64 260t-174 96q-90 0 -177 -55.5
t-155 -156.5l-88 -508q33 -96 99.5 -151t150.5 -55z" />
    <glyph glyph-name="uni0253" unicode="&#x253;" horiz-adv-x="1068" 
d="M554 -24q-97 0 -167.5 43t-118.5 131l-26 -150h-74l207 1184q17 98 60 164.5t113.5 104t168.5 47.5l25 -62q-85 -7 -145.5 -34.5t-97 -81.5t-51.5 -141l-54 -309q62 83 147 128.5t175 45.5q94 0 162.5 -50t106 -141.5t37.5 -216.5q0 -198 -58.5 -347t-164 -232
t-245.5 -83zM554 48q117 0 205 74t136.5 206.5t48.5 309.5q0 162 -61 249t-177 87q-88 0 -176.5 -56t-153.5 -152l-90 -514q35 -97 104.5 -150.5t163.5 -53.5z" />
    <glyph glyph-name="uni0254" unicode="&#x254;" horiz-adv-x="939" 
d="M405 -24q-93 0 -160.5 39t-107.5 113l59 48q38 -60 91.5 -94t129.5 -34q122 0 213 72t141 203t50 307q0 164 -66 254t-188 90q-73 0 -134.5 -25.5t-110.5 -73.5l-59 46q61 60 139.5 92.5t170.5 32.5q155 0 240.5 -106.5t85.5 -297.5q0 -204 -60 -353.5t-171 -231
t-263 -81.5z" />
    <glyph glyph-name="uni0256" unicode="&#x256;" horiz-adv-x="1150" 
d="M990 -430q-141 19 -198.5 94t-30.5 228l45 254q-73 -84 -152 -127t-160 -43q-148 0 -232 113.5t-84 314.5q0 190 62 334.5t172.5 226t255.5 81.5q90 0 162 -48.5t102 -129.5l96 540l78 36l-272 -1556q-15 -86 0 -138t63 -79.5t130 -38.5zM494 48q90 0 177.5 56t154.5 156
l88 508q-33 96 -99.5 151t-150.5 55q-122 0 -214 -71.5t-143 -200t-51 -298.5q0 -163 64.5 -259.5t173.5 -96.5z" />
    <glyph glyph-name="uni0257" unicode="&#x257;" horiz-adv-x="1066" 
d="M494 -24q-148 0 -232 113.5t-84 314.5q0 190 62 334.5t172.5 226t255.5 81.5q90 0 162 -48.5t102 -129.5l55 316q17 98 60.5 164.5t113.5 104t168 47.5l25 -62q-85 -7 -145.5 -34.5t-97 -81.5t-51.5 -141l-206 -1181h-74l26 146q-73 -84 -152 -127t-160 -43zM494 48
q90 0 177.5 56t154.5 156l88 508q-33 96 -99.5 151t-150.5 55q-122 0 -214 -71.5t-143 -200t-51 -298.5q0 -163 64.5 -259.5t173.5 -96.5z" />
    <glyph glyph-name="uni0259" unicode="&#x259;" horiz-adv-x="1002" 
d="M480 -24q-86 0 -155.5 35t-110 111t-40.5 200q0 41 6.5 90.5t21.5 119.5h690q14 131 -4.5 230.5t-79 155.5t-172.5 56q-57 0 -119.5 -22.5t-124.5 -67.5l-38 56q62 47 135.5 76.5t164.5 29.5q105 0 177 -47.5t108.5 -138t36.5 -220.5q0 -151 -38.5 -273.5t-106.5 -210
t-158 -134t-193 -46.5zM478 42q119 0 201.5 60.5t132 157.5t70.5 206h-618q-23 -115 -9 -211.5t68.5 -154.5t154.5 -58z" />
    <glyph glyph-name="uni025B" unicode="&#x25b;" horiz-adv-x="1004" 
d="M492 -24q-147 0 -233 64.5t-86 184.5q0 73 34 136.5t94.5 107.5t137.5 57q-63 23 -99 75t-36 131q0 93 47.5 163.5t129 110.5t183.5 40q126 0 217 -60t116 -165l-65 -26q-26 92 -95.5 138.5t-173.5 46.5q-126 0 -206 -66.5t-80 -181.5q0 -82 59 -130t162 -48h154l-12 -68
h-154q-95 0 -172 -30t-122.5 -87.5t-45.5 -141.5q0 -86 65 -134.5t183 -48.5q241 0 370 197l66 -26q-74 -115 -186 -177t-252 -62z" />
    <glyph glyph-name="uni025F" unicode="&#x25f;" horiz-adv-x="468" 
d="M-108 -426l-26 62q128 14 197.5 75.5t94.5 208.5l194 1102h72l-192 -1102q-18 -107 -60 -180.5t-111 -114.5t-169 -51zM45 479l12 66h494l-12 -66h-494z" />
    <glyph glyph-name="uni0260" unicode="&#x260;" horiz-adv-x="1073" 
d="M346 -426l-28 64q142 8 238 44.5t151 106t73 175.5l36 204q-58 -93 -144 -142.5t-188 -49.5q-95 0 -164 50t-106.5 143t-37.5 221q0 194 62.5 342t174 231t257.5 83q92 0 166 -47t104 -125l54 311q17 99 60.5 165t113.5 103t168 47l25 -62q-85 -7 -145 -34.5t-96.5 -81.5
t-51.5 -140l-216 -1228q-20 -116 -83 -197.5t-168.5 -127.5t-254.5 -55zM498 48q96 0 181.5 56.5t154.5 165.5l88 508q-33 93 -101 144.5t-157 51.5q-124 0 -216 -71t-143 -199.5t-51 -301.5q0 -162 66.5 -258t177.5 -96z" />
    <glyph glyph-name="uni0261" unicode="&#x261;" horiz-adv-x="1070" 
d="M346 -426l-28 64q142 8 238 44.5t151 106t73 175.5l36 204q-58 -93 -144 -142.5t-188 -49.5q-95 0 -164 50t-106.5 143t-37.5 221q0 194 62.5 342t174 231t257.5 83q92 0 166 -47t104 -125l26 148h72l-186 -1068q-20 -116 -82.5 -197.5t-168.5 -127.5t-255 -55zM498 48
q96 0 181.5 56.5t154.5 165.5l88 508q-33 93 -101 144.5t-157 51.5q-124 0 -216 -71t-143 -199.5t-51 -301.5q0 -162 66.5 -258t177.5 -96z" />
    <glyph glyph-name="uni0263" unicode="&#x263;" horiz-adv-x="984" 
d="M402 -474q-65 0 -104.5 40t-39.5 113q0 54 29 134t71.5 165.5t83.5 154.5l522 889h82l-585 -990q-26 -44 -57 -109t-53 -130t-22 -108q0 -41 21 -66t55 -25q43 0 67.5 26.5t34.5 67.5t10 82q0 53 -12 127.5t-27 137.5l-232 987h67l215 -890q14 -58 28 -120.5t23 -123.5
t9 -116q0 -59 -17.5 -116t-58.5 -93.5t-110 -36.5z" />
    <glyph glyph-name="uni0265" unicode="&#x265;" horiz-adv-x="1061" 
d="M714 -422l106 606q-49 -94 -136.5 -151t-185.5 -57q-107 0 -172 48t-85.5 142t3.5 232l110 624h72l-110 -632q-30 -174 18 -260t174 -86q137 0 231 103.5t125 284.5l102 590h74l-248 -1408z" />
    <glyph glyph-name="uni0266" unicode="&#x266;" horiz-adv-x="1061" 
d="M166 0l209 1185q18 99 61 165t113 103t168 47l25 -62q-85 -7 -144.5 -34.5t-96 -81.5t-52.5 -140l-63 -344q50 95 137.5 151.5t184.5 56.5q107 0 172 -48t86 -142t-4 -232l-110 -624h-72l110 632q30 174 -18 260t-174 86q-136 0 -230 -103t-126 -285l-102 -590h-74z" />
    <glyph glyph-name="uni0268" unicode="&#x268;" horiz-adv-x="659" 
d="M274 0l180 1022h70l-178 -1022h-72zM532 1263q-21 0 -34.5 15t-13.5 37q0 27 22.5 47.5t49.5 20.5q23 0 35.5 -15.5t12.5 -38.5q0 -27 -21.5 -46.5t-50.5 -19.5zM147 480l12 66h494l-12 -66h-494z" />
    <glyph glyph-name="uni0269" unicode="&#x269;" horiz-adv-x="598" 
d="M342 -24q-85 0 -126 58t-22 170l144 818h72l-138 -792q-15 -85 -2.5 -134.5t90.5 -49.5q44 0 85 16t69 32l-22 -76q-34 -21 -70 -31.5t-80 -10.5z" />
    <glyph glyph-name="uni026E" unicode="&#x26e;" horiz-adv-x="1246" 
d="M588 -426q-144 0 -243 74t-129 218l60 20q30 -129 109 -187.5t205 -58.5q100 0 178 49t123 130.5t45 180.5q0 141 -96 221t-300 83l-46 54l566 598h-651l-167 -956h-74l248 1408l78 36l-74 -422h754l-8 -50l-576 -602q198 0 311 -97.5t113 -270.5q0 -119 -56.5 -216
t-153 -154.5t-216.5 -57.5z" />
    <glyph glyph-name="uni026F" unicode="&#x26f;" horiz-adv-x="1615" 
d="M486 -24q-97 0 -159.5 50.5t-84.5 143t0 218.5l112 634h72l-110 -636q-29 -171 17 -256.5t167 -85.5q120 0 208.5 90.5t115.5 241.5l114 646h72l-110 -636q-29 -168 15.5 -255t156.5 -87q132 0 222.5 95.5t119.5 266.5l106 616h74l-180 -1022h-70l32 184
q-48 -93 -134.5 -150.5t-181.5 -57.5q-105 0 -163 64.5t-63 185.5q-51 -115 -144.5 -182.5t-203.5 -67.5z" />
    <glyph glyph-name="uni0272" unicode="&#x272;" horiz-adv-x="1062" 
d="M166 0l180 1022h70l-32 -184q51 96 138 152t186 56q106 0 170.5 -49t86 -144t-2.5 -233l-110 -620h-72l108 618q32 185 -15 272.5t-179 87.5q-138 0 -229 -99t-123 -285l-102 -594h-74zM-112 -430l-26 62q83 9 141 39t94.5 90.5t54.5 160.5l18 100h74l-18 -100
q-19 -107 -60 -182t-109 -117.5t-169 -52.5z" />
    <glyph glyph-name="uni0279" unicode="&#x279;" horiz-adv-x="718" 
d="M161 -24q-87 0 -138 42l26 62q21 -15 54 -23.5t70 -8.5q80 0 153 53.5t126 145.5t73 209l98 566h74l-180 -1022h-70l38 218q-61 -112 -148 -177t-176 -65z" />
    <glyph glyph-name="rtail" unicode="&#x27d;" horiz-adv-x="718" 
d="M376 -430q-94 10 -151 47t-76.5 105t-1.5 170l199 1130h70l-38 -218q62 113 149 177.5t175 64.5q87 0 138 -42l-26 -62q-21 15 -53.5 23.5t-70.5 8.5q-80 0 -153 -53.5t-125.5 -145.5t-73.5 -209l-118 -678q-15 -86 2.5 -140t68 -81.5t132.5 -34.5z" />
    <glyph glyph-name="uni027E" unicode="&#x27e;" horiz-adv-x="718" 
d="M166 0l92 524q48 272 149.5 397t273.5 125q44 0 89 -12t70 -30l-30 -72q-28 15 -63 24.5t-80 9.5q-97 0 -162 -46t-106 -141.5t-67 -242.5l-94 -536h-72z" />
    <glyph glyph-name="uni0283" unicode="&#x283;" horiz-adv-x="696" 
d="M122 -280q-31 0 -62 9.5t-54 22.5l10 64q24 -12 50.5 -21t65.5 -9q69 0 103 39t49 121l222 1260q13 72 42.5 120.5t76.5 73t113 24.5q32 0 63 -9t53 -23l-10 -64q-24 12 -50.5 21t-65.5 9q-69 0 -103 -38.5t-49 -121.5l-222 -1260q-13 -72 -42.5 -120.5t-76.5 -73
t-113 -24.5z" />
    <glyph glyph-name="uni0288" unicode="&#x288;" horiz-adv-x="678" 
d="M428 -430q-94 10 -151 47t-76.5 105t-1.5 170l187 1064h-168l12 66h168l68 386l78 36l-74 -422h254l-12 -66h-254l-186 -1068q-15 -86 2.5 -140t68 -81.5t132.5 -34.5z" />
    <glyph glyph-name="uni0289" unicode="&#x289;" horiz-adv-x="1064" 
d="M115 497l12 66h933l-12 -66h-933zM488 -24q-111 0 -177 47t-86.5 141t3.5 234l110 624h72l-110 -640q-30 -174 19 -257t181 -83q134 0 225.5 101t122.5 285l102 594h74l-180 -1022h-70l30 176q-55 -96 -138 -148t-178 -52z" />
    <glyph glyph-name="uni028A" unicode="&#x28a;" horiz-adv-x="1080" 
d="M560 -24q-115 0 -202.5 51.5t-136.5 146t-49 222.5q0 95 31 188t88.5 176t136.5 148.5t174 103.5l-8 -50q-97 -54 -175 -145t-123.5 -200.5t-45.5 -218.5q0 -157 81 -253.5t231 -96.5q119 0 204.5 63t131.5 172.5t46 250.5q0 164 -53 274.5t-113 153.5l8 50
q56 -28 110.5 -96t90 -166t35.5 -216q0 -156 -56.5 -282.5t-160 -201t-245.5 -74.5zM262 956l12 66h330l-8 -46l-62 -20h-272zM834 956l-54 20l8 46h330l-12 -66h-272z" />
    <glyph glyph-name="uni028B" unicode="&#x28b;" horiz-adv-x="1068" 
d="M403 -24q-123 0 -172 78t-26 211l133 757h72l-136 -773q-16 -94 15.5 -149.5t115.5 -55.5q74 0 151.5 46t148 124t126 173.5t88 195.5t32.5 190q0 89 -42.5 148t-128.5 59q-71 0 -122 -12l42 66q48 12 94 12q107 0 169 -73.5t62 -193.5q0 -106 -35.5 -218t-97 -216.5
t-141.5 -187.5t-169 -132t-179 -49z" />
    <glyph glyph-name="uni028C" unicode="&#x28c;" horiz-adv-x="952" 
d="M74 0l534 1022h54l180 -1022h-72l-132 754q-6 35 -12 69.5t-12 70.5q-18 -36 -36 -70.5t-36 -69.5l-392 -754h-76z" />
    <glyph glyph-name="uni028D" unicode="&#x28d;" horiz-adv-x="1356" 
d="M79 0l430 1022h54l108 -780q3 -24 7 -54.5t7 -51.5q12 29 24 55t24 51l374 780h54l78 -1022h-72l-48 744q-2 32 -5 71t-5 75q-15 -34 -33.5 -73.5t-34.5 -72.5l-354 -744h-52l-98 744q-4 35 -8.5 70t-9.5 72q-15 -39 -29.5 -73.5t-28.5 -68.5l-308 -744h-74z" />
    <glyph glyph-name="uni028E" unicode="&#x28e;" horiz-adv-x="974" 
d="M75 0l756 1410h76l-222 -416l180 -994h-70l-124 700q-9 51 -18 102.5t-18 105.5q-27 -54 -54 -105.5t-54 -102.5l-374 -700h-78z" />
    <glyph glyph-name="uni0292" unicode="&#x292;" horiz-adv-x="1030" 
d="M372 -426q-144 0 -243 74t-129 218l60 20q30 -129 109 -187.5t205 -58.5q100 0 178 49t123 130.5t45 180.5q0 141 -96 221t-300 83l-46 54l566 598h-594l10 66h698l-8 -50l-576 -602q198 0 311 -97.5t113 -270.5q0 -119 -56.5 -216t-153 -154.5t-216.5 -57.5z" />
    <glyph glyph-name="uni0294" unicode="&#x294;" horiz-adv-x="950" 
d="M400 0l63 359q18 99 54.5 172.5t87 129.5t108.5 103t109 95.5t83 109t32 143.5q0 102 -66 171t-200 69q-101 0 -191.5 -42t-143.5 -139l-68 22q44 83 111.5 134t145.5 74t154 23q109 0 184 -40.5t113.5 -110.5t38.5 -159q0 -92 -35 -159.5t-91 -121.5t-118 -105
q-84 -69 -146.5 -155t-85.5 -214l-63 -359h-76z" />
    <glyph glyph-name="uni0295" unicode="&#x295;" horiz-adv-x="947" 
d="M438 0l66 370q23 128 -12.5 208.5t-96.5 147.5q-49 55 -90 120t-41 171q0 117 59 209t160.5 145t228.5 53q147 0 233 -64t108 -168l-73 -19q-18 81 -86.5 130t-184.5 49q-104 0 -187.5 -45t-132 -122.5t-48.5 -175.5q0 -79 37 -136.5t84 -110.5q42 -47 75 -101t46.5 -124
t-3.5 -167l-66 -370h-76z" />
    <glyph glyph-name="uni029E" unicode="&#x29e;" horiz-adv-x="956" 
d="M610 -422l156 892l-502 -470h-90l298 280l-242 742h76l224 -688l252 236l80 452h74l-248 -1408z" />
    <glyph glyph-name="uni02A1" unicode="&#x2a1;" horiz-adv-x="950" 
d="M400 0l63 359q18 99 54.5 172.5t87 129.5t108.5 103t109 95.5t83 109t32 143.5q0 102 -66 171t-200 69q-101 0 -191.5 -42t-143.5 -139l-68 22q44 83 111.5 134t145.5 74t154 23q109 0 184 -40.5t113.5 -110.5t38.5 -159q0 -92 -35 -159.5t-91 -121.5t-118 -105
q-84 -69 -146.5 -155t-85.5 -214l-63 -359h-76zM240 280l12 66h494l-12 -66h-494z" />
    <glyph glyph-name="uni02A2" unicode="&#x2a2;" horiz-adv-x="947" 
d="M438 0l66 370q23 128 -12.5 208.5t-96.5 147.5q-49 55 -90 120t-41 171q0 117 59 209t160.5 145t228.5 53q147 0 233 -64t108 -168l-73 -19q-18 81 -86.5 130t-184.5 49q-104 0 -187.5 -45t-132 -122.5t-48.5 -175.5q0 -79 37 -136.5t84 -110.5q42 -47 75 -101t46.5 -124
t-3.5 -167l-66 -370h-76zM279 280l12 66h494l-12 -66h-494z" />
    <glyph glyph-name="uni02A3" unicode="&#x2a3;" horiz-adv-x="1918" 
d="M494 -24q-148 0 -232 113.5t-84 314.5q0 190 62 334.5t172.5 226t255.5 81.5q90 0 162 -48.5t102 -129.5l96 540l78 36l-74 -422h904l-8 -42l-780 -914h618l-10 -66h-720l8 44l778 912h-801l-167 -956h-74l26 146q-73 -84 -152 -127t-160 -43zM494 48q90 0 177.5 56
t154.5 156l88 508q-33 96 -99.5 151t-150.5 55q-122 0 -214 -71.5t-143 -200t-51 -298.5q0 -163 64.5 -259.5t173.5 -96.5z" />
    <glyph glyph-name="uni02A4" unicode="&#x2a4;" horiz-adv-x="1858" 
d="M1200 -426q-144 0 -243 74t-129 218l60 20q30 -129 109 -187.5t205 -58.5q100 0 178 49t123 130.5t45 180.5q0 141 -96 221t-300 83l-46 54l566 598h-651l-167 -956h-74l26 146q-73 -84 -152 -127t-160 -43q-148 0 -232 113.5t-84 314.5q0 190 62 334.5t172.5 226
t255.5 81.5q90 0 162 -48.5t102 -129.5l96 540l78 36l-74 -422h754l-8 -50l-576 -602q198 0 311 -97.5t113 -270.5q0 -119 -56.5 -216t-153 -154.5t-216.5 -57.5zM494 48q90 0 177.5 56t154.5 156l88 508q-33 96 -99.5 151t-150.5 55q-122 0 -214 -71.5t-143 -200
t-51 -298.5q0 -163 64.5 -259.5t173.5 -96.5z" />
    <glyph glyph-name="uni02A6" unicode="&#x2a6;" horiz-adv-x="1448" 
d="M408 -24q-100 0 -136 63.5t-12 198.5l126 718h-168l12 66h168l68 386l78 36l-74 -422h536q32 11 67 17.5t73 6.5q80 0 151.5 -33.5t116.5 -92.5l-56 -44q-87 102 -220 102q-109 0 -179.5 -58t-70.5 -148q0 -64 45 -111.5t165 -100.5q138 -60 194 -125.5t56 -158.5
q0 -139 -87.5 -219.5t-242.5 -80.5q-61 0 -118 18.5t-105.5 53t-82.5 82.5l58 46q47 -64 112 -98t140 -34q119 0 185.5 60t66.5 166q0 74 -47.5 126t-170.5 104q-135 58 -187.5 120t-52.5 152q0 108 81 184h-439l-126 -726q-18 -102 2 -143t86 -41q35 0 75 13t79 35l-22 -76
q-72 -42 -144 -42z" />
    <glyph glyph-name="uni02A7" unicode="&#x2a7;" horiz-adv-x="1232" 
d="M658 -280q-31 0 -62 9.5t-54 22.5l10 64q24 -12 50.5 -21t65.5 -9q69 0 103.5 39t48.5 121l178 1010h-540l-126 -726q-18 -102 2 -143t86 -41q35 0 75 13t79 35l-22 -76q-72 -42 -144 -42q-100 0 -136 63.5t-12 198.5l126 718h-168l12 66h168l68 386l78 36l-74 -422h540
l32 184q13 72 42 120.5t76.5 73t113.5 24.5q32 0 63 -9t53 -23l-10 -64q-24 12 -50.5 21t-65.5 9q-69 0 -103.5 -38.5t-48.5 -121.5l-222 -1260q-12 -72 -41.5 -120.5t-77 -73t-113.5 -24.5z" />
    <glyph glyph-name="uni02A9" unicode="&#x2a9;" horiz-adv-x="1657" 
d="M1094 -426l-26 62q128 14 197.5 75.5t94.5 208.5l120 690q19 111 11 193.5t-55.5 128.5t-147.5 46q-78 0 -149.5 -36.5t-124.5 -120.5t-78 -227l-102 -594h-74l168 956h-484l-168 -956h-74l168 956h-160l12 66h160l32 184q20 111 74.5 164.5t147.5 53.5q32 0 63.5 -8.5
t56.5 -23.5l-12 -64q-33 17 -58 23.5t-54 6.5q-64 0 -97.5 -36.5t-48.5 -123.5l-30 -176h554l-32 -184q60 114 152.5 161t171.5 47q118 0 180.5 -55.5t78.5 -153.5t-7 -227l-120 -690q-14 -82 -40.5 -143.5t-67 -103.5t-98 -66.5t-134.5 -32.5z" />
    <glyph glyph-name="uni02AA" unicode="&#x2aa;" horiz-adv-x="1298" 
d="M168 0l248 1408l78 36l-240 -1378h401q-26 18 -49 40t-41 48l58 46q47 -64 112 -98t140 -34q119 0 185.5 58t66.5 162q0 71 -47.5 121.5t-170.5 102.5q-135 58 -187.5 118t-52.5 148q0 77 43 137.5t115.5 95.5t161.5 35q87 0 160 -33.5t118 -92.5l-56 -44
q-87 102 -230 102q-102 0 -171 -56t-69 -144q0 -62 45 -107.5t165 -98.5q138 -60 194 -123.5t56 -154.5q0 -137 -87.5 -215.5t-242.5 -78.5h-703z" />
    <glyph glyph-name="uni02AB" unicode="&#x2ab;" horiz-adv-x="1306" 
d="M168 0l248 1408l78 36l-74 -422h904l-8 -42l-780 -914h618l-10 -66h-720l8 44l778 912h-801l-167 -956h-74z" />
    <glyph glyph-name="uni02AC" unicode="&#x2ac;" horiz-adv-x="1126" 
d="M457 788l-48 612h72l33 -431q1 -9 1.5 -19t0.5 -18q4 8 8 16.5t8 18.5l209 433h60l57 -432q2 -9 2.5 -17t1.5 -19q8 20 15 38l184 430h75l-265 -612h-58l-60 439q-1 9 -2.5 18t-2.5 17q-4 -9 -7.5 -16.5t-7.5 -15.5l-217 -442h-59zM318 0l-48 612h72l33 -431
q1 -9 1.5 -19t0.5 -18q4 8 8 16.5t8 18.5l209 433h60l57 -432q2 -9 2.5 -17t1.5 -19q8 20 15 38l184 430h75l-265 -612h-58l-60 439q-1 9 -2.5 18t-2.5 17q-4 -9 -7.5 -16.5t-7.5 -15.5l-217 -442h-59z" />
    <glyph glyph-name="uni02B0" unicode="&#x2b0;" horiz-adv-x="942" 
d="M322 888l205 1164l65 30l-88 -501q41 78 113.5 125t152.5 47q133 0 186.5 -89t23.5 -260l-91 -516h-59l91 523q25 143 -15 214.5t-144 71.5q-112 0 -190 -85.5t-104 -235.5l-85 -488h-61z" />
    <glyph glyph-name="uni02B2" unicode="&#x2b2;" horiz-adv-x="409" 
d="M55 536l-22 51q106 11 163.5 62.5t78.5 172.5l160 910h60l-159 -910q-15 -89 -49.5 -150t-91 -94.5t-140.5 -41.5zM496 1918q-19 0 -29 12t-10 30q0 22 15 39.5t41 17.5q20 0 29.5 -12.5t9.5 -30.5q0 -22 -15 -39t-41 -17z" />
    <glyph glyph-name="uni02B7" unicode="&#x2b7;" horiz-adv-x="1155" 
d="M436 888l-65 845h60l40 -615q2 -29 4.5 -60t3.5 -61q12 29 27.5 61t28.5 60l293 615h43l81 -615q4 -28 7.5 -57t7.5 -61q12 32 24.5 62t23.5 56l254 615h61l-355 -845h-45l-89 645q-2 19 -5.5 43t-6.5 45q-10 -24 -19.5 -45.5t-19.5 -42.5l-309 -645h-45z" />
    <glyph glyph-name="uni02B8" unicode="&#x2b8;" horiz-adv-x="838" 
d="M337 567l183 344l-149 822h58l103 -579q8 -42 15.5 -84.5t14.5 -87.5q22 45 44.5 87.5t44.5 84.5l309 579h65l-625 -1166h-63z" />
    <glyph glyph-name="uni02B9" unicode="&#x2b9;" horiz-adv-x="342" 
d="M214 850l148 610h90l-166 -610h-72z" />
    <glyph glyph-name="uni02BA" unicode="&#x2ba;" horiz-adv-x="684" 
d="M214 850l148 610h90l-166 -610h-72zM556 850l148 610h90l-166 -610h-72z" />
    <glyph glyph-name="uni02BC" unicode="&#x2bc;" horiz-adv-x="364" 
d="M370 1050q-25 30 -44.5 88.5t-19.5 127.5q0 57 18.5 107.5t69.5 50.5q21 0 34.5 -13.5t13.5 -36.5q0 -30 -22 -50t-52 -20q-4 -27 -7 -53t-3 -53q0 -36 7 -71.5t23 -70.5z" />
    <glyph glyph-name="circumflex" unicode="&#x2c6;" horiz-adv-x="622" 
d="M136 1152l358 312h64l246 -312h-70l-218 240l-302 -240h-78z" />
    <glyph glyph-name="caron" unicode="&#x2c7;" horiz-adv-x="622" 
d="M392 1152l-246 312h70l216 -240l304 240h78l-358 -312h-64z" />
    <glyph glyph-name="uni02C9" unicode="&#x2c9;" horiz-adv-x="622" 
d="M158 1246l12 66h660l-12 -66h-660z" />
    <glyph glyph-name="uni02D6" unicode="&#x2d6;" horiz-adv-x="1200" 
d="M716 740v344h-340v72h340v344h76v-344h344v-72h-344v-344h-76z" />
    <glyph glyph-name="breve" unicode="&#x2d8;" horiz-adv-x="622" 
d="M480 1162q-91 0 -155 38.5t-94.5 110.5t-20.5 173h66q-13 -129 37 -192.5t171 -63.5q113 0 192.5 63.5t103.5 192.5h68q-16 -89 -61.5 -162t-122 -116.5t-184.5 -43.5z" />
    <glyph glyph-name="dotaccent" unicode="&#x2d9;" horiz-adv-x="622" 
d="M494 1265q-21 0 -34.5 15t-13.5 37q0 27 22.5 47.5t49.5 20.5q23 0 35.5 -15.5t12.5 -38.5q0 -27 -21.5 -46.5t-50.5 -19.5z" />
    <glyph glyph-name="ring" unicode="&#x2da;" horiz-adv-x="622" 
d="M470 1100q-88 0 -148 58t-60 142q0 72 34 128.5t92.5 89t131.5 32.5q93 0 150.5 -60t57.5 -140q0 -72 -34 -128.5t-92.5 -89t-131.5 -32.5zM470 1162q80 0 135 53t55 135q0 60 -40 99t-100 39q-76 0 -133 -52t-57 -136q0 -63 41.5 -100.5t98.5 -37.5z" />
    <glyph glyph-name="ogonek" unicode="&#x2db;" horiz-adv-x="622" 
d="M88 -468q-67 0 -114.5 38.5t-47.5 117.5q0 110 92.5 198.5t233.5 133.5h64q-108 -42 -179.5 -91.5t-107 -107t-35.5 -123.5q0 -58 32.5 -83t71.5 -25q51 0 85.5 23t52.5 41l42 -34q-31 -33 -79 -60.5t-111 -27.5z" />
    <glyph glyph-name="tilde" unicode="&#x2dc;" horiz-adv-x="622" 
d="M644 1204q-54 0 -95.5 27.5t-76.5 58.5q-33 30 -66 53t-74 23q-46 0 -79.5 -39.5t-50.5 -114.5h-56q17 96 67.5 158t134.5 62q54 0 95.5 -27t76.5 -59q32 -30 66 -53t74 -23q47 0 80.5 39.5t49.5 114.5h56q-16 -96 -67 -158t-135 -62z" />
    <glyph glyph-name="hungarumlaut" unicode="&#x2dd;" horiz-adv-x="622" 
d="M396 1152l358 312h110l-394 -312h-74zM40 1152l358 312h110l-394 -312h-74z" />
    <glyph glyph-name="uni02E1" unicode="&#x2e1;" horiz-adv-x="432" 
d="M325 888l205 1164l64 30l-208 -1194h-61z" />
    </font>
</defs>
</svg>
