<?xml version="1.0" standalone="no"?>
<!DOCTYPE svg PUBLIC "-//W3C//DTD SVG 1.1//EN" "http://www.w3.org/Graphics/SVG/1.1/DTD/svg11.dtd" >
<svg xmlns="http://www.w3.org/2000/svg" xmlns:xlink="http://www.w3.org/1999/xlink" version="1.1">
<metadata>
Created by FontForge 20170731 at Mon Aug 16 18:40:04 2021
 By Aleksey,,,
Copyright 2021 The Overpass Project Authors (https://github.com/RedHatOfficial/Overpass)
</metadata>
<defs>
<font id="Overpass-MediumItalic" horiz-adv-x="0" >
  <font-face 
    font-family="Overpass Medium"
    font-weight="500"
    font-style="italic"
    font-stretch="normal"
    units-per-em="2000"
    panose-1="0 0 0 0 0 0 0 0 0 0"
    ascent="1600"
    descent="-400"
    x-height="1022"
    cap-height="1400"
    bbox="-223 -756 2661 2297"
    underline-thickness="168"
    underline-position="-440"
    slope="-10"
    unicode-range="U+000D-1F427"
  />
<missing-glyph horiz-adv-x="1232" 
d="M315 0v1400h853v-1400h-853zM492 172h498v1056h-498v-1056zM934 126l-538 1148h155l538 -1148h-155zM396 126l538 1148h155l-538 -1148h-155z" />
    <glyph glyph-name="fi" unicode="fi" horiz-adv-x="1148" 
d="M198 0l150 850h-153l30 172h153l30 172q21 113 89 173t177 60q45 0 90 -12.5t91 -38.5l-29 -162q-39 19 -70.5 27.5t-63.5 8.5q-40 0 -64 -23.5t-34 -74.5l-24 -130h218l-30 -172h-217l-151 -850h-192zM803 0l180 1022h192l-180 -1022h-192zM1109 1193q-41 0 -69.5 29
t-28.5 70q0 55 40 96.5t93 41.5q44 0 72 -28t28 -71q0 -56 -41 -97t-94 -41z" />
    <glyph glyph-name="fl" unicode="fl" horiz-adv-x="1165" 
d="M198 0l150 850h-153l30 172h153l30 172q21 113 89 173t177 60q45 0 90 -12.5t91 -38.5l-29 -162q-39 19 -70.5 27.5t-63.5 8.5q-40 0 -64 -23.5t-34 -74.5l-24 -130h218l-30 -172h-217l-151 -850h-192zM807 0l243 1373l204 71l-254 -1444h-193z" />
    <glyph glyph-name="f_f" unicode="ff" horiz-adv-x="1337" 
d="M198 0l150 850h-153l30 172h153l30 172q21 113 89 173t177 60q45 0 90 -12.5t91 -38.5l-29 -162q-39 19 -70.5 27.5t-63.5 8.5q-40 0 -64 -23.5t-34 -74.5l-24 -130h218l-30 -172h-217l-151 -850h-192zM887 0l150 850h-153l30 172h153l30 172q21 113 89 173t177 60
q45 0 90 -12.5t91 -38.5l-29 -162q-39 19 -70.5 27.5t-63.5 8.5q-40 0 -64 -23.5t-34 -74.5l-24 -130h218l-30 -172h-217l-151 -850h-192z" />
    <glyph glyph-name="f_f_i" unicode="ffi" horiz-adv-x="1837" 
d="M198 0l150 850h-153l30 172h153l30 172q21 113 89 173t177 60q45 0 90 -12.5t91 -38.5l-29 -162q-39 19 -70.5 27.5t-63.5 8.5q-40 0 -64 -23.5t-34 -74.5l-24 -130h218l-30 -172h-217l-151 -850h-192zM887 0l150 850h-153l30 172h153l30 172q21 113 89 173t177 60
q45 0 90 -12.5t91 -38.5l-29 -162q-39 19 -70.5 27.5t-63.5 8.5q-40 0 -64 -23.5t-34 -74.5l-24 -130h218l-30 -172h-217l-151 -850h-192zM1492 0l180 1022h192l-180 -1022h-192zM1798 1193q-41 0 -69.5 29t-28.5 70q0 55 40 96.5t93 41.5q44 0 72 -28t28 -71q0 -56 -41 -97
t-94 -41z" />
    <glyph glyph-name="f_f_l" unicode="ffl" horiz-adv-x="1854" 
d="M198 0l150 850h-153l30 172h153l30 172q21 113 89 173t177 60q45 0 90 -12.5t91 -38.5l-29 -162q-39 19 -70.5 27.5t-63.5 8.5q-40 0 -64 -23.5t-34 -74.5l-24 -130h218l-30 -172h-217l-151 -850h-192zM887 0l150 850h-153l30 172h153l30 172q21 113 89 173t177 60
q45 0 90 -12.5t91 -38.5l-29 -162q-39 19 -70.5 27.5t-63.5 8.5q-40 0 -64 -23.5t-34 -74.5l-24 -130h218l-30 -172h-217l-151 -850h-192zM1496 0l243 1373l204 71l-254 -1444h-193z" />
    <glyph glyph-name="uniFDFC" unicode="&#xfdfc;" horiz-adv-x="1980" arabic-form="isolated" 
d="M469 -116q-173 0 -254.5 94t-81.5 268q0 89 25.5 189t72.5 207l146 -74q-34 -78 -54 -163.5t-20 -158.5q0 -75 39.5 -123t128.5 -48q66 0 102.5 23.5t51 58.5t14.5 70v1137l170 80v-1215q0 -98 -32.5 -176t-107.5 -123.5t-200 -45.5zM1046 -48l-88 194l195 92l89 -192z
M1386 -48l-88 194l195 92l89 -192zM1174 -426l-126 191q201 14 335.5 44.5t213.5 80t112.5 120.5t33.5 168v366l170 80v-446q0 -193 -71.5 -319.5t-233 -196t-434.5 -88.5zM1269 364q-154 0 -221.5 88t-67.5 228v684l169 80v-764q0 -55 30 -90t88 -35t89 35t31 90v166
l170 80v-246q0 -140 -67 -228t-221 -88z" />
    <glyph glyph-name=".notdef" horiz-adv-x="1232" 
d="M315 0v1400h853v-1400h-853zM492 172h498v1056h-498v-1056zM934 126l-538 1148h155l538 -1148h-155zM396 126l538 1148h155l-538 -1148h-155z" />
    <glyph glyph-name=".null" 
 />
    <glyph glyph-name="nonmarkingreturn" horiz-adv-x="666" 
 />
    <glyph glyph-name="CR" unicode="&#xd;" horiz-adv-x="465" 
 />
    <glyph glyph-name="space" unicode=" " horiz-adv-x="465" 
 />
    <glyph glyph-name="exclam" unicode="!" horiz-adv-x="553" 
d="M308 386l49 596l79 442h189l-79 -442l-162 -596h-76zM276 -27q-54 0 -86 37t-32 85q0 68 48 117t111 49q58 0 90.5 -36.5t32.5 -84.5q0 -67 -48 -117t-116 -50z" />
    <glyph glyph-name="quotedbl" unicode="&#x22;" horiz-adv-x="802" 
d="M654 844l60 556h229l-138 -556h-151zM292 844l61 556h227l-138 -556h-150z" />
    <glyph glyph-name="numbersign" unicode="#" horiz-adv-x="1337" 
d="M266 0l124 383h-223l59 170h217l109 323h-216l52 168h215l126 356h160l-117 -356h252l118 356h169l-115 -356h223l-54 -168h-220l-107 -323h216l-54 -170h-216l-123 -383h-171l124 383h-254l-124 -383h-170zM614 553h254l106 323h-254z" />
    <glyph glyph-name="dollar" unicode="$" horiz-adv-x="1153" 
d="M448 -192l30 179q-91 20 -154.5 68t-100.5 112.5t-49 136.5l181 65q24 -91 88.5 -148.5t171.5 -57.5q85 0 148 28.5t97.5 82.5t34.5 130q0 69 -35.5 115.5t-91.5 80.5t-120 66q-73 37 -144 81t-116.5 112.5t-45.5 176.5q0 87 45 169.5t132 140.5t211 74l27 154h187
l-28 -162q78 -18 131 -57t83.5 -90.5t37.5 -106.5l-183 -61q-17 58 -67 100.5t-144 42.5q-105 0 -167 -50t-62 -130q0 -53 30 -90t79.5 -66t109.5 -58q58 -28 117 -61.5t108 -79.5t79 -111.5t30 -157.5q0 -122 -51 -218t-146.5 -158t-228.5 -80l-29 -172h-195z" />
    <glyph glyph-name="percent" unicode="%" horiz-adv-x="1676" 
d="M278 -24l1174 1448h194l-1173 -1448h-195zM566 702q-94 0 -152 44.5t-84.5 112.5t-26.5 137t23 144t69 139t116.5 104.5t166.5 40.5q94 0 152.5 -44.5t84.5 -112.5t26 -136q0 -77 -24 -153t-71 -138.5t-117.5 -100t-162.5 -37.5zM586 860q60 0 102 37t65 95.5t23 123.5
q0 44 -13.5 77.5t-40 53t-66.5 19.5q-46 0 -81 -21.5t-58.5 -58t-36 -82.5t-12.5 -95q0 -40 12.5 -74t38 -54.5t67.5 -20.5zM1261 -24q-96 0 -154 44t-84.5 111.5t-26.5 136.5t22.5 144t68.5 139.5t117 104.5t168 40q94 0 151.5 -44t84 -112t26.5 -137q0 -77 -24 -152.5
t-71.5 -137.5t-116.5 -99.5t-161 -37.5zM1281 133q58 0 100 37.5t64.5 96t22.5 123.5q0 43 -13 76.5t-39.5 53.5t-65.5 20q-47 0 -81.5 -22t-58 -58.5t-35.5 -82.5t-12 -95q0 -39 12 -73.5t38 -55t68 -20.5z" />
    <glyph glyph-name="ampersand" unicode="&#x26;" horiz-adv-x="1319" 
d="M492 -24q-154 0 -242 91t-88 233q0 122 49.5 211t137 156t199.5 124q-49 81 -72 147.5t-23 131.5q0 110 53.5 189.5t139.5 122t182 42.5q132 0 207.5 -75t75.5 -193q0 -88 -39.5 -159t-109.5 -129.5t-162 -111.5l176 -281q32 52 51.5 104.5t27.5 86.5h180
q-18 -81 -56 -173t-101 -178l195 -315h-236l-100 160q-98 -90 -212 -137t-233 -47zM552 159q72 0 152.5 37.5t147.5 103.5l-224 359q-135 -75 -204 -147t-69 -168q0 -83 53 -134t144 -51zM722 882q99 56 153.5 116.5t54.5 136.5q0 62 -36 97t-90 35q-73 0 -122.5 -47.5
t-49.5 -121.5q0 -44 24.5 -97.5t65.5 -118.5z" />
    <glyph glyph-name="quotesingle" unicode="'" horiz-adv-x="440" 
d="M292 844l61 556h227l-138 -556h-150z" />
    <glyph glyph-name="parenleft" unicode="(" horiz-adv-x="690" 
d="M344 -260q-31 57 -58 145t-43.5 196.5t-16.5 227.5q0 208 38 379t101.5 308.5t139.5 243.5t151 184h189q-34 -35 -87 -102t-112.5 -165t-112.5 -224t-86.5 -278t-33.5 -328q0 -138 20.5 -258.5t47 -207t43.5 -121.5h-180z" />
    <glyph glyph-name="parenright" unicode=")" horiz-adv-x="690" 
d="M62 -260q31 35 82 101t108 161.5t108.5 219t83.5 273t32 325.5q0 140 -21 264.5t-49 214.5t-48 125h180q34 -58 63 -149t47 -203t18 -233q0 -205 -37 -373t-97.5 -302.5t-134 -239.5t-148.5 -184h-187z" />
    <glyph glyph-name="asterisk" unicode="*" horiz-adv-x="1049" 
d="M452 580l-130 114l162 182l121 83l-120 7l-196 74l76 168l192 -70l99 -76l-10 137l41 229h180l-40 -229l-62 -138l125 83l206 64l33 -172l-217 -70l-135 -7l88 -82l105 -193l-158 -104l-103 191l-27 135l-68 -135z" />
    <glyph glyph-name="plus" unicode="+" horiz-adv-x="1250" 
d="M642 216v375h-360v189h360v376h195v-376h363v-189h-363v-375h-195z" />
    <glyph glyph-name="comma" unicode="," horiz-adv-x="460" 
d="M130 -282l-60 42q20 16 49.5 48t56.5 74.5t41 90.5q-48 6 -76.5 38t-28.5 78q0 76 49 122.5t108 46.5q55 0 92.5 -35.5t37.5 -104.5q0 -83 -37.5 -158.5t-99 -137.5t-132.5 -104z" />
    <glyph glyph-name="hyphen" unicode="-" horiz-adv-x="791" 
d="M253 500l33 188h462l-32 -188h-463z" />
    <glyph glyph-name="period" unicode="." horiz-adv-x="455" 
d="M228 -27q-55 0 -86.5 37t-31.5 85q0 68 47.5 117t110.5 49q58 0 90.5 -36.5t32.5 -84.5q0 -67 -48 -117t-115 -50z" />
    <glyph glyph-name="slash" unicode="/" horiz-adv-x="973" 
d="M-55 -260l1054 1684h189l-1052 -1684h-191z" />
    <glyph glyph-name="zero" unicode="0" horiz-adv-x="1208" 
d="M620 -26q-104 0 -178.5 42.5t-121 116.5t-69 168t-22.5 196q0 107 15 216.5t47 213.5t81 194.5t116.5 159t153.5 107.5t193 39t181.5 -44t120.5 -119t67.5 -168t21.5 -191q0 -125 -22 -256t-67.5 -251.5t-117 -216t-170.5 -151.5t-229 -56zM640 160q92 0 158.5 53
t111.5 138t71.5 184t38.5 192.5t12 160.5q0 93 -20 173.5t-67.5 129.5t-130.5 49q-91 0 -158 -53t-112 -139t-71.5 -184.5t-38 -192t-11.5 -159.5q0 -92 20 -172.5t67.5 -130t129.5 -49.5z" />
    <glyph glyph-name="one" unicode="1" horiz-adv-x="692" 
d="M280 0l194 1096h-218l25 141q65 0 121.5 15t101.5 50.5t75 97.5h144l-246 -1400h-197z" />
    <glyph glyph-name="two" unicode="2" horiz-adv-x="1147" 
d="M122 0q22 147 74.5 254.5t126.5 186t161.5 139t178.5 114.5q77 46 140 87.5t109 83t70.5 89.5t24.5 105q0 79 -54.5 132.5t-158.5 53.5q-106 0 -180.5 -52.5t-117.5 -148.5l-158 80q64 132 186.5 216t288.5 84q119 0 208 -47t137.5 -127.5t48.5 -179.5t-36 -175
t-100 -138t-150.5 -117t-186.5 -114q-81 -47 -151 -98.5t-121 -110t-72 -126.5h668l-34 -191h-902z" />
    <glyph glyph-name="three" unicode="3" horiz-adv-x="1126" 
d="M604 -24q-175 0 -298.5 88.5t-161.5 241.5l181 67q32 -109 103.5 -161.5t175.5 -52.5q82 0 146.5 35t101.5 96.5t37 143.5q0 95 -58 149t-167 54h-113l33 183h101q77 0 137.5 32t95 87t34.5 125q0 80 -53.5 130t-141.5 50q-91 0 -158.5 -45.5t-108.5 -133.5l-168 66
q62 138 182 215.5t269 77.5q111 0 196 -41t133 -115t48 -173q0 -124 -64.5 -218t-181.5 -146q59 -24 100.5 -71t63 -107t21.5 -124q0 -131 -62.5 -233.5t-172 -161t-250.5 -58.5z" />
    <glyph glyph-name="four" unicode="4" horiz-adv-x="1168" 
d="M715 0l59 334h-673l25 133l850 933h182l-155 -884h183l-32 -182h-183l-59 -334h-197zM394 516h412l100 568z" />
    <glyph glyph-name="five" unicode="5" horiz-adv-x="1170" 
d="M594 -24q-112 0 -203.5 37t-154 95.5t-90.5 122.5l162 96q27 -40 66.5 -78t98 -63.5t143.5 -25.5q93 0 169.5 38.5t121.5 110t45 171.5q0 108 -58.5 181t-182.5 73q-89 0 -156 -36.5t-113 -87.5l-160 74l201 716h723l-32 -186h-555l-116 -378q43 32 108 56t151 24
q117 0 205 -51t136.5 -144.5t48.5 -220.5q0 -119 -39 -215t-112.5 -165t-176 -106.5t-230.5 -37.5z" />
    <glyph glyph-name="six" unicode="6" horiz-adv-x="1134" 
d="M596 -24q-140 0 -234.5 59t-142 158.5t-47.5 221.5q0 130 41.5 263.5t120.5 256.5t192 224.5t256 172t312 95.5l-31 -183q-129 -30 -245.5 -95.5t-208 -160t-147.5 -212.5q48 43 121 72.5t161 29.5q111 0 194.5 -49t129.5 -134t46 -193q0 -160 -69.5 -278t-187 -183
t-261.5 -65zM606 159q88 0 159.5 38.5t113 107.5t41.5 161q0 101 -62 164.5t-167 63.5q-87 0 -158.5 -38.5t-114 -108t-42.5 -161.5q0 -99 60 -163t170 -64z" />
    <glyph glyph-name="seven" unicode="7" horiz-adv-x="979" 
d="M307 0q40 221 112 428.5t188 404t285 385.5h-622l30 182h859l-27 -157q-151 -149 -259.5 -314t-181 -331t-116 -319.5t-63.5 -278.5h-205z" />
    <glyph glyph-name="eight" unicode="8" horiz-adv-x="1159" 
d="M619 -24q-139 0 -236.5 52t-148.5 140t-51 198q0 106 41 191.5t116 144.5t178 84q-34 16 -70.5 48t-62 82.5t-25.5 119.5q0 105 54.5 193t154 141.5t235.5 53.5q119 0 203.5 -45t129.5 -120.5t45 -169.5q0 -83 -33 -149.5t-90 -112t-128 -67.5q58 -22 103.5 -66.5
t71.5 -106t26 -134.5q0 -98 -35.5 -184.5t-102 -152t-161.5 -103t-214 -37.5zM631 156q83 0 150.5 35.5t107.5 101t40 157.5q0 60 -27 112t-81 84t-135 32q-88 0 -156 -38.5t-106.5 -105.5t-38.5 -152q0 -100 65.5 -163t180.5 -63zM750 848q65 0 118.5 27t86 77t32.5 117
q0 75 -51 127t-144 52q-64 0 -117 -28t-85.5 -77.5t-32.5 -114.5q0 -69 49 -124.5t144 -55.5z" />
    <glyph glyph-name="nine" unicode="9" horiz-adv-x="1134" 
d="M309 -24l31 185q93 19 182 59t166.5 101t137.5 141.5t96 177.5q-47 -49 -124.5 -79.5t-171.5 -30.5q-106 0 -191 45.5t-135 130.5t-50 202q0 154 73 270t194.5 181t266.5 65q135 0 227 -56t139 -156.5t47 -233.5q0 -128 -36 -261t-108 -256t-179 -224.5t-248 -170
t-317 -90.5zM671 706q96 0 168.5 42t113.5 112.5t41 156.5q0 95 -56.5 159.5t-168.5 64.5q-88 0 -160.5 -42t-115.5 -112.5t-43 -158.5q0 -99 61 -160.5t160 -61.5z" />
    <glyph glyph-name="colon" unicode=":" horiz-adv-x="455" 
d="M351 682q-53 0 -85.5 36.5t-32.5 85.5q0 68 48.5 116.5t111.5 48.5q56 0 88.5 -36t32.5 -86q0 -67 -47 -116t-116 -49zM228 -27q-55 0 -86.5 37t-31.5 85q0 68 47.5 117t110.5 49q58 0 90.5 -36.5t32.5 -84.5q0 -67 -48 -117t-115 -50z" />
    <glyph glyph-name="semicolon" unicode=";" horiz-adv-x="455" 
d="M126 -282l-59 42q20 16 48 48.5t53.5 75t38.5 89.5q-43 7 -71 38.5t-28 77.5q0 76 49 122.5t109 46.5q55 0 92 -35.5t37 -104.5q0 -83 -37.5 -158.5t-98.5 -137.5t-133 -104zM351 682q-53 0 -85.5 36.5t-32.5 85.5q0 68 48.5 116.5t111.5 48.5q56 0 88.5 -36t32.5 -86
q0 -67 -47 -116t-116 -49z" />
    <glyph glyph-name="less" unicode="&#x3c;" horiz-adv-x="1250" 
d="M1212 221l-919 380v168l919 382v-195l-670 -270l670 -270v-195z" />
    <glyph glyph-name="equal" unicode="=" horiz-adv-x="1250" 
d="M282 779v188h918v-188h-918zM282 404v188h918v-188h-918z" />
    <glyph glyph-name="greater" unicode="&#x3e;" horiz-adv-x="1250" 
d="M277 221v194l669 271l-669 270v195l919 -382v-168z" />
    <glyph glyph-name="question" unicode="?" horiz-adv-x="1002" 
d="M454 380l8 42q20 104 63 175.5t98.5 121.5t108.5 90q48 37 88.5 73t64.5 81.5t24 108.5q0 69 -46.5 118.5t-141.5 49.5q-79 0 -142.5 -33t-105.5 -96t-58 -152h-187q25 144 100.5 248.5t185 160.5t238.5 56q115 0 194 -43t119.5 -116.5t40.5 -163.5q0 -103 -33 -172.5
t-86.5 -119.5t-114.5 -96q-50 -38 -96 -78t-79 -91t-47 -122l-7 -42h-189zM481 -27q-54 0 -87 37t-33 85q0 68 48.5 117t112.5 49q55 0 88 -36.5t33 -84.5q0 -67 -47.5 -117t-114.5 -50z" />
    <glyph glyph-name="at" unicode="@" horiz-adv-x="1576" 
d="M803 -24q-181 0 -313.5 70.5t-205 200.5t-72.5 308q0 181 66.5 338.5t184 277.5t272.5 188t331 68q174 0 299 -66.5t191.5 -181t66.5 -257.5q0 -127 -37 -236.5t-100.5 -192t-144.5 -128.5t-169 -46q-68 0 -110 34.5t-44 96.5q-48 -67 -114 -104t-130 -37
q-103 0 -165.5 76t-62.5 200q0 95 33.5 181.5t92.5 153.5t137 106t167 39q74 0 119 -39t52 -106l41 119h154l-143 -415q-5 -13 -12 -34.5t-13 -43.5t-6 -34q0 -23 12.5 -37.5t38.5 -14.5q47 0 91.5 35.5t81.5 98t58.5 143t21.5 168.5q0 109 -50 191t-144 127t-225 45
q-150 0 -274.5 -54t-214.5 -149.5t-138.5 -221.5t-48.5 -270q0 -124 50 -224t149.5 -158.5t247.5 -58.5q67 0 140.5 10t136.5 26l-70 -166q-45 -12 -103.5 -19t-124.5 -7zM827 464q68 0 124 45t89.5 115t33.5 144q0 64 -28.5 103t-83.5 39q-71 0 -127 -44t-88.5 -113.5
t-32.5 -146.5q0 -63 30 -102.5t83 -39.5z" />
    <glyph glyph-name="A" unicode="A" horiz-adv-x="1317" 
d="M80 0l733 1400h181l244 -1400h-200l-55 330h-522l-171 -330h-210zM552 508h402l-80 484q-2 15 -6 38.5t-7.5 46.5t-4.5 35q-5 -12 -14.5 -34t-20.5 -45t-20 -38z" />
    <glyph glyph-name="B" unicode="B" horiz-adv-x="1269" 
d="M170 0l246 1400h508q133 0 214.5 -45t119 -117.5t37.5 -157.5q0 -100 -39.5 -172t-99.5 -116.5t-121 -64.5q98 -28 152.5 -109t54.5 -187q0 -83 -28 -160t-89 -138.5t-158.5 -97t-236.5 -35.5h-560zM400 183h336q118 0 183.5 39.5t92 97.5t26.5 115q0 56 -22.5 101.5
t-77 72.5t-148.5 27h-309zM512 816h281q101 0 169.5 30t102 82t33.5 120q0 44 -17 82.5t-60 62.5t-119 24h-319z" />
    <glyph glyph-name="C" unicode="C" horiz-adv-x="1230" 
d="M704 -24q-124 0 -214 48.5t-148.5 131t-87 187.5t-28.5 217q0 167 47 321.5t136.5 277t218 194t290.5 71.5q118 0 200.5 -40.5t134 -101.5t76.5 -124l-172 -82q-38 71 -97.5 116t-156.5 45q-116 0 -205 -59.5t-148 -157t-89.5 -213.5t-30.5 -231q0 -103 29.5 -197
t93 -153.5t166.5 -59.5q73 0 130.5 24.5t101 64.5t77.5 88l168 -77q-53 -86 -124 -151t-162 -102t-206 -37z" />
    <glyph glyph-name="D" unicode="D" horiz-adv-x="1329" 
d="M170 0l246 1400h390q144 0 246.5 -51.5t166.5 -138.5t94 -195.5t30 -222.5q0 -105 -24.5 -215.5t-78 -213.5t-140.5 -185t-213 -130t-295 -48h-422zM399 184h209q145 0 245.5 56t162.5 146t90 196t28 205q0 112 -35 210t-110.5 158.5t-195.5 60.5h-213z" />
    <glyph glyph-name="E" unicode="E" horiz-adv-x="1152" 
d="M170 0l246 1400h835l-31 -184h-636l-70 -400h402l-34 -184h-400l-79 -448h678l-33 -184h-878z" />
    <glyph glyph-name="F" unicode="F" horiz-adv-x="1081" 
d="M170 0l246 1400h840l-31 -184h-641l-70 -396h418l-34 -191h-416l-112 -629h-200z" />
    <glyph glyph-name="G" unicode="G" horiz-adv-x="1308" 
d="M714 -24q-130 0 -222.5 48t-151 130.5t-86 187.5t-27.5 218q0 164 43.5 318t131 277.5t216.5 196t300 72.5q123 0 206.5 -41t135 -101.5t77.5 -118.5l-176 -95q-34 69 -97 119.5t-171 50.5q-92 0 -166 -38.5t-131 -105t-95 -152t-57.5 -181t-19.5 -190.5
q0 -109 30.5 -201.5t96.5 -149.5t173 -57q130 0 218 80.5t114 211.5l11 57h-245l33 176h454l-23 -129q-28 -158 -82 -269t-129.5 -180.5t-167 -101.5t-193.5 -32z" />
    <glyph glyph-name="H" unicode="H" horiz-adv-x="1348" 
d="M170 0l246 1400h200l-102 -581h610l102 581h200l-246 -1400h-200l111 630h-609l-110 -630h-202z" />
    <glyph glyph-name="I" unicode="I" horiz-adv-x="538" 
d="M170 0l246 1400h200l-246 -1400h-200z" />
    <glyph glyph-name="J" unicode="J" horiz-adv-x="1045" 
d="M486 -24q-152 0 -253 76.5t-137 195.5l172 75q28 -69 77 -114.5t137 -45.5q70 0 124.5 29t91.5 93.5t56 170.5l166 944h201l-173 -977q-25 -146 -77.5 -234.5t-119 -134.5t-135.5 -62t-130 -16z" />
    <glyph glyph-name="K" unicode="K" horiz-adv-x="1288" 
d="M170 0l246 1400h200l-116 -663l627 663h239l-481 -506l317 -894h-211l-254 738l-291 -306l-76 -432h-200z" />
    <glyph glyph-name="L" unicode="L" horiz-adv-x="1067" 
d="M170 0l246 1400h200l-212 -1211h654l-35 -189h-853z" />
    <glyph glyph-name="M" unicode="M" horiz-adv-x="1540" 
d="M757 -24l-208 876q-5 19 -9.5 42t-7.5 48q-3 -19 -7 -46t-8 -45l-148 -851h-199l246 1400h196l197 -865q7 -31 12.5 -58.5t8.5 -53.5q11 24 25.5 50t28.5 48l538 879h196l-246 -1400h-200l151 854q3 18 9.5 49.5t9.5 44.5q-11 -23 -25 -48t-24 -42z" />
    <glyph glyph-name="N" unicode="N" horiz-adv-x="1356" 
d="M170 0l246 1400h186l416 -952q9 -18 20.5 -47.5t16.5 -48.5q3 19 7 46t7 49l167 953h198l-246 -1400h-186l-403 913q-6 13 -16.5 39t-20.5 51.5t-14 38.5q-1 -12 -4.5 -38t-8 -52t-7.5 -42l-161 -910h-197z" />
    <glyph glyph-name="O" unicode="O" horiz-adv-x="1382" 
d="M723 -24q-135 0 -229.5 48.5t-154 130.5t-86.5 187t-27 218q0 124 27.5 248.5t82.5 235t138 196t192.5 135t246.5 49.5q130 0 223 -48.5t152 -131t87 -186t28 -212.5q0 -127 -28 -252.5t-83.5 -236.5t-137.5 -197t-190 -135t-241 -49zM722 162q96 0 172.5 39t134.5 106.5
t97.5 155t59.5 186t20 197.5q0 96 -30 186t-96 148t-174 58q-97 0 -173.5 -40t-135 -108.5t-97 -155.5t-57.5 -183.5t-19 -190.5q0 -102 29.5 -192.5t95 -148t173.5 -57.5z" />
    <glyph glyph-name="P" unicode="P" horiz-adv-x="1210" 
d="M170 0l246 1400h530q105 0 177.5 -32t117.5 -86t65 -118.5t20 -129.5q0 -90 -30 -175.5t-92 -154.5t-157 -110t-224 -41h-355l-98 -553h-200zM499 732h346q102 0 164 45.5t90.5 111t28.5 128.5q0 46 -17 93t-60 78.5t-121 31.5h-346z" />
    <glyph glyph-name="Q" unicode="Q" horiz-adv-x="1382" 
d="M1013 -147l-78 165q-48 -20 -101 -31t-111 -11q-135 0 -229.5 48.5t-154 130.5t-86.5 187t-27 218q0 124 27.5 248.5t82.5 235t138 196t192.5 135t246.5 49.5q130 0 223 -48.5t152 -131t87 -186t28 -212.5q0 -141 -35.5 -281t-104 -259.5t-170.5 -200.5l80 -170zM719 163
q37 0 70 8t63 22l-74 157l163 82l68 -147q65 66 108.5 157.5t66 195.5t22.5 208q0 96 -30 186t-96 148t-174 58q-97 0 -173.5 -40t-135 -108.5t-97 -155.5t-57.5 -183.5t-19 -190.5q0 -104 30 -194.5t95 -146.5t170 -56z" />
    <glyph glyph-name="R" unicode="R" horiz-adv-x="1284" 
d="M170 0l246 1400h501q116 0 196.5 -32t130.5 -87t72.5 -123t22.5 -138q0 -66 -20 -134t-64.5 -128t-115.5 -103.5t-174 -61.5l185 -593h-212l-178 582h-288l-102 -582h-200zM505 766h349q113 0 175 39.5t86.5 97t24.5 111.5q0 51 -23 97t-74.5 75.5t-138.5 29.5h-321z" />
    <glyph glyph-name="S" unicode="S" horiz-adv-x="1152" 
d="M602 -24q-119 0 -207.5 43.5t-146.5 118.5t-83 168l182 68q35 -99 102 -155t176 -56q83 0 145.5 27t96.5 79.5t34 129.5q0 68 -35.5 114t-93 80t-122.5 66q-59 28 -117 59.5t-106 75t-76.5 103.5t-28.5 145q0 109 55.5 195.5t157.5 136.5t241 50q117 0 198 -38.5t129 -99
t66 -126.5l-179 -65q-22 61 -76 104.5t-151 43.5q-114 0 -177 -54t-63 -134q0 -54 31.5 -91t83.5 -66t113 -57q62 -29 124.5 -63t115.5 -81t85 -115t32 -166q0 -139 -65.5 -237t-179.5 -150.5t-261 -52.5z" />
    <glyph glyph-name="T" unicode="T" horiz-adv-x="1125" 
d="M463 0l214 1214h-371l31 186h943l-31 -186h-372l-214 -1214h-200z" />
    <glyph glyph-name="U" unicode="U" horiz-adv-x="1329" 
d="M694 -24q-177 0 -283.5 74.5t-143 210t-3.5 321.5l145 818h199l-149 -850q-21 -121 -3.5 -208t79 -133.5t170.5 -46.5q82 0 154.5 31t126.5 110t80 224l153 873h198l-154 -884q-27 -152 -78 -255.5t-123.5 -166.5t-165.5 -90.5t-202 -27.5z" />
    <glyph glyph-name="V" unicode="V" horiz-adv-x="1263" 
d="M548 0l-221 1400h206l140 -967q3 -20 5.5 -46.5t4 -50t1.5 -34.5q7 20 20.5 54t29.5 66l481 978h217l-704 -1400h-180z" />
    <glyph glyph-name="W" unicode="W" horiz-adv-x="1603" 
d="M345 0l-18 1400h197v-905v-49.5v-50.5q9 24 19 48t21 51l392 906h163l77 -914q2 -18 3.5 -46.5t1.5 -47.5q6 20 14.5 45t16.5 46l331 917h210l-524 -1400h-181l-85 908q-1 15 -2.5 33t-2.5 37.5t-1 38.5q-5 -16 -15.5 -43t-23.5 -54l-414 -920h-179z" />
    <glyph glyph-name="X" unicode="X" horiz-adv-x="1186" 
d="M72 0l541 738l-262 662h212l183 -483l349 483h234l-503 -682l284 -718h-210l-207 537l-387 -537h-234z" />
    <glyph glyph-name="Y" unicode="Y" horiz-adv-x="1243" 
d="M520 0l100 563l-314 837h207l230 -652l466 652h219l-614 -848l-96 -552h-198z" />
    <glyph glyph-name="Z" unicode="Z" horiz-adv-x="1224" 
d="M111 0l26 148l923 1070h-692l31 182h953l-26 -149l-921 -1067h733l-32 -184h-995z" />
    <glyph glyph-name="bracketleft" unicode="[" horiz-adv-x="746" 
d="M164 -260l298 1684h439l-32 -181h-250l-234 -1322h250l-32 -181h-439z" />
    <glyph glyph-name="backslash" unicode="\" horiz-adv-x="973" 
d="M701 -260l-456 1684h185l456 -1684h-185z" />
    <glyph glyph-name="bracketright" unicode="]" horiz-adv-x="746" 
d="M52 -260l32 181h250l232 1322h-250l34 181h438l-298 -1684h-438z" />
    <glyph glyph-name="asciicircum" unicode="^" horiz-adv-x="1250" 
d="M288 705l447 719h165l313 -719h-191l-222 472l-320 -472h-192z" />
    <glyph glyph-name="underscore" unicode="_" horiz-adv-x="984" 
d="M-80 -356l30 177h1036l-29 -177h-1037z" />
    <glyph glyph-name="grave" unicode="`" horiz-adv-x="773" 
d="M628 1152l-292 312h258l218 -312h-184z" />
    <glyph glyph-name="a" unicode="a" horiz-adv-x="1038" 
d="M447 -24q-139 0 -221.5 81t-82.5 215q0 115 54.5 201t151.5 133.5t227 47.5q68 0 132 -17t111 -49l16 84q19 98 -21.5 151.5t-131.5 53.5q-72 0 -159 -28.5t-165 -78.5l-26 160q93 58 188 87t186 29q114 0 191.5 -46.5t110.5 -130.5t13 -197l-118 -672h-187l14 83
q-51 -50 -127 -78.5t-156 -28.5zM493 146q68 0 140.5 32t130.5 88l26 158q-46 31 -101.5 49t-111.5 18q-76 0 -131.5 -24.5t-85.5 -69.5t-30 -105q0 -68 44.5 -107t118.5 -39z" />
    <glyph glyph-name="b" unicode="b" horiz-adv-x="1083" 
d="M602 -24q-74 0 -140 32t-103 83l-16 -91h-188l241 1373l205 71l-88 -500q51 49 116.5 75.5t134.5 26.5q98 0 173.5 -52.5t117.5 -147t42 -219.5q0 -193 -62.5 -339.5t-174 -229t-258.5 -82.5zM587 159q95 0 166 56.5t110.5 158t39.5 237.5q0 119 -52.5 186.5t-146.5 67.5
q-61 0 -124 -33t-102 -86l-84 -469q30 -55 80.5 -86.5t112.5 -31.5z" />
    <glyph glyph-name="c" unicode="c" horiz-adv-x="976" 
d="M534 -24q-165 0 -263.5 117.5t-98.5 314.5q0 189 65 333t180 224.5t267 80.5q127 0 217.5 -67.5t118.5 -185.5l-186 -64q-15 66 -59.5 101t-112.5 35q-86 0 -152.5 -57t-104 -158t-37.5 -232q0 -123 47 -191t132 -68q75 0 132 39t92 113l166 -61q-55 -130 -160.5 -202
t-242.5 -72z" />
    <glyph glyph-name="d" unicode="d" horiz-adv-x="1081" 
d="M504 -24q-152 0 -242 117.5t-90 315.5q0 187 65 331t180.5 225t266.5 81q71 0 130 -25.5t95 -73.5l75 426l206 71l-254 -1444h-190l15 89q-47 -55 -112.5 -84t-144.5 -29zM561 159q65 0 128 34t104 89l82 463q-26 57 -75 88.5t-113 31.5q-96 0 -168 -54.5t-111.5 -154.5
t-39.5 -234q0 -123 51.5 -193t141.5 -70z" />
    <glyph glyph-name="e" unicode="e" horiz-adv-x="1041" 
d="M559 -24q-119 0 -206 54t-135 151t-48 227t38 245t108 203.5t168 139t218 50.5q112 0 194 -44.5t127 -132t45 -215.5q0 -62 -11 -115.5t-27 -103.5h-663q0 -88 23.5 -152t71 -98.5t121.5 -34.5q57 0 118 23.5t114 69.5l94 -133q-70 -61 -156.5 -97.5t-193.5 -36.5z
M395 602h479q12 80 -5 141t-62.5 96t-119.5 35q-80 0 -139 -37t-97 -98.5t-56 -136.5z" />
    <glyph glyph-name="f" unicode="f" horiz-adv-x="648" 
d="M198 0l150 850h-153l30 172h153l30 172q21 113 89 173t177 60q45 0 90 -12.5t91 -38.5l-29 -162q-39 19 -70.5 27.5t-63.5 8.5q-40 0 -64 -23.5t-34 -74.5l-24 -130h218l-30 -172h-217l-151 -850h-192z" />
    <glyph glyph-name="g" unicode="g" horiz-adv-x="1084" 
d="M386 -426l-64 160q143 8 230 40t130 84.5t55 119.5l18 109q-37 -43 -99 -77t-152 -34q-104 0 -178.5 54t-115 148.5t-40.5 217.5q0 193 65.5 339.5t179 228.5t257.5 82q67 0 129 -27t104 -83l16 86h194l-183 -1017q-29 -168 -104.5 -258t-188 -127t-253.5 -46zM561 159
q74 0 134 38t96 92l80 453q-17 45 -68 84t-127 39q-100 0 -169.5 -61.5t-105.5 -162.5t-36 -221q0 -116 52 -188.5t144 -72.5z" />
    <glyph glyph-name="h" unicode="h" horiz-adv-x="1094" 
d="M155 0l241 1373l205 71l-94 -532q53 65 122.5 99.5t144.5 34.5q118 0 188.5 -52t93 -156t-5.5 -260l-102 -578h-190l106 598q24 134 -14.5 201.5t-136.5 67.5t-168.5 -70t-91.5 -187l-107 -610h-191z" />
    <glyph glyph-name="i" unicode="i" horiz-adv-x="500" 
d="M155 0l180 1022h192l-180 -1022h-192zM461 1193q-41 0 -69.5 29t-28.5 70q0 55 40 96.5t93 41.5q44 0 72 -28t28 -71q0 -56 -41 -97t-94 -41z" />
    <glyph glyph-name="j" unicode="j" horiz-adv-x="509" 
d="M-74 -438l-63 162q147 19 206.5 69.5t76.5 148.5l190 1080h194l-190 -1076q-22 -126 -71 -203.5t-132 -119t-211 -61.5zM464 1192q-44 0 -72 29.5t-28 70.5q0 37 19.5 68.5t49.5 50.5t63 19q46 0 74 -28.5t28 -70.5q0 -38 -19 -69.5t-50 -50.5t-65 -19z" />
    <glyph glyph-name="k" unicode="k" horiz-adv-x="1022" 
d="M155 0l241 1373l205 71l-133 -754l363 332h241l-334 -298l237 -724h-208l-181 588l-162 -148l-78 -440h-191z" />
    <glyph glyph-name="l" unicode="l" horiz-adv-x="517" 
d="M159 0l243 1373l204 71l-254 -1444h-193z" />
    <glyph glyph-name="m" unicode="m" horiz-adv-x="1645" 
d="M154 0l180 1022h188l-16 -97q54 57 124.5 89t146.5 32q80 0 142 -40t90 -113q65 77 145.5 115t175.5 38q104 0 175 -49t101.5 -135.5t9.5 -198.5l-118 -663h-195l109 623q21 115 -16 179t-124 64q-85 0 -152 -66t-86 -175l-110 -625h-196l110 623q20 117 -16.5 180
t-125.5 63q-85 0 -152.5 -65.5t-86.5 -175.5l-111 -625h-192z" />
    <glyph glyph-name="n" unicode="n" horiz-adv-x="1096" 
d="M154 0l180 1022h193l-19 -108q52 64 121.5 98t146.5 34q113 0 183.5 -54.5t95 -157.5t-0.5 -248l-104 -586h-193l106 602q22 128 -15 196.5t-133 68.5q-97 0 -170 -71.5t-93 -189.5l-106 -606h-192z" />
    <glyph glyph-name="o" unicode="o" horiz-adv-x="1064" 
d="M552 -24q-180 0 -281 113.5t-101 316.5q0 185 68 329.5t187.5 227.5t272.5 83q172 0 273.5 -115t101.5 -309q0 -187 -67.5 -333t-185.5 -229.5t-268 -83.5zM560 159q92 0 164.5 58.5t114 159t41.5 228.5q0 122 -53 191t-147 69q-90 0 -162.5 -58t-114 -159t-41.5 -228
q0 -123 52.5 -192t145.5 -69z" />
    <glyph glyph-name="p" unicode="p" horiz-adv-x="1092" 
d="M82 -406l252 1428h193l-16 -88q108 112 265 112q97 0 170.5 -53t114 -148.5t40.5 -223.5q0 -185 -63.5 -331t-174.5 -230t-251 -84q-79 0 -142.5 29.5t-107.5 87.5l-74 -426zM602 159q91 0 159.5 55.5t107 155t38.5 230.5q0 127 -50.5 196t-142.5 69q-70 0 -134.5 -35
t-104.5 -94l-80 -454q33 -61 86 -92t121 -31z" />
    <glyph glyph-name="q" unicode="q" horiz-adv-x="1086" 
d="M672 -400l87 490q-59 -57 -123 -85.5t-140 -28.5q-99 0 -172 50.5t-114 144t-41 221.5q0 187 64 335t177.5 233.5t262.5 85.5q79 0 141 -30t95 -83l15 89h191l-236 -1351zM558 159q60 0 121.5 32.5t113.5 93.5l79 455q-19 58 -69 91.5t-117 33.5q-91 0 -163.5 -60
t-115 -163t-42.5 -232q0 -122 50.5 -186.5t142.5 -64.5z" />
    <glyph glyph-name="r" unicode="r" horiz-adv-x="776" 
d="M154 0l180 1022h193l-23 -122q48 68 116.5 107.5t138.5 39.5q88 0 145 -58l-58 -183q-31 25 -66 37.5t-72 12.5q-62 0 -115.5 -35.5t-91.5 -98.5t-53 -148l-101 -574h-193z" />
    <glyph glyph-name="s" unicode="s" horiz-adv-x="909" 
d="M481 -24q-78 0 -147 22t-124 63t-88 97l142 112q42 -60 103.5 -93.5t126.5 -33.5q83 0 134 38t51 100q0 45 -38.5 82t-141.5 83q-145 66 -205 136.5t-60 163.5q0 90 46.5 157t129.5 105t192 38t197.5 -42.5t135.5 -117.5l-140 -104q-80 100 -207 100q-73 0 -120.5 -34.5
t-47.5 -87.5q0 -41 34.5 -73.5t130.5 -74.5q155 -67 220 -143.5t65 -179.5q0 -143 -106 -228t-283 -85z" />
    <glyph glyph-name="t" unicode="t" horiz-adv-x="716" 
d="M427 -24q-110 0 -157 72.5t-23 209.5l103 592h-164l31 172h163l62 351l204 71l-74 -422h234l-30 -172h-233l-100 -558q-14 -81 0.5 -111.5t69.5 -30.5q36 0 71.5 11t83.5 37l-45 -179q-81 -43 -196 -43z" />
    <glyph glyph-name="u" unicode="u" horiz-adv-x="1095" 
d="M494 -24q-111 0 -182 52.5t-96.5 152t-1.5 238.5l106 603h193l-106 -597q-24 -133 14.5 -200.5t134.5 -67.5q107 0 175.5 64.5t89.5 185.5l107 615h193l-180 -1022h-193l17 98q-51 -62 -117.5 -92t-153.5 -30z" />
    <glyph glyph-name="v" unicode="v" horiz-adv-x="1007" 
d="M420 0l-181 1022h190l106 -654q5 -26 8.5 -52t5.5 -48q7 17 21.5 46.5t26.5 51.5l336 656h201l-533 -1022h-181z" />
    <glyph glyph-name="w" unicode="w" horiz-adv-x="1386" 
d="M329 0l-88 1022h185l35 -647q2 -25 2 -55.5v-49.5q9 21 21.5 51.5t21.5 51.5l282 649h163l62 -649q3 -30 4.5 -56t2.5 -47q8 23 17.5 49t20.5 54l256 649h190l-424 -1022h-179l-70 606q-3 24 -5 57.5t-4 54.5q-8 -21 -23 -57.5t-25 -58.5l-270 -602h-175z" />
    <glyph glyph-name="x" unicode="x" horiz-adv-x="1034" 
d="M68 0l433 532l-230 490h209l118 -255q8 -16 17 -36t18 -43q15 21 30 40.5t30 37.5l209 256h218l-406 -498l247 -524h-209l-135 289q-7 17 -17 38.5t-18 40.5l-30 -40t-31 -39l-235 -289h-218z" />
    <glyph glyph-name="y" unicode="y" horiz-adv-x="1041" 
d="M206 -388l220 416l-187 994h194l115 -674q3 -18 7 -41.5t7 -40.5q7 16 18.5 39.5t21.5 42.5l359 674h207l-756 -1410h-206z" />
    <glyph glyph-name="z" unicode="z" horiz-adv-x="982" 
d="M115 0l26 140l612 709h-450l29 173h708l-22 -135l-617 -713h488l-31 -174h-743z" />
    <glyph glyph-name="braceleft" unicode="{" horiz-adv-x="736" 
d="M604 -260q-143 12 -233.5 95t-90.5 255q0 30 3 62t9 66l18 102q3 13 3.5 27t0.5 26q0 57 -23 91t-66 34h-30l30 170h31q53 0 92.5 49.5t53.5 130.5l31 178q33 188 156.5 293t312.5 105l-32 -172q-105 -4 -169.5 -71t-85.5 -185l-26 -153q-18 -105 -54 -161t-86.5 -77.5
t-112.5 -22.5l-2 -7q45 -4 82.5 -23.5t61 -61t23.5 -113.5q0 -20 -3 -44.5t-8 -50.5l-21 -119q-3 -20 -5.5 -37.5t-2.5 -35.5q0 -82 43 -129.5t130 -50.5z" />
    <glyph glyph-name="bar" unicode="|" horiz-adv-x="553" 
d="M301 -756v2880h199v-2880h-199z" />
    <glyph glyph-name="braceright" unicode="}" horiz-adv-x="736" 
d="M41 -260l31 173q106 5 169 71.5t84 186.5l24 137q18 98 51.5 159t85 89.5t124.5 28.5l2 8q-77 15 -123 62t-46 139q0 20 3 44.5t7 50.5l17 98q5 25 7.5 47t2.5 40q0 172 -173 181l32 169q153 -6 238.5 -89t85.5 -254q0 -31 -3 -66.5t-10 -73.5l-16 -86q-4 -20 -6 -40
t-2 -46q0 -47 23 -75t67 -28h30l-31 -168h-26q-56 0 -95 -49t-53 -129l-34 -185q-34 -190 -149.5 -292.5t-316.5 -102.5z" />
    <glyph glyph-name="asciitilde" unicode="~" horiz-adv-x="1250" 
d="M286 532q7 82 37.5 151.5t90 112.5t150.5 43q66 0 120 -21t102 -46q41 -21 80.5 -36.5t77.5 -15.5q55 0 89 33t44 86h130q-7 -81 -38 -151t-89.5 -113t-149.5 -43q-65 0 -119.5 22t-104.5 46q-40 20 -78.5 35.5t-77.5 15.5q-54 0 -88.5 -33t-45.5 -86h-130z" />
    <glyph glyph-name="uni00A0" unicode="&#xa0;" horiz-adv-x="465" 
 />
    <glyph glyph-name="exclamdown" unicode="&#xa1;" horiz-adv-x="553" 
d="M111 -400l77 439l160 596h76l-50 -596l-75 -439h-188zM415 761q-56 0 -88.5 36t-32.5 84q0 68 48 117t114 49q54 0 87 -36.5t33 -84.5q0 -67 -48 -116t-113 -49z" />
    <glyph glyph-name="cent" unicode="&#xa2;" horiz-adv-x="1021" 
d="M423 -24l37 205q-114 36 -174.5 144t-60.5 262q0 166 51 298t145 219.5t222 116.5l36 203h183l-38 -198q100 -19 165 -80.5t85 -165.5l-190 -66q-12 59 -50.5 95.5t-107.5 36.5q-97 0 -165.5 -58t-104 -157.5t-35.5 -224.5q0 -111 46 -182.5t138 -71.5q64 0 121 37
t89 115l171 -60q-50 -121 -138.5 -191.5t-207.5 -83.5l-34 -193h-183z" />
    <glyph glyph-name="sterling" unicode="&#xa3;" horiz-adv-x="1164" 
d="M173 0l35 198q61 28 106.5 82t75.5 120.5t43 127.5q3 16 5 26t2 18h-175l31 171h136q-2 10 -5.5 25t-6.5 28q-9 34 -17 72t-8 85q0 123 56.5 230.5t172.5 174t294 66.5q125 0 218.5 -39t159.5 -99l-102 -178q-23 23 -63.5 54t-100.5 54t-142 23q-103 0 -168 -38.5
t-95.5 -100t-30.5 -130.5q0 -39 8 -76.5t18 -71.5q5 -20 9.5 -40.5t6.5 -38.5h321l-31 -171h-285q-2 -10 -4 -21.5t-5 -27.5q-17 -88 -76 -175.5t-140 -160.5h703l-32 -187h-914z" />
    <glyph glyph-name="currency" unicode="&#xa4;" horiz-adv-x="1241" 
d="M249 113l-113 146l159 141q-11 32 -18 79t-7 84q0 106 29.5 196t90.5 175l-110 141l158 142l107 -134q61 36 131 57.5t148 21.5q75 0 139.5 -20.5t109.5 -58.5l151 134l115 -148l-156 -137q12 -33 16.5 -80t4.5 -86q0 -100 -28 -192.5t-92 -179.5l112 -141l-159 -140
l-109 138q-61 -39 -131 -59t-147 -20t-139.5 19t-110.5 58zM684 360q93 0 167 48t117 131t43 187q0 106 -57.5 177t-161.5 71q-91 0 -165.5 -48.5t-118.5 -132t-44 -187.5q0 -105 59 -175.5t161 -70.5z" />
    <glyph glyph-name="yen" unicode="&#xa5;" horiz-adv-x="1123" 
d="M468 0l38 210h-290l26 155h290l22 130h-288l27 155h277l-275 750h208l198 -580l408 580h211l-539 -750h265l-27 -155h-277l-22 -130h276l-26 -155h-276l-38 -210h-188z" />
    <glyph glyph-name="brokenbar" unicode="&#xa6;" horiz-adv-x="553" 
d="M308 732v918h200v-918h-200zM308 -450v918h200v-918h-200z" />
    <glyph glyph-name="section" unicode="&#xa7;" horiz-adv-x="1039" 
d="M502 -240q-144 0 -247.5 58t-148.5 141l161 114q16 -25 48 -54t81.5 -50.5t119.5 -21.5q66 0 118.5 15.5t82.5 51t30 96.5q0 65 -67.5 109.5t-173.5 93.5q-77 35 -136 71t-93 84.5t-34 119.5q0 95 53.5 162t127.5 100q-46 35 -71 92.5t-25 123.5q0 113 59 193
t155.5 122.5t210.5 42.5q139 0 226.5 -52t126.5 -117l-162 -115q-23 32 -71 63t-140 31q-93 0 -148.5 -36.5t-55.5 -102.5q0 -40 32 -71.5t87.5 -59.5t124.5 -58q67 -28 125.5 -62.5t94.5 -87t36 -133.5q0 -90 -36 -157.5t-119 -112.5q38 -37 58.5 -89t20.5 -119
q0 -113 -54 -200t-155 -136t-242 -49zM734 444q43 17 69.5 49.5t26.5 77.5q0 43 -32 74.5t-87 58t-125 53.5q-63 -11 -100.5 -44t-37.5 -80q0 -38 32.5 -67.5t96 -58t157.5 -63.5z" />
    <glyph glyph-name="dieresis" unicode="&#xa8;" horiz-adv-x="773" 
d="M835 1198q-44 0 -71.5 29t-27.5 69q0 58 42 97.5t92 39.5q44 0 71 -28.5t27 -70.5q0 -37 -19 -68t-50 -49.5t-64 -18.5zM494 1198q-44 0 -71 29t-27 69q0 38 19.5 69t50 49.5t63.5 18.5q46 0 72 -28.5t26 -70.5q0 -56 -40.5 -96t-92.5 -40z" />
    <glyph glyph-name="copyright" unicode="&#xa9;" horiz-adv-x="1660" 
d="M946 -24q-154 0 -285.5 55t-230 153.5t-153.5 230t-55 285.5t55 285.5t153.5 230t230 153.5t285.5 55t285.5 -55t230 -153.5t153.5 -230t55 -285.5t-55 -285.5t-153.5 -230t-230 -153.5t-285.5 -55zM956 272q-123 0 -203.5 56t-120.5 154t-40 224q0 90 23 168.5t69 139
t116.5 94.5t164.5 34q111 0 185.5 -55.5t113.5 -150.5l-148 -66q-22 50 -60.5 83t-101.5 33q-75 0 -118 -37.5t-61 -101t-18 -141.5q0 -84 19.5 -147.5t63.5 -98.5t117 -35q58 0 104 30.5t64 98.5l143 -55q-38 -110 -118.5 -168.5t-193.5 -58.5zM946 110q126 0 231.5 44.5
t183.5 124.5t121 188t43 233q0 126 -43 233.5t-121 187t-183.5 124t-231.5 44.5q-168 0 -299.5 -77t-207.5 -210.5t-76 -301.5q0 -167 76 -301t207.5 -211.5t299.5 -77.5z" />
    <glyph glyph-name="ordfeminine" unicode="&#xaa;" horiz-adv-x="877" 
d="M481 546q-101 0 -174 63t-73 178q0 111 54 182t136 105t164 34q53 0 105.5 -12.5t86.5 -29.5l6 32q4 23 4.5 36t0.5 27q0 59 -36 85.5t-107 26.5q-67 0 -129.5 -22t-111.5 -56l-21 143q56 37 136 61.5t173 24.5q59 0 120 -20.5t102 -71t41 -139.5q0 -19 -3 -43.5
t-10 -59.5l-91 -524h-164l12 62q-35 -31 -93 -56.5t-128 -25.5zM522 694q59 0 114 26.5t92 56.5l25 141q-31 19 -77.5 31.5t-90.5 12.5q-46 0 -89 -16t-71 -50.5t-28 -88.5q0 -50 33 -81.5t92 -31.5z" />
    <glyph glyph-name="guillemotleft" unicode="&#xab;" horiz-adv-x="1029" 
d="M775 0l-202 512l382 510h205l-385 -519l201 -503h-201zM371 0l-202 512l382 510h202l-384 -519l200 -503h-198z" />
    <glyph glyph-name="logicalnot" unicode="&#xac;" horiz-adv-x="1250" 
d="M1002 338v417h-722v186h919v-603h-197z" />
    <glyph glyph-name="uni00AD" unicode="&#xad;" horiz-adv-x="791" 
d="M253 500l33 188h462l-32 -188h-463z" />
    <glyph glyph-name="registered" unicode="&#xae;" horiz-adv-x="1660" 
d="M945 -24q-154 0 -285.5 55t-230 153.5t-153.5 230t-55 285.5t55 285.5t153.5 230t230 153.5t285.5 55t285.5 -55t230 -153.5t153.5 -230t55 -285.5t-55 -285.5t-153.5 -230t-230 -153.5t-285.5 -55zM945 111q126 0 231 44.5t183.5 124.5t121 187.5t42.5 232.5
q0 126 -42.5 233t-121 187t-183.5 124.5t-231 44.5q-168 0 -299 -77.5t-206 -211t-75 -300.5t75 -300.5t206 -211t299 -77.5zM649 276v846h369q98 0 155 -38t81.5 -96t24.5 -117q0 -79 -47 -151t-143 -96l197 -348h-171l-179 337h-136v-337h-151zM800 751h218q56 0 81 35.5
t25 82.5q0 25 -10 50.5t-33 42.5t-63 17h-218v-228z" />
    <glyph glyph-name="macron" unicode="&#xaf;" horiz-adv-x="773" 
d="M354 1197l29 164h634l-29 -164h-634z" />
    <glyph glyph-name="degree" unicode="&#xb0;" horiz-adv-x="806" 
d="M586 890q-141 0 -224.5 90.5t-83.5 224.5q0 113 54 200t142 137t190 50q94 0 162.5 -40.5t106 -112t37.5 -161.5q0 -111 -53.5 -199t-141.5 -138.5t-189 -50.5zM600 1074q49 0 90.5 25.5t66.5 70t25 99.5q0 62 -35.5 101.5t-95.5 39.5q-48 0 -90.5 -24.5t-68.5 -68.5
t-26 -100q0 -60 37 -101.5t97 -41.5z" />
    <glyph glyph-name="plusminus" unicode="&#xb1;" horiz-adv-x="1250" 
d="M645 399v315h-360v187h360v315h197v-315h362v-187h-362v-315h-197zM285 0v188h919v-188h-919z" />
    <glyph glyph-name="uni00B2" unicode="&#xb2;" horiz-adv-x="716" 
d="M224 888q20 112 64.5 188.5t117.5 137t181 124.5q64 39 102.5 76.5t38.5 95.5q0 32 -22.5 61t-75.5 29q-55 0 -94 -30.5t-64 -90.5l-134 45q43 97 122.5 159.5t194.5 62.5q77 0 130.5 -30t82 -81t28.5 -112q0 -70 -25 -122t-82 -100t-153 -105q-69 -39 -115.5 -76
t-73.5 -82h362l-27 -150h-558z" />
    <glyph glyph-name="uni00B3" unicode="&#xb3;" horiz-adv-x="716" 
d="M502 868q-110 0 -175 61.5t-82 162.5l154 49q11 -63 44 -96t86 -33q66 0 104 40t38 100q0 38 -23.5 68.5t-75.5 30.5h-69l23 138h54q68 0 97.5 41t29.5 86q0 34 -21.5 60.5t-65.5 26.5q-46 0 -83.5 -28.5t-63.5 -74.5l-126 50q49 87 132.5 141.5t179.5 54.5
q101 0 157.5 -55t56.5 -138q0 -74 -41.5 -134t-101.5 -87q49 -18 77 -61t28 -102q0 -88 -42.5 -156t-117.5 -106.5t-173 -38.5z" />
    <glyph glyph-name="acute" unicode="&#xb4;" horiz-adv-x="773" 
d="M527 1152l247 312h236l-321 -312h-162z" />
    <glyph glyph-name="uni00B5" unicode="&#xb5;" horiz-adv-x="1104" 
d="M82 -406l252 1428h191l-106 -596q-21 -122 9 -195.5t142 -73.5q57 0 110.5 25t94 81t57.5 149l108 610h190l-180 -1022h-190l19 108q-49 -68 -115 -100t-133 -32q-52 0 -100.5 24t-71.5 74l-72 -407z" />
    <glyph glyph-name="paragraph" unicode="&#xb6;" horiz-adv-x="1237" 
d="M448 -400l167 952q-141 4 -227.5 58t-126 136t-39.5 171q0 78 27 162.5t87 157.5t159 118t244 45h573l-273 -1556l-204 -90l256 1456h-171l-268 -1521z" />
    <glyph glyph-name="periodcentered" unicode="&#xb7;" horiz-adv-x="455" 
d="M328 555q-53 0 -84.5 36.5t-31.5 84.5q0 68 47.5 117t110.5 49q58 0 90 -36t32 -86q0 -67 -47.5 -116t-116.5 -49z" />
    <glyph glyph-name="cedilla" unicode="&#xb8;" horiz-adv-x="773" 
d="M192 -478q-70 0 -113 25t-67 57l107 68q9 -12 26 -22.5t47 -10.5q47 0 79 27.5t32 71.5q0 36 -24.5 57.5t-67.5 21.5q-24 0 -42 -5t-34 -15l-32 49l166 174h105l-96 -122q99 0 141 -44.5t42 -103.5q0 -100 -74.5 -164t-194.5 -64z" />
    <glyph glyph-name="uni00B9" unicode="&#xb9;" horiz-adv-x="412" 
d="M302 888l113 636h-94l21 122q58 0 92 23.5t55 62.5h120l-148 -844h-159z" />
    <glyph glyph-name="ordmasculine" unicode="&#xba;" horiz-adv-x="904" 
d="M553 545q-140 0 -222 93.5t-82 252.5q0 162 57 282t158.5 185.5t236.5 65.5q140 0 222 -94t82 -254q0 -162 -56.5 -281.5t-158 -184.5t-237.5 -65zM578 709q124 0 190.5 97t66.5 247q0 99 -40.5 153.5t-118.5 54.5q-114 0 -186 -94.5t-72 -246.5q0 -100 42.5 -155.5
t117.5 -55.5z" />
    <glyph glyph-name="guillemotright" unicode="&#xbb;" horiz-adv-x="1029" 
d="M449 0l387 519l-196 503h198l202 -510l-382 -512h-209zM43 0l389 519l-198 503h199l202 -510l-382 -512h-210z" />
    <glyph glyph-name="onequarter" unicode="&#xbc;" horiz-adv-x="1369" 
d="M245 566l113 636h-94l21 122q58 0 92 23.5t55 62.5h120l-148 -844h-159zM35 -24l1175 1448h184l-1174 -1448h-185zM1046 0l34 191h-398l17 99l513 556h135l-89 -512h104l-27 -143h-103l-33 -191h-153zM894 334h211l52 294z" />
    <glyph glyph-name="onehalf" unicode="&#xbd;" horiz-adv-x="1455" 
d="M245 566l113 636h-94l21 122q58 0 92 23.5t55 62.5h120l-148 -844h-159zM35 -24l1175 1448h184l-1174 -1448h-185zM806 0q20 112 64.5 188.5t117.5 137t181 124.5q64 39 102.5 76.5t38.5 95.5q0 32 -22.5 61t-75.5 29q-55 0 -94 -30.5t-64 -90.5l-134 45
q43 97 122.5 159.5t194.5 62.5q77 0 130.5 -30t82 -81t28.5 -112q0 -70 -25 -122t-82 -100t-153 -105q-69 -39 -115.5 -76t-73.5 -82h362l-27 -150h-558z" />
    <glyph glyph-name="threequarters" unicode="&#xbe;" horiz-adv-x="1630" 
d="M445 546q-110 0 -175 61.5t-82 162.5l154 49q11 -63 44 -96t86 -33q66 0 104 40t38 100q0 38 -23.5 68.5t-75.5 30.5h-69l23 138h54q68 0 97.5 41t29.5 86q0 34 -21.5 60.5t-65.5 26.5q-46 0 -83.5 -28.5t-63.5 -74.5l-126 50q49 87 132.5 141.5t179.5 54.5
q101 0 157.5 -55t56.5 -138q0 -74 -41.5 -134t-101.5 -87q49 -18 77 -61t28 -102q0 -88 -42.5 -156t-117.5 -106.5t-173 -38.5zM299 -24l1175 1448h184l-1174 -1448h-185zM1307 0l34 191h-398l17 99l513 556h135l-89 -512h104l-27 -143h-103l-33 -191h-153zM1155 334h211
l52 294z" />
    <glyph glyph-name="questiondown" unicode="&#xbf;" horiz-adv-x="1000" 
d="M429 -401q-113 0 -191 44.5t-118 119t-40 164.5q0 102 32.5 170.5t85.5 118t113 94.5q51 39 96.5 79t79 91.5t46.5 122.5l8 42h188l-8 -43q-19 -103 -62 -174t-98 -121.5t-109 -91.5q-48 -35 -89 -71t-65.5 -82t-24.5 -110q0 -68 46.5 -118.5t141.5 -50.5
q80 0 143.5 33.5t106 96.5t58.5 153h187q-26 -145 -101 -249.5t-185.5 -161t-240.5 -56.5zM662 760q-56 0 -88.5 37t-32.5 85q0 68 48 117t114 49q54 0 86.5 -36t32.5 -86q0 -67 -47.5 -116.5t-112.5 -49.5z" />
    <glyph glyph-name="Agrave" unicode="&#xc0;" horiz-adv-x="1317" 
d="M80 0l733 1400h181l244 -1400h-200l-55 330h-522l-171 -330h-210zM552 508h402l-80 484q-2 15 -6 38.5t-7.5 46.5t-4.5 35q-5 -12 -14.5 -34t-20.5 -45t-20 -38zM852 1530l-291 312h257l218 -312h-184z" />
    <glyph glyph-name="Aacute" unicode="&#xc1;" horiz-adv-x="1317" 
d="M80 0l733 1400h181l244 -1400h-200l-55 330h-522l-171 -330h-210zM552 508h402l-80 484q-2 15 -6 38.5t-7.5 46.5t-4.5 35q-5 -12 -14.5 -34t-20.5 -45t-20 -38zM801 1530l328 312h257l-400 -312h-185z" />
    <glyph glyph-name="Acircumflex" unicode="&#xc2;" horiz-adv-x="1317" 
d="M80 0l733 1400h181l244 -1400h-200l-55 330h-522l-171 -330h-210zM552 508h402l-80 484q-2 15 -6 38.5t-7.5 46.5t-4.5 35q-5 -12 -14.5 -34t-20.5 -45t-20 -38zM560 1530l324 312h193l218 -312h-173l-165 173l-226 -173h-171z" />
    <glyph glyph-name="Atilde" unicode="&#xc3;" horiz-adv-x="1317" 
d="M80 0l733 1400h181l244 -1400h-200l-55 330h-522l-171 -330h-210zM552 508h402l-80 484q-2 15 -6 38.5t-7.5 46.5t-4.5 35q-5 -12 -14.5 -34t-20.5 -45t-20 -38zM1084 1565q-55 0 -99 18t-76 36q-26 15 -57.5 28.5t-67.5 13.5t-65 -21.5t-40 -66.5h-93q19 112 76.5 178.5
t163.5 66.5q57 0 99.5 -18t78.5 -38q27 -14 57 -27t64 -13q36 0 65.5 21.5t41.5 66.5h93q-19 -111 -77 -178t-164 -67z" />
    <glyph glyph-name="Adieresis" unicode="&#xc4;" horiz-adv-x="1317" 
d="M80 0l733 1400h181l244 -1400h-200l-55 330h-522l-171 -330h-210zM552 508h402l-80 484q-2 15 -6 38.5t-7.5 46.5t-4.5 35q-5 -12 -14.5 -34t-20.5 -45t-20 -38zM1125 1569q-44 0 -71.5 29t-27.5 70q0 56 42 95.5t92 39.5q44 0 71 -28.5t27 -70.5q0 -37 -19 -67.5
t-50 -49t-64 -18.5zM747 1569q-44 0 -70.5 29t-26.5 70q0 37 19 67.5t49.5 49t63.5 18.5q46 0 72 -28.5t26 -70.5q0 -56 -40.5 -95.5t-92.5 -39.5z" />
    <glyph glyph-name="Aring" unicode="&#xc5;" horiz-adv-x="1317" 
d="M80 0l676 1292q-35 27 -56 69.5t-21 92.5q0 76 40.5 138t104.5 99t135 37q85 0 139.5 -58.5t54.5 -143.5q0 -73 -40 -135t-100 -97l225 -1294h-200l-55 329h-522l-171 -329h-210zM552 508h402l-80 484q-3 16 -6.5 38.5t-6.5 44.5t-5 37q-5 -12 -14.5 -34t-20.5 -44.5
t-20 -38.5zM897 1386q47 0 82 35t35 88q0 38 -22 60.5t-58 22.5q-43 0 -78 -32.5t-35 -87.5q0 -36 21.5 -61t54.5 -25z" />
    <glyph glyph-name="AE" unicode="&#xc6;" horiz-adv-x="1677" 
d="M-43 0l1027 1400h792l-30 -184h-544l-71 -400h322l-34 -184h-321l-77 -448h585l-32 -184h-783l58 330h-429l-238 -330h-225zM551 508h330l109 620q-13 -24 -33 -53.5t-40 -56.5z" />
    <glyph glyph-name="Ccedilla" unicode="&#xc7;" horiz-adv-x="1230" 
d="M704 -24q-124 0 -214 48.5t-148.5 131t-87 187.5t-28.5 217q0 167 47 321.5t136.5 277t218 194t290.5 71.5q118 0 200.5 -40.5t134 -101.5t76.5 -124l-172 -82q-38 71 -97.5 116t-156.5 45q-116 0 -205 -59.5t-148 -157t-89.5 -213.5t-30.5 -231q0 -103 29.5 -197
t93 -153.5t166.5 -59.5q73 0 130.5 24.5t101 64.5t77.5 88l168 -77q-53 -86 -124 -151t-162 -102t-206 -37zM606 -478q-72 0 -116 25t-68 57l106 68q10 -13 28 -23t48 -10q45 0 77 27.5t32 69.5q0 37 -24.5 59t-66.5 22q-23 0 -41.5 -4.5t-36.5 -15.5l-31 49l146 156h109
l-80 -104q99 0 141 -46t42 -114q0 -94 -74.5 -155t-190.5 -61z" />
    <glyph glyph-name="Egrave" unicode="&#xc8;" horiz-adv-x="1152" 
d="M170 0l246 1400h835l-31 -184h-636l-70 -400h402l-34 -184h-400l-79 -448h678l-33 -184h-878zM782 1530l-291 312h257l218 -312h-184z" />
    <glyph glyph-name="Eacute" unicode="&#xc9;" horiz-adv-x="1152" 
d="M170 0l246 1400h835l-31 -184h-636l-70 -400h402l-34 -184h-400l-79 -448h678l-33 -184h-878zM731 1530l328 312h257l-400 -312h-185z" />
    <glyph glyph-name="Ecircumflex" unicode="&#xca;" horiz-adv-x="1152" 
d="M170 0l246 1400h835l-31 -184h-636l-70 -400h402l-34 -184h-400l-79 -448h678l-33 -184h-878zM490 1530l324 312h193l218 -312h-173l-165 173l-226 -173h-171z" />
    <glyph glyph-name="Edieresis" unicode="&#xcb;" horiz-adv-x="1152" 
d="M170 0l246 1400h835l-31 -184h-636l-70 -400h402l-34 -184h-400l-79 -448h678l-33 -184h-878zM1055 1569q-44 0 -71.5 29t-27.5 70q0 56 42 95.5t92 39.5q44 0 71 -28.5t27 -70.5q0 -37 -19 -67.5t-50 -49t-64 -18.5zM677 1569q-44 0 -70.5 29t-26.5 70q0 37 19 67.5
t49.5 49t63.5 18.5q46 0 72 -28.5t26 -70.5q0 -56 -40.5 -95.5t-92.5 -39.5z" />
    <glyph glyph-name="Igrave" unicode="&#xcc;" horiz-adv-x="538" 
d="M170 0l246 1400h200l-246 -1400h-200zM465 1530l-291 312h257l218 -312h-184z" />
    <glyph glyph-name="Iacute" unicode="&#xcd;" horiz-adv-x="538" 
d="M170 0l246 1400h200l-246 -1400h-200zM414 1530l328 312h257l-400 -312h-185z" />
    <glyph glyph-name="Icircumflex" unicode="&#xce;" horiz-adv-x="538" 
d="M170 0l246 1400h200l-246 -1400h-200zM172 1530l324 312h193l218 -312h-173l-165 173l-226 -173h-171z" />
    <glyph glyph-name="Idieresis" unicode="&#xcf;" horiz-adv-x="538" 
d="M170 0l246 1400h200l-246 -1400h-200zM738 1569q-44 0 -71.5 29t-27.5 70q0 56 42 95.5t92 39.5q44 0 71 -28.5t27 -70.5q0 -37 -19 -67.5t-50 -49t-64 -18.5zM360 1569q-44 0 -70.5 29t-26.5 70q0 37 19 67.5t49.5 49t63.5 18.5q46 0 72 -28.5t26 -70.5
q0 -56 -40.5 -95.5t-92.5 -39.5z" />
    <glyph glyph-name="Eth" unicode="&#xd0;" horiz-adv-x="1329" 
d="M136 614l29 170h664l-29 -170h-664zM170 0l246 1400h390q144 0 246.5 -51.5t166.5 -138.5t94 -195.5t30 -222.5q0 -105 -24.5 -215.5t-78 -213.5t-140.5 -185t-213 -130t-295 -48h-422zM399 184h209q145 0 245.5 56t162.5 146t90 196t28 205q0 112 -35 210t-110.5 158.5
t-195.5 60.5h-213z" />
    <glyph glyph-name="Ntilde" unicode="&#xd1;" horiz-adv-x="1356" 
d="M170 0l246 1400h186l416 -952q9 -18 20.5 -47.5t16.5 -48.5q3 19 7 46t7 49l167 953h198l-246 -1400h-186l-403 913q-6 13 -16.5 39t-20.5 51.5t-14 38.5q-1 -12 -4.5 -38t-8 -52t-7.5 -42l-161 -910h-197zM1106 1565q-55 0 -99 18t-76 36q-26 15 -57.5 28.5t-67.5 13.5
t-65 -21.5t-40 -66.5h-93q19 112 76.5 178.5t163.5 66.5q57 0 99.5 -18t78.5 -38q27 -14 57 -27t64 -13q36 0 65.5 21.5t41.5 66.5h93q-19 -111 -77 -178t-164 -67z" />
    <glyph glyph-name="Ograve" unicode="&#xd2;" horiz-adv-x="1382" 
d="M723 -24q-135 0 -229.5 48.5t-154 130.5t-86.5 187t-27 218q0 124 27.5 248.5t82.5 235t138 196t192.5 135t246.5 49.5q130 0 223 -48.5t152 -131t87 -186t28 -212.5q0 -127 -28 -252.5t-83.5 -236.5t-137.5 -197t-190 -135t-241 -49zM722 162q96 0 172.5 39t134.5 106.5
t97.5 155t59.5 186t20 197.5q0 96 -30 186t-96 148t-174 58q-97 0 -173.5 -40t-135 -108.5t-97 -155.5t-57.5 -183.5t-19 -190.5q0 -102 29.5 -192.5t95 -148t173.5 -57.5zM857 1530l-291 312h257l218 -312h-184z" />
    <glyph glyph-name="Oacute" unicode="&#xd3;" horiz-adv-x="1382" 
d="M723 -24q-135 0 -229.5 48.5t-154 130.5t-86.5 187t-27 218q0 124 27.5 248.5t82.5 235t138 196t192.5 135t246.5 49.5q130 0 223 -48.5t152 -131t87 -186t28 -212.5q0 -127 -28 -252.5t-83.5 -236.5t-137.5 -197t-190 -135t-241 -49zM722 162q96 0 172.5 39t134.5 106.5
t97.5 155t59.5 186t20 197.5q0 96 -30 186t-96 148t-174 58q-97 0 -173.5 -40t-135 -108.5t-97 -155.5t-57.5 -183.5t-19 -190.5q0 -102 29.5 -192.5t95 -148t173.5 -57.5zM806 1530l328 312h257l-400 -312h-185z" />
    <glyph glyph-name="Ocircumflex" unicode="&#xd4;" horiz-adv-x="1382" 
d="M723 -24q-135 0 -229.5 48.5t-154 130.5t-86.5 187t-27 218q0 124 27.5 248.5t82.5 235t138 196t192.5 135t246.5 49.5q130 0 223 -48.5t152 -131t87 -186t28 -212.5q0 -127 -28 -252.5t-83.5 -236.5t-137.5 -197t-190 -135t-241 -49zM722 162q96 0 172.5 39t134.5 106.5
t97.5 155t59.5 186t20 197.5q0 96 -30 186t-96 148t-174 58q-97 0 -173.5 -40t-135 -108.5t-97 -155.5t-57.5 -183.5t-19 -190.5q0 -102 29.5 -192.5t95 -148t173.5 -57.5zM565 1530l324 312h193l218 -312h-173l-165 173l-226 -173h-171z" />
    <glyph glyph-name="Otilde" unicode="&#xd5;" horiz-adv-x="1382" 
d="M723 -24q-135 0 -229.5 48.5t-154 130.5t-86.5 187t-27 218q0 124 27.5 248.5t82.5 235t138 196t192.5 135t246.5 49.5q130 0 223 -48.5t152 -131t87 -186t28 -212.5q0 -127 -28 -252.5t-83.5 -236.5t-137.5 -197t-190 -135t-241 -49zM722 162q96 0 172.5 39t134.5 106.5
t97.5 155t59.5 186t20 197.5q0 96 -30 186t-96 148t-174 58q-97 0 -173.5 -40t-135 -108.5t-97 -155.5t-57.5 -183.5t-19 -190.5q0 -102 29.5 -192.5t95 -148t173.5 -57.5zM1089 1565q-55 0 -99 18t-76 36q-26 15 -57.5 28.5t-67.5 13.5t-65 -21.5t-40 -66.5h-93
q19 112 76.5 178.5t163.5 66.5q57 0 99.5 -18t78.5 -38q27 -14 57 -27t64 -13q36 0 65.5 21.5t41.5 66.5h93q-19 -111 -77 -178t-164 -67z" />
    <glyph glyph-name="Odieresis" unicode="&#xd6;" horiz-adv-x="1382" 
d="M723 -24q-135 0 -229.5 48.5t-154 130.5t-86.5 187t-27 218q0 124 27.5 248.5t82.5 235t138 196t192.5 135t246.5 49.5q130 0 223 -48.5t152 -131t87 -186t28 -212.5q0 -127 -28 -252.5t-83.5 -236.5t-137.5 -197t-190 -135t-241 -49zM722 162q96 0 172.5 39t134.5 106.5
t97.5 155t59.5 186t20 197.5q0 96 -30 186t-96 148t-174 58q-97 0 -173.5 -40t-135 -108.5t-97 -155.5t-57.5 -183.5t-19 -190.5q0 -102 29.5 -192.5t95 -148t173.5 -57.5zM1131 1569q-44 0 -71.5 29t-27.5 70q0 56 42 95.5t92 39.5q44 0 71 -28.5t27 -70.5q0 -37 -19 -67.5
t-50 -49t-64 -18.5zM753 1569q-44 0 -70.5 29t-26.5 70q0 37 19 67.5t49.5 49t63.5 18.5q46 0 72 -28.5t26 -70.5q0 -56 -40.5 -95.5t-92.5 -39.5z" />
    <glyph glyph-name="multiply" unicode="&#xd7;" horiz-adv-x="1250" 
d="M428 228l-142 142l322 318l-320 318l136 133l318 -317l317 319l140 -139l-319 -318l317 -318l-134 -136l-317 319z" />
    <glyph glyph-name="Oslash" unicode="&#xd8;" horiz-adv-x="1382" 
d="M122 -24l182 221q-41 73 -59.5 171.5t-18.5 189.5q0 124 26.5 248t81 235.5t137.5 197.5t195 135.5t254 49.5q98 0 174.5 -27.5t130.5 -76.5l86 104h196l-184 -222q41 -72 60.5 -170t19.5 -187q0 -126 -27 -250.5t-82 -236t-137.5 -198t-193 -135.5t-249.5 -49
q-102 0 -179.5 27t-134.5 75l-83 -102h-195zM725 163q95 0 172 38.5t134.5 106t96 154t58 183.5t19.5 194q0 43 -7 96t-20 91l-650 -791q35 -34 83.5 -53t113.5 -19zM447 372l649 792q-34 35 -82.5 54.5t-114.5 19.5q-95 0 -171.5 -40t-133.5 -108t-95 -155.5t-57 -183
t-19 -189.5q0 -44 5.5 -97.5t18.5 -92.5z" />
    <glyph glyph-name="Ugrave" unicode="&#xd9;" horiz-adv-x="1329" 
d="M694 -24q-177 0 -283.5 74.5t-143 210t-3.5 321.5l145 818h199l-149 -850q-21 -121 -3.5 -208t79 -133.5t170.5 -46.5q82 0 154.5 31t126.5 110t80 224l153 873h198l-154 -884q-27 -152 -78 -255.5t-123.5 -166.5t-165.5 -90.5t-202 -27.5zM860 1532l-291 312h257
l218 -312h-184z" />
    <glyph glyph-name="Uacute" unicode="&#xda;" horiz-adv-x="1329" 
d="M694 -24q-177 0 -283.5 74.5t-143 210t-3.5 321.5l145 818h199l-149 -850q-21 -121 -3.5 -208t79 -133.5t170.5 -46.5q82 0 154.5 31t126.5 110t80 224l153 873h198l-154 -884q-27 -152 -78 -255.5t-123.5 -166.5t-165.5 -90.5t-202 -27.5zM809 1532l328 312h257
l-400 -312h-185z" />
    <glyph glyph-name="Ucircumflex" unicode="&#xdb;" horiz-adv-x="1329" 
d="M694 -24q-177 0 -283.5 74.5t-143 210t-3.5 321.5l145 818h199l-149 -850q-21 -121 -3.5 -208t79 -133.5t170.5 -46.5q82 0 154.5 31t126.5 110t80 224l153 873h198l-154 -884q-27 -152 -78 -255.5t-123.5 -166.5t-165.5 -90.5t-202 -27.5zM568 1532l324 312h193
l218 -312h-173l-165 173l-226 -173h-171z" />
    <glyph glyph-name="Udieresis" unicode="&#xdc;" horiz-adv-x="1329" 
d="M694 -24q-177 0 -283.5 74.5t-143 210t-3.5 321.5l145 818h199l-149 -850q-21 -121 -3.5 -208t79 -133.5t170.5 -46.5q82 0 154.5 31t126.5 110t80 224l153 873h198l-154 -884q-27 -152 -78 -255.5t-123.5 -166.5t-165.5 -90.5t-202 -27.5zM1134 1571q-44 0 -71.5 29
t-27.5 70q0 56 42 95.5t92 39.5q44 0 71 -28.5t27 -70.5q0 -37 -19 -67.5t-50 -49t-64 -18.5zM756 1571q-44 0 -70.5 29t-26.5 70q0 37 19 67.5t49.5 49t63.5 18.5q46 0 72 -28.5t26 -70.5q0 -56 -40.5 -95.5t-92.5 -39.5z" />
    <glyph glyph-name="Yacute" unicode="&#xdd;" horiz-adv-x="1243" 
d="M520 0l100 563l-314 837h207l230 -652l466 652h219l-614 -848l-96 -552h-198zM753 1530l328 312h257l-400 -312h-185z" />
    <glyph glyph-name="Thorn" unicode="&#xde;" horiz-adv-x="1209" 
d="M170 0l246 1400h198l-46 -264h336q106 0 178 -31.5t116 -84.5t63 -116.5t19 -128.5q0 -88 -31.5 -174.5t-94.5 -158t-159.5 -114t-227.5 -42.5h-349l-51 -286h-197zM451 472h349q77 0 131 26.5t87 68t48 89.5t15 91q0 49 -17.5 96.5t-60 78t-118.5 30.5h-349z" />
    <glyph glyph-name="germandbls" unicode="&#xdf;" horiz-adv-x="1087" 
d="M65 -404l239 1359q30 173 106.5 276t175 148t197.5 45q101 0 177.5 -38.5t119 -109t42.5 -165.5q0 -72 -26.5 -140t-80.5 -122t-135 -82q97 -35 148.5 -114.5t51.5 -189.5q0 -143 -66 -253t-174.5 -172t-237.5 -62q-60 0 -105.5 10.5t-73.5 28.5l109 144q19 -6 39.5 -9.5
t45.5 -3.5q62 0 124.5 34.5t104 103t41.5 170.5q0 57 -22 107.5t-73 81.5t-137 31h-36l30 170h36q106 0 177 61.5t71 178.5q0 76 -44.5 123t-129.5 47q-90 0 -164 -69.5t-103 -230.5l-223 -1263z" />
    <glyph glyph-name="agrave" unicode="&#xe0;" horiz-adv-x="1038" 
d="M447 -24q-139 0 -221.5 81t-82.5 215q0 115 54.5 201t151.5 133.5t227 47.5q68 0 132 -17t111 -49l16 84q19 98 -21.5 151.5t-131.5 53.5q-72 0 -159 -28.5t-165 -78.5l-26 160q93 58 188 87t186 29q114 0 191.5 -46.5t110.5 -130.5t13 -197l-118 -672h-187l14 83
q-51 -50 -127 -78.5t-156 -28.5zM493 146q68 0 140.5 32t130.5 88l26 158q-46 31 -101.5 49t-111.5 18q-76 0 -131.5 -24.5t-85.5 -69.5t-30 -105q0 -68 44.5 -107t118.5 -39zM648 1152l-291 312h257l218 -312h-184z" />
    <glyph glyph-name="aacute" unicode="&#xe1;" horiz-adv-x="1038" 
d="M447 -24q-139 0 -221.5 81t-82.5 215q0 115 54.5 201t151.5 133.5t227 47.5q68 0 132 -17t111 -49l16 84q19 98 -21.5 151.5t-131.5 53.5q-72 0 -159 -28.5t-165 -78.5l-26 160q93 58 188 87t186 29q114 0 191.5 -46.5t110.5 -130.5t13 -197l-118 -672h-187l14 83
q-51 -50 -127 -78.5t-156 -28.5zM493 146q68 0 140.5 32t130.5 88l26 158q-46 31 -101.5 49t-111.5 18q-76 0 -131.5 -24.5t-85.5 -69.5t-30 -105q0 -68 44.5 -107t118.5 -39zM597 1152l328 312h257l-400 -312h-185z" />
    <glyph glyph-name="acircumflex" unicode="&#xe2;" horiz-adv-x="1038" 
d="M447 -24q-139 0 -221.5 81t-82.5 215q0 115 54.5 201t151.5 133.5t227 47.5q68 0 132 -17t111 -49l16 84q19 98 -21.5 151.5t-131.5 53.5q-72 0 -159 -28.5t-165 -78.5l-26 160q93 58 188 87t186 29q114 0 191.5 -46.5t110.5 -130.5t13 -197l-118 -672h-187l14 83
q-51 -50 -127 -78.5t-156 -28.5zM493 146q68 0 140.5 32t130.5 88l26 158q-46 31 -101.5 49t-111.5 18q-76 0 -131.5 -24.5t-85.5 -69.5t-30 -105q0 -68 44.5 -107t118.5 -39zM356 1152l324 312h193l218 -312h-173l-165 173l-226 -173h-171z" />
    <glyph glyph-name="atilde" unicode="&#xe3;" horiz-adv-x="1038" 
d="M447 -24q-139 0 -221.5 81t-82.5 215q0 115 54.5 201t151.5 133.5t227 47.5q68 0 132 -17t111 -49l16 84q19 98 -21.5 151.5t-131.5 53.5q-72 0 -159 -28.5t-165 -78.5l-26 160q93 58 188 87t186 29q114 0 191.5 -46.5t110.5 -130.5t13 -197l-118 -672h-187l14 83
q-51 -50 -127 -78.5t-156 -28.5zM493 146q68 0 140.5 32t130.5 88l26 158q-46 31 -101.5 49t-111.5 18q-76 0 -131.5 -24.5t-85.5 -69.5t-30 -105q0 -68 44.5 -107t118.5 -39zM880 1187q-55 0 -99 18t-76 36q-26 15 -57.5 28.5t-67.5 13.5t-65 -21.5t-40 -66.5h-93
q19 112 76.5 178.5t163.5 66.5q57 0 99.5 -18t78.5 -38q27 -14 57 -27t64 -13q36 0 65.5 21.5t41.5 66.5h93q-19 -111 -77 -178t-164 -67z" />
    <glyph glyph-name="adieresis" unicode="&#xe4;" horiz-adv-x="1038" 
d="M447 -24q-139 0 -221.5 81t-82.5 215q0 115 54.5 201t151.5 133.5t227 47.5q68 0 132 -17t111 -49l16 84q19 98 -21.5 151.5t-131.5 53.5q-72 0 -159 -28.5t-165 -78.5l-26 160q93 58 188 87t186 29q114 0 191.5 -46.5t110.5 -130.5t13 -197l-118 -672h-187l14 83
q-51 -50 -127 -78.5t-156 -28.5zM493 146q68 0 140.5 32t130.5 88l26 158q-46 31 -101.5 49t-111.5 18q-76 0 -131.5 -24.5t-85.5 -69.5t-30 -105q0 -68 44.5 -107t118.5 -39zM904 1193q-44 0 -71.5 29t-27.5 70q0 57 42 96.5t93 39.5q43 0 70 -28.5t27 -69.5q0 -38 -19 -69
t-49.5 -49.5t-64.5 -18.5zM563 1193q-44 0 -70.5 29t-26.5 70q0 37 19 68t49.5 49.5t63.5 18.5q46 0 72 -28.5t26 -69.5q0 -57 -40.5 -97t-92.5 -40z" />
    <glyph glyph-name="aring" unicode="&#xe5;" horiz-adv-x="1038" 
d="M447 -24q-139 0 -221.5 81t-82.5 215q0 115 54.5 201t151.5 133.5t227 47.5q68 0 132 -17t111 -49l16 84q19 98 -21.5 151.5t-131.5 53.5q-72 0 -159 -28.5t-165 -78.5l-26 160q93 58 188 87t186 29q114 0 191.5 -46.5t110.5 -130.5t13 -197l-118 -672h-187l14 83
q-51 -50 -127 -78.5t-156 -28.5zM493 146q68 0 140.5 32t130.5 88l26 158q-46 31 -101.5 49t-111.5 18q-76 0 -131.5 -24.5t-85.5 -69.5t-30 -105q0 -68 44.5 -107t118.5 -39zM716 1110q-84 0 -139.5 61t-55.5 144q0 76 40.5 138.5t104.5 99t136 36.5q83 0 138 -58.5
t55 -142.5q0 -76 -40.5 -139t-104.5 -101t-134 -38zM741 1249q46 0 79.5 34.5t33.5 86.5q0 38 -20.5 60.5t-55.5 22.5q-44 0 -79 -32.5t-35 -86.5q0 -36 21.5 -60.5t55.5 -24.5z" />
    <glyph glyph-name="ae" unicode="&#xe6;" horiz-adv-x="1637" 
d="M434 -24q-82 0 -148 34.5t-104.5 101t-38.5 161.5q0 132 61 218t159 127t210 41q61 0 122 -16.5t107 -47.5l12 71q17 95 -16 153t-129 58q-82 0 -166.5 -31t-150.5 -76l-25 160q69 45 164.5 80.5t202.5 35.5q61 0 113 -19.5t91 -54t60 -79.5q66 79 157 116t188 37
q112 0 193 -43.5t124.5 -130t43.5 -214.5q0 -68 -12.5 -126.5t-25.5 -96.5h-662q-4 -80 19 -145t72 -102.5t124 -37.5q57 0 118 23.5t115 69.5l94 -133q-67 -59 -153.5 -96.5t-196.5 -37.5q-116 0 -202 53t-127 146q-89 -107 -192.5 -153t-200.5 -46zM490 146q85 0 160 49
t127 113q-4 23 -5 57t2 59q-34 26 -88.5 46.5t-114.5 20.5q-64 0 -119.5 -20.5t-89.5 -65t-34 -114.5q0 -63 41.5 -104t120.5 -41zM992 602h479q11 76 -5 137.5t-61 98t-121 36.5q-71 0 -130 -31.5t-100.5 -92t-61.5 -148.5z" />
    <glyph glyph-name="ccedilla" unicode="&#xe7;" horiz-adv-x="976" 
d="M534 -24q-165 0 -263.5 117.5t-98.5 314.5q0 189 65 333t180 224.5t267 80.5q127 0 217.5 -67.5t118.5 -185.5l-186 -64q-15 66 -59.5 101t-112.5 35q-86 0 -152.5 -57t-104 -158t-37.5 -232q0 -123 47 -191t132 -68q75 0 132 39t92 113l166 -61q-55 -130 -160.5 -202
t-242.5 -72zM437 -478q-72 0 -116 25t-68 57l106 68q10 -13 28 -23t48 -10q45 0 77 27.5t32 69.5q0 37 -24.5 59t-66.5 22q-23 0 -41.5 -4.5t-36.5 -15.5l-31 49l146 156h109l-80 -104q99 0 141 -46t42 -114q0 -94 -74.5 -155t-190.5 -61z" />
    <glyph glyph-name="egrave" unicode="&#xe8;" horiz-adv-x="1041" 
d="M559 -24q-119 0 -206 54t-135 151t-48 227t38 245t108 203.5t168 139t218 50.5q112 0 194 -44.5t127 -132t45 -215.5q0 -62 -11 -115.5t-27 -103.5h-663q0 -88 23.5 -152t71 -98.5t121.5 -34.5q57 0 118 23.5t114 69.5l94 -133q-70 -61 -156.5 -97.5t-193.5 -36.5z
M395 602h479q12 80 -5 141t-62.5 96t-119.5 35q-80 0 -139 -37t-97 -98.5t-56 -136.5zM644 1152l-291 312h257l218 -312h-184z" />
    <glyph glyph-name="eacute" unicode="&#xe9;" horiz-adv-x="1041" 
d="M559 -24q-119 0 -206 54t-135 151t-48 227t38 245t108 203.5t168 139t218 50.5q112 0 194 -44.5t127 -132t45 -215.5q0 -62 -11 -115.5t-27 -103.5h-663q0 -88 23.5 -152t71 -98.5t121.5 -34.5q57 0 118 23.5t114 69.5l94 -133q-70 -61 -156.5 -97.5t-193.5 -36.5z
M395 602h479q12 80 -5 141t-62.5 96t-119.5 35q-80 0 -139 -37t-97 -98.5t-56 -136.5zM593 1152l328 312h257l-400 -312h-185z" />
    <glyph glyph-name="ecircumflex" unicode="&#xea;" horiz-adv-x="1041" 
d="M559 -24q-119 0 -206 54t-135 151t-48 227t38 245t108 203.5t168 139t218 50.5q112 0 194 -44.5t127 -132t45 -215.5q0 -62 -11 -115.5t-27 -103.5h-663q0 -88 23.5 -152t71 -98.5t121.5 -34.5q57 0 118 23.5t114 69.5l94 -133q-70 -61 -156.5 -97.5t-193.5 -36.5z
M395 602h479q12 80 -5 141t-62.5 96t-119.5 35q-80 0 -139 -37t-97 -98.5t-56 -136.5zM352 1152l324 312h193l218 -312h-173l-165 173l-226 -173h-171z" />
    <glyph glyph-name="edieresis" unicode="&#xeb;" horiz-adv-x="1041" 
d="M559 -24q-119 0 -206 54t-135 151t-48 227t38 245t108 203.5t168 139t218 50.5q112 0 194 -44.5t127 -132t45 -215.5q0 -62 -11 -115.5t-27 -103.5h-663q0 -88 23.5 -152t71 -98.5t121.5 -34.5q57 0 118 23.5t114 69.5l94 -133q-70 -61 -156.5 -97.5t-193.5 -36.5z
M395 602h479q12 80 -5 141t-62.5 96t-119.5 35q-80 0 -139 -37t-97 -98.5t-56 -136.5zM901 1193q-44 0 -71.5 29t-27.5 70q0 57 42 96.5t93 39.5q43 0 70 -28.5t27 -69.5q0 -38 -19 -69t-49.5 -49.5t-64.5 -18.5zM560 1193q-44 0 -70.5 29t-26.5 70q0 37 19 68t49.5 49.5
t63.5 18.5q46 0 72 -28.5t26 -69.5q0 -57 -40.5 -97t-92.5 -40z" />
    <glyph glyph-name="igrave" unicode="&#xec;" horiz-adv-x="500" 
d="M155 0l180 1022h189l-180 -1022h-189zM379 1152l-291 312h257l218 -312h-184z" />
    <glyph glyph-name="iacute" unicode="&#xed;" horiz-adv-x="500" 
d="M155 0l180 1022h189l-180 -1022h-189zM328 1152l328 312h257l-400 -312h-185z" />
    <glyph glyph-name="icircumflex" unicode="&#xee;" horiz-adv-x="500" 
d="M155 0l180 1022h189l-180 -1022h-189zM86 1152l324 312h193l218 -312h-173l-165 173l-226 -173h-171z" />
    <glyph glyph-name="idieresis" unicode="&#xef;" horiz-adv-x="500" 
d="M155 0l180 1022h189l-180 -1022h-189zM635 1193q-44 0 -71.5 29t-27.5 70q0 57 42 96.5t93 39.5q43 0 70 -28.5t27 -69.5q0 -38 -19 -69t-49.5 -49.5t-64.5 -18.5zM294 1193q-44 0 -70.5 29t-26.5 70q0 37 19 68t49.5 49.5t63.5 18.5q46 0 72 -28.5t26 -69.5
q0 -57 -40.5 -97t-92.5 -40z" />
    <glyph glyph-name="eth" unicode="&#xf0;" horiz-adv-x="1060" 
d="M531 -24q-116 0 -199 51t-127.5 140.5t-44.5 205.5q0 117 39.5 215t108.5 170.5t161 113t195 40.5q64 0 109.5 -16.5t76 -44.5t48.5 -62q-1 95 -29 190t-92 159l-145 -132l-79 99l118 111q-42 24 -93.5 38t-108.5 17l30 153q84 -5 163.5 -25t144.5 -59l131 122l81 -100
l-114 -104q83 -87 128.5 -225t45.5 -321q0 -219 -64 -385t-186.5 -258.5t-297.5 -92.5zM557 159q76 0 145 44t111.5 120t42.5 172q0 105 -52.5 170.5t-147.5 65.5q-78 0 -146.5 -44.5t-110.5 -121.5t-42 -177q0 -106 53 -167.5t147 -61.5z" />
    <glyph glyph-name="ntilde" unicode="&#xf1;" horiz-adv-x="1096" 
d="M154 0l180 1022h193l-19 -108q52 64 121.5 98t146.5 34q113 0 183.5 -54.5t95 -157.5t-0.5 -248l-104 -586h-193l106 602q22 128 -15 196.5t-133 68.5q-97 0 -170 -71.5t-93 -189.5l-106 -606h-192zM911 1187q-55 0 -99 18t-76 36q-26 15 -57.5 28.5t-67.5 13.5
t-65 -21.5t-40 -66.5h-93q19 112 76.5 178.5t163.5 66.5q57 0 99.5 -18t78.5 -38q27 -14 57 -27t64 -13q36 0 65.5 21.5t41.5 66.5h93q-19 -111 -77 -178t-164 -67z" />
    <glyph glyph-name="ograve" unicode="&#xf2;" horiz-adv-x="1064" 
d="M552 -24q-180 0 -281 113.5t-101 316.5q0 185 68 329.5t187.5 227.5t272.5 83q172 0 273.5 -115t101.5 -309q0 -187 -67.5 -333t-185.5 -229.5t-268 -83.5zM560 159q92 0 164.5 58.5t114 159t41.5 228.5q0 122 -53 191t-147 69q-90 0 -162.5 -58t-114 -159t-41.5 -228
q0 -123 52.5 -192t145.5 -69zM640 1152l-291 312h257l218 -312h-184z" />
    <glyph glyph-name="oacute" unicode="&#xf3;" horiz-adv-x="1064" 
d="M552 -24q-180 0 -281 113.5t-101 316.5q0 185 68 329.5t187.5 227.5t272.5 83q172 0 273.5 -115t101.5 -309q0 -187 -67.5 -333t-185.5 -229.5t-268 -83.5zM560 159q92 0 164.5 58.5t114 159t41.5 228.5q0 122 -53 191t-147 69q-90 0 -162.5 -58t-114 -159t-41.5 -228
q0 -123 52.5 -192t145.5 -69zM589 1152l328 312h257l-400 -312h-185z" />
    <glyph glyph-name="ocircumflex" unicode="&#xf4;" horiz-adv-x="1064" 
d="M552 -24q-180 0 -281 113.5t-101 316.5q0 185 68 329.5t187.5 227.5t272.5 83q172 0 273.5 -115t101.5 -309q0 -187 -67.5 -333t-185.5 -229.5t-268 -83.5zM560 159q92 0 164.5 58.5t114 159t41.5 228.5q0 122 -53 191t-147 69q-90 0 -162.5 -58t-114 -159t-41.5 -228
q0 -123 52.5 -192t145.5 -69zM348 1152l324 312h193l218 -312h-173l-165 173l-226 -173h-171z" />
    <glyph glyph-name="otilde" unicode="&#xf5;" horiz-adv-x="1064" 
d="M552 -24q-180 0 -281 113.5t-101 316.5q0 185 68 329.5t187.5 227.5t272.5 83q172 0 273.5 -115t101.5 -309q0 -187 -67.5 -333t-185.5 -229.5t-268 -83.5zM560 159q92 0 164.5 58.5t114 159t41.5 228.5q0 122 -53 191t-147 69q-90 0 -162.5 -58t-114 -159t-41.5 -228
q0 -123 52.5 -192t145.5 -69zM872 1187q-55 0 -99 18t-76 36q-26 15 -57.5 28.5t-67.5 13.5t-65 -21.5t-40 -66.5h-93q19 112 76.5 178.5t163.5 66.5q57 0 99.5 -18t78.5 -38q27 -14 57 -27t64 -13q36 0 65.5 21.5t41.5 66.5h93q-19 -111 -77 -178t-164 -67z" />
    <glyph glyph-name="odieresis" unicode="&#xf6;" horiz-adv-x="1064" 
d="M552 -24q-180 0 -281 113.5t-101 316.5q0 185 68 329.5t187.5 227.5t272.5 83q172 0 273.5 -115t101.5 -309q0 -187 -67.5 -333t-185.5 -229.5t-268 -83.5zM560 159q92 0 164.5 58.5t114 159t41.5 228.5q0 122 -53 191t-147 69q-90 0 -162.5 -58t-114 -159t-41.5 -228
q0 -123 52.5 -192t145.5 -69zM897 1193q-44 0 -71.5 29t-27.5 70q0 57 42 96.5t93 39.5q43 0 70 -28.5t27 -69.5q0 -38 -19 -69t-49.5 -49.5t-64.5 -18.5zM556 1193q-44 0 -70.5 29t-26.5 70q0 37 19 68t49.5 49.5t63.5 18.5q46 0 72 -28.5t26 -69.5q0 -57 -40.5 -97
t-92.5 -40z" />
    <glyph glyph-name="divide" unicode="&#xf7;" horiz-adv-x="1250" 
d="M268 590v191h930v-191h-930zM730 168q-53 0 -88.5 35.5t-35.5 85.5q0 52 35.5 87t88.5 35q54 0 90 -35t36 -87q0 -50 -36 -85.5t-90 -35.5zM730 958q-53 0 -88.5 36t-35.5 86q0 51 35.5 87.5t88.5 36.5q54 0 90 -36.5t36 -87.5q0 -50 -36 -86t-90 -36z" />
    <glyph glyph-name="oslash" unicode="&#xf8;" horiz-adv-x="1064" 
d="M92 -24l139 167q-31 54 -46 121t-15 142q0 123 34.5 237t102.5 205t166.5 144.5t224.5 53.5q70 0 125 -19t98 -53l59 72h171l-142 -170q64 -111 64 -254q0 -124 -34.5 -239.5t-101 -207.5t-164 -145.5t-221.5 -53.5q-73 0 -130.5 18t-101.5 51l-56 -69h-172zM560 159
q78 0 137.5 38t100.5 101.5t61.5 142t20.5 160.5q0 26 -2.5 52t-11.5 49l-418 -503q21 -19 48.5 -29.5t63.5 -10.5zM375 318l421 505q-22 20 -51 31t-65 11q-76 0 -135 -38t-99.5 -102t-62 -142.5t-21.5 -158.5q0 -27 3 -54.5t10 -51.5z" />
    <glyph glyph-name="ugrave" unicode="&#xf9;" horiz-adv-x="1095" 
d="M494 -24q-111 0 -182 52.5t-96.5 152t-1.5 238.5l106 603h193l-106 -597q-24 -133 14.5 -200.5t134.5 -67.5q107 0 175.5 64.5t89.5 185.5l107 615h193l-180 -1022h-193l17 98q-51 -62 -117.5 -92t-153.5 -30zM669 1152l-291 312h257l218 -312h-184z" />
    <glyph glyph-name="uacute" unicode="&#xfa;" horiz-adv-x="1095" 
d="M494 -24q-111 0 -182 52.5t-96.5 152t-1.5 238.5l106 603h193l-106 -597q-24 -133 14.5 -200.5t134.5 -67.5q107 0 175.5 64.5t89.5 185.5l107 615h193l-180 -1022h-193l17 98q-51 -62 -117.5 -92t-153.5 -30zM618 1152l328 312h257l-400 -312h-185z" />
    <glyph glyph-name="ucircumflex" unicode="&#xfb;" horiz-adv-x="1095" 
d="M494 -24q-111 0 -182 52.5t-96.5 152t-1.5 238.5l106 603h193l-106 -597q-24 -133 14.5 -200.5t134.5 -67.5q107 0 175.5 64.5t89.5 185.5l107 615h193l-180 -1022h-193l17 98q-51 -62 -117.5 -92t-153.5 -30zM376 1152l324 312h193l218 -312h-173l-165 173l-226 -173
h-171z" />
    <glyph glyph-name="udieresis" unicode="&#xfc;" horiz-adv-x="1095" 
d="M494 -24q-111 0 -182 52.5t-96.5 152t-1.5 238.5l106 603h193l-106 -597q-24 -133 14.5 -200.5t134.5 -67.5q107 0 175.5 64.5t89.5 185.5l107 615h193l-180 -1022h-193l17 98q-51 -62 -117.5 -92t-153.5 -30zM925 1193q-44 0 -71.5 29t-27.5 70q0 57 42 96.5t93 39.5
q43 0 70 -28.5t27 -69.5q0 -38 -19 -69t-49.5 -49.5t-64.5 -18.5zM584 1193q-44 0 -70.5 29t-26.5 70q0 37 19 68t49.5 49.5t63.5 18.5q46 0 72 -28.5t26 -69.5q0 -57 -40.5 -97t-92.5 -40z" />
    <glyph glyph-name="yacute" unicode="&#xfd;" horiz-adv-x="1041" 
d="M206 -388l220 416l-187 994h194l115 -674q3 -18 7 -41.5t7 -40.5q7 16 18.5 39.5t21.5 42.5l359 674h207l-756 -1410h-206zM591 1152l328 312h257l-400 -312h-185z" />
    <glyph glyph-name="thorn" unicode="&#xfe;" horiz-adv-x="1089" 
d="M82 -405l314 1778l205 71l-91 -510q51 48 113.5 80t151.5 32q98 0 170.5 -51.5t113 -144.5t40.5 -220q0 -155 -40.5 -276t-111 -205.5t-162 -128.5t-192.5 -44q-91 0 -144 33t-86 81l-75 -422zM591 159q98 0 168.5 56.5t108.5 157.5t38 233q0 115 -49 187t-146 72
q-66 0 -130.5 -35t-105.5 -94l-79 -454q27 -49 73 -86t122 -37z" />
    <glyph glyph-name="ydieresis" unicode="&#xff;" horiz-adv-x="1041" 
d="M206 -388l220 416l-187 994h194l115 -674q3 -18 7 -41.5t7 -40.5q7 16 18.5 39.5t21.5 42.5l359 674h207l-756 -1410h-206zM899 1193q-44 0 -71.5 29t-27.5 70q0 57 42 96.5t93 39.5q43 0 70 -28.5t27 -69.5q0 -38 -19 -69t-49.5 -49.5t-64.5 -18.5zM558 1193
q-44 0 -70.5 29t-26.5 70q0 37 19 68t49.5 49.5t63.5 18.5q46 0 72 -28.5t26 -69.5q0 -57 -40.5 -97t-92.5 -40z" />
    <glyph glyph-name="Amacron" unicode="&#x100;" horiz-adv-x="1317" 
d="M80 0l733 1400h181l244 -1400h-200l-55 330h-522l-171 -330h-210zM552 508h402l-80 484q-2 15 -6 38.5t-7.5 46.5t-4.5 35q-5 -12 -14.5 -34t-20.5 -45t-20 -38zM619 1575l29 164h634l-29 -164h-634z" />
    <glyph glyph-name="amacron" unicode="&#x101;" horiz-adv-x="1038" 
d="M447 -24q-139 0 -221.5 81t-82.5 215q0 115 54.5 201t151.5 133.5t227 47.5q68 0 132 -17t111 -49l16 84q19 98 -21.5 151.5t-131.5 53.5q-72 0 -159 -28.5t-165 -78.5l-26 160q93 58 188 87t186 29q114 0 191.5 -46.5t110.5 -130.5t13 -197l-118 -672h-187l14 83
q-51 -50 -127 -78.5t-156 -28.5zM493 146q68 0 140.5 32t130.5 88l26 158q-46 31 -101.5 49t-111.5 18q-76 0 -131.5 -24.5t-85.5 -69.5t-30 -105q0 -68 44.5 -107t118.5 -39zM415 1197l29 164h634l-29 -164h-634z" />
    <glyph glyph-name="Abreve" unicode="&#x102;" horiz-adv-x="1317" 
d="M80 0l733 1400h181l244 -1400h-200l-55 330h-522l-171 -330h-210zM552 508h402l-80 484q-2 15 -6 38.5t-7.5 46.5t-4.5 35q-5 -12 -14.5 -34t-20.5 -45t-20 -38zM940 1532q-96 0 -166.5 40t-104 114t-16.5 176h157q-12 -90 22.5 -133.5t127.5 -43.5q84 0 136 51t66 126
h158q-17 -95 -64 -169.5t-126 -117.5t-190 -43z" />
    <glyph glyph-name="abreve" unicode="&#x103;" horiz-adv-x="1038" 
d="M447 -24q-139 0 -221.5 81t-82.5 215q0 115 54.5 201t151.5 133.5t227 47.5q68 0 132 -17t111 -49l16 84q19 98 -21.5 151.5t-131.5 53.5q-72 0 -159 -28.5t-165 -78.5l-26 160q93 58 188 87t186 29q114 0 191.5 -46.5t110.5 -130.5t13 -197l-118 -672h-187l14 83
q-51 -50 -127 -78.5t-156 -28.5zM493 146q68 0 140.5 32t130.5 88l26 158q-46 31 -101.5 49t-111.5 18q-76 0 -131.5 -24.5t-85.5 -69.5t-30 -105q0 -68 44.5 -107t118.5 -39zM736 1154q-96 0 -166.5 40t-104 114t-16.5 176h157q-12 -90 22.5 -133.5t127.5 -43.5
q84 0 136 51t66 126h158q-17 -95 -64 -169.5t-126 -117.5t-190 -43z" />
    <glyph glyph-name="Aogonek" unicode="&#x104;" horiz-adv-x="1317" 
d="M955 -478q-85 0 -138 45t-53 125q0 67 31.5 124.5t93 104t149.5 79.5l-56 330h-521l-171 -330h-210l733 1400h181l244 -1400q-105 -24 -174.5 -68.5t-103.5 -99.5t-34 -108q0 -41 22 -60.5t52 -19.5q33 0 58 14t42 29l79 -70q-33 -33 -88.5 -64t-135.5 -31zM552 508h402
l-80 484q-2 12 -6 36.5t-7.5 48.5t-4.5 35q-5 -12 -14.5 -34t-20.5 -45t-20 -38z" />
    <glyph glyph-name="aogonek" unicode="&#x105;" horiz-adv-x="1038" 
d="M640 -478q-83 0 -136.5 45t-53.5 125q0 107 75 182.5t191 125.5l14 83q-51 -50 -127 -78.5t-156 -28.5q-139 0 -221.5 81t-82.5 215q0 115 54.5 201t151.5 133.5t227 47.5q68 0 132 -17t111 -49l16 84q19 98 -21.5 151.5t-131.5 53.5q-72 0 -159 -28.5t-165 -78.5
l-26 160q188 116 374 116q114 0 191.5 -46.5t110.5 -130.5t13 -197l-118 -672q-67 -24 -121 -55.5t-92.5 -67.5t-58.5 -75t-20 -78q0 -41 23 -60.5t52 -19.5q33 0 58 14t42 29l78 -70q-34 -33 -89 -64t-135 -31zM493 146q68 0 140.5 32t130.5 88l26 158q-46 31 -101.5 49
t-111.5 18q-76 0 -131.5 -24.5t-85.5 -69.5t-30 -105q0 -68 44.5 -107t118.5 -39z" />
    <glyph glyph-name="Cacute" unicode="&#x106;" horiz-adv-x="1230" 
d="M704 -24q-124 0 -214 48.5t-148.5 131t-87 187.5t-28.5 217q0 167 47 321.5t136.5 277t218 194t290.5 71.5q118 0 200.5 -40.5t134 -101.5t76.5 -124l-172 -82q-38 71 -97.5 116t-156.5 45q-116 0 -205 -59.5t-148 -157t-89.5 -213.5t-30.5 -231q0 -103 29.5 -197
t93 -153.5t166.5 -59.5q73 0 130.5 24.5t101 64.5t77.5 88l168 -77q-53 -86 -124 -151t-162 -102t-206 -37zM811 1530l328 312h257l-400 -312h-185z" />
    <glyph glyph-name="cacute" unicode="&#x107;" horiz-adv-x="976" 
d="M534 -24q-165 0 -263.5 117.5t-98.5 314.5q0 189 65 333t180 224.5t267 80.5q127 0 217.5 -67.5t118.5 -185.5l-186 -64q-15 66 -59.5 101t-112.5 35q-86 0 -152.5 -57t-104 -158t-37.5 -232q0 -123 47 -191t132 -68q75 0 132 39t92 113l166 -61q-55 -130 -160.5 -202
t-242.5 -72zM576 1152l328 312h257l-400 -312h-185z" />
    <glyph glyph-name="Ccircumflex" unicode="&#x108;" horiz-adv-x="1230" 
d="M704 -24q-124 0 -214 48.5t-148.5 131t-87 187.5t-28.5 217q0 167 47 321.5t136.5 277t218 194t290.5 71.5q118 0 200.5 -40.5t134 -101.5t76.5 -124l-172 -82q-38 71 -97.5 116t-156.5 45q-116 0 -205 -59.5t-148 -157t-89.5 -213.5t-30.5 -231q0 -103 29.5 -197
t93 -153.5t166.5 -59.5q73 0 130.5 24.5t101 64.5t77.5 88l168 -77q-53 -86 -124 -151t-162 -102t-206 -37zM570 1530l324 312h193l218 -312h-173l-165 173l-226 -173h-171z" />
    <glyph glyph-name="ccircumflex" unicode="&#x109;" horiz-adv-x="976" 
d="M534 -24q-165 0 -263.5 117.5t-98.5 314.5q0 189 65 333t180 224.5t267 80.5q127 0 217.5 -67.5t118.5 -185.5l-186 -64q-15 66 -59.5 101t-112.5 35q-86 0 -152.5 -57t-104 -158t-37.5 -232q0 -123 47 -191t132 -68q75 0 132 39t92 113l166 -61q-55 -130 -160.5 -202
t-242.5 -72zM335 1152l324 312h193l218 -312h-173l-165 173l-226 -173h-171z" />
    <glyph glyph-name="Cdotaccent" unicode="&#x10a;" horiz-adv-x="1230" 
d="M704 -24q-124 0 -214 48.5t-148.5 131t-87 187.5t-28.5 217q0 167 47 321.5t136.5 277t218 194t290.5 71.5q118 0 200.5 -40.5t134 -101.5t76.5 -124l-172 -82q-38 71 -97.5 116t-156.5 45q-116 0 -205 -59.5t-148 -157t-89.5 -213.5t-30.5 -231q0 -103 29.5 -197
t93 -153.5t166.5 -59.5q73 0 130.5 24.5t101 64.5t77.5 88l168 -77q-53 -86 -124 -151t-162 -102t-206 -37zM945 1566q-41 0 -68 28.5t-27 69.5q0 56 42 96t95 40q42 0 68 -28t26 -70q0 -56 -41 -96t-95 -40z" />
    <glyph glyph-name="cdotaccent" unicode="&#x10b;" horiz-adv-x="976" 
d="M534 -24q-165 0 -263.5 117.5t-98.5 314.5q0 189 65 333t180 224.5t267 80.5q127 0 217.5 -67.5t118.5 -185.5l-186 -64q-15 66 -59.5 101t-112.5 35q-86 0 -152.5 -57t-104 -158t-37.5 -232q0 -123 47 -191t132 -68q75 0 132 39t92 113l166 -61q-55 -130 -160.5 -202
t-242.5 -72zM710 1188q-41 0 -68 28.5t-27 69.5q0 56 42 96t95 40q42 0 68 -28t26 -70q0 -56 -41 -96t-95 -40z" />
    <glyph glyph-name="Ccaron" unicode="&#x10c;" horiz-adv-x="1230" 
d="M704 -24q-124 0 -214 48.5t-148.5 131t-87 187.5t-28.5 217q0 167 47 321.5t136.5 277t218 194t290.5 71.5q118 0 200.5 -40.5t134 -101.5t76.5 -124l-172 -82q-38 71 -97.5 116t-156.5 45q-116 0 -205 -59.5t-148 -157t-89.5 -213.5t-30.5 -231q0 -103 29.5 -197
t93 -153.5t166.5 -59.5q73 0 130.5 24.5t101 64.5t77.5 88l168 -77q-53 -86 -124 -151t-162 -102t-206 -37zM842 1530l-216 312h171l166 -173l225 173h173l-326 -312h-193z" />
    <glyph glyph-name="ccaron" unicode="&#x10d;" horiz-adv-x="976" 
d="M534 -24q-165 0 -263.5 117.5t-98.5 314.5q0 189 65 333t180 224.5t267 80.5q127 0 217.5 -67.5t118.5 -185.5l-186 -64q-15 66 -59.5 101t-112.5 35q-86 0 -152.5 -57t-104 -158t-37.5 -232q0 -123 47 -191t132 -68q75 0 132 39t92 113l166 -61q-55 -130 -160.5 -202
t-242.5 -72zM607 1152l-216 312h171l166 -173l225 173h173l-326 -312h-193z" />
    <glyph glyph-name="Dcaron" unicode="&#x10e;" horiz-adv-x="1329" 
d="M170 0l246 1400h390q144 0 246.5 -51.5t166.5 -138.5t94 -195.5t30 -222.5q0 -105 -24.5 -215.5t-78 -213.5t-140.5 -185t-213 -130t-295 -48h-422zM399 184h209q145 0 245.5 56t162.5 146t90 196t28 205q0 112 -35 210t-110.5 158.5t-195.5 60.5h-213zM758 1530
l-216 312h171l166 -173l225 173h173l-326 -312h-193z" />
    <glyph glyph-name="dcaron" unicode="&#x10f;" horiz-adv-x="1452" 
d="M504 -24q-152 0 -242 117.5t-90 315.5q0 187 65 331t180.5 225t266.5 81q71 0 130 -25.5t95 -73.5l75 426l206 71l-254 -1444h-190l15 89q-47 -55 -112.5 -84t-144.5 -29zM561 159q65 0 128 34t104 89l82 463q-26 57 -75 88.5t-113 31.5q-96 0 -168 -54.5t-111.5 -154.5
t-39.5 -234q0 -123 51.5 -193t141.5 -70zM1320 942l-51 45q24 38 50 110t49 159t38 170h178l-4 -22q-24 -131 -84 -246t-176 -216z" />
    <glyph glyph-name="Dcroat" unicode="&#x110;" horiz-adv-x="1329" 
d="M136 614l29 170h664l-29 -170h-664zM170 0l246 1400h390q144 0 246.5 -51.5t166.5 -138.5t94 -195.5t30 -222.5q0 -105 -24.5 -215.5t-78 -213.5t-140.5 -185t-213 -130t-295 -48h-422zM399 184h209q145 0 245.5 56t162.5 146t90 196t28 205q0 112 -35 210t-110.5 158.5
t-195.5 60.5h-213z" />
    <glyph glyph-name="dcroat" unicode="&#x111;" horiz-adv-x="1085" 
d="M504 -24q-154 0 -244 112.5t-90 300.5q0 173 67 306.5t182 209t258 75.5q83 0 136.5 -29.5t85.5 -68.5l37 210h-250l27 159h251l20 122l204 71l-35 -193h124l-27 -159h-125l-191 -1092h-189l14 83q-49 -52 -111.5 -79.5t-143.5 -27.5zM559 159q68 0 128.5 32.5
t105.5 91.5l70 395q-13 29 -37.5 57t-62 46t-89.5 18q-98 0 -167 -50t-106 -137.5t-37 -199.5q0 -67 22 -125t65.5 -93t107.5 -35z" />
    <glyph glyph-name="Emacron" unicode="&#x112;" horiz-adv-x="1152" 
d="M170 0l246 1400h835l-31 -184h-636l-70 -400h402l-34 -184h-400l-79 -448h678l-33 -184h-878zM549 1575l29 164h634l-29 -164h-634z" />
    <glyph glyph-name="emacron" unicode="&#x113;" horiz-adv-x="1041" 
d="M559 -24q-119 0 -206 54t-135 151t-48 227t38 245t108 203.5t168 139t218 50.5q112 0 194 -44.5t127 -132t45 -215.5q0 -62 -11 -115.5t-27 -103.5h-663q0 -88 23.5 -152t71 -98.5t121.5 -34.5q57 0 118 23.5t114 69.5l94 -133q-70 -61 -156.5 -97.5t-193.5 -36.5z
M395 602h479q12 80 -5 141t-62.5 96t-119.5 35q-80 0 -139 -37t-97 -98.5t-56 -136.5zM411 1197l29 164h634l-29 -164h-634z" />
    <glyph glyph-name="Ebreve" unicode="&#x114;" horiz-adv-x="1152" 
d="M170 0l246 1400h835l-31 -184h-636l-70 -400h402l-34 -184h-400l-79 -448h678l-33 -184h-878zM870 1532q-96 0 -166.5 40t-104 114t-16.5 176h157q-12 -90 22.5 -133.5t127.5 -43.5q84 0 136 51t66 126h158q-17 -95 -64 -169.5t-126 -117.5t-190 -43z" />
    <glyph glyph-name="ebreve" unicode="&#x115;" horiz-adv-x="1041" 
d="M559 -24q-119 0 -206 54t-135 151t-48 227t38 245t108 203.5t168 139t218 50.5q112 0 194 -44.5t127 -132t45 -215.5q0 -62 -11 -115.5t-27 -103.5h-663q0 -88 23.5 -152t71 -98.5t121.5 -34.5q57 0 118 23.5t114 69.5l94 -133q-70 -61 -156.5 -97.5t-193.5 -36.5z
M395 602h479q12 80 -5 141t-62.5 96t-119.5 35q-80 0 -139 -37t-97 -98.5t-56 -136.5zM732 1154q-96 0 -166.5 40t-104 114t-16.5 176h157q-12 -90 22.5 -133.5t127.5 -43.5q84 0 136 51t66 126h158q-17 -95 -64 -169.5t-126 -117.5t-190 -43z" />
    <glyph glyph-name="Edotaccent" unicode="&#x116;" horiz-adv-x="1152" 
d="M170 0l246 1400h835l-31 -184h-636l-70 -400h402l-34 -184h-400l-79 -448h678l-33 -184h-878zM864 1566q-41 0 -68 28.5t-27 69.5q0 56 42 96t95 40q42 0 68 -28t26 -70q0 -56 -41 -96t-95 -40z" />
    <glyph glyph-name="edotaccent" unicode="&#x117;" horiz-adv-x="1041" 
d="M559 -24q-119 0 -206 54t-135 151t-48 227t38 245t108 203.5t168 139t218 50.5q112 0 194 -44.5t127 -132t45 -215.5q0 -62 -11 -115.5t-27 -103.5h-663q0 -88 23.5 -152t71 -98.5t121.5 -34.5q57 0 118 23.5t114 69.5l94 -133q-70 -61 -156.5 -97.5t-193.5 -36.5z
M395 602h479q12 80 -5 141t-62.5 96t-119.5 35q-80 0 -139 -37t-97 -98.5t-56 -136.5zM727 1188q-41 0 -68 28.5t-27 69.5q0 56 42 96t95 40q42 0 68 -28t26 -70q0 -56 -41 -96t-95 -40z" />
    <glyph glyph-name="Eogonek" unicode="&#x118;" horiz-adv-x="1152" 
d="M170 0l246 1400h835l-31 -184h-636l-70 -400h402l-34 -184h-400l-79 -448h678l-33 -184h-878zM698 -498q-85 0 -138 45t-53 125q0 113 86.5 197.5t233.5 130.5h135q-103 -41 -168 -91t-95 -103t-30 -102q0 -41 22 -60.5t52 -19.5q34 0 58.5 14t41.5 29l79 -70
q-33 -33 -88.5 -64t-135.5 -31z" />
    <glyph glyph-name="eogonek" unicode="&#x119;" horiz-adv-x="1041" 
d="M494 -478q-85 0 -138 45t-53 125q0 90 60 161.5t161 123.5q-114 8 -193 66t-120 152.5t-41 212.5q0 130 38 245t108 203.5t167 139t217 50.5q114 0 196.5 -44.5t127 -132t44.5 -215.5q0 -62 -11 -115.5t-27 -103.5h-663v-12v-12q0 -82 26.5 -140.5t75 -89.5t114.5 -31
q57 0 118 23.5t114 69.5l94 -133q-27 -25 -57.5 -45.5t-64.5 -38.5t-72 -37q-65 -31 -122 -67t-92.5 -83.5t-35.5 -114.5q0 -41 22 -60.5t52 -19.5q35 0 59 14t41 29l79 -70q-34 -33 -89 -64t-135 -31zM395 602h479q4 23 4.5 40.5t0.5 33.5q-3 73 -30 116.5t-70 62.5t-92 19
q-80 0 -139 -37t-97 -98.5t-56 -136.5z" />
    <glyph glyph-name="Ecaron" unicode="&#x11a;" horiz-adv-x="1152" 
d="M170 0l246 1400h835l-31 -184h-636l-70 -400h402l-34 -184h-400l-79 -448h678l-33 -184h-878zM761 1530l-216 312h171l166 -173l225 173h173l-326 -312h-193z" />
    <glyph glyph-name="ecaron" unicode="&#x11b;" horiz-adv-x="1041" 
d="M559 -24q-119 0 -206 54t-135 151t-48 227t38 245t108 203.5t168 139t218 50.5q112 0 194 -44.5t127 -132t45 -215.5q0 -62 -11 -115.5t-27 -103.5h-663q0 -88 23.5 -152t71 -98.5t121.5 -34.5q57 0 118 23.5t114 69.5l94 -133q-70 -61 -156.5 -97.5t-193.5 -36.5z
M395 602h479q12 80 -5 141t-62.5 96t-119.5 35q-80 0 -139 -37t-97 -98.5t-56 -136.5zM624 1152l-216 312h171l166 -173l225 173h173l-326 -312h-193z" />
    <glyph glyph-name="Gcircumflex" unicode="&#x11c;" horiz-adv-x="1308" 
d="M714 -24q-130 0 -222.5 48t-151 130.5t-86 187.5t-27.5 218q0 164 43.5 318t131 277.5t216.5 196t300 72.5q123 0 206.5 -41t135 -101.5t77.5 -118.5l-176 -95q-34 69 -97 119.5t-171 50.5q-92 0 -166 -38.5t-131 -105t-95 -152t-57.5 -181t-19.5 -190.5
q0 -109 30.5 -201.5t96.5 -149.5t173 -57q130 0 218 80.5t114 211.5l11 57h-245l33 176h454l-23 -129q-28 -158 -82 -269t-129.5 -180.5t-167 -101.5t-193.5 -32zM569 1530l324 312h193l218 -312h-173l-165 173l-226 -173h-171z" />
    <glyph glyph-name="gcircumflex" unicode="&#x11d;" horiz-adv-x="1084" 
d="M386 -426l-64 160q143 8 230 40t130 84.5t55 119.5l18 109q-37 -43 -99 -77t-152 -34q-104 0 -178.5 54t-115 148.5t-40.5 217.5q0 193 65.5 339.5t179 228.5t257.5 82q67 0 129 -27t104 -83l16 86h194l-183 -1017q-29 -168 -104.5 -258t-188 -127t-253.5 -46zM561 159
q74 0 134 38t96 92l80 453q-17 45 -68 84t-127 39q-100 0 -169.5 -61.5t-105.5 -162.5t-36 -221q0 -116 52 -188.5t144 -72.5zM336 1152l324 312h193l218 -312h-173l-165 173l-226 -173h-171z" />
    <glyph glyph-name="Gbreve" unicode="&#x11e;" horiz-adv-x="1308" 
d="M714 -24q-130 0 -222.5 48t-151 130.5t-86 187.5t-27.5 218q0 164 43.5 318t131 277.5t216.5 196t300 72.5q123 0 206.5 -41t135 -101.5t77.5 -118.5l-176 -95q-34 69 -97 119.5t-171 50.5q-92 0 -166 -38.5t-131 -105t-95 -152t-57.5 -181t-19.5 -190.5
q0 -109 30.5 -201.5t96.5 -149.5t173 -57q130 0 218 80.5t114 211.5l11 57h-245l33 176h454l-23 -129q-28 -158 -82 -269t-129.5 -180.5t-167 -101.5t-193.5 -32zM950 1532q-96 0 -166.5 40t-104 114t-16.5 176h157q-12 -90 22.5 -133.5t127.5 -43.5q84 0 136 51t66 126h158
q-17 -95 -64 -169.5t-126 -117.5t-190 -43z" />
    <glyph glyph-name="gbreve" unicode="&#x11f;" horiz-adv-x="1084" 
d="M386 -426l-64 160q143 8 230 40t130 84.5t55 119.5l18 109q-37 -43 -99 -77t-152 -34q-104 0 -178.5 54t-115 148.5t-40.5 217.5q0 193 65.5 339.5t179 228.5t257.5 82q67 0 129 -27t104 -83l16 86h194l-183 -1017q-29 -168 -104.5 -258t-188 -127t-253.5 -46zM561 159
q74 0 134 38t96 92l80 453q-17 45 -68 84t-127 39q-100 0 -169.5 -61.5t-105.5 -162.5t-36 -221q0 -116 52 -188.5t144 -72.5zM717 1154q-96 0 -166.5 40t-104 114t-16.5 176h157q-12 -90 22.5 -133.5t127.5 -43.5q84 0 136 51t66 126h158q-17 -95 -64 -169.5t-126 -117.5
t-190 -43z" />
    <glyph glyph-name="Gdotaccent" unicode="&#x120;" horiz-adv-x="1308" 
d="M714 -24q-130 0 -222.5 48t-151 130.5t-86 187.5t-27.5 218q0 164 43.5 318t131 277.5t216.5 196t300 72.5q123 0 206.5 -41t135 -101.5t77.5 -118.5l-176 -95q-34 69 -97 119.5t-171 50.5q-92 0 -166 -38.5t-131 -105t-95 -152t-57.5 -181t-19.5 -190.5
q0 -109 30.5 -201.5t96.5 -149.5t173 -57q130 0 218 80.5t114 211.5l11 57h-245l33 176h454l-23 -129q-28 -158 -82 -269t-129.5 -180.5t-167 -101.5t-193.5 -32zM944 1566q-41 0 -68 28.5t-27 69.5q0 56 42 96t95 40q42 0 68 -28t26 -70q0 -56 -41 -96t-95 -40z" />
    <glyph glyph-name="gdotaccent" unicode="&#x121;" horiz-adv-x="1084" 
d="M386 -426l-64 160q143 8 230 40t130 84.5t55 119.5l18 109q-37 -43 -99 -77t-152 -34q-104 0 -178.5 54t-115 148.5t-40.5 217.5q0 193 65.5 339.5t179 228.5t257.5 82q67 0 129 -27t104 -83l16 86h194l-183 -1017q-29 -168 -104.5 -258t-188 -127t-253.5 -46zM561 159
q74 0 134 38t96 92l80 453q-17 45 -68 84t-127 39q-100 0 -169.5 -61.5t-105.5 -162.5t-36 -221q0 -116 52 -188.5t144 -72.5zM711 1188q-41 0 -68 28.5t-27 69.5q0 56 42 96t95 40q42 0 68 -28t26 -70q0 -56 -41 -96t-95 -40z" />
    <glyph glyph-name="uni0122" unicode="&#x122;" horiz-adv-x="1308" 
d="M714 -24q-130 0 -222.5 48t-151 130.5t-86 187.5t-27.5 218q0 164 43.5 318t131 277.5t216.5 196t300 72.5q123 0 206.5 -41t135 -101.5t77.5 -118.5l-176 -95q-34 69 -97 119.5t-171 50.5q-92 0 -166 -38.5t-131 -105t-95 -152t-57.5 -181t-19.5 -190.5
q0 -109 30.5 -201.5t96.5 -149.5t173 -57q130 0 218 80.5t114 211.5l11 57h-245l33 176h454l-23 -129q-28 -158 -82 -269t-129.5 -180.5t-167 -101.5t-193.5 -32zM582 -527l-52 32q17 14 38.5 35t41 49.5t32.5 63.5q-45 3 -70 31t-25 71q0 65 42 104.5t93 39.5
q44 0 77 -30.5t33 -86.5q0 -54 -21.5 -107t-67.5 -104.5t-121 -97.5z" />
    <glyph glyph-name="uni0123" unicode="&#x123;" horiz-adv-x="1084" 
d="M386 -426l-64 160q143 8 230 40t130 84.5t55 119.5l18 109q-37 -43 -99 -77t-152 -34q-104 0 -178.5 54t-115 148.5t-40.5 217.5q0 193 65.5 339.5t179 228.5t257.5 82q67 0 129 -27t104 -83l16 86h194l-183 -1017q-29 -168 -104.5 -258t-188 -127t-253.5 -46zM561 159
q74 0 134 38t96 92l80 453q-17 45 -68 84t-127 39q-100 0 -169.5 -61.5t-105.5 -162.5t-36 -221q0 -116 52 -188.5t144 -72.5zM730 1187q-47 0 -81 30.5t-34 96.5q0 49 21.5 100t67 102t119.5 97l55 -31q-17 -14 -38.5 -35.5t-41 -50t-32.5 -62.5q44 -3 69.5 -32t25.5 -71
q0 -66 -40 -105t-91 -39z" />
    <glyph glyph-name="Hcircumflex" unicode="&#x124;" horiz-adv-x="1348" 
d="M170 0l246 1400h200l-102 -581h610l102 581h200l-246 -1400h-200l111 630h-609l-110 -630h-202zM578 1530l324 312h193l218 -312h-173l-165 173l-226 -173h-171z" />
    <glyph glyph-name="hcircumflex" unicode="&#x125;" horiz-adv-x="1094" 
d="M155 0l241 1373l205 71l-94 -532q53 65 122.5 99.5t144.5 34.5q118 0 188.5 -52t93 -156t-5.5 -260l-102 -578h-190l106 598q24 134 -14.5 201.5t-136.5 67.5t-168.5 -70t-91.5 -187l-107 -610h-191zM473 1530l324 312h193l218 -312h-173l-165 173l-226 -173h-171z" />
    <glyph glyph-name="Hbar" unicode="&#x126;" horiz-adv-x="1382" 
d="M186 0l180 1032h-162l32 189h164l32 179h199l-30 -179h610l32 179h199l-31 -179h164l-32 -189h-164l-183 -1032h-199l109 630h-608l-113 -630h-199zM529 819h611l38 213h-610z" />
    <glyph glyph-name="hbar" unicode="&#x127;" horiz-adv-x="1105" 
d="M163 0l193 1092h-117l26 159h118l21 122l205 71l-34 -193h277l-27 -159h-277l-44 -244q51 62 119.5 98t148.5 36q88 0 153.5 -36t102.5 -106.5t37 -174.5q0 -27 -4 -68t-14 -92l-87 -505h-193l94 534q5 27 6.5 52.5t1.5 43.5q0 60 -19.5 98t-55.5 56t-84 18
q-52 0 -106 -28t-95.5 -85t-56.5 -143l-96 -546h-193z" />
    <glyph glyph-name="Itilde" unicode="&#x128;" horiz-adv-x="538" 
d="M170 0l246 1400h200l-246 -1400h-200zM697 1565q-55 0 -99 18t-76 36q-26 15 -57.5 28.5t-67.5 13.5t-65 -21.5t-40 -66.5h-93q19 112 76.5 178.5t163.5 66.5q57 0 99.5 -18t78.5 -38q27 -14 57 -27t64 -13q36 0 65.5 21.5t41.5 66.5h93q-19 -111 -77 -178t-164 -67z" />
    <glyph glyph-name="itilde" unicode="&#x129;" horiz-adv-x="500" 
d="M155 0l180 1022h189l-180 -1022h-189zM611 1187q-55 0 -99 18t-76 36q-26 15 -57.5 28.5t-67.5 13.5t-65 -21.5t-40 -66.5h-93q19 112 76.5 178.5t163.5 66.5q57 0 99.5 -18t78.5 -38q27 -14 57 -27t64 -13q36 0 65.5 21.5t41.5 66.5h93q-19 -111 -77 -178t-164 -67z" />
    <glyph glyph-name="Imacron" unicode="&#x12a;" horiz-adv-x="538" 
d="M170 0l246 1400h200l-246 -1400h-200zM231 1575l29 164h634l-29 -164h-634z" />
    <glyph glyph-name="imacron" unicode="&#x12b;" horiz-adv-x="500" 
d="M155 0l180 1022h189l-180 -1022h-189zM223 1197l29 164h478l-29 -164h-478z" />
    <glyph glyph-name="Ibreve" unicode="&#x12c;" horiz-adv-x="538" 
d="M170 0l246 1400h200l-246 -1400h-200zM553 1532q-96 0 -166.5 40t-104 114t-16.5 176h157q-12 -90 22.5 -133.5t127.5 -43.5q84 0 136 51t66 126h158q-17 -95 -64 -169.5t-126 -117.5t-190 -43z" />
    <glyph glyph-name="ibreve" unicode="&#x12d;" horiz-adv-x="500" 
d="M155 0l180 1022h189l-180 -1022h-189zM467 1154q-96 0 -166.5 40t-104 114t-16.5 176h157q-12 -90 22.5 -133.5t127.5 -43.5q84 0 136 51t66 126h158q-17 -95 -64 -169.5t-126 -117.5t-190 -43z" />
    <glyph glyph-name="Iogonek" unicode="&#x12e;" horiz-adv-x="539" 
d="M97 -478q-85 0 -139 45t-54 125q0 109 76.5 185.5t190.5 122.5l246 1400h198l-246 -1400q-62 -14 -117 -41.5t-96.5 -65t-65.5 -80t-24 -87.5q0 -43 23 -62.5t51 -19.5q35 0 60 14t40 29l81 -70q-34 -33 -89 -64t-135 -31z" />
    <glyph glyph-name="iogonek" unicode="&#x12f;" horiz-adv-x="503" 
d="M82 -478q-86 0 -139 45t-53 125q0 109 75.5 185.5t192.5 122.5l180 1022h190l-180 -1022q-100 -28 -166 -74t-98 -99t-32 -101q0 -43 23 -62.5t53 -19.5q33 0 58 14t42 29l78 -70q-34 -33 -89.5 -64t-134.5 -31zM463 1192q-43 0 -69.5 29.5t-26.5 70.5q0 37 19 68.5
t49.5 50.5t64.5 19q44 0 71.5 -28.5t27.5 -71.5q0 -57 -41.5 -97.5t-94.5 -40.5z" />
    <glyph glyph-name="Idotaccent" unicode="&#x130;" horiz-adv-x="538" 
d="M170 0l246 1400h200l-246 -1400h-200zM547 1566q-41 0 -68 28.5t-27 69.5q0 56 42 96t95 40q42 0 68 -28t26 -70q0 -56 -41 -96t-95 -40z" />
    <glyph glyph-name="dotlessi" unicode="&#x131;" horiz-adv-x="500" 
d="M155 0l180 1022h189l-180 -1022h-189z" />
    <glyph glyph-name="IJ" unicode="&#x132;" horiz-adv-x="1563" 
d="M170 0l246 1400h200l-246 -1400h-200zM1004 -24q-152 0 -253 76.5t-137 195.5l172 75q28 -69 77 -114.5t137 -45.5q70 0 124.5 29t91.5 93.5t56 170.5l166 944h201l-173 -977q-25 -146 -77.5 -234.5t-119 -134.5t-135.5 -62t-130 -16z" />
    <glyph glyph-name="ij" unicode="&#x133;" horiz-adv-x="1068" 
d="M155 0l180 1022h192l-180 -1022h-192zM461 1193q-41 0 -69.5 29t-28.5 70q0 55 40 96.5t93 41.5q44 0 72 -28t28 -71q0 -56 -41 -97t-94 -41zM486 -438l-63 162q147 19 206.5 69.5t76.5 148.5l190 1080h194l-190 -1076q-22 -126 -71 -203.5t-132 -119t-211 -61.5z
M1024 1192q-44 0 -72 29.5t-28 70.5q0 37 19.5 68.5t49.5 50.5t63 19q46 0 74 -28.5t28 -70.5q0 -38 -19 -69.5t-50 -50.5t-65 -19z" />
    <glyph glyph-name="Jcircumflex" unicode="&#x134;" horiz-adv-x="1045" 
d="M486 -24q-152 0 -253 76.5t-137 195.5l172 75q28 -69 77 -114.5t137 -45.5q70 0 124.5 29t91.5 93.5t56 170.5l166 944h201l-173 -977q-25 -146 -77.5 -234.5t-119 -134.5t-135.5 -62t-130 -16zM676 1530l324 312h193l218 -312h-173l-165 173l-226 -173h-171z" />
    <glyph glyph-name="jcircumflex" unicode="&#x135;" horiz-adv-x="509" 
d="M-74 -438l-63 162q145 19 205 69t78 149l190 1080h194l-190 -1076q-22 -126 -71 -203.5t-132 -119t-211 -61.5zM88 1152l324 312h193l218 -312h-173l-165 173l-226 -173h-171z" />
    <glyph glyph-name="uni0136" unicode="&#x136;" horiz-adv-x="1288" 
d="M170 0l246 1400h200l-116 -663l627 663h239l-481 -506l317 -894h-211l-254 738l-291 -306l-76 -432h-200zM549 -527l-52 32q17 14 38.5 35t41 49.5t32.5 63.5q-45 3 -70 31t-25 71q0 65 42 104.5t93 39.5q44 0 77 -30.5t33 -86.5q0 -54 -21.5 -107t-67.5 -104.5
t-121 -97.5z" />
    <glyph glyph-name="uni0137" unicode="&#x137;" horiz-adv-x="1022" 
d="M155 0l241 1373l205 71l-133 -754l363 332h241l-334 -298l237 -724h-208l-181 588l-162 -148l-78 -440h-191zM427 -527l-52 32q17 14 38.5 35t41 49.5t32.5 63.5q-45 3 -70 31t-25 71q0 65 42 104.5t93 39.5q44 0 77 -30.5t33 -86.5q0 -54 -21.5 -107t-67.5 -104.5
t-121 -97.5z" />
    <glyph glyph-name="kgreenlandic" unicode="&#x138;" horiz-adv-x="1018" 
d="M156 0l180 1022h187l-88 -504l471 504h204l-358 -379l222 -643h-208l-165 485l-213 -223l-45 -262h-187z" />
    <glyph glyph-name="Lacute" unicode="&#x139;" horiz-adv-x="1067" 
d="M170 0l246 1400h200l-212 -1211h654l-35 -189h-853zM414 1530l328 312h257l-400 -312h-185z" />
    <glyph glyph-name="lacute" unicode="&#x13a;" horiz-adv-x="517" 
d="M159 0l243 1373l204 71l-254 -1444h-193zM400 1530l328 312h257l-400 -312h-185z" />
    <glyph glyph-name="uni013B" unicode="&#x13b;" horiz-adv-x="1067" 
d="M170 0l246 1400h200l-212 -1211h654l-35 -189h-853zM466 -527l-52 32q17 14 38.5 35t41 49.5t32.5 63.5q-45 3 -70 31t-25 71q0 65 42 104.5t93 39.5q44 0 77 -30.5t33 -86.5q0 -54 -21.5 -107t-67.5 -104.5t-121 -97.5z" />
    <glyph glyph-name="uni013C" unicode="&#x13c;" horiz-adv-x="517" 
d="M159 0l243 1373l204 71l-254 -1444h-193zM128 -527l-52 32q17 14 38.5 35t41 49.5t32.5 63.5q-45 3 -70 31t-25 71q0 65 42 104.5t93 39.5q44 0 77 -30.5t33 -86.5q0 -54 -21.5 -107t-67.5 -104.5t-121 -97.5z" />
    <glyph glyph-name="Lcaron" unicode="&#x13d;" horiz-adv-x="1067" 
d="M170 0l246 1400h200l-212 -1211h654l-35 -189h-853zM780 916l-51 45q24 38 50 110t49 159t38 170h178l-4 -22q-24 -131 -84 -246t-176 -216z" />
    <glyph glyph-name="lcaron" unicode="&#x13e;" horiz-adv-x="869" 
d="M159 0l243 1373l204 71l-254 -1444h-193zM737 942l-51 45q24 38 50 110t49 159t38 170h178l-4 -22q-24 -131 -84 -246t-176 -216z" />
    <glyph glyph-name="Ldot" unicode="&#x13f;" horiz-adv-x="1067" 
d="M170 0l246 1400h200l-212 -1211h654l-35 -189h-853zM902 557q-53 0 -84.5 36.5t-31.5 84.5q0 68 47.5 117t110.5 49q58 0 90 -36t32 -86q0 -67 -47.5 -116t-116.5 -49z" />
    <glyph glyph-name="ldot" unicode="&#x140;" horiz-adv-x="748" 
d="M159 0l243 1373l204 71l-254 -1444h-193zM718 489q-53 0 -84.5 36.5t-31.5 84.5q0 68 47.5 117t110.5 49q58 0 90 -36t32 -86q0 -67 -47.5 -116t-116.5 -49z" />
    <glyph glyph-name="Lslash" unicode="&#x141;" horiz-adv-x="1067" 
d="M171 0l85 487l-154 -106l42 219l151 105l122 695h198l-93 -532l265 182l-43 -219l-261 -182l-81 -460h656l-35 -189h-852z" />
    <glyph glyph-name="lslash" unicode="&#x142;" horiz-adv-x="517" 
d="M159 0l87 490l-136 -93l32 181l135 95l125 700l204 71l-110 -624l138 95l-33 -181l-136 -95l-113 -639h-193z" />
    <glyph glyph-name="Nacute" unicode="&#x143;" horiz-adv-x="1356" 
d="M170 0l246 1400h186l416 -952q9 -18 20.5 -47.5t16.5 -48.5q3 19 7 46t7 49l167 953h198l-246 -1400h-186l-403 913q-6 13 -16.5 39t-20.5 51.5t-14 38.5q-1 -12 -4.5 -38t-8 -52t-7.5 -42l-161 -910h-197zM823 1530l328 312h257l-400 -312h-185z" />
    <glyph glyph-name="nacute" unicode="&#x144;" horiz-adv-x="1096" 
d="M154 0l180 1022h193l-19 -108q52 64 121.5 98t146.5 34q113 0 183.5 -54.5t95 -157.5t-0.5 -248l-104 -586h-193l106 602q22 128 -15 196.5t-133 68.5q-97 0 -170 -71.5t-93 -189.5l-106 -606h-192zM628 1152l328 312h257l-400 -312h-185z" />
    <glyph glyph-name="uni0145" unicode="&#x145;" horiz-adv-x="1356" 
d="M170 0l246 1400h186l416 -952q9 -18 20.5 -47.5t16.5 -48.5q3 19 7 46t7 49l167 953h198l-246 -1400h-186l-403 913q-6 13 -16.5 39t-20.5 51.5t-14 38.5q-1 -12 -4.5 -38t-8 -52t-7.5 -42l-161 -910h-197zM550 -527l-52 32q17 14 38.5 35t41 49.5t32.5 63.5
q-45 3 -70 31t-25 71q0 65 42 104.5t93 39.5q44 0 77 -30.5t33 -86.5q0 -54 -21.5 -107t-67.5 -104.5t-121 -97.5z" />
    <glyph glyph-name="uni0146" unicode="&#x146;" horiz-adv-x="1096" 
d="M154 0l180 1022h193l-19 -108q52 64 121.5 98t146.5 34q113 0 183.5 -54.5t95 -157.5t-0.5 -248l-104 -586h-193l106 602q22 128 -15 196.5t-133 68.5q-97 0 -170 -71.5t-93 -189.5l-106 -606h-192zM422 -527l-52 32q17 14 38.5 35t41 49.5t32.5 63.5q-45 3 -70 31
t-25 71q0 65 42 104.5t93 39.5q44 0 77 -30.5t33 -86.5q0 -54 -21.5 -107t-67.5 -104.5t-121 -97.5z" />
    <glyph glyph-name="Ncaron" unicode="&#x147;" horiz-adv-x="1356" 
d="M170 0l246 1400h186l416 -952q9 -18 20.5 -47.5t16.5 -48.5q3 19 7 46t7 49l167 953h198l-246 -1400h-186l-403 913q-6 13 -16.5 39t-20.5 51.5t-14 38.5q-1 -12 -4.5 -38t-8 -52t-7.5 -42l-161 -910h-197zM854 1530l-216 312h171l166 -173l225 173h173l-326 -312h-193z
" />
    <glyph glyph-name="ncaron" unicode="&#x148;" horiz-adv-x="1096" 
d="M154 0l180 1022h193l-19 -108q52 64 121.5 98t146.5 34q113 0 183.5 -54.5t95 -157.5t-0.5 -248l-104 -586h-193l106 602q22 128 -15 196.5t-133 68.5q-97 0 -170 -71.5t-93 -189.5l-106 -606h-192zM658 1152l-216 312h171l166 -173l225 173h173l-326 -312h-193z" />
    <glyph glyph-name="napostrophe" unicode="&#x149;" horiz-adv-x="1556" 
d="M335 884l-59 43q20 16 50 48t56.5 74.5t39.5 89.5q-47 6 -75.5 37t-28.5 79q0 74 49.5 121.5t114.5 47.5q50 0 87 -35.5t37 -104.5q0 -81 -38 -157t-99.5 -138.5t-133.5 -104.5zM614 0l180 1022h193l-19 -108q52 64 121.5 98t146.5 34q113 0 183.5 -54.5t95 -157.5
t-0.5 -248l-104 -586h-193l106 602q22 128 -15 196.5t-133 68.5q-97 0 -170 -71.5t-93 -189.5l-106 -606h-192z" />
    <glyph glyph-name="Eng" unicode="&#x14a;" horiz-adv-x="1355" 
d="M749 -488l-66 157q103 16 162.5 42t88 66t39.5 101l23 135l-397 900q-6 13 -16.5 39t-20.5 51.5t-14 38.5q-1 -12 -4.5 -38t-8 -52t-7.5 -42l-161 -910h-197l246 1400h186l416 -952q9 -18 20.5 -47.5t16.5 -48.5q3 23 7 49.5t7 45.5l167 953h198l-265 -1503
q-16 -92 -50.5 -162.5t-95.5 -117.5q-64 -50 -134.5 -72t-139.5 -33z" />
    <glyph glyph-name="eng" unicode="&#x14b;" horiz-adv-x="1095" 
d="M525 -457l-63 160q145 19 205 69.5t77 149.5l119 670q14 81 5.5 143t-46 97t-110.5 35q-58 0 -112 -30t-93.5 -88t-54.5 -143l-106 -606h-192l180 1022h193l-17 -105q54 66 122 97.5t141 31.5q123 0 192.5 -60t90.5 -163.5t-3 -235.5l-117 -662q-16 -94 -46.5 -160.5
t-79.5 -111.5t-119 -71t-166 -39z" />
    <glyph glyph-name="Omacron" unicode="&#x14c;" horiz-adv-x="1382" 
d="M723 -24q-135 0 -229.5 48.5t-154 130.5t-86.5 187t-27 218q0 124 27.5 248.5t82.5 235t138 196t192.5 135t246.5 49.5q130 0 223 -48.5t152 -131t87 -186t28 -212.5q0 -127 -28 -252.5t-83.5 -236.5t-137.5 -197t-190 -135t-241 -49zM722 162q96 0 172.5 39t134.5 106.5
t97.5 155t59.5 186t20 197.5q0 96 -30 186t-96 148t-174 58q-97 0 -173.5 -40t-135 -108.5t-97 -155.5t-57.5 -183.5t-19 -190.5q0 -102 29.5 -192.5t95 -148t173.5 -57.5zM624 1575l29 164h634l-29 -164h-634z" />
    <glyph glyph-name="omacron" unicode="&#x14d;" horiz-adv-x="1064" 
d="M552 -24q-180 0 -281 113.5t-101 316.5q0 185 68 329.5t187.5 227.5t272.5 83q172 0 273.5 -115t101.5 -309q0 -187 -67.5 -333t-185.5 -229.5t-268 -83.5zM560 159q92 0 164.5 58.5t114 159t41.5 228.5q0 122 -53 191t-147 69q-90 0 -162.5 -58t-114 -159t-41.5 -228
q0 -123 52.5 -192t145.5 -69zM407 1197l29 164h634l-29 -164h-634z" />
    <glyph glyph-name="Obreve" unicode="&#x14e;" horiz-adv-x="1382" 
d="M723 -24q-135 0 -229.5 48.5t-154 130.5t-86.5 187t-27 218q0 124 27.5 248.5t82.5 235t138 196t192.5 135t246.5 49.5q130 0 223 -48.5t152 -131t87 -186t28 -212.5q0 -127 -28 -252.5t-83.5 -236.5t-137.5 -197t-190 -135t-241 -49zM722 162q96 0 172.5 39t134.5 106.5
t97.5 155t59.5 186t20 197.5q0 96 -30 186t-96 148t-174 58q-97 0 -173.5 -40t-135 -108.5t-97 -155.5t-57.5 -183.5t-19 -190.5q0 -102 29.5 -192.5t95 -148t173.5 -57.5zM945 1532q-96 0 -166.5 40t-104 114t-16.5 176h157q-12 -90 22.5 -133.5t127.5 -43.5q84 0 136 51
t66 126h158q-17 -95 -64 -169.5t-126 -117.5t-190 -43z" />
    <glyph glyph-name="obreve" unicode="&#x14f;" horiz-adv-x="1064" 
d="M552 -24q-180 0 -281 113.5t-101 316.5q0 185 68 329.5t187.5 227.5t272.5 83q172 0 273.5 -115t101.5 -309q0 -187 -67.5 -333t-185.5 -229.5t-268 -83.5zM560 159q92 0 164.5 58.5t114 159t41.5 228.5q0 122 -53 191t-147 69q-90 0 -162.5 -58t-114 -159t-41.5 -228
q0 -123 52.5 -192t145.5 -69zM729 1154q-96 0 -166.5 40t-104 114t-16.5 176h157q-12 -90 22.5 -133.5t127.5 -43.5q84 0 136 51t66 126h158q-17 -95 -64 -169.5t-126 -117.5t-190 -43z" />
    <glyph glyph-name="Ohungarumlaut" unicode="&#x150;" horiz-adv-x="1382" 
d="M723 -24q-135 0 -229.5 48.5t-154 130.5t-86.5 187t-27 218q0 124 27.5 248.5t82.5 235t138 196t192.5 135t246.5 49.5q130 0 223 -48.5t152 -131t87 -186t28 -212.5q0 -127 -28 -252.5t-83.5 -236.5t-137.5 -197t-190 -135t-241 -49zM722 162q96 0 172.5 39t134.5 106.5
t97.5 155t59.5 186t20 197.5q0 96 -30 186t-96 148t-174 58q-97 0 -173.5 -40t-135 -108.5t-97 -155.5t-57.5 -183.5t-19 -190.5q0 -102 29.5 -192.5t95 -148t173.5 -57.5zM1016 1530l326 312h274l-396 -312h-204zM608 1530l326 312h275l-396 -312h-205z" />
    <glyph glyph-name="ohungarumlaut" unicode="&#x151;" horiz-adv-x="1064" 
d="M552 -24q-180 0 -281 113.5t-101 316.5q0 185 68 329.5t187.5 227.5t272.5 83q172 0 273.5 -115t101.5 -309q0 -187 -67.5 -333t-185.5 -229.5t-268 -83.5zM560 159q92 0 164.5 58.5t114 159t41.5 228.5q0 122 -53 191t-147 69q-90 0 -162.5 -58t-114 -159t-41.5 -228
q0 -123 52.5 -192t145.5 -69zM799 1152l326 312h274l-396 -312h-204zM391 1152l326 312h275l-396 -312h-205z" />
    <glyph glyph-name="OE" unicode="&#x152;" horiz-adv-x="1818" 
d="M722 -24q-137 0 -231.5 49.5t-153 132.5t-85.5 185.5t-27 209.5q0 125 27.5 250t82 236.5t137.5 198.5t194 136.5t250 49.5q71 0 137 -17t112 -49l7 42h745l-31 -184h-545l-70 -400h311l-34 -184h-310l-78 -448h587l-33 -184h-788l4 14q-44 -18 -98.5 -28t-109.5 -10z
M722 163q72 0 134 23t116 68l152 872q-22 29 -52 54.5t-71.5 41.5t-96.5 16q-96 0 -172.5 -40t-134.5 -109t-96.5 -155.5t-58 -182t-19.5 -187.5q0 -101 28.5 -193t94 -150t176.5 -58z" />
    <glyph glyph-name="oe" unicode="&#x153;" horiz-adv-x="1716" 
d="M546 -24q-177 0 -277 112.5t-100 314.5q0 183 69 328.5t188 230t269 84.5q109 0 189 -44t126 -130q71 84 163.5 129t195.5 45q178 0 275.5 -100t97.5 -282q0 -60 -9 -117t-26 -112h-663q-1 -139 55 -212t160 -73q60 0 120.5 24.5t112.5 68.5l91 -130q-150 -137 -357 -137
q-100 0 -180 46.5t-126 132.5q-148 -179 -374 -179zM556 159q95 0 168 58t114.5 158t41.5 226q0 124 -51.5 194t-141.5 70q-92 0 -165.5 -58t-116.5 -158t-43 -225t51.5 -195t142.5 -70zM1072 602h479q19 124 -31.5 198t-155.5 74q-109 0 -185.5 -71.5t-106.5 -200.5z" />
    <glyph glyph-name="Racute" unicode="&#x154;" horiz-adv-x="1284" 
d="M170 0l246 1400h501q116 0 196.5 -32t130.5 -87t72.5 -123t22.5 -138q0 -66 -20 -134t-64.5 -128t-115.5 -103.5t-174 -61.5l185 -593h-212l-178 582h-288l-102 -582h-200zM505 766h349q113 0 175 39.5t86.5 97t24.5 111.5q0 51 -23 97t-74.5 75.5t-138.5 29.5h-321z
M748 1530l328 312h257l-400 -312h-185z" />
    <glyph glyph-name="racute" unicode="&#x155;" horiz-adv-x="776" 
d="M154 0l180 1022h193l-23 -122q48 68 116.5 107.5t138.5 39.5q88 0 145 -58l-58 -183q-31 25 -66 37.5t-72 12.5q-62 0 -115.5 -35.5t-91.5 -98.5t-53 -148l-101 -574h-193zM514 1152l328 312h257l-400 -312h-185z" />
    <glyph glyph-name="uni0156" unicode="&#x156;" horiz-adv-x="1284" 
d="M170 0l246 1400h501q116 0 196.5 -32t130.5 -87t72.5 -123t22.5 -138q0 -66 -20 -134t-64.5 -128t-115.5 -103.5t-174 -61.5l185 -593h-212l-178 582h-288l-102 -582h-200zM505 766h349q113 0 175 39.5t86.5 97t24.5 111.5q0 51 -23 97t-74.5 75.5t-138.5 29.5h-321z
M514 -527l-52 32q17 14 38.5 35t41 49.5t32.5 63.5q-45 3 -70 31t-25 71q0 65 42 104.5t93 39.5q44 0 77 -30.5t33 -86.5q0 -54 -21.5 -107t-67.5 -104.5t-121 -97.5z" />
    <glyph glyph-name="uni0157" unicode="&#x157;" horiz-adv-x="776" 
d="M154 0l180 1022h193l-23 -122q48 68 116.5 107.5t138.5 39.5q88 0 145 -58l-58 -183q-31 25 -66 37.5t-72 12.5q-62 0 -115.5 -35.5t-91.5 -98.5t-53 -148l-101 -574h-193zM120 -527l-52 32q17 14 38.5 35t41 49.5t32.5 63.5q-45 3 -70 31t-25 71q0 65 42 104.5t93 39.5
q44 0 77 -30.5t33 -86.5q0 -54 -21.5 -107t-67.5 -104.5t-121 -97.5z" />
    <glyph glyph-name="Rcaron" unicode="&#x158;" horiz-adv-x="1284" 
d="M170 0l246 1400h501q116 0 196.5 -32t130.5 -87t72.5 -123t22.5 -138q0 -66 -20 -134t-64.5 -128t-115.5 -103.5t-174 -61.5l185 -593h-212l-178 582h-288l-102 -582h-200zM505 766h349q113 0 175 39.5t86.5 97t24.5 111.5q0 51 -23 97t-74.5 75.5t-138.5 29.5h-321z
M779 1530l-216 312h171l166 -173l225 173h173l-326 -312h-193z" />
    <glyph glyph-name="rcaron" unicode="&#x159;" horiz-adv-x="776" 
d="M154 0l180 1022h193l-23 -122q48 68 116.5 107.5t138.5 39.5q88 0 145 -58l-58 -183q-31 25 -66 37.5t-72 12.5q-62 0 -115.5 -35.5t-91.5 -98.5t-53 -148l-101 -574h-193zM544 1152l-216 312h171l166 -173l225 173h173l-326 -312h-193z" />
    <glyph glyph-name="Sacute" unicode="&#x15a;" horiz-adv-x="1152" 
d="M602 -24q-119 0 -207.5 43.5t-146.5 118.5t-83 168l182 68q35 -99 102 -155t176 -56q83 0 145.5 27t96.5 79.5t34 129.5q0 68 -35.5 114t-93 80t-122.5 66q-59 28 -117 59.5t-106 75t-76.5 103.5t-28.5 145q0 109 55.5 195.5t157.5 136.5t241 50q117 0 198 -38.5t129 -99
t66 -126.5l-179 -65q-22 61 -76 104.5t-151 43.5q-114 0 -177 -54t-63 -134q0 -54 31.5 -91t83.5 -66t113 -57q62 -29 124.5 -63t115.5 -81t85 -115t32 -166q0 -139 -65.5 -237t-179.5 -150.5t-261 -52.5zM669 1530l328 312h257l-400 -312h-185z" />
    <glyph glyph-name="sacute" unicode="&#x15b;" horiz-adv-x="909" 
d="M481 -24q-78 0 -147 22t-124 63t-88 97l142 112q42 -60 103.5 -93.5t126.5 -33.5q83 0 134 38t51 100q0 45 -38.5 82t-141.5 83q-145 66 -205 136.5t-60 163.5q0 90 46.5 157t129.5 105t192 38t197.5 -42.5t135.5 -117.5l-140 -104q-80 100 -207 100q-73 0 -120.5 -34.5
t-47.5 -87.5q0 -41 34.5 -73.5t130.5 -74.5q155 -67 220 -143.5t65 -179.5q0 -143 -106 -228t-283 -85zM496 1152l328 312h257l-400 -312h-185z" />
    <glyph glyph-name="Scircumflex" unicode="&#x15c;" horiz-adv-x="1152" 
d="M602 -24q-119 0 -207.5 43.5t-146.5 118.5t-83 168l182 68q35 -99 102 -155t176 -56q83 0 145.5 27t96.5 79.5t34 129.5q0 68 -35.5 114t-93 80t-122.5 66q-59 28 -117 59.5t-106 75t-76.5 103.5t-28.5 145q0 109 55.5 195.5t157.5 136.5t241 50q117 0 198 -38.5t129 -99
t66 -126.5l-179 -65q-22 61 -76 104.5t-151 43.5q-114 0 -177 -54t-63 -134q0 -54 31.5 -91t83.5 -66t113 -57q62 -29 124.5 -63t115.5 -81t85 -115t32 -166q0 -139 -65.5 -237t-179.5 -150.5t-261 -52.5zM428 1530l324 312h193l218 -312h-173l-165 173l-226 -173h-171z" />
    <glyph glyph-name="scircumflex" unicode="&#x15d;" horiz-adv-x="909" 
d="M481 -24q-78 0 -147 22t-124 63t-88 97l142 112q42 -60 103.5 -93.5t126.5 -33.5q83 0 134 38t51 100q0 45 -38.5 82t-141.5 83q-145 66 -205 136.5t-60 163.5q0 90 46.5 157t129.5 105t192 38t197.5 -42.5t135.5 -117.5l-140 -104q-80 100 -207 100q-73 0 -120.5 -34.5
t-47.5 -87.5q0 -41 34.5 -73.5t130.5 -74.5q155 -67 220 -143.5t65 -179.5q0 -143 -106 -228t-283 -85zM255 1152l324 312h193l218 -312h-173l-165 173l-226 -173h-171z" />
    <glyph glyph-name="Scedilla" unicode="&#x15e;" horiz-adv-x="1152" 
d="M602 -24q-119 0 -207.5 43.5t-146.5 118.5t-83 168l182 68q35 -99 102 -155t176 -56q83 0 145.5 27t96.5 79.5t34 129.5q0 68 -35.5 114t-93 80t-122.5 66q-59 28 -117 59.5t-106 75t-76.5 103.5t-28.5 145q0 109 55.5 195.5t157.5 136.5t241 50q117 0 198 -38.5t129 -99
t66 -126.5l-179 -65q-22 61 -76 104.5t-151 43.5q-114 0 -177 -54t-63 -134q0 -54 31.5 -91t83.5 -66t113 -57q62 -29 124.5 -63t115.5 -81t85 -115t32 -166q0 -139 -65.5 -237t-179.5 -150.5t-261 -52.5zM506 -478q-72 0 -116 25t-68 57l106 68q10 -13 28 -23t48 -10
q45 0 77 27.5t32 69.5q0 37 -24.5 59t-66.5 22q-23 0 -41.5 -4.5t-36.5 -15.5l-31 49l146 156h109l-80 -104q99 0 141 -46t42 -114q0 -94 -74.5 -155t-190.5 -61z" />
    <glyph glyph-name="scedilla" unicode="&#x15f;" horiz-adv-x="909" 
d="M481 -24q-78 0 -147 22t-124 63t-88 97l142 112q42 -60 103.5 -93.5t126.5 -33.5q83 0 134 38t51 100q0 45 -38.5 82t-141.5 83q-145 66 -205 136.5t-60 163.5q0 90 46.5 157t129.5 105t192 38t197.5 -42.5t135.5 -117.5l-140 -104q-80 100 -207 100q-73 0 -120.5 -34.5
t-47.5 -87.5q0 -41 34.5 -73.5t130.5 -74.5q155 -67 220 -143.5t65 -179.5q0 -143 -106 -228t-283 -85zM384 -478q-72 0 -116 25t-68 57l106 68q10 -13 28 -23t48 -10q45 0 77 27.5t32 69.5q0 37 -24.5 59t-66.5 22q-23 0 -41.5 -4.5t-36.5 -15.5l-31 49l146 156h109
l-80 -104q99 0 141 -46t42 -114q0 -94 -74.5 -155t-190.5 -61z" />
    <glyph glyph-name="Scaron" unicode="&#x160;" horiz-adv-x="1152" 
d="M602 -24q-119 0 -207.5 43.5t-146.5 118.5t-83 168l182 68q35 -99 102 -155t176 -56q83 0 145.5 27t96.5 79.5t34 129.5q0 68 -35.5 114t-93 80t-122.5 66q-59 28 -117 59.5t-106 75t-76.5 103.5t-28.5 145q0 109 55.5 195.5t157.5 136.5t241 50q117 0 198 -38.5t129 -99
t66 -126.5l-179 -65q-22 61 -76 104.5t-151 43.5q-114 0 -177 -54t-63 -134q0 -54 31.5 -91t83.5 -66t113 -57q62 -29 124.5 -63t115.5 -81t85 -115t32 -166q0 -139 -65.5 -237t-179.5 -150.5t-261 -52.5zM700 1530l-216 312h171l166 -173l225 173h173l-326 -312h-193z" />
    <glyph glyph-name="scaron" unicode="&#x161;" horiz-adv-x="909" 
d="M481 -24q-78 0 -147 22t-124 63t-88 97l142 112q42 -60 103.5 -93.5t126.5 -33.5q83 0 134 38t51 100q0 45 -38.5 82t-141.5 83q-145 66 -205 136.5t-60 163.5q0 90 46.5 157t129.5 105t192 38t197.5 -42.5t135.5 -117.5l-140 -104q-80 100 -207 100q-73 0 -120.5 -34.5
t-47.5 -87.5q0 -41 34.5 -73.5t130.5 -74.5q155 -67 220 -143.5t65 -179.5q0 -143 -106 -228t-283 -85zM527 1152l-216 312h171l166 -173l225 173h173l-326 -312h-193z" />
    <glyph glyph-name="uni0162" unicode="&#x162;" horiz-adv-x="1125" 
d="M463 0l214 1214h-371l31 186h943l-31 -186h-372l-214 -1214h-200zM462 -478q-72 0 -116 25t-68 57l106 68q10 -13 28 -23t48 -10q45 0 77 27.5t32 69.5q0 37 -24.5 59t-66.5 22q-23 0 -41.5 -4.5t-36.5 -15.5l-31 49l146 156h109l-80 -104q99 0 141 -46t42 -114
q0 -94 -74.5 -155t-190.5 -61z" />
    <glyph glyph-name="uni0163" unicode="&#x163;" horiz-adv-x="716" 
d="M427 -24q-110 0 -157 72.5t-23 209.5l103 592h-164l31 172h163l62 351l204 71l-74 -422h234l-30 -172h-233l-100 -558q-14 -81 0.5 -111.5t69.5 -30.5q36 0 71.5 11t83.5 37l-45 -179q-81 -43 -196 -43zM312 -478q-72 0 -116 25t-68 57l106 68q10 -13 28 -23t48 -10
q45 0 77 27.5t32 69.5q0 37 -24.5 59t-66.5 22q-23 0 -41.5 -4.5t-36.5 -15.5l-31 49l146 156h109l-80 -104q99 0 141 -46t42 -114q0 -94 -74.5 -155t-190.5 -61z" />
    <glyph glyph-name="Tcaron" unicode="&#x164;" horiz-adv-x="1125" 
d="M463 0l214 1214h-371l31 186h943l-31 -186h-372l-214 -1214h-200zM736 1530l-216 312h171l166 -173l225 173h173l-326 -312h-193z" />
    <glyph glyph-name="tcaron" unicode="&#x165;" horiz-adv-x="859" 
d="M427 -24q-110 0 -157 72.5t-23 209.5l103 592h-164l31 172h163l62 351l204 71l-74 -422h234l-30 -172h-233l-100 -558q-14 -81 0.5 -111.5t69.5 -30.5q36 0 71.5 11t83.5 37l-45 -179q-81 -43 -196 -43zM784 1154l-51 45q24 38 50 110t49 159t38 170h178l-4 -22
q-24 -131 -84 -246t-176 -216z" />
    <glyph glyph-name="Tbar" unicode="&#x166;" horiz-adv-x="1125" 
d="M328 552l29 171h664l-29 -171h-664zM463 0l214 1214h-371l31 186h943l-31 -186h-372l-214 -1214h-200z" />
    <glyph glyph-name="tbar" unicode="&#x167;" horiz-adv-x="716" 
d="M427 -24q-110 0 -157 72.5t-23 209.5l103 592h-164l31 172h163l62 351l204 71l-74 -422h234l-30 -172h-233l-100 -558q-14 -81 0.5 -111.5t69.5 -30.5q36 0 71.5 11t83.5 37l-45 -179q-81 -43 -196 -43zM113 439l29 170h591l-28 -170h-592z" />
    <glyph glyph-name="Utilde" unicode="&#x168;" horiz-adv-x="1329" 
d="M694 -24q-177 0 -283.5 74.5t-143 210t-3.5 321.5l145 818h199l-149 -850q-21 -121 -3.5 -208t79 -133.5t170.5 -46.5q82 0 154.5 31t126.5 110t80 224l153 873h198l-154 -884q-27 -152 -78 -255.5t-123.5 -166.5t-165.5 -90.5t-202 -27.5zM1092 1567q-55 0 -99 18
t-76 36q-26 15 -57.5 28.5t-67.5 13.5t-65 -21.5t-40 -66.5h-93q19 112 76.5 178.5t163.5 66.5q57 0 99.5 -18t78.5 -38q27 -14 57 -27t64 -13q36 0 65.5 21.5t41.5 66.5h93q-19 -111 -77 -178t-164 -67z" />
    <glyph glyph-name="utilde" unicode="&#x169;" horiz-adv-x="1095" 
d="M494 -24q-111 0 -182 52.5t-96.5 152t-1.5 238.5l106 603h193l-106 -597q-24 -133 14.5 -200.5t134.5 -67.5q107 0 175.5 64.5t89.5 185.5l107 615h193l-180 -1022h-193l17 98q-51 -62 -117.5 -92t-153.5 -30zM901 1187q-55 0 -99 18t-76 36q-26 15 -57.5 28.5
t-67.5 13.5t-65 -21.5t-40 -66.5h-93q19 112 76.5 178.5t163.5 66.5q57 0 99.5 -18t78.5 -38q27 -14 57 -27t64 -13q36 0 65.5 21.5t41.5 66.5h93q-19 -111 -77 -178t-164 -67z" />
    <glyph glyph-name="Umacron" unicode="&#x16a;" horiz-adv-x="1329" 
d="M694 -24q-177 0 -283.5 74.5t-143 210t-3.5 321.5l145 818h199l-149 -850q-21 -121 -3.5 -208t79 -133.5t170.5 -46.5q82 0 154.5 31t126.5 110t80 224l153 873h198l-154 -884q-27 -152 -78 -255.5t-123.5 -166.5t-165.5 -90.5t-202 -27.5zM627 1577l29 164h634l-29 -164
h-634z" />
    <glyph glyph-name="umacron" unicode="&#x16b;" horiz-adv-x="1095" 
d="M494 -24q-111 0 -182 52.5t-96.5 152t-1.5 238.5l106 603h193l-106 -597q-24 -133 14.5 -200.5t134.5 -67.5q107 0 175.5 64.5t89.5 185.5l107 615h193l-180 -1022h-193l17 98q-51 -62 -117.5 -92t-153.5 -30zM435 1197l29 164h634l-29 -164h-634z" />
    <glyph glyph-name="Ubreve" unicode="&#x16c;" horiz-adv-x="1329" 
d="M694 -24q-177 0 -283.5 74.5t-143 210t-3.5 321.5l145 818h199l-149 -850q-21 -121 -3.5 -208t79 -133.5t170.5 -46.5q82 0 154.5 31t126.5 110t80 224l153 873h198l-154 -884q-27 -152 -78 -255.5t-123.5 -166.5t-165.5 -90.5t-202 -27.5zM949 1534q-96 0 -166.5 40
t-104 114t-16.5 176h157q-12 -90 22.5 -133.5t127.5 -43.5q84 0 136 51t66 126h158q-17 -95 -64 -169.5t-126 -117.5t-190 -43z" />
    <glyph glyph-name="ubreve" unicode="&#x16d;" horiz-adv-x="1095" 
d="M494 -24q-111 0 -182 52.5t-96.5 152t-1.5 238.5l106 603h193l-106 -597q-24 -133 14.5 -200.5t134.5 -67.5q107 0 175.5 64.5t89.5 185.5l107 615h193l-180 -1022h-193l17 98q-51 -62 -117.5 -92t-153.5 -30zM757 1154q-96 0 -166.5 40t-104 114t-16.5 176h157
q-12 -90 22.5 -133.5t127.5 -43.5q84 0 136 51t66 126h158q-17 -95 -64 -169.5t-126 -117.5t-190 -43z" />
    <glyph glyph-name="Uring" unicode="&#x16e;" horiz-adv-x="1329" 
d="M694 -24q-177 0 -283.5 74.5t-143 210t-3.5 321.5l145 818h199l-149 -850q-21 -121 -3.5 -208t79 -133.5t170.5 -46.5q82 0 154.5 31t126.5 110t80 224l153 873h198l-154 -884q-27 -152 -78 -255.5t-123.5 -166.5t-165.5 -90.5t-202 -27.5zM929 1490q-84 0 -139.5 61
t-55.5 144q0 76 40.5 138.5t104.5 99t136 36.5q83 0 138 -58.5t55 -142.5q0 -76 -40.5 -139t-104.5 -101t-134 -38zM954 1629q46 0 79.5 34.5t33.5 86.5q0 38 -20.5 60.5t-55.5 22.5q-44 0 -79 -32.5t-35 -86.5q0 -36 21.5 -60.5t55.5 -24.5z" />
    <glyph glyph-name="uring" unicode="&#x16f;" horiz-adv-x="1095" 
d="M494 -24q-111 0 -182 52.5t-96.5 152t-1.5 238.5l106 603h193l-106 -597q-24 -133 14.5 -200.5t134.5 -67.5q107 0 175.5 64.5t89.5 185.5l107 615h193l-180 -1022h-193l17 98q-51 -62 -117.5 -92t-153.5 -30zM737 1110q-84 0 -139.5 61t-55.5 144q0 76 40.5 138.5
t104.5 99t136 36.5q83 0 138 -58.5t55 -142.5q0 -76 -40.5 -139t-104.5 -101t-134 -38zM762 1249q46 0 79.5 34.5t33.5 86.5q0 38 -20.5 60.5t-55.5 22.5q-44 0 -79 -32.5t-35 -86.5q0 -36 21.5 -60.5t55.5 -24.5z" />
    <glyph glyph-name="Uhungarumlaut" unicode="&#x170;" horiz-adv-x="1329" 
d="M694 -24q-177 0 -283.5 74.5t-143 210t-3.5 321.5l145 818h199l-149 -850q-21 -121 -3.5 -208t79 -133.5t170.5 -46.5q82 0 154.5 31t126.5 110t80 224l153 873h198l-154 -884q-27 -152 -78 -255.5t-123.5 -166.5t-165.5 -90.5t-202 -27.5zM1019 1532l326 312h274
l-396 -312h-204zM611 1532l326 312h275l-396 -312h-205z" />
    <glyph glyph-name="uhungarumlaut" unicode="&#x171;" horiz-adv-x="1095" 
d="M494 -24q-111 0 -182 52.5t-96.5 152t-1.5 238.5l106 603h193l-106 -597q-24 -133 14.5 -200.5t134.5 -67.5q107 0 175.5 64.5t89.5 185.5l107 615h193l-180 -1022h-193l17 98q-51 -62 -117.5 -92t-153.5 -30zM827 1152l326 312h274l-396 -312h-204zM419 1152l326 312
h275l-396 -312h-205z" />
    <glyph glyph-name="Uogonek" unicode="&#x172;" horiz-adv-x="1329" 
d="M626 -478q-84 0 -137.5 45.5t-53.5 124.5q0 92 60 164t158 120q-16 1 -32.5 2.5t-32.5 4.5q-98 16 -175.5 66t-122 137t-44.5 213q0 35 3 76.5t14 102.5l146 822h199l-149 -850q-7 -44 -10 -75.5t-3 -60.5q0 -98 36 -152.5t94 -76t125 -21.5q84 0 157.5 31t127.5 109.5
t80 222.5l153 873h198l-154 -884q-28 -160 -82 -264t-130.5 -165t-173.5 -92q-97 -33 -159 -76.5t-91.5 -93t-29.5 -99.5q0 -43 22.5 -62.5t51.5 -19.5q35 0 59 14t41 29l79 -70q-33 -33 -88.5 -64t-135.5 -31z" />
    <glyph glyph-name="uogonek" unicode="&#x173;" horiz-adv-x="1095" 
d="M675 -478q-84 0 -137.5 45t-53.5 125q0 109 75 184.5t194 123.5l17 98q-50 -60 -120 -91t-158 -31q-83 0 -149 35t-104 105t-38 177q0 30 3.5 61t9.5 65l106 603h193l-106 -596q-6 -31 -8 -53.5t-2 -39.5q0 -91 45.5 -132.5t115.5 -41.5q60 0 115 23t95.5 76.5
t56.5 146.5l108 617h193l-180 -1022q-108 -31 -174 -76.5t-96 -98t-30 -101.5q0 -41 23 -60.5t52 -19.5q33 0 58 14t41 29l79 -70q-34 -33 -89 -64t-135 -31z" />
    <glyph glyph-name="Wcircumflex" unicode="&#x174;" horiz-adv-x="1603" 
d="M345 0l-18 1400h197v-905v-49.5v-50.5q9 24 19 48t21 51l392 906h163l77 -914q2 -18 3.5 -46.5t1.5 -47.5q6 20 14.5 45t16.5 46l331 917h210l-524 -1400h-181l-85 908q-1 15 -2.5 33t-2.5 37.5t-1 38.5q-5 -16 -15.5 -43t-23.5 -54l-414 -920h-179zM695 1530l324 312
h193l218 -312h-173l-165 173l-226 -173h-171z" />
    <glyph glyph-name="wcircumflex" unicode="&#x175;" horiz-adv-x="1386" 
d="M329 0l-88 1022h185l35 -647q2 -25 2 -55.5v-49.5q9 21 21.5 51.5t21.5 51.5l282 649h163l62 -649q3 -30 4.5 -56t2.5 -47q8 23 17.5 49t20.5 54l256 649h190l-424 -1022h-179l-70 606q-3 24 -5 57.5t-4 54.5q-8 -21 -23 -57.5t-25 -58.5l-270 -602h-175zM523 1152
l324 312h193l218 -312h-173l-165 173l-226 -173h-171z" />
    <glyph glyph-name="Ycircumflex" unicode="&#x176;" horiz-adv-x="1243" 
d="M520 0l100 563l-314 837h207l230 -652l466 652h219l-614 -848l-96 -552h-198zM512 1530l324 312h193l218 -312h-173l-165 173l-226 -173h-171z" />
    <glyph glyph-name="ycircumflex" unicode="&#x177;" horiz-adv-x="1041" 
d="M206 -388l220 416l-187 994h194l115 -674q3 -18 7 -41.5t7 -40.5q7 16 18.5 39.5t21.5 42.5l359 674h207l-756 -1410h-206zM350 1152l324 312h193l218 -312h-173l-165 173l-226 -173h-171z" />
    <glyph glyph-name="Ydieresis" unicode="&#x178;" horiz-adv-x="1243" 
d="M520 0l100 563l-314 837h207l230 -652l466 652h219l-614 -848l-96 -552h-198zM1077 1569q-44 0 -71.5 29t-27.5 70q0 56 42 95.5t92 39.5q44 0 71 -28.5t27 -70.5q0 -37 -19 -67.5t-50 -49t-64 -18.5zM699 1569q-44 0 -70.5 29t-26.5 70q0 37 19 67.5t49.5 49t63.5 18.5
q46 0 72 -28.5t26 -70.5q0 -56 -40.5 -95.5t-92.5 -39.5z" />
    <glyph glyph-name="Zacute" unicode="&#x179;" horiz-adv-x="1224" 
d="M111 0l26 148l923 1070h-692l31 182h953l-26 -149l-921 -1067h733l-32 -184h-995zM773 1530l328 312h257l-400 -312h-185z" />
    <glyph glyph-name="zacute" unicode="&#x17a;" horiz-adv-x="982" 
d="M115 0l26 140l612 709h-450l29 173h708l-22 -135l-617 -713h488l-31 -174h-743zM580 1152l328 312h257l-400 -312h-185z" />
    <glyph glyph-name="Zdotaccent" unicode="&#x17b;" horiz-adv-x="1224" 
d="M111 0l26 148l923 1070h-692l31 182h953l-26 -149l-921 -1067h733l-32 -184h-995zM906 1566q-41 0 -68 28.5t-27 69.5q0 56 42 96t95 40q42 0 68 -28t26 -70q0 -56 -41 -96t-95 -40z" />
    <glyph glyph-name="zdotaccent" unicode="&#x17c;" horiz-adv-x="982" 
d="M115 0l26 140l612 709h-450l29 173h708l-22 -135l-617 -713h488l-31 -174h-743zM714 1188q-41 0 -68 28.5t-27 69.5q0 56 42 96t95 40q42 0 68 -28t26 -70q0 -56 -41 -96t-95 -40z" />
    <glyph glyph-name="Zcaron" unicode="&#x17d;" horiz-adv-x="1224" 
d="M111 0l26 148l923 1070h-692l31 182h953l-26 -149l-921 -1067h733l-32 -184h-995zM803 1530l-216 312h171l166 -173l225 173h173l-326 -312h-193z" />
    <glyph glyph-name="zcaron" unicode="&#x17e;" horiz-adv-x="982" 
d="M115 0l26 140l612 709h-450l29 173h708l-22 -135l-617 -713h488l-31 -174h-743zM611 1152l-216 312h171l166 -173l225 173h173l-326 -312h-193z" />
    <glyph glyph-name="longs" unicode="&#x17f;" horiz-adv-x="648" 
d="M198 0l209 1188q16 92 56 144t95 73.5t117 21.5q55 0 100.5 -15.5t80.5 -35.5l-30 -162q-37 19 -71.5 27.5t-66.5 8.5q-42 0 -64 -27.5t-30 -70.5l-204 -1152h-192z" />
    <glyph glyph-name="uni0181" unicode="&#x181;" horiz-adv-x="1570" 
d="M388 915l-176 99q33 129 90.5 215t152 128.5t236.5 42.5h204l-33 -183h-212q-113 0 -169 -72.5t-93 -229.5zM470 0l246 1400h509q132 0 214 -45t119.5 -117.5t37.5 -157.5q0 -100 -39.5 -172t-99.5 -116.5t-121 -64.5q98 -28 152.5 -109t54.5 -187q0 -83 -28 -160
t-89 -138.5t-158.5 -97t-237.5 -35.5h-560zM701 183h336q117 0 183 39.5t92.5 97.5t26.5 115q0 56 -22.5 101.5t-77 72.5t-149.5 27h-308zM812 816h282q101 0 169 30t102 82t34 120q0 44 -17 82.5t-60 62.5t-120 24h-318z" />
    <glyph glyph-name="uni0186" unicode="&#x186;" horiz-adv-x="1320" 
d="M660 -24q-120 0 -209.5 40.5t-149.5 110t-91 157.5l186 65q22 -54 57.5 -96t87.5 -66.5t121 -24.5q118 0 207.5 59.5t150.5 158.5t92 220.5t31 245.5q0 96 -30 186t-95.5 148t-174.5 58q-103 0 -184.5 -47t-140.5 -124l-171 92q55 81 130.5 140.5t169 92t203.5 32.5
q130 0 223 -48.5t152 -130.5t87.5 -185.5t28.5 -213.5q0 -158 -44 -313t-130 -281t-213 -201t-294 -75z" />
    <glyph glyph-name="uni0187" unicode="&#x187;" horiz-adv-x="1412" 
d="M1128 1158l16 94q22 131 71 212.5t134 124.5t216 59l63 -162q-99 -12 -156.5 -40t-86 -76.5t-41.5 -121.5l-15 -90h-201zM704 -24q-124 0 -214 48.5t-148.5 131t-87 187.5t-28.5 217q0 167 47 321.5t136.5 277t218 194t290.5 71.5q118 0 200.5 -40.5t134 -101.5
t76.5 -124l-172 -82q-38 71 -97.5 116t-156.5 45q-116 0 -205 -59.5t-148 -157t-89.5 -213.5t-30.5 -231q0 -103 29.5 -197t93 -153.5t166.5 -59.5q73 0 130.5 24.5t101 64.5t77.5 88l168 -77q-53 -86 -124 -151t-162 -102t-206 -37z" />
    <glyph glyph-name="uni0188" unicode="&#x188;" horiz-adv-x="1116" 
d="M534 -24q-165 0 -263.5 117.5t-98.5 314.5q0 189 65 333t180 224.5t267 80.5q50 0 95.5 -11.5t84.5 -32.5l18 107q23 130 71 210.5t130.5 123t209.5 57.5l64 -162q-100 -12 -157 -40t-85 -76t-41 -122l-54 -307l-186 -64q-15 66 -59.5 101t-112.5 35q-86 0 -152.5 -57
t-104 -158t-37.5 -232q0 -123 47 -191t132 -68q75 0 132 39t92 113l166 -61q-55 -130 -160.5 -202t-242.5 -72z" />
    <glyph glyph-name="Dtail" unicode="&#x189;" horiz-adv-x="1329" 
d="M136 614l29 170h664l-29 -170h-664zM170 0l246 1400h390q144 0 246.5 -51.5t166.5 -138.5t94 -195.5t30 -222.5q0 -105 -24.5 -215.5t-78 -213.5t-140.5 -185t-213 -130t-295 -48h-422zM399 184h209q145 0 245.5 56t162.5 146t90 196t28 205q0 112 -35 210t-110.5 158.5
t-195.5 60.5h-213z" />
    <glyph glyph-name="uni018A" unicode="&#x18a;" horiz-adv-x="1630" 
d="M388 915l-176 99q33 129 90.5 215t152 128.5t236.5 42.5h204l-33 -183h-212q-113 0 -169 -72.5t-93 -229.5zM470 0l246 1400h390q145 0 247.5 -51.5t166.5 -138.5t94 -195.5t30 -222.5q0 -105 -24.5 -215.5t-78 -213.5t-140.5 -185t-213 -130t-295 -48h-423zM700 184h208
q146 0 246.5 56t162.5 146t90 196t28 205q0 112 -35.5 210t-110.5 158.5t-195 60.5h-214z" />
    <glyph glyph-name="uni018E" unicode="&#x18e;" horiz-adv-x="1005" 
d="M-77 0l35 193h711l77 435h-425l33 191h425l68 390h-667l35 191h870l-248 -1400h-914z" />
    <glyph glyph-name="uni018F" unicode="&#x18f;" horiz-adv-x="1385" 
d="M727 -24q-120 0 -213 42t-157.5 118t-98 180t-33.5 228q0 56 7 121t17 124h952q9 90 -6 170.5t-52.5 143.5t-98.5 99t-144 36q-99 0 -182.5 -33t-178.5 -107l-107 150q105 89 224.5 132.5t257.5 43.5q114 0 205 -42t154.5 -119t97 -182t33.5 -231q0 -190 -49.5 -349.5
t-140 -277t-214.5 -182.5t-273 -65zM737 161q93 0 167 39.5t129 104t90 142.5t50 155h-745q-12 -125 19 -225t103 -158t187 -58z" />
    <glyph glyph-name="uni0190" unicode="&#x190;" horiz-adv-x="1151" 
d="M618 -24q-140 0 -241.5 45t-157 125.5t-55.5 184.5q0 102 38.5 181.5t111 135.5t173.5 88q-79 36 -117 108t-38 150q0 130 70 226.5t186 150t254 53.5q188 0 299.5 -86.5t143.5 -213.5l-182 -67q-22 68 -88.5 122t-192.5 54q-82 0 -146 -30t-99.5 -84t-35.5 -127
q0 -83 55.5 -128.5t160.5 -45.5h213l-34 -191h-221q-100 0 -176 -34t-119 -94t-43 -139q0 -96 73 -144t185 -48q119 0 210.5 53t159.5 164l175 -79q-80 -144 -218 -237t-344 -93z" />
    <glyph glyph-name="uni0191" unicode="&#x191;" horiz-adv-x="1081" 
d="M170 0l246 1400h840l-31 -184h-641l-70 -396h418l-34 -191h-416l-112 -629h-200zM-63 -468l-63 162q99 12 156.5 40t86 76t41.5 122l15 90h201l-16 -95q-22 -131 -70.5 -212t-134 -124t-216.5 -59z" />
    <glyph glyph-name="florin" unicode="&#x192;" horiz-adv-x="731" 
d="M20 -454l-65 153q147 20 210 74t79 143l165 933h-147l32 173h145l29 166q17 92 59 143t97 72t111 21q57 0 100 -13t79 -35l-28 -162q-38 18 -69.5 27t-64.5 9q-54 0 -74 -27.5t-27 -70.5l-24 -130h225l-30 -173h-225l-156 -887q-25 -141 -84.5 -226t-145.5 -129t-191 -61
z" />
    <glyph glyph-name="uni0193" unicode="&#x193;" horiz-adv-x="1337" 
d="M1137 1163l15 95q23 131 71.5 212t133.5 124t216 59l64 -162q-100 -12 -157.5 -40t-86 -76.5t-40.5 -121.5l-16 -90h-200zM714 -24q-130 0 -222.5 48t-151 130.5t-86 187.5t-27.5 218q0 164 43.5 318t131 277.5t216.5 196t300 72.5q123 0 206.5 -41t135 -101.5
t77.5 -118.5l-176 -95q-34 69 -97 119.5t-171 50.5q-92 0 -166 -38.5t-131 -105t-95 -152t-57.5 -181t-19.5 -190.5q0 -109 30.5 -201.5t96.5 -149.5t173 -57q130 0 218 80.5t114 211.5l11 57h-245l33 176h454l-23 -129q-28 -158 -82 -269t-129.5 -180.5t-167 -101.5
t-193.5 -32z" />
    <glyph glyph-name="Gammalatin" unicode="&#x194;" horiz-adv-x="1302" 
d="M592 -468q-108 0 -169.5 58.5t-61.5 147.5q0 54 33.5 133t84.5 169.5t104 179.5l-256 1180h216l197 -911l519 911h213l-672 -1180q31 -136 48 -235.5t17 -172.5q0 -137 -75 -208.5t-198 -71.5zM608 -280q35 0 48 23t13 58q0 27 -6.5 68t-15.5 95q-28 -51 -48 -90
t-30.5 -65t-10.5 -43q0 -24 15.5 -35t34.5 -11z" />
    <glyph glyph-name="uni0196" unicode="&#x196;" horiz-adv-x="683" 
d="M406 -24q-118 0 -165 81t-23 214l198 1129h200l-195 -1106q-12 -68 0.5 -105t70.5 -37q44 0 80.5 14t73.5 34l-45 -181q-44 -22 -91.5 -32.5t-103.5 -10.5z" />
    <glyph glyph-name="uni0197" unicode="&#x197;" horiz-adv-x="821" 
d="M188 614l29 170h664l-29 -170h-664zM311 0l246 1400h201l-246 -1400h-201z" />
    <glyph glyph-name="uni0198" unicode="&#x198;" horiz-adv-x="1352" 
d="M170 0l246 1400h200l-116 -663l438 463q76 81 145.5 129t149.5 70t190 25l70 -159q-110 -3 -179.5 -18.5t-120 -48.5t-104.5 -89l-204 -215l317 -894h-211l-254 738l-291 -306l-76 -432h-200z" />
    <glyph glyph-name="uni0199" unicode="&#x199;" horiz-adv-x="1022" 
d="M155 0l194 1106q23 130 70.5 211.5t131 124.5t211.5 58l64 -162q-99 -12 -157 -40t-87.5 -75.5t-41.5 -119.5l-72 -413l363 332h241l-334 -298l237 -724h-208l-181 588l-162 -148l-78 -440h-191z" />
    <glyph glyph-name="uni019D" unicode="&#x19d;" horiz-adv-x="1356" 
d="M-62 -468l-64 162q100 12 157.5 40t85.5 76t41 122l258 1468h186l416 -952q9 -18 20.5 -47.5t16.5 -48.5q2 19 6 47t8 48l167 953h198l-246 -1400h-186l-403 913q-6 13 -16.5 39t-20.5 51.5t-14 38.5q-1 -12 -5 -38t-8 -52.5t-7 -41.5l-172 -983q-23 -131 -71.5 -212
t-132.5 -124t-214 -59z" />
    <glyph glyph-name="Ohorn" unicode="&#x1a0;" horiz-adv-x="1622" 
d="M723 -24q-135 0 -229.5 48.5t-154 130.5t-86.5 187t-27 218q0 124 27.5 248.5t82.5 235t138 196t192.5 135t246.5 49.5q130 0 223 -48.5t152 -131t87 -186t28 -212.5q0 -127 -28 -252.5t-83.5 -236.5t-137.5 -197t-190 -135t-241 -49zM722 162q96 0 172.5 39t134.5 106.5
t97.5 155t59.5 186t20 197.5q0 96 -30 186t-96 148t-174 58q-97 0 -173.5 -40t-135 -108.5t-97 -155.5t-57.5 -183.5t-19 -190.5q0 -102 29.5 -192.5t95 -148t173.5 -57.5zM1262 789l27 161q108 9 163 57t71 148l43 245h182l-42 -241q-16 -97 -49 -165t-86 -113
q-34 -28 -77 -48.5t-100 -31.5t-132 -12z" />
    <glyph glyph-name="ohorn" unicode="&#x1a1;" horiz-adv-x="1335" 
d="M552 -24q-180 0 -281 113.5t-101 316.5q0 185 68 329.5t187.5 227.5t272.5 83q172 0 273.5 -115t101.5 -309q0 -187 -67.5 -333t-185.5 -229.5t-268 -83.5zM560 159q92 0 164.5 58.5t114 159t41.5 228.5q0 122 -53 191t-147 69q-90 0 -162.5 -58t-114 -159t-41.5 -228
q0 -123 52.5 -192t145.5 -69zM933 551l27 161q108 9 163 57t71 148l43 245h182l-42 -241q-16 -97 -49 -165t-86 -113q-34 -28 -77 -48.5t-100 -31.5t-132 -12z" />
    <glyph glyph-name="uni01A4" unicode="&#x1a4;" horiz-adv-x="1511" 
d="M388 915l-176 99q33 129 90.5 215t152 128.5t236.5 42.5h204l-33 -183h-212q-113 0 -169 -72.5t-93 -229.5zM470 0l246 1400h530q106 0 178.5 -32t117.5 -86t65 -118.5t20 -129.5q0 -90 -30 -175.5t-92 -154.5t-157 -110t-224 -41h-356l-97 -553h-201zM800 732h346
q102 0 164 45.5t90 111t28 128.5q0 46 -16.5 93t-59.5 78.5t-121 31.5h-346z" />
    <glyph glyph-name="uni01A5" unicode="&#x1a5;" horiz-adv-x="1093" 
d="M82 -406l267 1511q23 132 70.5 213t130.5 124t212 58l63 -162q-99 -12 -156 -39.5t-85.5 -75.5t-41.5 -121l-30 -168q108 112 265 112q97 0 170.5 -53t114 -148.5t40.5 -223.5q0 -185 -64 -331t-174.5 -230t-251.5 -84q-79 0 -142 29.5t-107 87.5l-74 -426zM603 159
q90 0 158.5 55.5t107.5 155t39 230.5q0 127 -50.5 196t-143.5 69q-69 0 -133.5 -35t-104.5 -94l-80 -454q33 -61 86 -92t121 -31z" />
    <glyph glyph-name="uni01A9" unicode="&#x1a9;" horiz-adv-x="1264" 
d="M113 0l26 154l523 566l-299 526l27 154h970l-33 -192h-706l277 -488l-486 -528h767l-33 -192h-1033z" />
    <glyph glyph-name="uni01AC" unicode="&#x1ac;" horiz-adv-x="1294" 
d="M632 0l214 1214h-196q-113 0 -169 -71t-93 -227l-176 98q33 129 90.5 215t152 128.5t236.5 42.5h758l-31 -186h-372l-214 -1214h-200z" />
    <glyph glyph-name="uni01AD" unicode="&#x1ad;" horiz-adv-x="640" 
d="M427 -24q-110 0 -157 72.5t-23 209.5l103 592h-164l31 172h163l15 87q24 129 71.5 209.5t130.5 123.5t211 58l64 -162q-100 -12 -157.5 -40t-86 -75t-41.5 -119l-15 -82h234l-30 -172h-233l-100 -558q-14 -81 0.5 -111.5t69.5 -30.5q36 0 71.5 11t83.5 37l-45 -179
q-81 -43 -196 -43z" />
    <glyph glyph-name="uni01AE" unicode="&#x1ae;" horiz-adv-x="1125" 
d="M754 -468q-185 31 -256.5 140t-36.5 312l216 1230h-371l31 186h943l-31 -186h-372l-226 -1281q-12 -73 3.5 -121.5t69 -77.5t154.5 -48z" />
    <glyph glyph-name="Uhorn" unicode="&#x1af;" horiz-adv-x="1668" 
d="M694 -24q-177 0 -283.5 74.5t-143 210t-3.5 321.5l145 818h199l-149 -850q-21 -121 -3.5 -208t79 -133.5t170.5 -46.5q82 0 154.5 31t126.5 110t80 224l153 873h198l-154 -884q-27 -152 -78 -255.5t-123.5 -166.5t-165.5 -90.5t-202 -27.5zM1309 789l27 161q108 9 163 57
t71 148l43 245h182l-42 -241q-16 -97 -49 -165t-86 -113q-34 -28 -77 -48.5t-100 -31.5t-132 -12z" />
    <glyph glyph-name="uhorn" unicode="&#x1b0;" horiz-adv-x="1426" 
d="M494 -24q-111 0 -182 52.5t-96.5 152t-1.5 238.5l106 603h193l-106 -597q-24 -133 14.5 -200.5t134.5 -67.5q107 0 175.5 64.5t89.5 185.5l107 615h193l-180 -1022h-193l17 98q-51 -62 -117.5 -92t-153.5 -30zM1020 551l27 161q108 9 163 57t71 148l43 245h182l-42 -241
q-16 -97 -49 -165t-86 -113q-34 -28 -77 -48.5t-100 -31.5t-132 -12z" />
    <glyph glyph-name="uni01B1" unicode="&#x1b1;" horiz-adv-x="1371" 
d="M700 -24q-186 0 -301.5 76t-169.5 199t-54 263q0 137 52 268t141 241.5t199 184.5h-284l35 192h478l-33 -177q-50 -44 -114 -110t-123.5 -152.5t-98 -193t-38.5 -231.5q0 -100 33 -184t104 -135t188 -51q126 0 224 71.5t154 198.5t56 294q0 158 -43 272t-125 221l33 177
h479l-34 -192h-297q82 -80 138.5 -204t56.5 -287q0 -160 -45.5 -295t-131.5 -235.5t-207.5 -155.5t-271.5 -55z" />
    <glyph glyph-name="uni01B2" unicode="&#x1b2;" horiz-adv-x="1371" 
d="M550 -24q-181 0 -268.5 107.5t-46.5 336.5l173 980h199l-173 -980q-26 -150 12 -204t126 -54q93 0 186.5 55t177.5 146.5t150 202t104 223t38 209.5q0 111 -60.5 175t-180.5 64q-40 0 -72 -3.5t-66 -12.5l121 194q53 8 98 8q123 0 203.5 -50.5t119.5 -138.5t39 -199
q0 -138 -47 -285.5t-130.5 -285.5t-195 -248t-241 -175t-266.5 -65z" />
    <glyph glyph-name="uni01B3" unicode="&#x1b3;" horiz-adv-x="1483" 
d="M520 0l100 563l-314 837h207l230 -652l317 445q65 90 136 139.5t157 69t196 22.5l70 -159q-110 -3 -181 -13t-119.5 -39t-93.5 -91l-411 -570l-96 -552h-198z" />
    <glyph glyph-name="uni01B4" unicode="&#x1b4;" horiz-adv-x="1354" 
d="M206 -388l220 416l-187 994h194l115 -674q3 -18 7 -41.5t7 -40.5q7 16 18.5 40t21.5 42l321 605q63 117 130.5 192.5t152 116.5t196.5 56l76 -161q-105 -13 -172 -42.5t-114.5 -84.5t-96.5 -145l-683 -1273h-206z" />
    <glyph glyph-name="uni01B7" unicode="&#x1b7;" horiz-adv-x="1189" 
d="M634 -24q-132 0 -232 45.5t-166 123.5t-93 175l185 61q39 -105 118.5 -159t194.5 -54q83 0 146 32.5t98 90t35 131.5q0 96 -65.5 158.5t-228.5 66.5l-110 119l460 442h-616l34 192h878l-32 -177l-465 -430q175 -11 264.5 -112.5t89.5 -257.5q0 -132 -65 -232.5
t-177 -157.5t-253 -57z" />
    <glyph glyph-name="uni01C0" unicode="&#x1c0;" horiz-adv-x="517" 
d="M87 -404l314 1777l205 71l-313 -1776z" />
    <glyph glyph-name="uni01C1" unicode="&#x1c1;" horiz-adv-x="1034" 
d="M87 -404l314 1777l205 71l-313 -1776zM604 -404l314 1777l205 71l-313 -1776z" />
    <glyph glyph-name="uni01C2" unicode="&#x1c2;" horiz-adv-x="668" 
d="M163 -404l313 1777l206 71l-313 -1776zM152 661l30 171h590l-28 -171h-592zM98 353l30 171h590l-28 -171h-592z" />
    <glyph glyph-name="uni01C3" unicode="&#x1c3;" horiz-adv-x="553" 
d="M308 386l49 596l79 442h189l-79 -442l-162 -596h-76zM276 -27q-54 0 -86 37t-32 85q0 68 48 117t111 49q58 0 90.5 -36.5t32.5 -84.5q0 -67 -48 -117t-116 -50z" />
    <glyph glyph-name="uni01C4" unicode="&#x1c4;" horiz-adv-x="2534" 
d="M170 0l246 1400h390q144 0 246.5 -51.5t166.5 -138.5t94 -195.5t30 -222.5q0 -105 -24.5 -215.5t-78 -213.5t-140.5 -185t-213 -130t-295 -48h-422zM399 184h209q145 0 245.5 56t162.5 146t90 196t28 205q0 112 -35 210t-110.5 158.5t-195.5 60.5h-213zM1420 0l26 148
l923 1070h-692l31 182h953l-26 -149l-921 -1067h733l-32 -184h-995zM2113 1530l-216 312h171l166 -173l225 173h173l-326 -312h-193z" />
    <glyph glyph-name="uni01C5" unicode="&#x1c5;" horiz-adv-x="2312" 
d="M170 0l246 1400h390q144 0 246.5 -51.5t166.5 -138.5t94 -195.5t30 -222.5q0 -105 -24.5 -215.5t-78 -213.5t-140.5 -185t-213 -130t-295 -48h-422zM399 184h209q145 0 245.5 56t162.5 146t90 196t28 205q0 112 -35 210t-110.5 158.5t-195.5 60.5h-213zM1444 0l26 140
l612 709h-450l29 173h708l-22 -135l-617 -713h488l-31 -174h-743zM1940 1152l-216 312h171l166 -173l225 173h173l-326 -312h-193z" />
    <glyph glyph-name="uni01C6" unicode="&#x1c6;" horiz-adv-x="2064" 
d="M504 -24q-152 0 -242 117.5t-90 315.5q0 187 65 331t180.5 225t266.5 81q71 0 130 -25.5t95 -73.5l75 426l206 71l-254 -1444h-190l15 89q-47 -55 -112.5 -84t-144.5 -29zM561 159q65 0 128 34t104 89l82 463q-26 57 -75 88.5t-113 31.5q-96 0 -168 -54.5t-111.5 -154.5
t-39.5 -234q0 -123 51.5 -193t141.5 -70zM1196 0l26 140l612 709h-450l29 173h708l-22 -135l-617 -713h488l-31 -174h-743zM1692 1152l-216 312h171l166 -173l225 173h173l-326 -312h-193z" />
    <glyph glyph-name="uni01C7" unicode="&#x1c7;" horiz-adv-x="2132" 
d="M170 0l246 1400h200l-212 -1211h654l-35 -189h-853zM1573 -24q-152 0 -253 76.5t-137 195.5l172 75q28 -69 77 -114.5t137 -45.5q70 0 124.5 29t91.5 93.5t56 170.5l166 944h201l-173 -977q-25 -146 -77.5 -234.5t-119 -134.5t-135.5 -62t-130 -16z" />
    <glyph glyph-name="uni01C8" unicode="&#x1c8;" horiz-adv-x="1576" 
d="M170 0l246 1400h200l-212 -1211h654l-35 -189h-853zM993 -438l-63 162q147 19 206.5 69.5t76.5 148.5l190 1080h194l-190 -1076q-22 -126 -71 -203.5t-132 -119t-211 -61.5zM1531 1192q-44 0 -72 29.5t-28 70.5q0 37 19.5 68.5t49.5 50.5t63 19q46 0 74 -28.5t28 -70.5
q0 -38 -19 -69.5t-50 -50.5t-65 -19z" />
    <glyph glyph-name="uni01C9" unicode="&#x1c9;" horiz-adv-x="1086" 
d="M159 0l243 1373l204 71l-254 -1444h-193zM503 -438l-63 162q147 19 206.5 69.5t76.5 148.5l190 1080h194l-190 -1076q-22 -126 -71 -203.5t-132 -119t-211 -61.5zM1041 1192q-44 0 -72 29.5t-28 70.5q0 37 19.5 68.5t49.5 50.5t63 19q46 0 74 -28.5t28 -70.5
q0 -38 -19 -69.5t-50 -50.5t-65 -19z" />
    <glyph glyph-name="uni01CA" unicode="&#x1ca;" horiz-adv-x="2381" 
d="M170 0l246 1400h186l416 -952q9 -18 20.5 -47.5t16.5 -48.5q3 19 7 46t7 49l167 953h198l-246 -1400h-186l-403 913q-6 13 -16.5 39t-20.5 51.5t-14 38.5q-1 -12 -4.5 -38t-8 -52t-7.5 -42l-161 -910h-197zM1822 -24q-152 0 -253 76.5t-137 195.5l172 75
q28 -69 77 -114.5t137 -45.5q70 0 124.5 29t91.5 93.5t56 170.5l166 944h201l-173 -977q-25 -146 -77.5 -234.5t-119 -134.5t-135.5 -62t-130 -16z" />
    <glyph glyph-name="uni01CB" unicode="&#x1cb;" horiz-adv-x="1864" 
d="M170 0l246 1400h186l416 -952q9 -18 20.5 -47.5t16.5 -48.5q3 19 7 46t7 49l167 953h198l-246 -1400h-186l-403 913q-6 13 -16.5 39t-20.5 51.5t-14 38.5q-1 -12 -4.5 -38t-8 -52t-7.5 -42l-161 -910h-197zM1282 -438l-63 162q147 19 206.5 69.5t76.5 148.5l190 1080h194
l-190 -1076q-22 -126 -71 -203.5t-132 -119t-211 -61.5zM1820 1192q-44 0 -72 29.5t-28 70.5q0 37 19.5 68.5t49.5 50.5t63 19q46 0 74 -28.5t28 -70.5q0 -38 -19 -69.5t-50 -50.5t-65 -19z" />
    <glyph glyph-name="uni01CC" unicode="&#x1cc;" horiz-adv-x="1664" 
d="M154 0l180 1022h193l-19 -108q52 64 121.5 98t146.5 34q113 0 183.5 -54.5t95 -157.5t-0.5 -248l-104 -586h-193l106 602q22 128 -15 196.5t-133 68.5q-97 0 -170 -71.5t-93 -189.5l-106 -606h-192zM1081 -438l-63 162q147 19 206.5 69.5t76.5 148.5l190 1080h194
l-190 -1076q-22 -126 -71 -203.5t-132 -119t-211 -61.5zM1619 1192q-44 0 -72 29.5t-28 70.5q0 37 19.5 68.5t49.5 50.5t63 19q46 0 74 -28.5t28 -70.5q0 -38 -19 -69.5t-50 -50.5t-65 -19z" />
    <glyph glyph-name="uni01CD" unicode="&#x1cd;" horiz-adv-x="1317" 
d="M80 0l733 1400h181l244 -1400h-200l-55 330h-522l-171 -330h-210zM552 508h402l-80 484q-2 15 -6 38.5t-7.5 46.5t-4.5 35q-5 -12 -14.5 -34t-20.5 -45t-20 -38zM831 1530l-216 312h171l166 -173l225 173h173l-326 -312h-193z" />
    <glyph glyph-name="uni01CE" unicode="&#x1ce;" horiz-adv-x="1038" 
d="M447 -24q-139 0 -221.5 81t-82.5 215q0 115 54.5 201t151.5 133.5t227 47.5q68 0 132 -17t111 -49l16 84q19 98 -21.5 151.5t-131.5 53.5q-72 0 -159 -28.5t-165 -78.5l-26 160q93 58 188 87t186 29q114 0 191.5 -46.5t110.5 -130.5t13 -197l-118 -672h-187l14 83
q-51 -50 -127 -78.5t-156 -28.5zM493 146q68 0 140.5 32t130.5 88l26 158q-46 31 -101.5 49t-111.5 18q-76 0 -131.5 -24.5t-85.5 -69.5t-30 -105q0 -68 44.5 -107t118.5 -39zM627 1152l-216 312h171l166 -173l225 173h173l-326 -312h-193z" />
    <glyph glyph-name="uni01CF" unicode="&#x1cf;" horiz-adv-x="538" 
d="M170 0l246 1400h200l-246 -1400h-200zM444 1530l-216 312h171l166 -173l225 173h173l-326 -312h-193z" />
    <glyph glyph-name="uni01D0" unicode="&#x1d0;" horiz-adv-x="500" 
d="M155 0l180 1022h189l-180 -1022h-189zM358 1152l-216 312h171l166 -173l225 173h173l-326 -312h-193z" />
    <glyph glyph-name="uni01D1" unicode="&#x1d1;" horiz-adv-x="1382" 
d="M723 -24q-135 0 -229.5 48.5t-154 130.5t-86.5 187t-27 218q0 124 27.5 248.5t82.5 235t138 196t192.5 135t246.5 49.5q130 0 223 -48.5t152 -131t87 -186t28 -212.5q0 -127 -28 -252.5t-83.5 -236.5t-137.5 -197t-190 -135t-241 -49zM722 162q96 0 172.5 39t134.5 106.5
t97.5 155t59.5 186t20 197.5q0 96 -30 186t-96 148t-174 58q-97 0 -173.5 -40t-135 -108.5t-97 -155.5t-57.5 -183.5t-19 -190.5q0 -102 29.5 -192.5t95 -148t173.5 -57.5zM837 1530l-216 312h171l166 -173l225 173h173l-326 -312h-193z" />
    <glyph glyph-name="uni01D2" unicode="&#x1d2;" horiz-adv-x="1064" 
d="M552 -24q-180 0 -281 113.5t-101 316.5q0 185 68 329.5t187.5 227.5t272.5 83q172 0 273.5 -115t101.5 -309q0 -187 -67.5 -333t-185.5 -229.5t-268 -83.5zM560 159q92 0 164.5 58.5t114 159t41.5 228.5q0 122 -53 191t-147 69q-90 0 -162.5 -58t-114 -159t-41.5 -228
q0 -123 52.5 -192t145.5 -69zM620 1152l-216 312h171l166 -173l225 173h173l-326 -312h-193z" />
    <glyph glyph-name="uni01D3" unicode="&#x1d3;" horiz-adv-x="1329" 
d="M694 -24q-177 0 -283.5 74.5t-143 210t-3.5 321.5l145 818h199l-149 -850q-21 -121 -3.5 -208t79 -133.5t170.5 -46.5q82 0 154.5 31t126.5 110t80 224l153 873h198l-154 -884q-27 -152 -78 -255.5t-123.5 -166.5t-165.5 -90.5t-202 -27.5zM840 1532l-216 312h171
l166 -173l225 173h173l-326 -312h-193z" />
    <glyph glyph-name="uni01D4" unicode="&#x1d4;" horiz-adv-x="1095" 
d="M494 -24q-111 0 -182 52.5t-96.5 152t-1.5 238.5l106 603h193l-106 -597q-24 -133 14.5 -200.5t134.5 -67.5q107 0 175.5 64.5t89.5 185.5l107 615h193l-180 -1022h-193l17 98q-51 -62 -117.5 -92t-153.5 -30zM648 1152l-216 312h171l166 -173l225 173h173l-326 -312
h-193z" />
    <glyph glyph-name="uni01D5" unicode="&#x1d5;" horiz-adv-x="1329" 
d="M694 -24q-177 0 -283.5 74.5t-143 210t-3.5 321.5l145 818h199l-149 -850q-21 -121 -3.5 -208t79 -133.5t170.5 -46.5q82 0 154.5 31t126.5 110t80 224l153 873h198l-154 -884q-27 -152 -78 -255.5t-123.5 -166.5t-165.5 -90.5t-202 -27.5zM1117 1573q-44 0 -71.5 29
t-27.5 70q0 57 42 96.5t93 39.5q43 0 70 -28.5t27 -69.5q0 -38 -19 -69t-49.5 -49.5t-64.5 -18.5zM776 1573q-44 0 -70.5 29t-26.5 70q0 37 19 68t49.5 49.5t63.5 18.5q46 0 72 -28.5t26 -69.5q0 -57 -40.5 -97t-92.5 -40zM698 1983l29 164h634l-29 -164h-634z" />
    <glyph glyph-name="uni01D6" unicode="&#x1d6;" horiz-adv-x="1095" 
d="M494 -24q-111 0 -182 52.5t-96.5 152t-1.5 238.5l106 603h193l-106 -597q-24 -133 14.5 -200.5t134.5 -67.5q107 0 175.5 64.5t89.5 185.5l107 615h193l-180 -1022h-193l17 98q-51 -62 -117.5 -92t-153.5 -30zM925 1193q-44 0 -71.5 29t-27.5 70q0 57 42 96.5t93 39.5
q43 0 70 -28.5t27 -69.5q0 -38 -19 -69t-49.5 -49.5t-64.5 -18.5zM584 1193q-44 0 -70.5 29t-26.5 70q0 37 19 68t49.5 49.5t63.5 18.5q46 0 72 -28.5t26 -69.5q0 -57 -40.5 -97t-92.5 -40zM506 1603l29 164h634l-29 -164h-634z" />
    <glyph glyph-name="uni01D7" unicode="&#x1d7;" horiz-adv-x="1329" 
d="M694 -24q-177 0 -283.5 74.5t-143 210t-3.5 321.5l145 818h199l-149 -850q-21 -121 -3.5 -208t79 -133.5t170.5 -46.5q82 0 154.5 31t126.5 110t80 224l153 873h198l-154 -884q-27 -152 -78 -255.5t-123.5 -166.5t-165.5 -90.5t-202 -27.5zM1117 1573q-44 0 -71.5 29
t-27.5 70q0 57 42 96.5t93 39.5q43 0 70 -28.5t27 -69.5q0 -38 -19 -69t-49.5 -49.5t-64.5 -18.5zM776 1573q-44 0 -70.5 29t-26.5 70q0 37 19 68t49.5 49.5t63.5 18.5q46 0 72 -28.5t26 -69.5q0 -57 -40.5 -97t-92.5 -40zM882 1938l328 312h257l-400 -312h-185z" />
    <glyph glyph-name="uni01D8" unicode="&#x1d8;" horiz-adv-x="1095" 
d="M494 -24q-111 0 -182 52.5t-96.5 152t-1.5 238.5l106 603h193l-106 -597q-24 -133 14.5 -200.5t134.5 -67.5q107 0 175.5 64.5t89.5 185.5l107 615h193l-180 -1022h-193l17 98q-51 -62 -117.5 -92t-153.5 -30zM925 1193q-44 0 -71.5 29t-27.5 70q0 57 42 96.5t93 39.5
q43 0 70 -28.5t27 -69.5q0 -38 -19 -69t-49.5 -49.5t-64.5 -18.5zM584 1193q-44 0 -70.5 29t-26.5 70q0 37 19 68t49.5 49.5t63.5 18.5q46 0 72 -28.5t26 -69.5q0 -57 -40.5 -97t-92.5 -40zM690 1558l328 312h257l-400 -312h-185z" />
    <glyph glyph-name="uni01D9" unicode="&#x1d9;" horiz-adv-x="1329" 
d="M694 -24q-177 0 -283.5 74.5t-143 210t-3.5 321.5l145 818h199l-149 -850q-21 -121 -3.5 -208t79 -133.5t170.5 -46.5q82 0 154.5 31t126.5 110t80 224l153 873h198l-154 -884q-27 -152 -78 -255.5t-123.5 -166.5t-165.5 -90.5t-202 -27.5zM1117 1573q-44 0 -71.5 29
t-27.5 70q0 57 42 96.5t93 39.5q43 0 70 -28.5t27 -69.5q0 -38 -19 -69t-49.5 -49.5t-64.5 -18.5zM776 1573q-44 0 -70.5 29t-26.5 70q0 37 19 68t49.5 49.5t63.5 18.5q46 0 72 -28.5t26 -69.5q0 -57 -40.5 -97t-92.5 -40zM911 1938l-216 312h171l166 -173l225 173h173
l-326 -312h-193z" />
    <glyph glyph-name="uni01DA" unicode="&#x1da;" horiz-adv-x="1095" 
d="M494 -24q-111 0 -182 52.5t-96.5 152t-1.5 238.5l106 603h193l-106 -597q-24 -133 14.5 -200.5t134.5 -67.5q107 0 175.5 64.5t89.5 185.5l107 615h193l-180 -1022h-193l17 98q-51 -62 -117.5 -92t-153.5 -30zM925 1193q-44 0 -71.5 29t-27.5 70q0 57 42 96.5t93 39.5
q43 0 70 -28.5t27 -69.5q0 -38 -19 -69t-49.5 -49.5t-64.5 -18.5zM584 1193q-44 0 -70.5 29t-26.5 70q0 37 19 68t49.5 49.5t63.5 18.5q46 0 72 -28.5t26 -69.5q0 -57 -40.5 -97t-92.5 -40zM719 1558l-216 312h171l166 -173l225 173h173l-326 -312h-193z" />
    <glyph glyph-name="uni01DB" unicode="&#x1db;" horiz-adv-x="1329" 
d="M694 -24q-177 0 -283.5 74.5t-143 210t-3.5 321.5l145 818h199l-149 -850q-21 -121 -3.5 -208t79 -133.5t170.5 -46.5q82 0 154.5 31t126.5 110t80 224l153 873h198l-154 -884q-27 -152 -78 -255.5t-123.5 -166.5t-165.5 -90.5t-202 -27.5zM1117 1573q-44 0 -71.5 29
t-27.5 70q0 57 42 96.5t93 39.5q43 0 70 -28.5t27 -69.5q0 -38 -19 -69t-49.5 -49.5t-64.5 -18.5zM776 1573q-44 0 -70.5 29t-26.5 70q0 37 19 68t49.5 49.5t63.5 18.5q46 0 72 -28.5t26 -69.5q0 -57 -40.5 -97t-92.5 -40zM931 1938l-291 312h257l218 -312h-184z" />
    <glyph glyph-name="uni01DC" unicode="&#x1dc;" horiz-adv-x="1095" 
d="M494 -24q-111 0 -182 52.5t-96.5 152t-1.5 238.5l106 603h193l-106 -597q-24 -133 14.5 -200.5t134.5 -67.5q107 0 175.5 64.5t89.5 185.5l107 615h193l-180 -1022h-193l17 98q-51 -62 -117.5 -92t-153.5 -30zM925 1193q-44 0 -71.5 29t-27.5 70q0 57 42 96.5t93 39.5
q43 0 70 -28.5t27 -69.5q0 -38 -19 -69t-49.5 -49.5t-64.5 -18.5zM584 1193q-44 0 -70.5 29t-26.5 70q0 37 19 68t49.5 49.5t63.5 18.5q46 0 72 -28.5t26 -69.5q0 -57 -40.5 -97t-92.5 -40zM739 1558l-291 312h257l218 -312h-184z" />
    <glyph glyph-name="uni01DD" unicode="&#x1dd;" horiz-adv-x="1034" 
d="M529 -24q-112 0 -194.5 44.5t-127 132t-44.5 215.5q0 63 11 117.5t27 102.5h662q3 85 -20 149t-71.5 99.5t-122.5 35.5q-57 0 -118 -23t-116 -68l-94 131q71 63 157.5 98.5t192.5 35.5q120 0 207.5 -54t134.5 -151t47 -227q0 -129 -37.5 -244t-107.5 -204t-168 -139.5
t-218 -50.5zM543 148q80 0 139 37t97.5 98.5t55.5 136.5h-479q-11 -76 5.5 -137.5t61 -98t120.5 -36.5z" />
    <glyph glyph-name="uni01DE" unicode="&#x1de;" horiz-adv-x="1317" 
d="M80 0l733 1400h181l244 -1400h-200l-55 330h-522l-171 -330h-210zM552 508h402l-80 484q-2 15 -6 38.5t-7.5 46.5t-4.5 35q-5 -12 -14.5 -34t-20.5 -45t-20 -38zM1125 1569q-44 0 -71.5 29t-27.5 70q0 56 42 95.5t92 39.5q44 0 71 -28.5t27 -70.5q0 -37 -19 -67.5
t-50 -49t-64 -18.5zM747 1569q-44 0 -70.5 29t-26.5 70q0 37 19 67.5t49.5 49t63.5 18.5q46 0 72 -28.5t26 -70.5q0 -56 -40.5 -95.5t-92.5 -39.5zM689 1978l29 164h634l-29 -164h-634z" />
    <glyph glyph-name="uni01DF" unicode="&#x1df;" horiz-adv-x="1038" 
d="M447 -24q-139 0 -221.5 81t-82.5 215q0 115 54.5 201t151.5 133.5t227 47.5q68 0 132 -17t111 -49l16 84q19 98 -21.5 151.5t-131.5 53.5q-72 0 -159 -28.5t-165 -78.5l-26 160q93 58 188 87t186 29q114 0 191.5 -46.5t110.5 -130.5t13 -197l-118 -672h-187l14 83
q-51 -50 -127 -78.5t-156 -28.5zM493 146q68 0 140.5 32t130.5 88l26 158q-46 31 -101.5 49t-111.5 18q-76 0 -131.5 -24.5t-85.5 -69.5t-30 -105q0 -68 44.5 -107t118.5 -39zM904 1193q-44 0 -71.5 29t-27.5 70q0 57 42 96.5t93 39.5q43 0 70 -28.5t27 -69.5q0 -38 -19 -69
t-49.5 -49.5t-64.5 -18.5zM563 1193q-44 0 -70.5 29t-26.5 70q0 37 19 68t49.5 49.5t63.5 18.5q46 0 72 -28.5t26 -69.5q0 -57 -40.5 -97t-92.5 -40zM487 1603l29 164h634l-29 -164h-634z" />
    <glyph glyph-name="uni01E0" unicode="&#x1e0;" horiz-adv-x="1317" 
d="M80 0l733 1400h181l244 -1400h-200l-55 330h-522l-171 -330h-210zM552 508h402l-80 484q-2 15 -6 38.5t-7.5 46.5t-4.5 35q-5 -12 -14.5 -34t-20.5 -45t-20 -38zM934 1566q-41 0 -68 28.5t-27 69.5q0 56 42 96t95 40q42 0 68 -28t26 -70q0 -56 -41 -96t-95 -40zM691 1975
l29 164h634l-29 -164h-634z" />
    <glyph glyph-name="uni01E1" unicode="&#x1e1;" horiz-adv-x="1038" 
d="M447 -24q-139 0 -221.5 81t-82.5 215q0 115 54.5 201t151.5 133.5t227 47.5q68 0 132 -17t111 -49l16 84q19 98 -21.5 151.5t-131.5 53.5q-72 0 -159 -28.5t-165 -78.5l-26 160q93 58 188 87t186 29q114 0 191.5 -46.5t110.5 -130.5t13 -197l-118 -672h-187l14 83
q-51 -50 -127 -78.5t-156 -28.5zM493 146q68 0 140.5 32t130.5 88l26 158q-46 31 -101.5 49t-111.5 18q-76 0 -131.5 -24.5t-85.5 -69.5t-30 -105q0 -68 44.5 -107t118.5 -39zM730 1188q-41 0 -68 28.5t-27 69.5q0 56 42 96t95 40q42 0 68 -28t26 -70q0 -56 -41 -96t-95 -40
zM487 1597l29 164h634l-29 -164h-634z" />
    <glyph glyph-name="uni01E2" unicode="&#x1e2;" horiz-adv-x="1677" 
d="M-43 0l1027 1400h792l-30 -184h-544l-71 -400h322l-34 -184h-321l-77 -448h585l-32 -184h-783l58 330h-429l-238 -330h-225zM551 508h330l109 620q-13 -24 -33 -53.5t-40 -56.5zM823 1575l29 164h634l-29 -164h-634z" />
    <glyph glyph-name="uni01E3" unicode="&#x1e3;" horiz-adv-x="1637" 
d="M434 -24q-82 0 -148 34.5t-104.5 101t-38.5 161.5q0 132 61 218t159 127t210 41q61 0 122 -16.5t107 -47.5l12 71q17 95 -16 153t-129 58q-82 0 -166.5 -31t-150.5 -76l-25 160q69 45 164.5 80.5t202.5 35.5q61 0 113 -19.5t91 -54t60 -79.5q66 79 157 116t188 37
q112 0 193 -43.5t124.5 -130t43.5 -214.5q0 -68 -12.5 -126.5t-25.5 -96.5h-662q-4 -80 19 -145t72 -102.5t124 -37.5q57 0 118 23.5t115 69.5l94 -133q-67 -59 -153.5 -96.5t-196.5 -37.5q-116 0 -202 53t-127 146q-89 -107 -192.5 -153t-200.5 -46zM490 146q85 0 160 49
t127 113q-4 23 -5 57t2 59q-34 26 -88.5 46.5t-114.5 20.5q-64 0 -119.5 -20.5t-89.5 -65t-34 -114.5q0 -63 41.5 -104t120.5 -41zM992 602h479q11 76 -5 137.5t-61 98t-121 36.5q-71 0 -130 -31.5t-100.5 -92t-61.5 -148.5zM695 1197l29 164h634l-29 -164h-634z" />
    <glyph glyph-name="uni01E4" unicode="&#x1e4;" horiz-adv-x="1471" 
d="M714 -24q-130 0 -222.5 48t-151 130.5t-86 187.5t-27.5 218q0 164 43.5 318t131 277.5t216.5 196t300 72.5q122 0 204.5 -40t134 -99.5t78.5 -116.5l-177 -94q-35 69 -97.5 116.5t-167.5 47.5q-92 0 -166 -38.5t-131 -105t-95 -152t-57.5 -181t-19.5 -190.5
q0 -109 30.5 -201.5t96.5 -149.5t173 -57q139 0 219 87.5t102 217.5l53 306h210l-47 -272q-30 -171 -105 -288.5t-188 -177.5t-254 -60zM775 381l32 183h712l-32 -183h-712z" />
    <glyph glyph-name="uni01E5" unicode="&#x1e5;" horiz-adv-x="1232" 
d="M362 -532l-64 156q151 10 239.5 40.5t130.5 80t53 116.5l68 393q-54 -58 -123 -88t-155 -30q-90 0 -165 41.5t-119.5 120.5t-44.5 192q0 112 35.5 212t101 177.5t155.5 122t198 44.5q94 0 153 -38t83 -72l16 86h192l-199 -1134q-19 -105 -61.5 -182.5t-110 -128.5
t-163 -77.5t-220.5 -31.5zM577 312q83 0 141.5 35t103.5 92l54 308q-23 55 -75.5 89.5t-119.5 34.5q-96 0 -164.5 -47.5t-105 -127.5t-36.5 -176q0 -94 54 -151t148 -57zM426 -168l29 172h746l-30 -172h-745z" />
    <glyph glyph-name="Gcaron" unicode="&#x1e6;" horiz-adv-x="1308" 
d="M714 -24q-130 0 -222.5 48t-151 130.5t-86 187.5t-27.5 218q0 164 43.5 318t131 277.5t216.5 196t300 72.5q123 0 206.5 -41t135 -101.5t77.5 -118.5l-176 -95q-34 69 -97 119.5t-171 50.5q-92 0 -166 -38.5t-131 -105t-95 -152t-57.5 -181t-19.5 -190.5
q0 -109 30.5 -201.5t96.5 -149.5t173 -57q130 0 218 80.5t114 211.5l11 57h-245l33 176h454l-23 -129q-28 -158 -82 -269t-129.5 -180.5t-167 -101.5t-193.5 -32zM841 1530l-216 312h171l166 -173l225 173h173l-326 -312h-193z" />
    <glyph glyph-name="gcaron" unicode="&#x1e7;" horiz-adv-x="1084" 
d="M386 -426l-64 160q143 8 230 40t130 84.5t55 119.5l18 109q-37 -43 -99 -77t-152 -34q-104 0 -178.5 54t-115 148.5t-40.5 217.5q0 193 65.5 339.5t179 228.5t257.5 82q67 0 129 -27t104 -83l16 86h194l-183 -1017q-29 -168 -104.5 -258t-188 -127t-253.5 -46zM561 159
q74 0 134 38t96 92l80 453q-17 45 -68 84t-127 39q-100 0 -169.5 -61.5t-105.5 -162.5t-36 -221q0 -116 52 -188.5t144 -72.5zM608 1152l-216 312h171l166 -173l225 173h173l-326 -312h-193z" />
    <glyph glyph-name="uni01E8" unicode="&#x1e8;" horiz-adv-x="1288" 
d="M170 0l246 1400h200l-116 -663l627 663h239l-481 -506l317 -894h-211l-254 738l-291 -306l-76 -432h-200zM780 1530l-216 312h171l166 -173l225 173h173l-326 -312h-193z" />
    <glyph glyph-name="uni01E9" unicode="&#x1e9;" horiz-adv-x="1022" 
d="M155 0l241 1373l205 71l-133 -754l363 332h241l-334 -298l237 -724h-208l-181 588l-162 -148l-78 -440h-191zM719 1530l-216 312h171l166 -173l225 173h173l-326 -312h-193z" />
    <glyph glyph-name="uni01EA" unicode="&#x1ea;" horiz-adv-x="1382" 
d="M723 -24q-135 0 -229.5 48.5t-154 130.5t-86.5 187t-27 218q0 124 27.5 248.5t82.5 235t138 196t192.5 135t246.5 49.5q130 0 223 -48.5t152 -131t87 -186t28 -212.5q0 -127 -28 -252.5t-83.5 -236.5t-137.5 -197t-190 -135t-241 -49zM722 162q96 0 172.5 39t134.5 106.5
t97.5 155t59.5 186t20 197.5q0 96 -30 186t-96 148t-174 58q-97 0 -173.5 -40t-135 -108.5t-97 -155.5t-57.5 -183.5t-19 -190.5q0 -102 29.5 -192.5t95 -148t173.5 -57.5zM686 -478q-85 0 -138 45t-53 125q0 113 86.5 197.5t233.5 130.5h135q-103 -41 -168 -91t-95 -103
t-30 -102q0 -41 22 -60.5t52 -19.5q34 0 58.5 14t41.5 29l79 -70q-33 -33 -88.5 -64t-135.5 -31z" />
    <glyph glyph-name="uni01EB" unicode="&#x1eb;" horiz-adv-x="1064" 
d="M552 -24q-180 0 -281 113.5t-101 316.5q0 185 68 329.5t187.5 227.5t272.5 83q172 0 273.5 -115t101.5 -309q0 -187 -67.5 -333t-185.5 -229.5t-268 -83.5zM560 159q92 0 164.5 58.5t114 159t41.5 228.5q0 122 -53 191t-147 69q-90 0 -162.5 -58t-114 -159t-41.5 -228
q0 -123 52.5 -192t145.5 -69zM488 -478q-85 0 -138 45t-53 125q0 113 86.5 197.5t233.5 130.5h135q-103 -41 -168 -91t-95 -103t-30 -102q0 -41 22 -60.5t52 -19.5q34 0 58.5 14t41.5 29l79 -70q-33 -33 -88.5 -64t-135.5 -31z" />
    <glyph glyph-name="uni01EC" unicode="&#x1ec;" horiz-adv-x="1382" 
d="M723 -24q-135 0 -229.5 48.5t-154 130.5t-86.5 187t-27 218q0 124 27.5 248.5t82.5 235t138 196t192.5 135t246.5 49.5q130 0 223 -48.5t152 -131t87 -186t28 -212.5q0 -127 -28 -252.5t-83.5 -236.5t-137.5 -197t-190 -135t-241 -49zM722 162q96 0 172.5 39t134.5 106.5
t97.5 155t59.5 186t20 197.5q0 96 -30 186t-96 148t-174 58q-97 0 -173.5 -40t-135 -108.5t-97 -155.5t-57.5 -183.5t-19 -190.5q0 -102 29.5 -192.5t95 -148t173.5 -57.5zM686 -478q-85 0 -138 45t-53 125q0 113 86.5 197.5t233.5 130.5h135q-103 -41 -168 -91t-95 -103
t-30 -102q0 -41 22 -60.5t52 -19.5q34 0 58.5 14t41.5 29l79 -70q-33 -33 -88.5 -64t-135.5 -31zM624 1575l29 164h634l-29 -164h-634z" />
    <glyph glyph-name="uni01ED" unicode="&#x1ed;" horiz-adv-x="1064" 
d="M552 -24q-180 0 -281 113.5t-101 316.5q0 185 68 329.5t187.5 227.5t272.5 83q172 0 273.5 -115t101.5 -309q0 -187 -67.5 -333t-185.5 -229.5t-268 -83.5zM560 159q92 0 164.5 58.5t114 159t41.5 228.5q0 122 -53 191t-147 69q-90 0 -162.5 -58t-114 -159t-41.5 -228
q0 -123 52.5 -192t145.5 -69zM488 -478q-85 0 -138 45t-53 125q0 113 86.5 197.5t233.5 130.5h135q-103 -41 -168 -91t-95 -103t-30 -102q0 -41 22 -60.5t52 -19.5q34 0 58.5 14t41.5 29l79 -70q-33 -33 -88.5 -64t-135.5 -31zM407 1197l29 164h634l-29 -164h-634z" />
    <glyph glyph-name="uni01EE" unicode="&#x1ee;" horiz-adv-x="1189" 
d="M634 -24q-132 0 -232 45.5t-166 123.5t-93 175l185 61q39 -105 118.5 -159t194.5 -54q83 0 146 32.5t98 90t35 131.5q0 96 -65.5 158.5t-228.5 66.5l-110 119l460 442h-616l34 192h878l-32 -177l-465 -430q175 -11 264.5 -112.5t89.5 -257.5q0 -132 -65 -232.5
t-177 -157.5t-253 -57zM760 1530l-216 312h171l166 -173l225 173h173l-326 -312h-193z" />
    <glyph glyph-name="uni01EF" unicode="&#x1ef;" horiz-adv-x="1089" 
d="M412 -426q-176 0 -289 89t-135 245l183 58q22 -105 85 -154t160 -49q71 0 130.5 33t94.5 91t35 133q0 107 -71.5 168.5t-212.5 67.5l-102 112l450 476h-534l30 178h777l-25 -151l-458 -476q163 -17 253.5 -115t90.5 -253q0 -127 -61.5 -229.5t-166 -163t-234.5 -60.5z
M552 1152l-216 312h171l166 -173l225 173h173l-326 -312h-193z" />
    <glyph glyph-name="uni01F0" unicode="&#x1f0;" horiz-adv-x="509" 
d="M-74 -438l-63 162q145 19 205 69t78 149l190 1080h194l-190 -1076q-22 -126 -71 -203.5t-132 -119t-211 -61.5zM359 1152l-216 312h171l166 -173l225 173h173l-326 -312h-193z" />
    <glyph glyph-name="uni01F1" unicode="&#x1f1;" horiz-adv-x="2534" 
d="M170 0l246 1400h390q144 0 246.5 -51.5t166.5 -138.5t94 -195.5t30 -222.5q0 -105 -24.5 -215.5t-78 -213.5t-140.5 -185t-213 -130t-295 -48h-422zM399 184h209q145 0 245.5 56t162.5 146t90 196t28 205q0 112 -35 210t-110.5 158.5t-195.5 60.5h-213zM1420 0l26 148
l923 1070h-692l31 182h953l-26 -149l-921 -1067h733l-32 -184h-995z" />
    <glyph glyph-name="uni01F2" unicode="&#x1f2;" horiz-adv-x="2302" 
d="M170 0l246 1400h390q144 0 246.5 -51.5t166.5 -138.5t94 -195.5t30 -222.5q0 -105 -24.5 -215.5t-78 -213.5t-140.5 -185t-213 -130t-295 -48h-422zM399 184h209q145 0 245.5 56t162.5 146t90 196t28 205q0 112 -35 210t-110.5 158.5t-195.5 60.5h-213zM1434 0l26 140
l612 709h-450l29 173h708l-22 -135l-617 -713h488l-31 -174h-743z" />
    <glyph glyph-name="uni01F3" unicode="&#x1f3;" horiz-adv-x="2064" 
d="M504 -24q-152 0 -242 117.5t-90 315.5q0 187 65 331t180.5 225t266.5 81q71 0 130 -25.5t95 -73.5l75 426l206 71l-254 -1444h-190l15 89q-47 -55 -112.5 -84t-144.5 -29zM561 159q65 0 128 34t104 89l82 463q-26 57 -75 88.5t-113 31.5q-96 0 -168 -54.5t-111.5 -154.5
t-39.5 -234q0 -123 51.5 -193t141.5 -70zM1196 0l26 140l612 709h-450l29 173h708l-22 -135l-617 -713h488l-31 -174h-743z" />
    <glyph glyph-name="uni01F4" unicode="&#x1f4;" horiz-adv-x="1308" 
d="M714 -24q-130 0 -222.5 48t-151 130.5t-86 187.5t-27.5 218q0 164 43.5 318t131 277.5t216.5 196t300 72.5q123 0 206.5 -41t135 -101.5t77.5 -118.5l-176 -95q-34 69 -97 119.5t-171 50.5q-92 0 -166 -38.5t-131 -105t-95 -152t-57.5 -181t-19.5 -190.5
q0 -109 30.5 -201.5t96.5 -149.5t173 -57q130 0 218 80.5t114 211.5l11 57h-245l33 176h454l-23 -129q-28 -158 -82 -269t-129.5 -180.5t-167 -101.5t-193.5 -32zM811 1530l328 312h257l-400 -312h-185z" />
    <glyph glyph-name="uni01F5" unicode="&#x1f5;" horiz-adv-x="1084" 
d="M386 -426l-64 160q143 8 230 40t130 84.5t55 119.5l18 109q-37 -43 -99 -77t-152 -34q-104 0 -178.5 54t-115 148.5t-40.5 217.5q0 193 65.5 339.5t179 228.5t257.5 82q67 0 129 -27t104 -83l16 86h194l-183 -1017q-29 -168 -104.5 -258t-188 -127t-253.5 -46zM561 159
q74 0 134 38t96 92l80 453q-17 45 -68 84t-127 39q-100 0 -169.5 -61.5t-105.5 -162.5t-36 -221q0 -116 52 -188.5t144 -72.5zM577 1152l328 312h257l-400 -312h-185z" />
    <glyph glyph-name="uni01F8" unicode="&#x1f8;" horiz-adv-x="1356" 
d="M170 0l246 1400h186l416 -952q9 -18 20.5 -47.5t16.5 -48.5q3 19 7 46t7 49l167 953h198l-246 -1400h-186l-403 913q-6 13 -16.5 39t-20.5 51.5t-14 38.5q-1 -12 -4.5 -38t-8 -52t-7.5 -42l-161 -910h-197zM874 1530l-291 312h257l218 -312h-184z" />
    <glyph glyph-name="uni01F9" unicode="&#x1f9;" horiz-adv-x="1096" 
d="M154 0l180 1022h193l-19 -108q52 64 121.5 98t146.5 34q113 0 183.5 -54.5t95 -157.5t-0.5 -248l-104 -586h-193l106 602q22 128 -15 196.5t-133 68.5q-97 0 -170 -71.5t-93 -189.5l-106 -606h-192zM679 1152l-291 312h257l218 -312h-184z" />
    <glyph glyph-name="Aringacute" unicode="&#x1fa;" horiz-adv-x="1317" 
d="M80 0l676 1292q-35 27 -56 69.5t-21 92.5q0 76 40.5 138t104.5 99t135 37q85 0 139.5 -58.5t54.5 -143.5q0 -73 -40 -135t-100 -97l225 -1294h-200l-55 329h-522l-171 -329h-210zM552 508h402l-80 484q-3 16 -6.5 38.5t-6.5 44.5t-5 37q-5 -12 -14.5 -34t-20.5 -44.5
t-20 -38.5zM897 1386q47 0 82 35t35 88q0 38 -22 60.5t-58 22.5q-43 0 -78 -32.5t-35 -87.5q0 -36 21.5 -61t54.5 -25zM895 1812l328 312h257l-400 -312h-185z" />
    <glyph glyph-name="aringacute" unicode="&#x1fb;" horiz-adv-x="1038" 
d="M447 -24q-139 0 -221.5 81t-82.5 215q0 115 54.5 201t151.5 133.5t227 47.5q68 0 132 -17t111 -49l16 84q19 98 -21.5 151.5t-131.5 53.5q-72 0 -159 -28.5t-165 -78.5l-26 160q93 58 188 87t186 29q114 0 191.5 -46.5t110.5 -130.5t13 -197l-118 -672h-187l14 83
q-51 -50 -127 -78.5t-156 -28.5zM493 146q68 0 140.5 32t130.5 88l26 158q-46 31 -101.5 49t-111.5 18q-76 0 -131.5 -24.5t-85.5 -69.5t-30 -105q0 -68 44.5 -107t118.5 -39zM737 1123q-84 0 -139.5 61t-55.5 144q0 76 40.5 138.5t104.5 99t136 36.5q83 0 138 -58.5
t55 -142.5q0 -76 -40.5 -139t-104.5 -101t-134 -38zM762 1262q46 0 79.5 34.5t33.5 86.5q0 38 -20.5 60.5t-55.5 22.5q-44 0 -79 -32.5t-35 -86.5q0 -36 21.5 -60.5t55.5 -24.5zM720 1591l328 312h257l-400 -312h-185z" />
    <glyph glyph-name="AEacute" unicode="&#x1fc;" horiz-adv-x="1677" 
d="M-43 0l1027 1400h792l-30 -184h-544l-71 -400h322l-34 -184h-321l-77 -448h585l-32 -184h-783l58 330h-429l-238 -330h-225zM551 508h330l109 620q-13 -24 -33 -53.5t-40 -56.5zM1005 1530l328 312h257l-400 -312h-185z" />
    <glyph glyph-name="aeacute" unicode="&#x1fd;" horiz-adv-x="1637" 
d="M434 -24q-82 0 -148 34.5t-104.5 101t-38.5 161.5q0 132 61 218t159 127t210 41q61 0 122 -16.5t107 -47.5l12 71q17 95 -16 153t-129 58q-82 0 -166.5 -31t-150.5 -76l-25 160q69 45 164.5 80.5t202.5 35.5q61 0 113 -19.5t91 -54t60 -79.5q66 79 157 116t188 37
q112 0 193 -43.5t124.5 -130t43.5 -214.5q0 -68 -12.5 -126.5t-25.5 -96.5h-662q-4 -80 19 -145t72 -102.5t124 -37.5q57 0 118 23.5t115 69.5l94 -133q-67 -59 -153.5 -96.5t-196.5 -37.5q-116 0 -202 53t-127 146q-89 -107 -192.5 -153t-200.5 -46zM490 146q85 0 160 49
t127 113q-4 23 -5 57t2 59q-34 26 -88.5 46.5t-114.5 20.5q-64 0 -119.5 -20.5t-89.5 -65t-34 -114.5q0 -63 41.5 -104t120.5 -41zM992 602h479q11 76 -5 137.5t-61 98t-121 36.5q-71 0 -130 -31.5t-100.5 -92t-61.5 -148.5zM877 1152l328 312h257l-400 -312h-185z" />
    <glyph glyph-name="Oslashacute" unicode="&#x1fe;" horiz-adv-x="1382" 
d="M122 -24l182 221q-41 73 -59.5 171.5t-18.5 189.5q0 124 26.5 248t81 235.5t137.5 197.5t195 135.5t254 49.5q98 0 174.5 -27.5t130.5 -76.5l86 104h196l-184 -222q41 -72 60.5 -170t19.5 -187q0 -126 -27 -250.5t-82 -236t-137.5 -198t-193 -135.5t-249.5 -49
q-102 0 -179.5 27t-134.5 75l-83 -102h-195zM725 163q95 0 172 38.5t134.5 106t96 154t58 183.5t19.5 194q0 43 -7 96t-20 91l-650 -791q35 -34 83.5 -53t113.5 -19zM447 372l649 792q-34 35 -82.5 54.5t-114.5 19.5q-95 0 -171.5 -40t-133.5 -108t-95 -155.5t-57 -183
t-19 -189.5q0 -44 5.5 -97.5t18.5 -92.5zM815 1530l328 312h257l-400 -312h-185z" />
    <glyph glyph-name="oslashacute" unicode="&#x1ff;" horiz-adv-x="1064" 
d="M92 -24l139 167q-31 54 -46 121t-15 142q0 123 34.5 237t102.5 205t166.5 144.5t224.5 53.5q70 0 125 -19t98 -53l59 72h171l-142 -170q64 -111 64 -254q0 -124 -34.5 -239.5t-101 -207.5t-164 -145.5t-221.5 -53.5q-73 0 -130.5 18t-101.5 51l-56 -69h-172zM560 159
q78 0 137.5 38t100.5 101.5t61.5 142t20.5 160.5q0 26 -2.5 52t-11.5 49l-418 -503q21 -19 48.5 -29.5t63.5 -10.5zM375 318l421 505q-22 20 -51 31t-65 11q-76 0 -135 -38t-99.5 -102t-62 -142.5t-21.5 -158.5q0 -27 3 -54.5t10 -51.5zM591 1152l328 312h257l-400 -312
h-185z" />
    <glyph glyph-name="uni0200" unicode="&#x200;" horiz-adv-x="1317" 
d="M80 0l733 1400h181l244 -1400h-200l-55 330h-522l-171 -330h-210zM552 508h402l-80 484q-2 15 -6 38.5t-7.5 46.5t-4.5 35q-5 -12 -14.5 -34t-20.5 -45t-20 -38zM640 1530l-291 312h259l218 -312h-186zM1033 1530l-292 312h259l218 -312h-185z" />
    <glyph glyph-name="uni0201" unicode="&#x201;" horiz-adv-x="1038" 
d="M447 -24q-139 0 -221.5 81t-82.5 215q0 115 54.5 201t151.5 133.5t227 47.5q68 0 132 -17t111 -49l16 84q19 98 -21.5 151.5t-131.5 53.5q-72 0 -159 -28.5t-165 -78.5l-26 160q93 58 188 87t186 29q114 0 191.5 -46.5t110.5 -130.5t13 -197l-118 -672h-187l14 83
q-51 -50 -127 -78.5t-156 -28.5zM493 146q68 0 140.5 32t130.5 88l26 158q-46 31 -101.5 49t-111.5 18q-76 0 -131.5 -24.5t-85.5 -69.5t-30 -105q0 -68 44.5 -107t118.5 -39zM436 1152l-291 312h259l218 -312h-186zM829 1152l-292 312h259l218 -312h-185z" />
    <glyph glyph-name="uni0202" unicode="&#x202;" horiz-adv-x="1317" 
d="M80 0l733 1400h181l244 -1400h-200l-55 330h-522l-171 -330h-210zM552 508h402l-80 484q-2 15 -6 38.5t-7.5 46.5t-4.5 35q-5 -12 -14.5 -34t-20.5 -45t-20 -38zM595 1532q16 90 65 164.5t129.5 120t190.5 45.5q146 0 217 -77t71 -181q0 -18 -1.5 -36t-4.5 -36h-157
q2 9 2.5 18.5t0.5 17.5q0 66 -31.5 103.5t-114.5 37.5q-87 0 -141 -50.5t-68 -126.5h-158z" />
    <glyph glyph-name="uni0203" unicode="&#x203;" horiz-adv-x="1038" 
d="M447 -24q-139 0 -221.5 81t-82.5 215q0 115 54.5 201t151.5 133.5t227 47.5q68 0 132 -17t111 -49l16 84q19 98 -21.5 151.5t-131.5 53.5q-72 0 -159 -28.5t-165 -78.5l-26 160q93 58 188 87t186 29q114 0 191.5 -46.5t110.5 -130.5t13 -197l-118 -672h-187l14 83
q-51 -50 -127 -78.5t-156 -28.5zM493 146q68 0 140.5 32t130.5 88l26 158q-46 31 -101.5 49t-111.5 18q-76 0 -131.5 -24.5t-85.5 -69.5t-30 -105q0 -68 44.5 -107t118.5 -39zM391 1154q16 90 65 164.5t129.5 120t190.5 45.5q146 0 217 -77t71 -181q0 -18 -1.5 -36t-4.5 -36
h-157q2 9 2.5 18.5t0.5 17.5q0 66 -31.5 103.5t-114.5 37.5q-87 0 -141 -50.5t-68 -126.5h-158z" />
    <glyph glyph-name="uni0204" unicode="&#x204;" horiz-adv-x="1152" 
d="M170 0l246 1400h835l-31 -184h-636l-70 -400h402l-34 -184h-400l-79 -448h678l-33 -184h-878zM570 1530l-291 312h259l218 -312h-186zM963 1530l-292 312h259l218 -312h-185z" />
    <glyph glyph-name="uni0205" unicode="&#x205;" horiz-adv-x="1041" 
d="M559 -24q-119 0 -206 54t-135 151t-48 227t38 245t108 203.5t168 139t218 50.5q112 0 194 -44.5t127 -132t45 -215.5q0 -62 -11 -115.5t-27 -103.5h-663q0 -88 23.5 -152t71 -98.5t121.5 -34.5q57 0 118 23.5t114 69.5l94 -133q-70 -61 -156.5 -97.5t-193.5 -36.5z
M395 602h479q12 80 -5 141t-62.5 96t-119.5 35q-80 0 -139 -37t-97 -98.5t-56 -136.5zM431 1152l-291 312h259l218 -312h-186zM824 1152l-292 312h259l218 -312h-185z" />
    <glyph glyph-name="uni0206" unicode="&#x206;" horiz-adv-x="1152" 
d="M170 0l246 1400h835l-31 -184h-636l-70 -400h402l-34 -184h-400l-79 -448h678l-33 -184h-878zM525 1532q16 90 65 164.5t129.5 120t190.5 45.5q146 0 217 -77t71 -181q0 -18 -1.5 -36t-4.5 -36h-157q2 9 2.5 18.5t0.5 17.5q0 66 -31.5 103.5t-114.5 37.5
q-87 0 -141 -50.5t-68 -126.5h-158z" />
    <glyph glyph-name="uni0207" unicode="&#x207;" horiz-adv-x="1041" 
d="M559 -24q-119 0 -206 54t-135 151t-48 227t38 245t108 203.5t168 139t218 50.5q112 0 194 -44.5t127 -132t45 -215.5q0 -62 -11 -115.5t-27 -103.5h-663q0 -88 23.5 -152t71 -98.5t121.5 -34.5q57 0 118 23.5t114 69.5l94 -133q-70 -61 -156.5 -97.5t-193.5 -36.5z
M395 602h479q12 80 -5 141t-62.5 96t-119.5 35q-80 0 -139 -37t-97 -98.5t-56 -136.5zM387 1154q16 90 65 164.5t129.5 120t190.5 45.5q146 0 217 -77t71 -181q0 -18 -1.5 -36t-4.5 -36h-157q2 9 2.5 18.5t0.5 17.5q0 66 -31.5 103.5t-114.5 37.5q-87 0 -141 -50.5
t-68 -126.5h-158z" />
    <glyph glyph-name="uni0208" unicode="&#x208;" horiz-adv-x="538" 
d="M170 0l246 1400h200l-246 -1400h-200zM251 1530l-291 312h259l218 -312h-186zM644 1530l-292 312h259l218 -312h-185z" />
    <glyph glyph-name="uni0209" unicode="&#x209;" horiz-adv-x="500" 
d="M155 0l180 1022h189l-180 -1022h-189zM165 1152l-291 312h259l218 -312h-186zM558 1152l-292 312h259l218 -312h-185z" />
    <glyph glyph-name="uni020A" unicode="&#x20a;" horiz-adv-x="538" 
d="M170 0l246 1400h200l-246 -1400h-200zM207 1532q16 90 65 164.5t129.5 120t190.5 45.5q146 0 217 -77t71 -181q0 -18 -1.5 -36t-4.5 -36h-157q2 9 2.5 18.5t0.5 17.5q0 66 -31.5 103.5t-114.5 37.5q-87 0 -141 -50.5t-68 -126.5h-158z" />
    <glyph glyph-name="uni020B" unicode="&#x20b;" horiz-adv-x="500" 
d="M155 0l180 1022h189l-180 -1022h-189zM121 1154q16 90 65 164.5t129.5 120t190.5 45.5q146 0 217 -77t71 -181q0 -18 -1.5 -36t-4.5 -36h-157q2 9 2.5 18.5t0.5 17.5q0 66 -31.5 103.5t-114.5 37.5q-87 0 -141 -50.5t-68 -126.5h-158z" />
    <glyph glyph-name="uni020C" unicode="&#x20c;" horiz-adv-x="1382" 
d="M723 -24q-135 0 -229.5 48.5t-154 130.5t-86.5 187t-27 218q0 124 27.5 248.5t82.5 235t138 196t192.5 135t246.5 49.5q130 0 223 -48.5t152 -131t87 -186t28 -212.5q0 -127 -28 -252.5t-83.5 -236.5t-137.5 -197t-190 -135t-241 -49zM722 162q96 0 172.5 39t134.5 106.5
t97.5 155t59.5 186t20 197.5q0 96 -30 186t-96 148t-174 58q-97 0 -173.5 -40t-135 -108.5t-97 -155.5t-57.5 -183.5t-19 -190.5q0 -102 29.5 -192.5t95 -148t173.5 -57.5zM645 1530l-291 312h259l218 -312h-186zM1038 1530l-292 312h259l218 -312h-185z" />
    <glyph glyph-name="uni020D" unicode="&#x20d;" horiz-adv-x="1064" 
d="M552 -24q-180 0 -281 113.5t-101 316.5q0 185 68 329.5t187.5 227.5t272.5 83q172 0 273.5 -115t101.5 -309q0 -187 -67.5 -333t-185.5 -229.5t-268 -83.5zM560 159q92 0 164.5 58.5t114 159t41.5 228.5q0 122 -53 191t-147 69q-90 0 -162.5 -58t-114 -159t-41.5 -228
q0 -123 52.5 -192t145.5 -69zM428 1152l-291 312h259l218 -312h-186zM821 1152l-292 312h259l218 -312h-185z" />
    <glyph glyph-name="uni020E" unicode="&#x20e;" horiz-adv-x="1382" 
d="M723 -24q-135 0 -229.5 48.5t-154 130.5t-86.5 187t-27 218q0 124 27.5 248.5t82.5 235t138 196t192.5 135t246.5 49.5q130 0 223 -48.5t152 -131t87 -186t28 -212.5q0 -127 -28 -252.5t-83.5 -236.5t-137.5 -197t-190 -135t-241 -49zM722 162q96 0 172.5 39t134.5 106.5
t97.5 155t59.5 186t20 197.5q0 96 -30 186t-96 148t-174 58q-97 0 -173.5 -40t-135 -108.5t-97 -155.5t-57.5 -183.5t-19 -190.5q0 -102 29.5 -192.5t95 -148t173.5 -57.5zM600 1532q16 90 65 164.5t129.5 120t190.5 45.5q146 0 217 -77t71 -181q0 -18 -1.5 -36t-4.5 -36
h-157q2 9 2.5 18.5t0.5 17.5q0 66 -31.5 103.5t-114.5 37.5q-87 0 -141 -50.5t-68 -126.5h-158z" />
    <glyph glyph-name="uni020F" unicode="&#x20f;" horiz-adv-x="1064" 
d="M552 -24q-180 0 -281 113.5t-101 316.5q0 185 68 329.5t187.5 227.5t272.5 83q172 0 273.5 -115t101.5 -309q0 -187 -67.5 -333t-185.5 -229.5t-268 -83.5zM560 159q92 0 164.5 58.5t114 159t41.5 228.5q0 122 -53 191t-147 69q-90 0 -162.5 -58t-114 -159t-41.5 -228
q0 -123 52.5 -192t145.5 -69zM383 1154q16 90 65 164.5t129.5 120t190.5 45.5q146 0 217 -77t71 -181q0 -18 -1.5 -36t-4.5 -36h-157q2 9 2.5 18.5t0.5 17.5q0 66 -31.5 103.5t-114.5 37.5q-87 0 -141 -50.5t-68 -126.5h-158z" />
    <glyph glyph-name="uni0210" unicode="&#x210;" horiz-adv-x="1284" 
d="M170 0l246 1400h501q116 0 196.5 -32t130.5 -87t72.5 -123t22.5 -138q0 -66 -20 -134t-64.5 -128t-115.5 -103.5t-174 -61.5l185 -593h-212l-178 582h-288l-102 -582h-200zM505 766h349q113 0 175 39.5t86.5 97t24.5 111.5q0 51 -23 97t-74.5 75.5t-138.5 29.5h-321z
M588 1530l-291 312h259l218 -312h-186zM981 1530l-292 312h259l218 -312h-185z" />
    <glyph glyph-name="uni0211" unicode="&#x211;" horiz-adv-x="776" 
d="M154 0l180 1022h193l-23 -122q48 68 116.5 107.5t138.5 39.5q88 0 145 -58l-58 -183q-31 25 -66 37.5t-72 12.5q-62 0 -115.5 -35.5t-91.5 -98.5t-53 -148l-101 -574h-193zM351 1152l-291 312h259l218 -312h-186zM744 1152l-292 312h259l218 -312h-185z" />
    <glyph glyph-name="uni0212" unicode="&#x212;" horiz-adv-x="1284" 
d="M170 0l246 1400h501q116 0 196.5 -32t130.5 -87t72.5 -123t22.5 -138q0 -66 -20 -134t-64.5 -128t-115.5 -103.5t-174 -61.5l185 -593h-212l-178 582h-288l-102 -582h-200zM505 766h349q113 0 175 39.5t86.5 97t24.5 111.5q0 51 -23 97t-74.5 75.5t-138.5 29.5h-321z
M542 1532q16 90 65 164.5t129.5 120t190.5 45.5q146 0 217 -77t71 -181q0 -18 -1.5 -36t-4.5 -36h-157q2 9 2.5 18.5t0.5 17.5q0 66 -31.5 103.5t-114.5 37.5q-87 0 -141 -50.5t-68 -126.5h-158z" />
    <glyph glyph-name="uni0213" unicode="&#x213;" horiz-adv-x="776" 
d="M154 0l180 1022h193l-23 -122q48 68 116.5 107.5t138.5 39.5q88 0 145 -58l-58 -183q-31 25 -66 37.5t-72 12.5q-62 0 -115.5 -35.5t-91.5 -98.5t-53 -148l-101 -574h-193zM307 1154q16 90 65 164.5t129.5 120t190.5 45.5q146 0 217 -77t71 -181q0 -18 -1.5 -36t-4.5 -36
h-157q2 9 2.5 18.5t0.5 17.5q0 66 -31.5 103.5t-114.5 37.5q-87 0 -141 -50.5t-68 -126.5h-158z" />
    <glyph glyph-name="uni0214" unicode="&#x214;" horiz-adv-x="1329" 
d="M694 -24q-177 0 -283.5 74.5t-143 210t-3.5 321.5l145 818h199l-149 -850q-21 -121 -3.5 -208t79 -133.5t170.5 -46.5q82 0 154.5 31t126.5 110t80 224l153 873h198l-154 -884q-27 -152 -78 -255.5t-123.5 -166.5t-165.5 -90.5t-202 -27.5zM648 1532l-291 312h259
l218 -312h-186zM1041 1532l-292 312h259l218 -312h-185z" />
    <glyph glyph-name="uni0215" unicode="&#x215;" horiz-adv-x="1095" 
d="M494 -24q-111 0 -182 52.5t-96.5 152t-1.5 238.5l106 603h193l-106 -597q-24 -133 14.5 -200.5t134.5 -67.5q107 0 175.5 64.5t89.5 185.5l107 615h193l-180 -1022h-193l17 98q-51 -62 -117.5 -92t-153.5 -30zM457 1152l-291 312h259l218 -312h-186zM850 1152l-292 312
h259l218 -312h-185z" />
    <glyph glyph-name="uni0216" unicode="&#x216;" horiz-adv-x="1329" 
d="M694 -24q-177 0 -283.5 74.5t-143 210t-3.5 321.5l145 818h199l-149 -850q-21 -121 -3.5 -208t79 -133.5t170.5 -46.5q82 0 154.5 31t126.5 110t80 224l153 873h198l-154 -884q-27 -152 -78 -255.5t-123.5 -166.5t-165.5 -90.5t-202 -27.5zM603 1534q16 90 65 164.5
t129.5 120t190.5 45.5q146 0 217 -77t71 -181q0 -18 -1.5 -36t-4.5 -36h-157q2 9 2.5 18.5t0.5 17.5q0 66 -31.5 103.5t-114.5 37.5q-87 0 -141 -50.5t-68 -126.5h-158z" />
    <glyph glyph-name="uni0217" unicode="&#x217;" horiz-adv-x="1095" 
d="M494 -24q-111 0 -182 52.5t-96.5 152t-1.5 238.5l106 603h193l-106 -597q-24 -133 14.5 -200.5t134.5 -67.5q107 0 175.5 64.5t89.5 185.5l107 615h193l-180 -1022h-193l17 98q-51 -62 -117.5 -92t-153.5 -30zM411 1154q16 90 65 164.5t129.5 120t190.5 45.5
q146 0 217 -77t71 -181q0 -18 -1.5 -36t-4.5 -36h-157q2 9 2.5 18.5t0.5 17.5q0 66 -31.5 103.5t-114.5 37.5q-87 0 -141 -50.5t-68 -126.5h-158z" />
    <glyph glyph-name="uni0218" unicode="&#x218;" horiz-adv-x="1152" 
d="M602 -24q-119 0 -207.5 43.5t-146.5 118.5t-83 168l182 68q35 -99 102 -155t176 -56q83 0 145.5 27t96.5 79.5t34 129.5q0 68 -35.5 114t-93 80t-122.5 66q-59 28 -117 59.5t-106 75t-76.5 103.5t-28.5 145q0 109 55.5 195.5t157.5 136.5t241 50q117 0 198 -38.5t129 -99
t66 -126.5l-179 -65q-22 61 -76 104.5t-151 43.5q-114 0 -177 -54t-63 -134q0 -54 31.5 -91t83.5 -66t113 -57q62 -29 124.5 -63t115.5 -81t85 -115t32 -166q0 -139 -65.5 -237t-179.5 -150.5t-261 -52.5zM477 -527l-52 32q17 14 38.5 35t41 49.5t32.5 63.5q-45 3 -70 31
t-25 71q0 65 42 104.5t93 39.5q44 0 77 -30.5t33 -86.5q0 -54 -21.5 -107t-67.5 -104.5t-121 -97.5z" />
    <glyph glyph-name="uni0219" unicode="&#x219;" horiz-adv-x="909" 
d="M481 -24q-78 0 -147 22t-124 63t-88 97l142 112q42 -60 103.5 -93.5t126.5 -33.5q83 0 134 38t51 100q0 45 -38.5 82t-141.5 83q-145 66 -205 136.5t-60 163.5q0 90 46.5 157t129.5 105t192 38t197.5 -42.5t135.5 -117.5l-140 -104q-80 100 -207 100q-73 0 -120.5 -34.5
t-47.5 -87.5q0 -41 34.5 -73.5t130.5 -74.5q155 -67 220 -143.5t65 -179.5q0 -143 -106 -228t-283 -85zM355 -527l-52 32q17 14 38.5 35t41 49.5t32.5 63.5q-45 3 -70 31t-25 71q0 65 42 104.5t93 39.5q44 0 77 -30.5t33 -86.5q0 -54 -21.5 -107t-67.5 -104.5t-121 -97.5z
" />
    <glyph glyph-name="uni021A" unicode="&#x21a;" horiz-adv-x="1125" 
d="M463 0l214 1214h-371l31 186h943l-31 -186h-372l-214 -1214h-200zM433 -527l-52 32q17 14 38.5 35t41 49.5t32.5 63.5q-45 3 -70 31t-25 71q0 65 42 104.5t93 39.5q44 0 77 -30.5t33 -86.5q0 -54 -21.5 -107t-67.5 -104.5t-121 -97.5z" />
    <glyph glyph-name="uni021B" unicode="&#x21b;" horiz-adv-x="716" 
d="M427 -24q-110 0 -157 72.5t-23 209.5l103 592h-164l31 172h163l62 351l204 71l-74 -422h234l-30 -172h-233l-100 -558q-14 -81 0.5 -111.5t69.5 -30.5q36 0 71.5 11t83.5 37l-45 -179q-81 -43 -196 -43zM283 -527l-52 32q17 14 38.5 35t41 49.5t32.5 63.5q-45 3 -70 31
t-25 71q0 65 42 104.5t93 39.5q44 0 77 -30.5t33 -86.5q0 -54 -21.5 -107t-67.5 -104.5t-121 -97.5z" />
    <glyph glyph-name="uni021E" unicode="&#x21e;" horiz-adv-x="1348" 
d="M170 0l246 1400h200l-102 -581h610l102 581h200l-246 -1400h-200l111 630h-609l-110 -630h-202zM849 1530l-216 312h171l166 -173l225 173h173l-326 -312h-193z" />
    <glyph glyph-name="uni021F" unicode="&#x21f;" horiz-adv-x="1094" 
d="M155 0l241 1373l205 71l-94 -532q53 65 122.5 99.5t144.5 34.5q118 0 188.5 -52t93 -156t-5.5 -260l-102 -578h-190l106 598q24 134 -14.5 201.5t-136.5 67.5t-168.5 -70t-91.5 -187l-107 -610h-191zM745 1530l-216 312h171l166 -173l225 173h173l-326 -312h-193z" />
    <glyph glyph-name="uni0226" unicode="&#x226;" horiz-adv-x="1317" 
d="M80 0l733 1400h181l244 -1400h-200l-55 330h-522l-171 -330h-210zM552 508h402l-80 484q-2 15 -6 38.5t-7.5 46.5t-4.5 35q-5 -12 -14.5 -34t-20.5 -45t-20 -38zM934 1566q-41 0 -68 28.5t-27 69.5q0 56 42 96t95 40q42 0 68 -28t26 -70q0 -56 -41 -96t-95 -40z" />
    <glyph glyph-name="uni0227" unicode="&#x227;" horiz-adv-x="1038" 
d="M447 -24q-139 0 -221.5 81t-82.5 215q0 115 54.5 201t151.5 133.5t227 47.5q68 0 132 -17t111 -49l16 84q19 98 -21.5 151.5t-131.5 53.5q-72 0 -159 -28.5t-165 -78.5l-26 160q93 58 188 87t186 29q114 0 191.5 -46.5t110.5 -130.5t13 -197l-118 -672h-187l14 83
q-51 -50 -127 -78.5t-156 -28.5zM493 146q68 0 140.5 32t130.5 88l26 158q-46 31 -101.5 49t-111.5 18q-76 0 -131.5 -24.5t-85.5 -69.5t-30 -105q0 -68 44.5 -107t118.5 -39zM730 1188q-41 0 -68 28.5t-27 69.5q0 56 42 96t95 40q42 0 68 -28t26 -70q0 -56 -41 -96t-95 -40
z" />
    <glyph glyph-name="uni0228" unicode="&#x228;" horiz-adv-x="1152" 
d="M170 0l246 1400h835l-31 -184h-636l-70 -400h402l-34 -184h-400l-79 -448h678l-33 -184h-878zM493 -478q-72 0 -116 25t-68 57l106 68q10 -13 28 -23t48 -10q45 0 77 27.5t32 69.5q0 37 -24.5 59t-66.5 22q-23 0 -41.5 -4.5t-36.5 -15.5l-31 49l146 156h109l-80 -104
q99 0 141 -46t42 -114q0 -94 -74.5 -155t-190.5 -61z" />
    <glyph glyph-name="uni0229" unicode="&#x229;" horiz-adv-x="1041" 
d="M559 -24q-119 0 -206 54t-135 151t-48 227t38 245t108 203.5t168 139t218 50.5q112 0 194 -44.5t127 -132t45 -215.5q0 -62 -11 -115.5t-27 -103.5h-663q0 -88 23.5 -152t71 -98.5t121.5 -34.5q57 0 118 23.5t114 69.5l94 -133q-70 -61 -156.5 -97.5t-193.5 -36.5z
M395 602h479q12 80 -5 141t-62.5 96t-119.5 35q-80 0 -139 -37t-97 -98.5t-56 -136.5zM463 -478q-72 0 -116 25t-68 57l106 68q10 -13 28 -23t48 -10q45 0 77 27.5t32 69.5q0 37 -24.5 59t-66.5 22q-23 0 -41.5 -4.5t-36.5 -15.5l-31 49l146 156h109l-80 -104q99 0 141 -46
t42 -114q0 -94 -74.5 -155t-190.5 -61z" />
    <glyph glyph-name="uni022A" unicode="&#x22a;" horiz-adv-x="1382" 
d="M723 -24q-135 0 -229.5 48.5t-154 130.5t-86.5 187t-27 218q0 124 27.5 248.5t82.5 235t138 196t192.5 135t246.5 49.5q130 0 223 -48.5t152 -131t87 -186t28 -212.5q0 -127 -28 -252.5t-83.5 -236.5t-137.5 -197t-190 -135t-241 -49zM722 162q96 0 172.5 39t134.5 106.5
t97.5 155t59.5 186t20 197.5q0 96 -30 186t-96 148t-174 58q-97 0 -173.5 -40t-135 -108.5t-97 -155.5t-57.5 -183.5t-19 -190.5q0 -102 29.5 -192.5t95 -148t173.5 -57.5zM1114 1571q-44 0 -71.5 29t-27.5 70q0 57 42 96.5t93 39.5q43 0 70 -28.5t27 -69.5q0 -38 -19 -69
t-49.5 -49.5t-64.5 -18.5zM773 1571q-44 0 -70.5 29t-26.5 70q0 37 19 68t49.5 49.5t63.5 18.5q46 0 72 -28.5t26 -69.5q0 -57 -40.5 -97t-92.5 -40zM695 1981l29 164h634l-29 -164h-634z" />
    <glyph glyph-name="uni022B" unicode="&#x22b;" horiz-adv-x="1064" 
d="M552 -24q-180 0 -281 113.5t-101 316.5q0 185 68 329.5t187.5 227.5t272.5 83q172 0 273.5 -115t101.5 -309q0 -187 -67.5 -333t-185.5 -229.5t-268 -83.5zM560 159q92 0 164.5 58.5t114 159t41.5 228.5q0 122 -53 191t-147 69q-90 0 -162.5 -58t-114 -159t-41.5 -228
q0 -123 52.5 -192t145.5 -69zM897 1193q-44 0 -71.5 29t-27.5 70q0 57 42 96.5t93 39.5q43 0 70 -28.5t27 -69.5q0 -38 -19 -69t-49.5 -49.5t-64.5 -18.5zM556 1193q-44 0 -70.5 29t-26.5 70q0 37 19 68t49.5 49.5t63.5 18.5q46 0 72 -28.5t26 -69.5q0 -57 -40.5 -97
t-92.5 -40zM478 1603l29 164h634l-29 -164h-634z" />
    <glyph glyph-name="uni022C" unicode="&#x22c;" horiz-adv-x="1382" 
d="M723 -24q-135 0 -229.5 48.5t-154 130.5t-86.5 187t-27 218q0 124 27.5 248.5t82.5 235t138 196t192.5 135t246.5 49.5q130 0 223 -48.5t152 -131t87 -186t28 -212.5q0 -127 -28 -252.5t-83.5 -236.5t-137.5 -197t-190 -135t-241 -49zM722 162q96 0 172.5 39t134.5 106.5
t97.5 155t59.5 186t20 197.5q0 96 -30 186t-96 148t-174 58q-97 0 -173.5 -40t-135 -108.5t-97 -155.5t-57.5 -183.5t-19 -190.5q0 -102 29.5 -192.5t95 -148t173.5 -57.5zM1089 1565q-55 0 -99 18t-76 36q-26 15 -57.5 28.5t-67.5 13.5t-65 -21.5t-40 -66.5h-93
q19 112 76.5 178.5t163.5 66.5q57 0 99.5 -18t78.5 -38q27 -14 57 -27t64 -13q36 0 65.5 21.5t41.5 66.5h93q-19 -111 -77 -178t-164 -67zM697 1993l29 164h634l-29 -164h-634z" />
    <glyph glyph-name="uni022D" unicode="&#x22d;" horiz-adv-x="1064" 
d="M552 -24q-180 0 -281 113.5t-101 316.5q0 185 68 329.5t187.5 227.5t272.5 83q172 0 273.5 -115t101.5 -309q0 -187 -67.5 -333t-185.5 -229.5t-268 -83.5zM560 159q92 0 164.5 58.5t114 159t41.5 228.5q0 122 -53 191t-147 69q-90 0 -162.5 -58t-114 -159t-41.5 -228
q0 -123 52.5 -192t145.5 -69zM872 1187q-55 0 -99 18t-76 36q-26 15 -57.5 28.5t-67.5 13.5t-65 -21.5t-40 -66.5h-93q19 112 76.5 178.5t163.5 66.5q57 0 99.5 -18t78.5 -38q27 -14 57 -27t64 -13q36 0 65.5 21.5t41.5 66.5h93q-19 -111 -77 -178t-164 -67zM480 1615
l29 164h634l-29 -164h-634z" />
    <glyph glyph-name="uni022E" unicode="&#x22e;" horiz-adv-x="1382" 
d="M723 -24q-135 0 -229.5 48.5t-154 130.5t-86.5 187t-27 218q0 124 27.5 248.5t82.5 235t138 196t192.5 135t246.5 49.5q130 0 223 -48.5t152 -131t87 -186t28 -212.5q0 -127 -28 -252.5t-83.5 -236.5t-137.5 -197t-190 -135t-241 -49zM722 162q96 0 172.5 39t134.5 106.5
t97.5 155t59.5 186t20 197.5q0 96 -30 186t-96 148t-174 58q-97 0 -173.5 -40t-135 -108.5t-97 -155.5t-57.5 -183.5t-19 -190.5q0 -102 29.5 -192.5t95 -148t173.5 -57.5zM940 1566q-41 0 -68 28.5t-27 69.5q0 56 42 96t95 40q42 0 68 -28t26 -70q0 -56 -41 -96t-95 -40z
" />
    <glyph glyph-name="uni022F" unicode="&#x22f;" horiz-adv-x="1064" 
d="M552 -24q-180 0 -281 113.5t-101 316.5q0 185 68 329.5t187.5 227.5t272.5 83q172 0 273.5 -115t101.5 -309q0 -187 -67.5 -333t-185.5 -229.5t-268 -83.5zM560 159q92 0 164.5 58.5t114 159t41.5 228.5q0 122 -53 191t-147 69q-90 0 -162.5 -58t-114 -159t-41.5 -228
q0 -123 52.5 -192t145.5 -69zM723 1188q-41 0 -68 28.5t-27 69.5q0 56 42 96t95 40q42 0 68 -28t26 -70q0 -56 -41 -96t-95 -40z" />
    <glyph glyph-name="uni0230" unicode="&#x230;" horiz-adv-x="1382" 
d="M723 -24q-135 0 -229.5 48.5t-154 130.5t-86.5 187t-27 218q0 124 27.5 248.5t82.5 235t138 196t192.5 135t246.5 49.5q130 0 223 -48.5t152 -131t87 -186t28 -212.5q0 -127 -28 -252.5t-83.5 -236.5t-137.5 -197t-190 -135t-241 -49zM722 162q96 0 172.5 39t134.5 106.5
t97.5 155t59.5 186t20 197.5q0 96 -30 186t-96 148t-174 58q-97 0 -173.5 -40t-135 -108.5t-97 -155.5t-57.5 -183.5t-19 -190.5q0 -102 29.5 -192.5t95 -148t173.5 -57.5zM940 1566q-41 0 -68 28.5t-27 69.5q0 56 42 96t95 40q42 0 68 -28t26 -70q0 -56 -41 -96t-95 -40z
M694 1975l29 164h634l-29 -164h-634z" />
    <glyph glyph-name="uni0231" unicode="&#x231;" horiz-adv-x="1064" 
d="M552 -24q-180 0 -281 113.5t-101 316.5q0 185 68 329.5t187.5 227.5t272.5 83q172 0 273.5 -115t101.5 -309q0 -187 -67.5 -333t-185.5 -229.5t-268 -83.5zM560 159q92 0 164.5 58.5t114 159t41.5 228.5q0 122 -53 191t-147 69q-90 0 -162.5 -58t-114 -159t-41.5 -228
q0 -123 52.5 -192t145.5 -69zM723 1188q-41 0 -68 28.5t-27 69.5q0 56 42 96t95 40q42 0 68 -28t26 -70q0 -56 -41 -96t-95 -40zM477 1597l29 164h634l-29 -164h-634z" />
    <glyph glyph-name="uni0232" unicode="&#x232;" horiz-adv-x="1243" 
d="M520 0l100 563l-314 837h207l230 -652l466 652h219l-614 -848l-96 -552h-198zM571 1575l29 164h634l-29 -164h-634z" />
    <glyph glyph-name="uni0233" unicode="&#x233;" horiz-adv-x="1041" 
d="M206 -388l220 416l-187 994h194l115 -674q3 -18 7 -41.5t7 -40.5q7 16 18.5 39.5t21.5 42.5l359 674h207l-756 -1410h-206zM409 1197l29 164h634l-29 -164h-634z" />
    <glyph glyph-name="uni0237" unicode="&#x237;" horiz-adv-x="509" 
d="M-74 -438l-63 162q145 19 205 69t78 149l190 1080h194l-190 -1076q-22 -126 -71 -203.5t-132 -119t-211 -61.5z" />
    <glyph glyph-name="uni0242" unicode="&#x242;" horiz-adv-x="989" 
d="M380 0l15 84q18 97 57 166t91 119.5t105 91.5q73 55 114 108t41 130q0 71 -48.5 117t-133.5 46q-78 0 -137.5 -34.5t-100.5 -104.5l-168 62q62 127 173.5 194t256.5 67q109 0 189.5 -43t124.5 -117.5t44 -168.5q0 -90 -28.5 -153t-77 -110.5t-109.5 -94.5
q-75 -57 -131.5 -118t-73.5 -157l-15 -84h-188z" />
    <glyph glyph-name="uni0243" unicode="&#x243;" horiz-adv-x="1339" 
d="M124 337l26 146h616l-26 -146h-616zM240 0l246 1400h508q133 0 214.5 -45t119 -117.5t37.5 -157.5q0 -100 -39.5 -172t-99.5 -116.5t-121 -64.5q98 -28 152.5 -109t54.5 -187q0 -83 -28 -160t-89 -138.5t-158.5 -97t-236.5 -35.5h-560zM470 183h336q118 0 183.5 39.5
t92 97.5t26.5 115q0 56 -22.5 101.5t-77 72.5t-148.5 27h-309zM582 816h281q101 0 169.5 30t102 82t33.5 120q0 44 -17 82.5t-60 62.5t-119 24h-319z" />
    <glyph glyph-name="uni0244" unicode="&#x244;" horiz-adv-x="1406" 
d="M732 -24q-175 0 -280.5 72.5t-143.5 204.5t-8 313l13 79h-175l29 170h176l104 585h200l-103 -585h611l102 585h198l-102 -585h173l-29 -170h-173l-23 -129q-27 -152 -78 -255.5t-123.5 -166.5t-165 -90.5t-202.5 -27.5zM743 162q82 0 154.5 31t127 110t79.5 224l20 118
h-610l-17 -96q-22 -120 -4.5 -206.5t79.5 -133.5t171 -47z" />
    <glyph glyph-name="uni0245" unicode="&#x245;" horiz-adv-x="1263" 
d="M82 0l703 1400h180l221 -1400h-205l-140 967q-4 21 -6.5 47.5t-4 49.5t-1.5 34q-7 -19 -20 -53.5t-29 -66.5l-481 -978h-217z" />
    <glyph glyph-name="uni024B" unicode="&#x24b;" horiz-adv-x="1226" 
d="M1025 -468q-122 23 -192.5 78t-92.5 147t1 225l18 108q-59 -57 -123 -85.5t-140 -28.5q-99 0 -172 50.5t-114 144t-41 221.5q0 187 64 335t177.5 233.5t262.5 85.5q79 0 141 -30t95 -83l15 89h191l-191 -1090q-12 -74 3.5 -122t68.5 -77t151 -47zM558 159
q60 0 121.5 32.5t113.5 93.5l79 455q-19 58 -69 91.5t-117 33.5q-91 0 -163.5 -60t-115 -163t-42.5 -232q0 -122 50.5 -186.5t142.5 -64.5z" />
    <glyph glyph-name="uni024C" unicode="&#x24c;" horiz-adv-x="1356" 
d="M159 582l32 184h562l-32 -184h-562zM242 0l246 1400h501q116 0 196.5 -32t130.5 -87t72.5 -123t22.5 -138q0 -66 -20 -134t-64.5 -128t-115.5 -103.5t-174 -61.5l185 -593h-212l-178 582h-288l-102 -582h-200zM577 766h349q113 0 175 39.5t86.5 97t24.5 111.5
q0 51 -23 97t-74.5 75.5t-138.5 29.5h-321z" />
    <glyph glyph-name="uni0250" unicode="&#x250;" horiz-adv-x="1038" 
d="M506 -24q-114 0 -191.5 46.5t-110.5 130.5t-14 197l118 672h187l-14 -83q53 50 129 78.5t154 28.5q141 0 222.5 -81t81.5 -215q0 -115 -54 -201t-151 -133.5t-228 -47.5q-67 0 -131 17.5t-112 48.5l-15 -84q-19 -98 21 -151.5t132 -53.5q72 0 159.5 29t164.5 78l26 -160
q-92 -57 -187.5 -86.5t-186.5 -29.5zM635 531q76 0 131.5 24.5t85.5 69.5t30 105q0 68 -44 107t-119 39q-68 0 -141 -31.5t-130 -88.5l-27 -158q47 -31 102 -49t112 -18z" />
    <glyph glyph-name="uni0251" unicode="&#x251;" horiz-adv-x="1081" 
d="M504 -24q-152 0 -242 117.5t-90 315.5q0 187 65 331t180.5 225t266.5 81q71 0 130 -25.5t95 -73.5l13 75h194l-180 -1022h-190l15 89q-47 -55 -112.5 -84t-144.5 -29zM561 159q65 0 128 34t104 89l82 463q-26 57 -75 88.5t-113 31.5q-96 0 -168 -54.5t-111.5 -154.5
t-39.5 -234q0 -123 51.5 -193t141.5 -70z" />
    <glyph glyph-name="uni0252" unicode="&#x252;" horiz-adv-x="1081" 
d="M571 -24q-71 0 -130 26t-95 73l-13 -75h-194l180 1022h190l-15 -89q48 56 113.5 84.5t143.5 28.5q152 0 242 -117.5t90 -315.5q0 -187 -65 -331t-180.5 -225t-266.5 -81zM568 157q96 0 168 54.5t111.5 154.5t39.5 234q0 123 -51.5 193t-141.5 70q-64 0 -127.5 -33.5
t-104.5 -89.5l-82 -463q26 -56 75.5 -88t112.5 -32z" />
    <glyph glyph-name="uni0253" unicode="&#x253;" horiz-adv-x="1083" 
d="M602 -24q-74 0 -140 32t-103 83l-16 -91h-188l194 1106q23 130 70.5 211.5t131 124.5t211.5 58l64 -162q-99 -12 -157 -40t-87 -75.5t-41 -119.5l-28 -159q51 49 116.5 75.5t134.5 26.5q98 0 173.5 -52.5t117.5 -147t42 -219.5q0 -193 -62.5 -339.5t-174 -229
t-258.5 -82.5zM587 159q95 0 166 56.5t110.5 158t39.5 237.5q0 119 -52.5 186.5t-146.5 67.5q-61 0 -124 -33t-102 -86l-84 -469q30 -55 80.5 -86.5t112.5 -31.5z" />
    <glyph glyph-name="uni0254" unicode="&#x254;" horiz-adv-x="994" 
d="M482 -24q-114 0 -196.5 45.5t-129.5 131.5l150 116q33 -49 77.5 -79.5t106.5 -30.5q92 0 164.5 58.5t114 159t41.5 228.5q0 122 -53 191t-147 69q-55 0 -104 -22.5t-89 -63.5l-147 110q69 75 160 116t198 41q172 0 273.5 -115t101.5 -309q0 -187 -67.5 -333
t-185.5 -229.5t-268 -83.5z" />
    <glyph glyph-name="uni0256" unicode="&#x256;" horiz-adv-x="1219" 
d="M1026 -468q-186 43 -251 146.5t-32 304.5l18 106q-47 -55 -112.5 -84t-144.5 -29q-152 0 -242 117.5t-90 315.5q0 187 65 331t180.5 225t266.5 81q71 0 130 -25.5t95 -73.5l75 426l206 71l-265 -1512q-13 -74 2.5 -122t66.5 -77t146 -47zM561 159q65 0 128 34t104 89
l82 463q-26 57 -75 88.5t-113 31.5q-96 0 -168 -54.5t-111.5 -154.5t-39.5 -234q0 -123 51.5 -193t141.5 -70z" />
    <glyph glyph-name="uni0257" unicode="&#x257;" horiz-adv-x="1174" 
d="M504 -24q-152 0 -242 117.5t-90 315.5q0 187 65 331t180.5 225t266.5 81q71 0 130 -25.5t96 -73.5l28 159q23 130 71 211t131 124t211 59l64 -162q-99 -12 -157 -40t-87 -75.5t-41 -120.5l-194 -1102h-190l15 89q-47 -55 -112.5 -84t-144.5 -29zM561 159q65 0 128 34
t104 89l81 463q-25 57 -74 88.5t-113 31.5q-96 0 -168 -54.5t-111.5 -154.5t-39.5 -234q0 -123 51 -193t142 -70z" />
    <glyph glyph-name="uni0259" unicode="&#x259;" horiz-adv-x="1034" 
d="M529 -24q-112 0 -194.5 44.5t-127 132t-44.5 215.5q0 63 11 117.5t27 102.5h662q3 85 -20 149t-71.5 99.5t-122.5 35.5q-57 0 -118 -23t-116 -68l-94 131q71 63 157.5 98.5t192.5 35.5q120 0 207.5 -54t134.5 -151t47 -227q0 -129 -37.5 -244t-107.5 -204t-168 -139.5
t-218 -50.5zM543 148q80 0 139 37t97.5 98.5t55.5 136.5h-479q-11 -76 5.5 -137.5t61 -98t120.5 -36.5z" />
    <glyph glyph-name="uni025B" unicode="&#x25b;" horiz-adv-x="1000" 
d="M504 -24q-164 0 -261 73t-97 191q0 72 32 131t89.5 100t134.5 59q-62 27 -95.5 78t-33.5 121q0 93 54.5 164.5t146.5 112t203 40.5q142 0 244.5 -69t125.5 -191l-167 -67q-18 75 -76 112.5t-140 37.5q-86 0 -139.5 -40.5t-53.5 -106.5q0 -53 36.5 -85t107.5 -32h175
l-31 -176h-179q-67 0 -118 -18t-81 -53t-30 -87q0 -55 49 -86.5t129 -31.5q189 0 297 164l170 -63q-78 -137 -204 -207.5t-288 -70.5z" />
    <glyph glyph-name="uni025F" unicode="&#x25f;" horiz-adv-x="700" 
d="M22 -438l-63 162q145 19 205 69t78 149l190 1080h194l-190 -1076q-22 -126 -71 -203.5t-132 -119t-211 -61.5zM127 425l29 170h591l-28 -170h-592z" />
    <glyph glyph-name="uni0260" unicode="&#x260;" horiz-adv-x="1172" 
d="M386 -426l-64 160q143 8 230 40t130 84.5t55 119.5l18 109q-37 -43 -99 -77t-152 -34q-104 0 -178.5 54t-115 148.5t-40.5 217.5q0 193 65.5 339.5t179 228.5t257.5 82q67 0 129 -27t104 -83l30 170q22 131 70.5 212t132 124t211.5 58l64 -162q-100 -12 -157 -39.5
t-85 -75.5t-42 -121l-197 -1097q-29 -168 -104.5 -258t-188 -127t-253.5 -46zM561 159q74 0 134 38t96 92l80 453q-17 45 -68 84t-127 39q-100 0 -169.5 -61.5t-105.5 -162.5t-36 -221q0 -116 52 -188.5t144 -72.5z" />
    <glyph glyph-name="uni0261" unicode="&#x261;" horiz-adv-x="1084" 
d="M386 -426l-64 160q143 8 230 40t130 84.5t55 119.5l18 109q-37 -43 -99 -77t-152 -34q-104 0 -178.5 54t-115 148.5t-40.5 217.5q0 193 65.5 339.5t179 228.5t257.5 82q67 0 129 -27t104 -83l16 86h194l-183 -1017q-29 -168 -104.5 -258t-188 -127t-253.5 -46zM561 159
q74 0 134 38t96 92l80 453q-17 45 -68 84t-127 39q-100 0 -169.5 -61.5t-105.5 -162.5t-36 -221q0 -116 52 -188.5t144 -72.5z" />
    <glyph glyph-name="uni0263" unicode="&#x263;" horiz-adv-x="1044" 
d="M459 -481q-104 0 -167.5 57t-63.5 153q0 67 40.5 159.5t100.5 193.5t119 192l469 748h214l-603 -955q-42 -67 -79 -130t-60.5 -113.5t-23.5 -79.5q0 -28 17 -45.5t47 -17.5q31 0 50 16t27.5 41t8.5 51q0 45 -14 115t-38 159l-264 959h196l205 -753q25 -85 46.5 -168
t34.5 -159t13 -141q0 -80 -34 -144t-95.5 -101t-145.5 -37z" />
    <glyph glyph-name="uni0265" unicode="&#x265;" horiz-adv-x="1094" 
d="M667 -422l94 532q-52 -65 -121.5 -99.5t-145.5 -34.5q-118 0 -188.5 52t-92.5 156t5 260l102 578h190l-106 -598q-24 -134 14.5 -201.5t136.5 -67.5t168.5 70.5t91.5 186.5l107 610h191l-241 -1373z" />
    <glyph glyph-name="uni0266" unicode="&#x266;" horiz-adv-x="1095" 
d="M156 0l193 1105q23 133 70.5 214t130 123.5t211.5 57.5l63 -162q-99 -12 -156.5 -40t-86 -76t-41.5 -122l-32 -188q53 65 122.5 99.5t144.5 34.5q118 0 188.5 -52t93 -156t-5.5 -260l-102 -578h-190l106 598q24 134 -14.5 201.5t-136.5 67.5t-168.5 -70t-91.5 -187
l-107 -610h-191z" />
    <glyph glyph-name="uni0268" unicode="&#x268;" horiz-adv-x="683" 
d="M247 0l180 1022h189l-180 -1022h-189zM553 1188q-41 0 -68 28.5t-27 69.5q0 56 42 96t95 40q42 0 68 -28t26 -70q0 -56 -41 -96t-95 -40zM120 426l29 170h591l-28 -170h-592z" />
    <glyph glyph-name="uni0269" unicode="&#x269;" horiz-adv-x="649" 
d="M368 -24q-110 0 -158 72t-25 199l134 775h193l-129 -733q-14 -72 0.5 -105.5t68.5 -33.5q45 0 82 14.5t74 33.5l-45 -179q-44 -23 -94 -33t-101 -10z" />
    <glyph glyph-name="uni026E" unicode="&#x26e;" horiz-adv-x="1394" 
d="M717 -426q-176 0 -289 89t-135 245l183 58q21 -105 84.5 -154t160.5 -49q71 0 130.5 33t94 91t34.5 133q0 107 -71.5 168.5t-211.5 67.5l-103 112l450 476h-543l-148 -844h-190l238 1373l206 71l-74 -422h785l-25 -151l-458 -476q163 -17 253.5 -115t90.5 -253
q0 -127 -61.5 -229.5t-166 -163t-234.5 -60.5z" />
    <glyph glyph-name="uni026F" unicode="&#x26f;" horiz-adv-x="1645" 
d="M492 -24q-103 0 -174 49t-101 135.5t-11 198.5l119 663h195l-109 -623q-21 -115 16.5 -179t122.5 -64q87 0 153.5 66t85.5 175l110 625h195l-109 -623q-20 -117 17 -180t124 -63t154 66t86 175l110 625h193l-180 -1022h-189l16 97q-53 -57 -123.5 -89t-146.5 -32
q-80 0 -142 40.5t-90 112.5q-64 -76 -144.5 -114.5t-177.5 -38.5z" />
    <glyph glyph-name="uni0272" unicode="&#x272;" horiz-adv-x="1096" 
d="M154 0l180 1022h193l-19 -108q52 64 121.5 98t146.5 34q113 0 183.5 -54.5t95 -157.5t-0.5 -248l-104 -586h-193l106 602q22 128 -15 196.5t-133 68.5q-97 0 -170 -71.5t-93 -189.5l-106 -606h-192zM-78 -468l-64 162q100 12 157.5 40t85.5 76t41 122l16 90h193l-16 -95
q-22 -131 -70 -212t-131.5 -124.5t-211.5 -58.5z" />
    <glyph glyph-name="uni0279" unicode="&#x279;" horiz-adv-x="776" 
d="M191 -25q-88 0 -146 58l59 183q32 -24 66.5 -37t71.5 -13q61 0 114.5 35t92 98.5t53.5 148.5l101 574h193l-180 -1022h-193l22 122q-48 -68 -116.5 -107.5t-137.5 -39.5z" />
    <glyph glyph-name="rtail" unicode="&#x27d;" horiz-adv-x="776" 
d="M435 -468q-122 23 -193 79t-92.5 148.5t1.5 224.5l183 1038h193l-22 -122q48 68 116.5 107.5t137.5 39.5q88 0 146 -58l-59 -183q-31 25 -66 37.5t-72 12.5q-61 0 -114.5 -35.5t-92 -98.5t-53.5 -148l-113 -642q-12 -73 3 -121t68 -77.5t151 -47.5z" />
    <glyph glyph-name="uni027E" unicode="&#x27e;" horiz-adv-x="776" 
d="M154 0l91 522q46 259 163.5 391.5t290.5 132.5q66 0 120.5 -16t84.5 -42l-59 -185q-27 21 -67.5 34.5t-91.5 13.5q-55 0 -103.5 -31t-85 -99.5t-56.5 -180.5l-94 -540h-193z" />
    <glyph glyph-name="uni0283" unicode="&#x283;" horiz-adv-x="843" 
d="M245 -280q-57 0 -104.5 12.5t-84.5 33.5l25 153q39 -15 71.5 -23t65.5 -8q55 0 78 28t30 68l212 1204q17 92 57 143t94 72t112 21q55 0 101.5 -13t83.5 -35l-26 -154q-38 17 -70 25.5t-64 8.5q-53 0 -77 -29.5t-32 -69.5l-211 -1201q-16 -93 -56 -144.5t-94 -71.5
t-111 -20z" />
    <glyph glyph-name="uni0288" unicode="&#x288;" horiz-adv-x="716" 
d="M480 -468q-123 23 -193 79t-91.5 148.5t2.5 224.5l152 866h-164l31 172h163l62 351l204 71l-74 -422h234l-30 -172h-233l-163 -918q-14 -73 2 -121t68.5 -77.5t151.5 -47.5z" />
    <glyph glyph-name="uni0289" unicode="&#x289;" horiz-adv-x="1095" 
d="M54 479l30 170h1125l-30 -170h-1125zM494 -24q-111 0 -182 52.5t-96.5 152t-1.5 238.5l106 603h193l-106 -597q-24 -133 14.5 -200.5t134.5 -67.5q107 0 175.5 64.5t89.5 185.5l107 615h193l-180 -1022h-193l17 98q-51 -62 -117.5 -92t-153.5 -30z" />
    <glyph glyph-name="uni028A" unicode="&#x28a;" horiz-adv-x="1122" 
d="M586 -24q-126 0 -217.5 52.5t-141 144t-49.5 208.5q0 109 40 206.5t107 177.5t149.5 137.5t167.5 85.5l-19 -108q-70 -54 -124.5 -132.5t-85.5 -167.5t-31 -174q0 -108 56 -175t167 -67q91 0 156 49t100 134.5t35 195.5q0 94 -23.5 186t-76.5 151l18 94
q74 -23 138.5 -88.5t104 -161t39.5 -209.5q0 -159 -63 -280.5t-177.5 -190t-269.5 -68.5zM239 848l30 174h380l-25 -136l-102 -38h-283zM888 848l-91 38l25 136h379l-30 -174h-283z" />
    <glyph glyph-name="uni028B" unicode="&#x28b;" horiz-adv-x="1111" 
d="M451 -24q-151 0 -217.5 90.5t-35.5 264.5l121 691h200l-128 -727q-12 -70 8.5 -100.5t71.5 -30.5q59 0 122.5 36t122 95.5t105 131.5t73.5 146t27 137q0 67 -38 107.5t-121 40.5q-67 0 -125 -17l126 197q39 8 87 8q129 0 203 -86t74 -219q0 -103 -37 -210.5
t-102.5 -206.5t-151.5 -177.5t-184 -124.5t-201 -46z" />
    <glyph glyph-name="uni028C" unicode="&#x28c;" horiz-adv-x="1007" 
d="M52 0l533 1022h181l181 -1022h-192l-107 656q-3 23 -6.5 50t-5.5 48q-8 -16 -22.5 -45.5t-26.5 -52.5l-336 -656h-199z" />
    <glyph glyph-name="uni028D" unicode="&#x28d;" horiz-adv-x="1386" 
d="M58 0l425 1022h178l71 -606q3 -24 5.5 -57t3.5 -55q7 21 22.5 57.5t25.5 58.5l270 602h175l87 -1022h-184l-36 648q-1 25 -1.5 54.5t-0.5 49.5q-7 -20 -20 -50.5t-23 -52.5l-281 -649h-163l-62 649q-3 30 -4.5 56.5t-2.5 46.5q-8 -23 -17.5 -49t-20.5 -54l-256 -649h-191
z" />
    <glyph glyph-name="uni028E" unicode="&#x28e;" horiz-adv-x="1041" 
d="M53 0l757 1410h206l-221 -416l187 -994h-194l-114 673q-4 19 -8 42.5t-6 40.5q-8 -16 -19 -39t-22 -43l-359 -674h-207z" />
    <glyph glyph-name="uni0292" unicode="&#x292;" horiz-adv-x="1089" 
d="M412 -426q-176 0 -289 89t-135 245l183 58q22 -105 85 -154t160 -49q71 0 130.5 33t94.5 91t35 133q0 107 -71.5 168.5t-212.5 67.5l-102 112l450 476h-534l30 178h777l-25 -151l-458 -476q163 -17 253.5 -115t90.5 -253q0 -127 -61.5 -229.5t-166 -163t-234.5 -60.5z
" />
    <glyph glyph-name="uni0294" unicode="&#x294;" horiz-adv-x="1011" 
d="M390 0l72 405q19 108 59.5 184.5t92.5 130t105 93.5q48 37 88 73t64 81t24 105q0 69 -46 118.5t-140 49.5q-85 0 -151.5 -38.5t-107.5 -110.5l-168 60q46 87 114 148t154 93t182 32q112 0 193.5 -44t125.5 -119.5t44 -170.5q0 -99 -34 -165.5t-87.5 -116t-114.5 -95.5
q-75 -56 -131.5 -125t-77.5 -184l-71 -404h-189z" />
    <glyph glyph-name="uni0295" unicode="&#x295;" horiz-adv-x="1011" 
d="M412 0l70 386q21 117 -8.5 187t-84.5 126q-48 49 -90 117.5t-42 169.5q0 124 62 223t171.5 157t253.5 58q159 0 258 -71t129 -193l-178 -66q-28 73 -82 110.5t-145 37.5q-77 0 -136.5 -32t-94 -88.5t-34.5 -126.5q0 -63 32 -107t74 -87q41 -41 74 -94.5t46 -130.5
t-7 -190l-68 -386h-200z" />
    <glyph glyph-name="uni029E" unicode="&#x29e;" horiz-adv-x="1022" 
d="M595 -422l133 754l-363 -332h-241l334 298l-237 724h208l181 -588l162 148l78 440h191l-241 -1373z" />
    <glyph glyph-name="uni02A1" unicode="&#x2a1;" horiz-adv-x="1011" 
d="M390 0l72 405q19 108 59.5 184.5t92.5 130t105 93.5q48 37 88 73t64 81t24 105q0 69 -46 118.5t-140 49.5q-85 0 -151.5 -38.5t-107.5 -110.5l-168 60q46 87 114 148t154 93t182 32q112 0 193.5 -44t125.5 -119.5t44 -170.5q0 -99 -34 -165.5t-87.5 -116t-114.5 -95.5
q-75 -56 -131.5 -125t-77.5 -184l-71 -404h-189zM229 226l29 170h591l-28 -170h-592z" />
    <glyph glyph-name="uni02A2" unicode="&#x2a2;" horiz-adv-x="1011" 
d="M412 0l70 386q21 117 -8.5 187t-84.5 126q-48 49 -90 117.5t-42 169.5q0 124 62 223t171.5 157t253.5 58q159 0 258 -71t129 -193l-178 -66q-28 73 -82 110.5t-145 37.5q-77 0 -136.5 -32t-94 -88.5t-34.5 -126.5q0 -63 32 -107t74 -87q41 -41 74 -94.5t46 -130.5
t-7 -190l-68 -386h-200zM257 226l29 170h591l-28 -170h-592z" />
    <glyph glyph-name="uni02A3" unicode="&#x2a3;" horiz-adv-x="2006" 
d="M504 -24q-152 0 -242 117.5t-90 315.5q0 187 65 331t180.5 225t266.5 81q71 0 130 -25.5t95 -73.5l75 426l206 71l-74 -422h947l-22 -135l-668 -713h539l-31 -174h-794l26 140l662 709h-689l-150 -849h-190l15 89q-47 -55 -112.5 -84t-144.5 -29zM561 159q65 0 128 34
t104 89l82 463q-26 57 -75 88.5t-113 31.5q-96 0 -168 -54.5t-111.5 -154.5t-39.5 -234q0 -123 51.5 -193t141.5 -70z" />
    <glyph glyph-name="uni02A4" unicode="&#x2a4;" horiz-adv-x="1977" 
d="M1300 -426q-176 0 -289 89t-135 245l183 58q22 -105 85 -154t160 -49q71 0 130.5 33t94.5 91t35 133q0 107 -71.5 168.5t-212.5 67.5l-102 112l450 476h-543l-149 -844h-190l15 89q-47 -55 -112.5 -84t-144.5 -29q-152 0 -242 117.5t-90 315.5q0 187 65 331t180.5 225
t266.5 81q71 0 130 -25.5t95 -73.5l75 426l206 71l-74 -422h785l-25 -151l-458 -476q163 -17 253.5 -115t90.5 -253q0 -127 -61.5 -229.5t-166 -163t-234.5 -60.5zM561 159q65 0 128 34t104 89l82 463q-26 57 -75 88.5t-113 31.5q-96 0 -168 -54.5t-111.5 -154.5t-39.5 -234
q0 -123 51.5 -193t141.5 -70z" />
    <glyph glyph-name="uni02A6" unicode="&#x2a6;" horiz-adv-x="1549" 
d="M427 -24q-110 0 -157 72.5t-23 209.5l103 592h-164l31 172h163l62 351l204 71l-74 -422h513q36 12 75 18t82 6q109 0 197.5 -42.5t135.5 -117.5l-140 -104q-80 100 -207 100q-73 0 -120.5 -34.5t-47.5 -87.5q0 -41 34.5 -73.5t130.5 -74.5q155 -68 220 -144t65 -179
q0 -143 -106 -228t-283 -85q-78 0 -147 22t-124 63t-88 97l142 112q42 -60 103.5 -93.5t126.5 -33.5q83 0 134 38t51 100q0 45 -38.5 82t-141.5 83q-145 66 -205 136.5t-60 163.5q0 58 20 104h-351l-100 -558q-14 -81 0.5 -111.5t69.5 -30.5q36 0 71.5 11t83.5 37l-45 -179
q-81 -43 -196 -43z" />
    <glyph glyph-name="uni02A7" unicode="&#x2a7;" horiz-adv-x="1407" 
d="M807 -280q-57 0 -104.5 12.5t-84.5 33.5l25 153q39 -15 71.5 -23t65.5 -8q55 0 78 28t30 68l153 866h-498l-100 -558q-14 -81 0.5 -111.5t69.5 -30.5q36 0 71.5 11t83.5 37l-45 -179q-81 -43 -196 -43q-110 0 -157 72.5t-23 209.5l103 592h-164l31 172h163l62 351l204 71
l-74 -422h499l29 166q17 92 57.5 143t95 72t112.5 21q55 0 101.5 -13t83.5 -35l-26 -154q-38 17 -70 25.5t-64 8.5q-53 0 -77 -29.5t-32 -69.5l-211 -1201q-16 -93 -56.5 -144.5t-94.5 -71.5t-112 -20z" />
    <glyph glyph-name="uni02A9" unicode="&#x2a9;" horiz-adv-x="1743" 
d="M1173 -457l-64 160q146 19 205.5 69.5t77.5 149.5l118 670q15 81 6 143t-46.5 97t-109.5 35q-58 0 -112 -30t-93.5 -88t-54.5 -143l-106 -606h-193l150 850h-410l-151 -850h-192l150 850h-153l30 172h153l30 172q21 113 89 173t177 60q45 0 90 -12.5t91 -38.5l-29 -162
q-39 19 -70.5 27.5t-63.5 8.5q-40 0 -64 -23.5t-34 -74.5l-24 -130h604l-17 -105q55 66 123 97.5t140 31.5q124 0 193.5 -60t90 -163.5t-2.5 -235.5l-117 -662q-17 -94 -47.5 -160.5t-79 -111.5t-118.5 -71t-166 -39z" />
    <glyph glyph-name="uni02AA" unicode="&#x2aa;" horiz-adv-x="1423" 
d="M159 0l243 1373l204 71l-224 -1274h284q-3 7 -5.5 13t-5.5 11l126 100q43 -60 104 -93.5t126 -33.5q84 0 134.5 36t50.5 96q0 43 -38.5 78t-141.5 81q-145 66 -204.5 134.5t-59.5 159.5q0 89 46 154.5t129 102.5t193 37q108 0 196.5 -42.5t135.5 -117.5l-140 -104
q-80 100 -207 100q-73 0 -120.5 -32.5t-47.5 -83.5q0 -39 34.5 -69.5t130.5 -72.5q155 -68 220.5 -142t65.5 -175q0 -141 -106 -224t-284 -83h-839z" />
    <glyph glyph-name="uni02AB" unicode="&#x2ab;" horiz-adv-x="1422" 
d="M163 0l238 1373l206 71l-74 -422h947l-22 -135l-668 -713h539l-31 -174h-794l26 140l662 709h-690l-149 -849h-190z" />
    <glyph glyph-name="uni02AC" unicode="&#x2ac;" horiz-adv-x="1167" 
d="M468 762l-55 638h168l16 -292q1 -12 1.5 -24t0.5 -25q6 13 11.5 25t10.5 22l133 294h148l29 -293q2 -10 2.5 -23t1.5 -25q11 27 20 50l119 291h173l-280 -638h-152l-33 297q-1 12 -2 24.5t-2 24.5q-4 -12 -8.5 -22t-10.5 -24l-139 -300h-152zM334 0l-55 638h168l16 -291
q1 -12 1.5 -24t1.5 -25q5 12 11 24t10 23l133 293h148l29 -292q2 -11 3 -24t1 -24q11 26 20 49l119 291h174l-281 -638h-152l-33 297q-1 12 -2 24.5t-2 25.5q-4 -13 -8.5 -23t-10.5 -23l-139 -301h-152z" />
    <glyph glyph-name="uni02B0" unicode="&#x2b0;" horiz-adv-x="956" 
d="M311 888l199 1135l170 59l-78 -440q44 53 101 82t120 29q146 0 204.5 -96.5t23.5 -291.5l-85 -477h-156l87 494q19 111 -12.5 167t-112.5 56q-80 0 -139 -58t-76 -155l-88 -504h-158z" />
    <glyph glyph-name="uni02B2" unicode="&#x2b2;" horiz-adv-x="431" 
d="M80 527l-52 133q121 16 170.5 57.5t62.5 122.5l158 892h160l-157 -888q-18 -105 -58.5 -169t-109 -98t-174.5 -50zM525 1874q-37 0 -59.5 24t-22.5 58q0 47 33.5 81t74.5 34q38 0 61.5 -24t23.5 -58q0 -47 -34 -81t-77 -34z" />
    <glyph glyph-name="uni02B7" unicode="&#x2b7;" horiz-adv-x="1167" 
d="M439 888l-73 845h153l30 -535q1 -21 1 -46v-41q8 20 18 43t17 43l233 536h135l52 -536q2 -26 3 -47.5t2 -38.5q6 19 14.5 41t17.5 45l212 536h157l-351 -845h-148l-58 501q-2 20 -4 47.5t-4 45.5q-5 -17 -17.5 -47.5t-21.5 -48.5l-223 -498h-145z" />
    <glyph glyph-name="uni02B8" unicode="&#x2b8;" horiz-adv-x="880" 
d="M336 567l183 344l-155 822h161l95 -557q3 -17 6 -35t5 -33q6 15 15 33.5t19 34.5l296 557h171l-625 -1166h-171z" />
    <glyph glyph-name="uni02B9" unicode="&#x2b9;" horiz-adv-x="450" 
d="M233 825l152 635h236l-231 -635h-157z" />
    <glyph glyph-name="uni02BA" unicode="&#x2ba;" horiz-adv-x="900" 
d="M233 825l152 635h236l-231 -635h-157zM683 825l152 635h236l-231 -635h-157z" />
    <glyph glyph-name="uni02BC" unicode="&#x2bc;" horiz-adv-x="460" 
d="M437 891q-64 45 -106.5 120.5t-42.5 168.5q0 107 51 175.5t136 68.5q51 0 85 -32t34 -88q0 -64 -47 -109t-114 -51q0 -15 1 -30.5t3 -30.5q7 -51 27 -91.5t42 -64.5z" />
    <glyph glyph-name="circumflex" unicode="&#x2c6;" horiz-adv-x="773" 
d="M290 1152l325 312h193l218 -312h-173l-166 173l-225 -173h-172z" />
    <glyph glyph-name="caron" unicode="&#x2c7;" horiz-adv-x="773" 
d="M403 1152l-216 312h171l166 -173l225 173h173l-326 -312h-193z" />
    <glyph glyph-name="uni02C9" unicode="&#x2c9;" horiz-adv-x="773" 
d="M354 1197l29 164h634l-29 -164h-634z" />
    <glyph glyph-name="uni02D6" unicode="&#x2d6;" horiz-adv-x="1200" 
d="M679 740v307h-303v146h303v307h151v-307h306v-146h-306v-307h-151z" />
    <glyph glyph-name="breve" unicode="&#x2d8;" horiz-adv-x="773" 
d="M512 1154q-96 0 -166.5 40t-104 114t-16.5 176h157q-12 -90 22.5 -133.5t127.5 -43.5q84 0 136 51t66 126h158q-17 -95 -64 -169.5t-126 -117.5t-190 -43z" />
    <glyph glyph-name="dotaccent" unicode="&#x2d9;" horiz-adv-x="773" 
d="M663 1190q-41 0 -68 29t-27 69q0 57 42 97t95 40q42 0 68 -28.5t26 -70.5q0 -56 -41 -96t-95 -40z" />
    <glyph glyph-name="ring" unicode="&#x2da;" horiz-adv-x="773" 
d="M638 1110q-84 0 -139.5 61t-55.5 144q0 76 40.5 138.5t104.5 99t136 36.5q83 0 138 -58.5t55 -142.5q0 -76 -40.5 -139t-104.5 -101t-134 -38zM663 1249q46 0 79.5 34.5t33.5 86.5q0 38 -20.5 60.5t-55.5 22.5q-44 0 -79 -32.5t-35 -86.5q0 -36 21.5 -60.5t55.5 -24.5z
" />
    <glyph glyph-name="ogonek" unicode="&#x2db;" horiz-adv-x="773" 
d="M310 -478q-85 0 -138 45t-53 125q0 113 86.5 197.5t233.5 130.5h135q-103 -41 -168 -91t-95 -103t-30 -102q0 -41 22 -60.5t52 -19.5q34 0 58.5 14t41.5 29l79 -70q-33 -33 -88.5 -64t-135.5 -31z" />
    <glyph glyph-name="tilde" unicode="&#x2dc;" horiz-adv-x="773" 
d="M808 1187q-54 0 -96.5 16t-77.5 37q-31 18 -61 30.5t-65 12.5q-36 0 -65 -21.5t-40 -66.5h-93q19 112 76.5 178.5t163.5 66.5q54 0 95 -16t77 -36q31 -16 62.5 -30t64.5 -14q36 0 65.5 21.5t41.5 66.5h93q-19 -111 -77 -178t-164 -67z" />
    <glyph glyph-name="hungarumlaut" unicode="&#x2dd;" horiz-adv-x="797" 
d="M444 1152l326 312h274l-396 -312h-204zM36 1152l326 312h275l-396 -312h-205z" />
    <glyph glyph-name="uni02E1" unicode="&#x2e1;" horiz-adv-x="483" 
d="M315 888l201 1135l169 59l-211 -1194h-159z" />
    <glyph glyph-name="uni02E2" unicode="&#x2e2;" horiz-adv-x="783" 
d="M570 868q-96 0 -175.5 40.5t-121.5 110.5l118 92q35 -50 85.5 -77t103.5 -27q70 0 112 31t42 82q0 38 -32 68.5t-117 68.5q-120 54 -169.5 112.5t-49.5 135.5q0 74 38 130t107 87t160 31q89 0 162 -35.5t113 -97.5l-116 -86q-67 83 -171 83q-61 0 -100.5 -28t-39.5 -73
q0 -33 28.5 -60.5t109.5 -62.5q128 -54 181.5 -117.5t53.5 -148.5q0 -118 -87.5 -188.5t-234.5 -70.5z" />
    <glyph glyph-name="uni02E3" unicode="&#x2e3;" horiz-adv-x="878" 
d="M224 888l358 439l-190 405h173l96 -211q7 -14 15 -31t15 -34q13 17 25 33.5t24 31.5l173 211h181l-336 -411l204 -433h-173l-111 238q-7 15 -15 32.5t-15 33.5q-12 -17 -24.5 -33.5t-25.5 -32.5l-194 -238h-180z" />
    <glyph glyph-name="gravecomb" unicode="&#x300;" 
d="M581 1152l-291 312h257l218 -312h-184z" />
    </font>
</defs>
</svg>
